<svg viewBox="0 0 681 528" fill="none" xmlns="http://www.w3.org/2000/svg">
<path fill-rule="evenodd" clip-rule="evenodd" d="M116.228 285.69C121.045 388.357 230.999 435.736 329.459 466.291C422.705 495.229 533.11 510.804 592.412 433.467C654.947 351.915 627.748 239.199 567.34 156.07C506.598 72.4818 409.164 15.7794 309.663 44.3695C199.924 75.9016 110.893 171.986 116.228 285.69Z" fill="#EBF6F4"/>
<g filter="url(#filter0_ddd_37_781)">
<rect x="32" y="92" width="381" height="88" rx="24" fill="white"/>
<rect x="32.5" y="92.5" width="380" height="87" rx="23.5" stroke="#EAEFFD"/>
<rect x="64" y="128" width="28" height="16" rx="8" fill="#25A292"/>
<path d="M74.7899 133.961C74.5097 133.68 74.0555 133.68 73.7754 133.961L71.2391 136.51L70.2246 135.49C69.9445 135.209 69.4903 135.209 69.2101 135.49C68.93 135.772 68.93 136.228 69.2101 136.51L70.7319 138.039C71.012 138.32 71.4662 138.32 71.7464 138.039L74.7899 134.981C75.07 134.699 75.07 134.243 74.7899 133.961Z" fill="#04534C"/>
<g filter="url(#filter1_dd_37_781)">
<circle cx="84" cy="136" r="6" fill="white"/>
</g>
<path d="M101.776 143V131.8H103.28V141.624H107.792V143H101.776ZM110.706 132.84C110.178 132.84 109.746 132.408 109.746 131.88C109.746 131.368 110.178 130.936 110.706 130.936C111.234 130.936 111.65 131.368 111.65 131.88C111.65 132.408 111.234 132.84 110.706 132.84ZM110.018 143V134.936H111.378V143H110.018ZM121.421 141.672C120.669 142.68 119.469 143.32 117.965 143.32C115.245 143.32 113.565 141.32 113.565 138.968C113.565 136.52 115.133 134.616 117.629 134.616C119.821 134.616 121.245 136.152 121.245 138.136C121.245 138.456 121.197 138.76 121.149 138.984H114.957C115.005 140.92 116.237 142.088 117.965 142.088C119.005 142.088 119.885 141.608 120.413 140.888L121.421 141.672ZM117.597 135.768C116.269 135.768 115.341 136.552 115.053 137.944H119.885C119.837 136.76 119.021 135.768 117.597 135.768ZM123.549 143V134.936H124.909V135.944C125.501 135.24 126.237 134.776 127.261 134.776C127.517 134.776 127.757 134.808 127.949 134.872V136.2C127.709 136.136 127.469 136.104 127.149 136.104C126.093 136.104 125.405 136.648 124.909 137.464V143H123.549ZM134.221 143V134.936H135.581V135.816C136.189 135.112 136.989 134.616 138.109 134.616C139.277 134.616 140.237 135.144 140.733 136.168C141.373 135.288 142.221 134.616 143.613 134.616C145.341 134.616 146.605 135.768 146.605 137.96V143H145.245V138.008C145.245 136.664 144.493 135.896 143.341 135.896C142.317 135.896 141.597 136.472 141.069 137.416C141.085 137.592 141.101 137.768 141.101 137.96V143H139.741V138.008C139.741 136.664 139.005 135.896 137.837 135.896C136.733 135.896 136.045 136.584 135.581 137.416V143H134.221ZM151.538 143.224C149.954 143.224 148.882 142.344 148.882 140.968C148.882 139.752 149.81 138.888 151.522 138.6L154.242 138.152V137.592C154.242 136.472 153.442 135.832 152.29 135.832C151.362 135.832 150.61 136.264 150.114 136.952L149.09 136.168C149.794 135.208 150.93 134.616 152.338 134.616C154.386 134.616 155.602 135.816 155.602 137.592V143H154.242V141.976C153.634 142.76 152.578 143.224 151.538 143.224ZM150.258 140.92C150.258 141.608 150.818 142.104 151.762 142.104C152.834 142.104 153.714 141.592 154.242 140.728V139.144L151.858 139.544C150.754 139.736 150.258 140.232 150.258 140.92ZM166.355 142.04C167.347 142.04 168.163 141.56 168.659 140.856L169.731 141.672C168.979 142.68 167.811 143.32 166.339 143.32C163.667 143.32 161.955 141.32 161.955 138.968C161.955 136.616 163.667 134.616 166.339 134.616C167.795 134.616 168.979 135.272 169.731 136.264L168.659 137.08C168.163 136.376 167.347 135.896 166.339 135.896C164.611 135.896 163.379 137.256 163.379 138.968C163.379 140.696 164.611 142.04 166.355 142.04ZM173.679 143.224C172.095 143.224 171.023 142.344 171.023 140.968C171.023 139.752 171.951 138.888 173.663 138.6L176.383 138.152V137.592C176.383 136.472 175.583 135.832 174.431 135.832C173.503 135.832 172.751 136.264 172.255 136.952L171.231 136.168C171.935 135.208 173.071 134.616 174.479 134.616C176.527 134.616 177.743 135.816 177.743 137.592V143H176.383V141.976C175.775 142.76 174.719 143.224 173.679 143.224ZM172.399 140.92C172.399 141.608 172.959 142.104 173.903 142.104C174.975 142.104 175.855 141.592 176.383 140.728V139.144L173.999 139.544C172.895 139.736 172.399 140.232 172.399 140.92ZM180.471 143V134.936H181.831V135.944C182.423 135.24 183.159 134.776 184.183 134.776C184.439 134.776 184.679 134.808 184.871 134.872V136.2C184.631 136.136 184.391 136.104 184.071 136.104C183.015 136.104 182.327 136.648 181.831 137.464V143H180.471ZM187.67 140.296V136.168H186.15V134.936H187.67V132.92H189.046V134.936H191.846V136.168H189.046V140.296C189.046 141.56 189.686 141.912 190.662 141.912C191.19 141.912 191.558 141.848 191.862 141.72V142.936C191.478 143.096 191.046 143.16 190.47 143.16C188.678 143.16 187.67 142.264 187.67 140.296ZM200.936 141.672C200.184 142.68 198.984 143.32 197.48 143.32C194.76 143.32 193.08 141.32 193.08 138.968C193.08 136.52 194.648 134.616 197.144 134.616C199.336 134.616 200.76 136.152 200.76 138.136C200.76 138.456 200.712 138.76 200.664 138.984H194.472C194.52 140.92 195.752 142.088 197.48 142.088C198.52 142.088 199.4 141.608 199.928 140.888L200.936 141.672ZM197.112 135.768C195.784 135.768 194.856 136.552 194.568 137.944H199.4C199.352 136.76 198.536 135.768 197.112 135.768ZM215.746 138.968C215.746 141.32 214.13 143.32 211.602 143.32C210.402 143.32 209.458 142.856 208.738 142.04V143H207.378V131H208.738V135.896C209.458 135.08 210.402 134.616 211.602 134.616C214.13 134.616 215.746 136.616 215.746 138.968ZM211.442 135.896C210.322 135.896 209.33 136.44 208.738 137.384V140.552C209.362 141.512 210.338 142.04 211.442 142.04C213.154 142.04 214.322 140.68 214.322 138.968C214.322 137.256 213.154 135.896 211.442 135.896ZM220.148 143.224C218.564 143.224 217.492 142.344 217.492 140.968C217.492 139.752 218.42 138.888 220.132 138.6L222.852 138.152V137.592C222.852 136.472 222.052 135.832 220.9 135.832C219.972 135.832 219.22 136.264 218.724 136.952L217.7 136.168C218.404 135.208 219.54 134.616 220.948 134.616C222.996 134.616 224.212 135.816 224.212 137.592V143H222.852V141.976C222.244 142.76 221.188 143.224 220.148 143.224ZM218.868 140.92C218.868 141.608 219.428 142.104 220.372 142.104C221.444 142.104 222.324 141.592 222.852 140.728V139.144L220.468 139.544C219.364 139.736 218.868 140.232 218.868 140.92ZM226.94 143V134.936H228.3V135.848C228.956 135.128 229.788 134.616 230.988 134.616C232.796 134.616 234.14 135.832 234.14 138.12V143H232.78V138.168C232.78 136.728 231.964 135.896 230.716 135.896C229.548 135.896 228.812 136.568 228.3 137.416V143H226.94ZM240.59 142.04C241.582 142.04 242.398 141.56 242.894 140.856L243.966 141.672C243.214 142.68 242.046 143.32 240.574 143.32C237.902 143.32 236.19 141.32 236.19 138.968C236.19 136.616 237.902 134.616 240.574 134.616C242.03 134.616 243.214 135.272 243.966 136.264L242.894 137.08C242.398 136.376 241.582 135.896 240.574 135.896C238.846 135.896 237.614 137.256 237.614 138.968C237.614 140.696 238.846 142.04 240.59 142.04ZM247.913 143.224C246.329 143.224 245.257 142.344 245.257 140.968C245.257 139.752 246.185 138.888 247.897 138.6L250.617 138.152V137.592C250.617 136.472 249.817 135.832 248.665 135.832C247.737 135.832 246.985 136.264 246.489 136.952L245.465 136.168C246.169 135.208 247.305 134.616 248.713 134.616C250.761 134.616 251.977 135.816 251.977 137.592V143H250.617V141.976C250.009 142.76 248.953 143.224 247.913 143.224ZM246.633 140.92C246.633 141.608 247.193 142.104 248.137 142.104C249.209 142.104 250.089 141.592 250.617 140.728V139.144L248.233 139.544C247.129 139.736 246.633 140.232 246.633 140.92ZM255.394 132.84C254.866 132.84 254.434 132.408 254.434 131.88C254.434 131.368 254.866 130.936 255.394 130.936C255.922 130.936 256.338 131.368 256.338 131.88C256.338 132.408 255.922 132.84 255.394 132.84ZM254.706 143V134.936H256.066V143H254.706ZM258.94 143V134.936H260.3V135.944C260.892 135.24 261.628 134.776 262.652 134.776C262.908 134.776 263.148 134.808 263.34 134.872V136.2C263.1 136.136 262.86 136.104 262.54 136.104C261.484 136.104 260.796 136.648 260.3 137.464V143H258.94ZM271.983 141.672C271.231 142.68 270.031 143.32 268.527 143.32C265.807 143.32 264.127 141.32 264.127 138.968C264.127 136.52 265.695 134.616 268.191 134.616C270.383 134.616 271.807 136.152 271.807 138.136C271.807 138.456 271.759 138.76 271.711 138.984H265.519C265.567 140.92 266.799 142.088 268.527 142.088C269.567 142.088 270.447 141.608 270.975 140.888L271.983 141.672ZM268.159 135.768C266.831 135.768 265.903 136.552 265.615 137.944H270.447C270.399 136.76 269.583 135.768 268.159 135.768ZM280.776 133.656L278.904 131H280.424L282.088 133.656H280.776ZM280.616 143.224C279.032 143.224 277.96 142.344 277.96 140.968C277.96 139.752 278.888 138.888 280.6 138.6L283.32 138.152V137.592C283.32 136.472 282.52 135.832 281.368 135.832C280.44 135.832 279.688 136.264 279.192 136.952L278.168 136.168C278.872 135.208 280.008 134.616 281.416 134.616C283.464 134.616 284.68 135.816 284.68 137.592V143H283.32V141.976C282.712 142.76 281.656 143.224 280.616 143.224ZM279.336 140.92C279.336 141.608 279.896 142.104 280.84 142.104C281.912 142.104 282.792 141.592 283.32 140.728V139.144L280.936 139.544C279.832 139.736 279.336 140.232 279.336 140.92ZM296.985 141.912C298.489 141.912 299.721 141.176 300.473 140.088L301.673 141.016C300.649 142.408 299.001 143.32 296.985 143.32C293.481 143.32 291.097 140.6 291.097 137.4C291.097 134.2 293.481 131.48 296.985 131.48C299.001 131.48 300.649 132.408 301.673 133.784L300.473 134.712C299.721 133.624 298.489 132.888 296.985 132.888C294.457 132.888 292.649 134.904 292.649 137.4C292.649 139.896 294.457 141.912 296.985 141.912ZM305.866 143.224C304.282 143.224 303.21 142.344 303.21 140.968C303.21 139.752 304.138 138.888 305.85 138.6L308.57 138.152V137.592C308.57 136.472 307.77 135.832 306.618 135.832C305.69 135.832 304.938 136.264 304.442 136.952L303.418 136.168C304.122 135.208 305.258 134.616 306.666 134.616C308.714 134.616 309.93 135.816 309.93 137.592V143H308.57V141.976C307.962 142.76 306.906 143.224 305.866 143.224ZM304.586 140.92C304.586 141.608 305.146 142.104 306.09 142.104C307.162 142.104 308.042 141.592 308.57 140.728V139.144L306.186 139.544C305.082 139.736 304.586 140.232 304.586 140.92ZM312.659 143V134.936H314.019V135.944C314.611 135.24 315.347 134.776 316.371 134.776C316.627 134.776 316.867 134.808 317.059 134.872V136.2C316.819 136.136 316.579 136.104 316.259 136.104C315.203 136.104 314.515 136.648 314.019 137.464V143H312.659ZM319.857 140.296V136.168H318.337V134.936H319.857V132.92H321.233V134.936H324.033V136.168H321.233V140.296C321.233 141.56 321.873 141.912 322.849 141.912C323.377 141.912 323.745 141.848 324.049 141.72V142.936C323.665 143.096 323.233 143.16 322.657 143.16C320.865 143.16 319.857 142.264 319.857 140.296ZM333.124 141.672C332.372 142.68 331.172 143.32 329.668 143.32C326.948 143.32 325.268 141.32 325.268 138.968C325.268 136.52 326.836 134.616 329.332 134.616C331.524 134.616 332.948 136.152 332.948 138.136C332.948 138.456 332.9 138.76 332.852 138.984H326.66C326.708 140.92 327.94 142.088 329.668 142.088C330.708 142.088 331.588 141.608 332.116 140.888L333.124 141.672ZM329.3 135.768C327.972 135.768 327.044 136.552 326.756 137.944H331.588C331.54 136.76 330.724 135.768 329.3 135.768ZM338.557 131.8H340.157L344.029 141.48L347.901 131.8H349.501L345.021 143H343.037L338.557 131.8ZM357.655 141.672C356.903 142.68 355.703 143.32 354.199 143.32C351.479 143.32 349.799 141.32 349.799 138.968C349.799 136.52 351.367 134.616 353.863 134.616C356.055 134.616 357.479 136.152 357.479 138.136C357.479 138.456 357.431 138.76 357.383 138.984H351.191C351.239 140.92 352.471 142.088 354.199 142.088C355.239 142.088 356.119 141.608 356.647 140.888L357.655 141.672ZM353.831 135.768C352.503 135.768 351.575 136.552 351.287 137.944H356.119C356.071 136.76 355.255 135.768 353.831 135.768ZM359.784 143V134.936H361.144V135.944C361.736 135.24 362.472 134.776 363.496 134.776C363.752 134.776 363.992 134.808 364.184 134.872V136.2C363.944 136.136 363.704 136.104 363.384 136.104C362.328 136.104 361.64 136.648 361.144 137.464V143H359.784ZM366.982 140.296V136.168H365.462V134.936H366.982V132.92H368.358V134.936H371.158V136.168H368.358V140.296C368.358 141.56 368.998 141.912 369.974 141.912C370.502 141.912 370.87 141.848 371.174 141.72V142.936C370.79 143.096 370.358 143.16 369.782 143.16C367.99 143.16 366.982 142.264 366.982 140.296ZM380.249 141.672C379.497 142.68 378.297 143.32 376.793 143.32C374.073 143.32 372.393 141.32 372.393 138.968C372.393 136.52 373.961 134.616 376.457 134.616C378.649 134.616 380.073 136.152 380.073 138.136C380.073 138.456 380.025 138.76 379.977 138.984H373.785C373.833 140.92 375.065 142.088 376.793 142.088C377.833 142.088 378.713 141.608 379.241 140.888L380.249 141.672ZM376.425 135.768C375.097 135.768 374.169 136.552 373.881 137.944H378.713C378.665 136.76 377.849 135.768 376.425 135.768Z" fill="#141B33"/>
</g>
<g filter="url(#filter2_ddd_37_781)">
<rect x="97" y="212" width="552" height="223.418" rx="24" fill="white"/>
<rect x="97.5" y="212.5" width="551" height="222.418" rx="23.5" stroke="#EAEFFD"/>
<path d="M143.704 261.912C145.208 261.912 146.44 261.176 147.192 260.088L148.392 261.016C147.368 262.408 145.72 263.32 143.704 263.32C140.2 263.32 137.816 260.6 137.816 257.4C137.816 254.2 140.2 251.48 143.704 251.48C145.72 251.48 147.368 252.408 148.392 253.784L147.192 254.712C146.44 253.624 145.208 252.888 143.704 252.888C141.176 252.888 139.368 254.904 139.368 257.4C139.368 259.896 141.176 261.912 143.704 261.912ZM152.585 263.224C151.001 263.224 149.929 262.344 149.929 260.968C149.929 259.752 150.857 258.888 152.569 258.6L155.289 258.152V257.592C155.289 256.472 154.489 255.832 153.337 255.832C152.409 255.832 151.657 256.264 151.161 256.952L150.137 256.168C150.841 255.208 151.977 254.616 153.385 254.616C155.433 254.616 156.649 255.816 156.649 257.592V263H155.289V261.976C154.681 262.76 153.625 263.224 152.585 263.224ZM151.305 260.92C151.305 261.608 151.865 262.104 152.809 262.104C153.881 262.104 154.761 261.592 155.289 260.728V259.144L152.905 259.544C151.801 259.736 151.305 260.232 151.305 260.92ZM159.378 263V254.936H160.738V255.944C161.33 255.24 162.066 254.776 163.09 254.776C163.346 254.776 163.586 254.808 163.778 254.872V256.2C163.538 256.136 163.298 256.104 162.978 256.104C161.922 256.104 161.234 256.648 160.738 257.464V263H159.378ZM166.576 260.296V256.168H165.056V254.936H166.576V252.92H167.952V254.936H170.752V256.168H167.952V260.296C167.952 261.56 168.592 261.912 169.568 261.912C170.096 261.912 170.464 261.848 170.768 261.72V262.936C170.384 263.096 169.952 263.16 169.376 263.16C167.584 263.16 166.576 262.264 166.576 260.296ZM179.842 261.672C179.09 262.68 177.89 263.32 176.386 263.32C173.666 263.32 171.986 261.32 171.986 258.968C171.986 256.52 173.554 254.616 176.05 254.616C178.242 254.616 179.666 256.152 179.666 258.136C179.666 258.456 179.618 258.76 179.57 258.984H173.378C173.426 260.92 174.658 262.088 176.386 262.088C177.426 262.088 178.306 261.608 178.834 260.888L179.842 261.672ZM176.018 255.768C174.69 255.768 173.762 256.552 173.474 257.944H178.306C178.258 256.76 177.442 255.768 176.018 255.768ZM186.62 263V251.8H189.388C191.532 251.8 192.828 252.936 192.828 254.712C192.828 255.72 192.364 256.536 191.484 257.016C192.796 257.48 193.5 258.504 193.5 259.784C193.5 261.752 192.044 263 189.66 263H186.62ZM189.404 253.08H188.124V256.456H189.404C190.588 256.456 191.276 255.848 191.276 254.744C191.276 253.688 190.588 253.08 189.404 253.08ZM189.724 257.736H188.124V261.72H189.724C191.116 261.72 191.948 260.984 191.948 259.72C191.948 258.456 191.116 257.736 189.724 257.736ZM198.07 263.224C196.486 263.224 195.414 262.344 195.414 260.968C195.414 259.752 196.342 258.888 198.054 258.6L200.774 258.152V257.592C200.774 256.472 199.974 255.832 198.822 255.832C197.894 255.832 197.142 256.264 196.646 256.952L195.622 256.168C196.326 255.208 197.462 254.616 198.87 254.616C200.918 254.616 202.134 255.816 202.134 257.592V263H200.774V261.976C200.166 262.76 199.11 263.224 198.07 263.224ZM196.789 260.92C196.789 261.608 197.35 262.104 198.294 262.104C199.366 262.104 200.246 261.592 200.774 260.728V259.144L198.39 259.544C197.286 259.736 196.789 260.232 196.789 260.92ZM204.862 263V254.936H206.222V255.848C206.878 255.128 207.71 254.616 208.91 254.616C210.718 254.616 212.062 255.832 212.062 258.12V263H210.702V258.168C210.702 256.728 209.886 255.896 208.638 255.896C207.47 255.896 206.734 256.568 206.222 257.416V263H204.862ZM218.511 262.04C219.503 262.04 220.319 261.56 220.815 260.856L221.887 261.672C221.135 262.68 219.967 263.32 218.495 263.32C215.823 263.32 214.111 261.32 214.111 258.968C214.111 256.616 215.823 254.616 218.495 254.616C219.951 254.616 221.135 255.272 221.887 256.264L220.815 257.08C220.319 256.376 219.503 255.896 218.495 255.896C216.767 255.896 215.535 257.256 215.535 258.968C215.535 260.696 216.767 262.04 218.511 262.04ZM225.835 263.224C224.251 263.224 223.179 262.344 223.179 260.968C223.179 259.752 224.107 258.888 225.819 258.6L228.539 258.152V257.592C228.539 256.472 227.739 255.832 226.587 255.832C225.659 255.832 224.907 256.264 224.411 256.952L223.387 256.168C224.091 255.208 225.227 254.616 226.635 254.616C228.683 254.616 229.899 255.816 229.899 257.592V263H228.539V261.976C227.931 262.76 226.875 263.224 225.835 263.224ZM224.555 260.92C224.555 261.608 225.115 262.104 226.059 262.104C227.131 262.104 228.011 261.592 228.539 260.728V259.144L226.155 259.544C225.051 259.736 224.555 260.232 224.555 260.92ZM233.316 252.84C232.788 252.84 232.356 252.408 232.356 251.88C232.356 251.368 232.788 250.936 233.316 250.936C233.844 250.936 234.26 251.368 234.26 251.88C234.26 252.408 233.844 252.84 233.316 252.84ZM232.628 263V254.936H233.988V263H232.628ZM236.862 263V254.936H238.222V255.944C238.814 255.24 239.55 254.776 240.574 254.776C240.83 254.776 241.07 254.808 241.262 254.872V256.2C241.022 256.136 240.782 256.104 240.462 256.104C239.406 256.104 238.718 256.648 238.222 257.464V263H236.862ZM249.905 261.672C249.153 262.68 247.953 263.32 246.449 263.32C243.729 263.32 242.049 261.32 242.049 258.968C242.049 256.52 243.617 254.616 246.113 254.616C248.305 254.616 249.729 256.152 249.729 258.136C249.729 258.456 249.681 258.76 249.633 258.984H243.441C243.489 260.92 244.721 262.088 246.449 262.088C247.489 262.088 248.369 261.608 248.897 260.888L249.905 261.672ZM246.081 255.768C244.753 255.768 243.825 256.552 243.537 257.944H248.369C248.321 256.76 247.505 255.768 246.081 255.768Z" fill="#141B33"/>
<rect x="267" y="246" width="70" height="20" rx="4" fill="#E8EDFF"/>
<path fill-rule="evenodd" clip-rule="evenodd" d="M277 261C274.238 261 272 258.762 272 256C272 253.238 274.238 251 277 251C279.762 251 282 253.238 282 256C282 258.762 279.762 261 277 261ZM277 260C279.209 260 281 258.209 281 256C281 253.791 279.209 252 277 252C274.791 252 273 253.791 273 256C273 258.209 274.791 260 277 260ZM276.502 258L274.38 255.878L275.087 255.172L276.502 256.586L279.33 253.757L280.037 254.464L276.502 258Z" fill="#0063CB"/>
<path d="M285.18 261L288.36 252.6H290.592L293.772 261H291.96L291.156 258.816H287.796L286.992 261H285.18ZM288.324 257.364H290.628L289.476 254.208L288.324 257.364ZM298.746 259.644C299.706 259.644 300.462 259.176 300.942 258.492L302.286 259.524C301.518 260.568 300.27 261.24 298.746 261.24C296.094 261.24 294.282 259.2 294.282 256.8C294.282 254.4 296.094 252.36 298.746 252.36C300.27 252.36 301.518 253.044 302.286 254.064L300.942 255.108C300.462 254.424 299.706 253.956 298.746 253.956C297.162 253.956 296.034 255.192 296.034 256.8C296.034 258.408 297.162 259.644 298.746 259.644ZM303.02 254.148V252.6H309.908V254.148H307.316V261H305.612V254.148H303.02ZM311.525 261V252.6H313.229V261H311.525ZM314.641 252.6H316.453L318.937 259.164L321.421 252.6H323.233L320.053 261H317.821L314.641 252.6ZM324.65 261V252.6H329.546V254.016H326.354V256.008H329.066V257.424H326.354V259.584H329.546V261H324.65Z" fill="#0063CB"/>
<g filter="url(#filter3_dd_37_781)">
<g clip-path="url(#clip0_37_781)">
<rect x="137" y="276" width="200" height="119.418" rx="8" fill="url(#paint0_linear_37_781)"/>
<path fill-rule="evenodd" clip-rule="evenodd" d="M135.538 422.946C135.216 392.173 161.448 370.077 190.61 360.076C221.744 349.398 258.129 348.277 278.878 373.785C302.996 403.432 309.824 447.398 285.866 477.174C264.153 504.16 224.498 493.666 191.885 481.902C163.591 471.695 135.852 452.97 135.538 422.946Z" fill="#156CC8" fill-opacity="0.16"/>
<g style="mix-blend-mode:multiply">
<path fill-rule="evenodd" clip-rule="evenodd" d="M210.83 399.216C210.508 368.443 236.741 346.347 265.903 336.346C297.036 325.668 333.421 324.547 354.171 350.055C378.288 379.702 385.117 423.668 361.158 453.444C339.445 480.43 299.791 469.936 267.177 458.172C238.884 447.965 211.144 429.24 210.83 399.216Z" fill="#156DCB" fill-opacity="0.08"/>
</g>
<g clip-path="url(#clip1_37_781)">
<path fill-rule="evenodd" clip-rule="evenodd" d="M320.03 289.44C320.423 289.22 320.921 289.36 321.141 289.752C322.464 292.104 323.159 294.77 323.159 297.482C323.159 300.195 322.464 302.861 321.141 305.213C320.921 305.604 320.423 305.744 320.03 305.525C319.637 305.306 319.496 304.811 319.716 304.42C320.901 302.312 321.526 299.919 321.526 297.482C321.526 295.045 320.901 292.653 319.716 290.545C319.496 290.154 319.637 289.659 320.03 289.44ZM316.887 291.053C317.281 290.834 317.778 290.974 317.998 291.365C319.045 293.227 319.595 295.336 319.595 297.482C319.595 299.628 319.045 301.738 317.998 303.599C317.778 303.991 317.281 304.131 316.887 303.912C316.494 303.693 316.353 303.198 316.573 302.806C317.483 301.189 317.962 299.353 317.962 297.482C317.962 295.612 317.483 293.776 316.573 292.159C316.353 291.767 316.494 291.272 316.887 291.053ZM313.89 292.533C314.285 292.315 314.782 292.457 315 292.85C315.775 294.243 316.182 295.82 316.182 297.424C316.182 299.027 315.775 300.605 315 301.998C314.782 302.39 314.285 302.532 313.89 302.315C313.496 302.097 313.353 301.603 313.572 301.21C314.211 300.061 314.549 298.755 314.549 297.424C314.549 296.092 314.211 294.786 313.572 293.637C313.353 293.244 313.496 292.75 313.89 292.533ZM310.846 294.158C311.225 293.916 311.73 294.026 311.973 294.404C312.566 295.326 312.882 296.392 312.882 297.482C312.882 298.572 312.566 299.639 311.973 300.561C311.73 300.938 311.225 301.049 310.846 300.807C310.466 300.565 310.355 300.062 310.598 299.684C311.024 299.022 311.249 298.259 311.249 297.482C311.249 296.705 311.024 295.942 310.598 295.28C310.355 294.902 310.466 294.4 310.846 294.158Z" fill="white"/>
</g>
<g filter="url(#filter4_ii_37_781)">
<path d="M150.333 315.12C150.333 313.724 151.47 312.592 152.873 312.592H174.46C175.863 312.592 177 313.724 177 315.12V329.103C177 330.498 175.863 331.63 174.46 331.63H152.873C151.47 331.63 150.333 330.498 150.333 329.103V315.12Z" fill="#CDC9C1"/>
<path d="M150.333 315.12C150.333 313.724 151.47 312.592 152.873 312.592H174.46C175.863 312.592 177 313.724 177 315.12V329.103C177 330.498 175.863 331.63 174.46 331.63H152.873C151.47 331.63 150.333 330.498 150.333 329.103V315.12Z" fill="url(#paint1_radial_37_781)" fill-opacity="0.1"/>
<path d="M150.333 315.12C150.333 313.724 151.47 312.592 152.873 312.592H174.46C175.863 312.592 177 313.724 177 315.12V329.103C177 330.498 175.863 331.63 174.46 331.63H152.873C151.47 331.63 150.333 330.498 150.333 329.103V315.12Z" fill="url(#paint2_radial_37_781)" fill-opacity="0.1"/>
<path d="M150.333 315.12C150.333 313.724 151.47 312.592 152.873 312.592H174.46C175.863 312.592 177 313.724 177 315.12V329.103C177 330.498 175.863 331.63 174.46 331.63H152.873C151.47 331.63 150.333 330.498 150.333 329.103V315.12Z" fill="url(#paint3_radial_37_781)" fill-opacity="0.1"/>
</g>
<mask id="mask0_37_781" style="mask-type:alpha" maskUnits="userSpaceOnUse" x="150" y="312" width="28" height="20">
<path d="M150.333 315.12C150.333 313.724 151.47 312.592 152.873 312.592H174.46C175.863 312.592 177 313.724 177 315.12V329.103C177 330.498 175.863 331.63 174.46 331.63H152.873C151.47 331.63 150.333 330.498 150.333 329.103V315.12Z" fill="#D9D9D9"/>
</mask>
<g mask="url(#mask0_37_781)">
<path fill-rule="evenodd" clip-rule="evenodd" d="M150.175 314.955C150.175 314.519 150.53 314.165 150.968 314.165H157.235C157.673 314.165 158.028 314.519 158.028 314.955V318.883C158.028 319.319 157.673 319.673 157.235 319.673H150.968C150.53 319.673 150.175 319.319 150.175 318.883V314.955ZM150.968 314.481C150.705 314.481 150.492 314.693 150.492 314.955V318.883C150.492 319.145 150.705 319.357 150.968 319.357H157.235C157.498 319.357 157.711 319.145 157.711 318.883V314.955C157.711 314.693 157.498 314.481 157.235 314.481H150.968Z" fill="#10141E"/>
<path fill-rule="evenodd" clip-rule="evenodd" d="M150.175 320.147C150.175 319.711 150.53 319.357 150.968 319.357H157.235C157.673 319.357 158.028 319.711 158.028 320.147V324.075C158.028 324.511 157.673 324.865 157.235 324.865H150.968C150.53 324.865 150.175 324.511 150.175 324.075V320.147ZM150.968 319.673C150.705 319.673 150.492 319.885 150.492 320.147V324.075C150.492 324.337 150.705 324.549 150.968 324.549H157.235C157.498 324.549 157.711 324.337 157.711 324.075V320.147C157.711 319.885 157.498 319.673 157.235 319.673H150.968Z" fill="#10141E"/>
<path fill-rule="evenodd" clip-rule="evenodd" d="M159.45 319.57C159.45 319.134 159.805 318.78 160.244 318.78H168.829C169.267 318.78 169.623 319.134 169.623 319.57V319.749C169.623 320.185 169.267 320.538 168.829 320.538H168.36C168.097 320.538 167.883 320.751 167.883 321.012V325.229C167.883 325.665 167.528 326.019 167.09 326.019H158.505C158.066 326.019 157.711 325.665 157.711 325.229V324.762C157.711 324.326 158.066 323.972 158.505 323.972H158.974C159.237 323.972 159.45 323.76 159.45 323.498V319.57ZM160.244 319.096C159.981 319.096 159.768 319.308 159.768 319.57V323.498C159.768 323.935 159.412 324.288 158.974 324.288H158.505C158.242 324.288 158.028 324.5 158.028 324.762V325.229C158.028 325.491 158.242 325.703 158.505 325.703H167.09C167.353 325.703 167.566 325.491 167.566 325.229V321.012C167.566 320.576 167.921 320.223 168.36 320.223H168.829C169.092 320.223 169.305 320.01 169.305 319.749V319.57C169.305 319.308 169.092 319.096 168.829 319.096H160.244Z" fill="#10141E"/>
<path fill-rule="evenodd" clip-rule="evenodd" d="M150.175 325.339C150.175 324.903 150.53 324.549 150.968 324.549H157.235C157.673 324.549 158.028 324.903 158.028 325.339V329.268C158.028 329.704 157.673 330.057 157.235 330.057H150.968C150.53 330.057 150.175 329.704 150.175 329.268V325.339ZM150.968 324.865C150.705 324.865 150.492 325.077 150.492 325.339V329.268C150.492 329.529 150.705 329.741 150.968 329.741H157.235C157.498 329.741 157.711 329.529 157.711 329.268V325.339C157.711 325.077 157.498 324.865 157.235 324.865H150.968Z" fill="#10141E"/>
<path fill-rule="evenodd" clip-rule="evenodd" d="M169.305 314.955C169.305 314.519 169.66 314.165 170.099 314.165H176.365C176.803 314.165 177.159 314.519 177.159 314.955V318.883C177.159 319.319 176.803 319.673 176.365 319.673H170.099C169.66 319.673 169.305 319.319 169.305 318.883V314.955ZM170.099 314.481C169.836 314.481 169.623 314.693 169.623 314.955V318.883C169.623 319.145 169.836 319.357 170.099 319.357H176.365C176.628 319.357 176.841 319.145 176.841 318.883V314.955C176.841 314.693 176.628 314.481 176.365 314.481H170.099Z" fill="#10141E"/>
<path fill-rule="evenodd" clip-rule="evenodd" d="M169.305 320.147C169.305 319.711 169.66 319.357 170.099 319.357H176.365C176.803 319.357 177.159 319.711 177.159 320.147V324.075C177.159 324.511 176.803 324.865 176.365 324.865H170.099C169.66 324.865 169.305 324.511 169.305 324.075V320.147ZM170.099 319.673C169.836 319.673 169.623 319.885 169.623 320.147V324.075C169.623 324.337 169.836 324.549 170.099 324.549H176.365C176.628 324.549 176.841 324.337 176.841 324.075V320.147C176.841 319.885 176.628 319.673 176.365 319.673H170.099Z" fill="#10141E"/>
<path fill-rule="evenodd" clip-rule="evenodd" d="M169.305 325.339C169.305 324.903 169.66 324.549 170.099 324.549H176.365C176.803 324.549 177.159 324.903 177.159 325.339V329.268C177.159 329.704 176.803 330.057 176.365 330.057H170.099C169.66 330.057 169.305 329.704 169.305 329.268V325.339ZM170.099 324.865C169.836 324.865 169.623 325.077 169.623 325.339V329.268C169.623 329.529 169.836 329.741 170.099 329.741H176.365C176.628 329.741 176.841 329.529 176.841 329.268V325.339C176.841 325.077 176.628 324.865 176.365 324.865H170.099Z" fill="#10141E"/>
</g>
<path d="M153.423 341.317V342.027L152.421 341.984L153.007 342.793L152.378 343.172L151.881 342.264L151.384 343.172L150.768 342.793L151.341 341.984L150.348 342.032V341.322L151.341 341.378L150.768 340.556L151.384 340.177L151.881 341.085L152.378 340.177L153.007 340.556L152.425 341.378L153.423 341.317Z" fill="white"/>
<path d="M158.596 341.314V342.024L157.594 341.98L158.18 342.789L157.551 343.168L157.054 342.26L156.557 343.168L155.941 342.789L156.515 341.98L155.521 342.028V341.318L156.515 341.374L155.941 340.552L156.557 340.173L157.054 341.081L157.551 340.173L158.18 340.552L157.598 341.374L158.596 341.314Z" fill="white"/>
<path d="M163.769 341.309V342.019L162.767 341.976L163.353 342.785L162.724 343.164L162.227 342.256L161.73 343.164L161.114 342.785L161.687 341.976L160.694 342.023V341.313L161.687 341.369L161.114 340.548L161.73 340.169L162.227 341.077L162.724 340.169L163.353 340.548L162.771 341.369L163.769 341.309Z" fill="white"/>
<path d="M168.942 341.305V342.015L167.94 341.972L168.527 342.781L167.897 343.159L167.4 342.251L166.904 343.159L166.287 342.781L166.861 341.972L165.867 342.019V341.309L166.861 341.365L166.287 340.543L166.904 340.165L167.4 341.072L167.897 340.165L168.527 340.543L167.944 341.365L168.942 341.305Z" fill="white"/>
<path d="M177.699 341.296V342.006L176.697 341.963L177.284 342.772L176.654 343.15L176.158 342.243L175.661 343.15L175.044 342.772L175.618 341.963L174.625 342.01V341.3L175.618 341.356L175.044 340.534L175.661 340.156L176.158 341.064L176.654 340.156L177.284 340.534L176.701 341.356L177.699 341.296Z" fill="white"/>
<path d="M182.872 341.296V342.006L181.87 341.963L182.457 342.772L181.827 343.15L181.331 342.243L180.834 343.15L180.217 342.772L180.791 341.963L179.798 342.01V341.3L180.791 341.356L180.217 340.534L180.834 340.156L181.331 341.064L181.827 340.156L182.457 340.534L181.875 341.356L182.872 341.296Z" fill="white"/>
<path d="M188.045 341.292V342.002L187.039 341.955L187.626 342.764L186.996 343.142L186.5 342.234L186.003 343.142L185.386 342.764L185.96 341.955L184.966 342.002V341.292L185.96 341.348L185.386 340.526L186.003 340.147L186.5 341.055L186.996 340.147L187.626 340.526L187.043 341.348L188.045 341.292Z" fill="white"/>
<path d="M193.218 341.288V341.998L192.212 341.955L192.799 342.764L192.169 343.142L191.672 342.234L191.176 343.142L190.559 342.764L191.133 341.955L190.139 342.002V341.292L191.133 341.348L190.559 340.526L191.176 340.147L191.672 341.055L192.169 340.147L192.799 340.522L192.216 341.344L193.218 341.288Z" fill="white"/>
<path d="M201.976 341.279V341.989L200.974 341.946L201.56 342.755L200.931 343.133L200.434 342.225L199.937 343.133L199.321 342.755L199.895 341.946L198.901 341.993V341.283L199.895 341.339L199.321 340.517L199.937 340.139L200.434 341.047L200.931 340.139L201.56 340.517L200.978 341.339L201.976 341.279Z" fill="white"/>
<path d="M207.145 341.279V341.989L206.143 341.946L206.729 342.755L206.1 343.133L205.603 342.225L205.106 343.133L204.49 342.755L205.063 341.946L204.07 341.993V341.283L205.063 341.339L204.49 340.517L205.106 340.139L205.603 341.047L206.1 340.139L206.729 340.513L206.147 341.335L207.145 341.279Z" fill="white"/>
<path d="M212.318 341.274V341.984L211.316 341.941L211.902 342.75L211.273 343.129L210.776 342.221L210.279 343.129L209.663 342.75L210.237 341.941L209.243 341.989V341.279L210.237 341.335L209.663 340.513L210.279 340.134L210.776 341.042L211.273 340.134L211.902 340.513L211.32 341.335L212.318 341.274Z" fill="white"/>
<path d="M217.491 341.27V341.98L216.489 341.937L217.075 342.746L216.446 343.125L215.949 342.217L215.452 343.125L214.836 342.746L215.41 341.937L214.416 341.984V341.274L215.41 341.33L214.836 340.509L215.452 340.13L215.949 341.038L216.446 340.13L217.075 340.509L216.493 341.33L217.491 341.27Z" fill="white"/>
<path d="M222.934 348.026V347.182L225.657 344.385C226.385 343.654 226.749 343.026 226.749 342.501C226.749 342.066 226.617 341.726 226.351 341.481C226.086 341.236 225.764 341.115 225.379 341.115C224.651 341.115 224.12 341.464 223.79 342.157L222.929 341.649C223.169 341.146 223.508 340.767 223.936 340.509C224.364 340.251 224.844 340.121 225.362 340.117C226.008 340.117 226.569 340.332 227.049 340.758C227.529 341.189 227.768 341.761 227.768 342.488C227.768 343.271 227.31 344.127 226.394 345.052L224.424 347.023L227.914 347.019V348.017L222.934 348.026Z" fill="white"/>
<path d="M232.543 343.439C233.134 343.551 233.614 343.805 233.991 344.205C234.368 344.605 234.556 345.108 234.556 345.724C234.556 346.477 234.299 347.07 233.785 347.509C233.271 347.948 232.646 348.163 231.91 348.163C231.323 348.163 230.8 348.03 230.342 347.759C229.888 347.488 229.563 347.1 229.37 346.588L230.231 346.076C230.458 346.795 231.019 347.152 231.91 347.152C232.389 347.152 232.779 347.027 233.079 346.773C233.378 346.524 233.533 346.171 233.528 345.719C233.528 345.268 233.378 344.915 233.074 344.661C232.775 344.407 232.385 344.278 231.905 344.278H231.64L231.233 343.645L233.019 341.219L229.589 341.223V340.259L234.222 340.255L234.218 341.158L232.543 343.439Z" fill="white"/>
<path d="M242.174 345.573V346.537H241.236V348.013H240.213V346.537L236.277 346.541V345.577L239.044 340.255H240.149L237.382 345.577H240.217V343.383H241.241V345.577L242.174 345.573Z" fill="white"/>
<path d="M246.208 343.276C246.936 343.276 247.553 343.491 248.058 343.921C248.564 344.351 248.816 344.949 248.816 345.711C248.816 346.464 248.559 347.058 248.045 347.497C247.531 347.935 246.906 348.151 246.17 348.151C245.583 348.151 245.056 348.009 244.594 347.725C244.131 347.441 243.806 347.028 243.622 346.49L244.491 345.991C244.594 346.369 244.795 346.653 245.086 346.851C245.382 347.049 245.741 347.144 246.165 347.144C246.649 347.144 247.043 347.019 247.347 346.765C247.647 346.516 247.797 346.163 247.797 345.711C247.797 345.259 247.647 344.906 247.343 344.652C247.039 344.399 246.654 344.27 246.183 344.27H243.999L244.273 340.246L248.508 340.242V341.206L245.21 341.21L245.078 343.271L246.208 343.276Z" fill="white"/>
<path d="M323.541 363.514C323.541 362.805 323.4 362.096 323.116 361.388C322.833 360.679 322.407 360.112 321.982 359.687C321.415 359.12 320.848 358.694 320.139 358.553C319.431 358.269 318.58 358.269 317.446 358.269H301.854V363.514V368.759H317.304C318.438 368.759 319.431 368.617 319.998 368.475C320.706 368.192 321.273 367.908 321.84 367.341C322.407 366.774 322.691 366.207 322.974 365.64C323.4 364.931 323.541 364.223 323.541 363.514Z" fill="white"/>
<path d="M323.541 376.413C323.541 375.704 323.4 374.995 323.116 374.286C322.833 373.578 322.407 373.011 321.982 372.585C321.415 372.018 320.848 371.593 320.139 371.451C319.431 371.168 318.58 371.168 317.446 371.168H301.854V376.413V381.657H317.304C318.438 381.657 319.431 381.516 319.998 381.374C320.706 381.09 321.273 380.807 321.84 380.24C322.407 379.673 322.691 379.106 322.974 378.539C323.4 377.83 323.541 377.121 323.541 376.413Z" fill="white"/>
<path d="M299.727 368.758C299.16 361.954 294.341 357.418 286.686 357.418C278.607 357.418 273.646 362.38 273.646 369.892C273.646 377.689 278.89 382.366 286.686 382.366C294.341 382.366 299.16 377.972 299.727 371.026H286.545V368.617H299.727V368.758Z" fill="white"/>
</g>
</g>
<path d="M366.463 328.142C368.216 326.626 370.501 325.709 373 325.709C378.523 325.709 383 330.186 383 335.709C383 337.845 382.33 339.825 381.189 341.45L378 335.709H381C381 331.291 377.418 327.709 373 327.709C370.85 327.709 368.898 328.557 367.46 329.937L366.463 328.142ZM379.537 343.276C377.784 344.792 375.499 345.709 373 345.709C367.477 345.709 363 341.232 363 335.709C363 333.573 363.67 331.593 364.811 329.968L368 335.709H365C365 340.127 368.582 343.709 373 343.709C375.15 343.709 377.102 342.861 378.54 341.481L379.537 343.276Z" fill="#9CAAD2"/>
<path d="M415.704 261.912C417.208 261.912 418.44 261.176 419.192 260.088L420.392 261.016C419.368 262.408 417.72 263.32 415.704 263.32C412.2 263.32 409.816 260.6 409.816 257.4C409.816 254.2 412.2 251.48 415.704 251.48C417.72 251.48 419.368 252.408 420.392 253.784L419.192 254.712C418.44 253.624 417.208 252.888 415.704 252.888C413.176 252.888 411.368 254.904 411.368 257.4C411.368 259.896 413.176 261.912 415.704 261.912ZM424.585 263.224C423.001 263.224 421.929 262.344 421.929 260.968C421.929 259.752 422.857 258.888 424.569 258.6L427.289 258.152V257.592C427.289 256.472 426.489 255.832 425.337 255.832C424.409 255.832 423.657 256.264 423.161 256.952L422.137 256.168C422.841 255.208 423.977 254.616 425.385 254.616C427.433 254.616 428.649 255.816 428.649 257.592V263H427.289V261.976C426.681 262.76 425.625 263.224 424.585 263.224ZM423.305 260.92C423.305 261.608 423.865 262.104 424.809 262.104C425.881 262.104 426.761 261.592 427.289 260.728V259.144L424.905 259.544C423.801 259.736 423.305 260.232 423.305 260.92ZM431.378 263V254.936H432.738V255.944C433.33 255.24 434.066 254.776 435.09 254.776C435.346 254.776 435.586 254.808 435.778 254.872V256.2C435.538 256.136 435.298 256.104 434.978 256.104C433.922 256.104 433.234 256.648 432.738 257.464V263H431.378ZM438.576 260.296V256.168H437.056V254.936H438.576V252.92H439.952V254.936H442.752V256.168H439.952V260.296C439.952 261.56 440.592 261.912 441.568 261.912C442.096 261.912 442.464 261.848 442.768 261.72V262.936C442.384 263.096 441.952 263.16 441.376 263.16C439.584 263.16 438.576 262.264 438.576 260.296ZM451.842 261.672C451.09 262.68 449.89 263.32 448.386 263.32C445.666 263.32 443.986 261.32 443.986 258.968C443.986 256.52 445.554 254.616 448.05 254.616C450.242 254.616 451.666 256.152 451.666 258.136C451.666 258.456 451.618 258.76 451.57 258.984H445.378C445.426 260.92 446.658 262.088 448.386 262.088C449.426 262.088 450.306 261.608 450.834 260.888L451.842 261.672ZM448.018 255.768C446.69 255.768 445.762 256.552 445.474 257.944H450.306C450.258 256.76 449.442 255.768 448.018 255.768ZM457.276 251.8H458.876L462.748 261.48L466.62 251.8H468.22L463.74 263H461.756L457.276 251.8ZM476.374 261.672C475.622 262.68 474.422 263.32 472.918 263.32C470.198 263.32 468.518 261.32 468.518 258.968C468.518 256.52 470.086 254.616 472.582 254.616C474.774 254.616 476.198 256.152 476.198 258.136C476.198 258.456 476.15 258.76 476.102 258.984H469.91C469.958 260.92 471.19 262.088 472.918 262.088C473.958 262.088 474.838 261.608 475.366 260.888L476.374 261.672ZM472.55 255.768C471.222 255.768 470.294 256.552 470.006 257.944H474.838C474.79 256.76 473.974 255.768 472.55 255.768ZM478.503 263V254.936H479.863V255.944C480.455 255.24 481.191 254.776 482.215 254.776C482.471 254.776 482.711 254.808 482.903 254.872V256.2C482.663 256.136 482.423 256.104 482.103 256.104C481.047 256.104 480.359 256.648 479.863 257.464V263H478.503ZM485.701 260.296V256.168H484.181V254.936H485.701V252.92H487.077V254.936H489.877V256.168H487.077V260.296C487.077 261.56 487.717 261.912 488.693 261.912C489.221 261.912 489.589 261.848 489.893 261.72V262.936C489.509 263.096 489.077 263.16 488.501 263.16C486.709 263.16 485.701 262.264 485.701 260.296ZM498.967 261.672C498.215 262.68 497.015 263.32 495.511 263.32C492.791 263.32 491.111 261.32 491.111 258.968C491.111 256.52 492.679 254.616 495.175 254.616C497.367 254.616 498.791 256.152 498.791 258.136C498.791 258.456 498.743 258.76 498.695 258.984H492.503C492.551 260.92 493.783 262.088 495.511 262.088C496.551 262.088 497.431 261.608 497.959 260.888L498.967 261.672ZM495.143 255.768C493.815 255.768 492.887 256.552 492.599 257.944H497.431C497.383 256.76 496.567 255.768 495.143 255.768Z" fill="#141B33"/>
<rect x="539" y="246" width="70" height="20" rx="4" fill="#E8EDFF"/>
<path fill-rule="evenodd" clip-rule="evenodd" d="M549 261C546.238 261 544 258.762 544 256C544 253.238 546.238 251 549 251C551.762 251 554 253.238 554 256C554 258.762 551.762 261 549 261ZM549 260C551.209 260 553 258.209 553 256C553 253.791 551.209 252 549 252C546.791 252 545 253.791 545 256C545 258.209 546.791 260 549 260ZM548.502 258L546.38 255.878L547.087 255.172L548.502 256.586L551.33 253.757L552.037 254.464L548.502 258Z" fill="#0063CB"/>
<path d="M557.18 261L560.36 252.6H562.592L565.772 261H563.96L563.156 258.816H559.796L558.992 261H557.18ZM560.324 257.364H562.628L561.476 254.208L560.324 257.364ZM570.746 259.644C571.706 259.644 572.462 259.176 572.942 258.492L574.286 259.524C573.518 260.568 572.27 261.24 570.746 261.24C568.094 261.24 566.282 259.2 566.282 256.8C566.282 254.4 568.094 252.36 570.746 252.36C572.27 252.36 573.518 253.044 574.286 254.064L572.942 255.108C572.462 254.424 571.706 253.956 570.746 253.956C569.162 253.956 568.034 255.192 568.034 256.8C568.034 258.408 569.162 259.644 570.746 259.644ZM575.02 254.148V252.6H581.908V254.148H579.316V261H577.612V254.148H575.02ZM583.525 261V252.6H585.229V261H583.525ZM586.641 252.6H588.453L590.937 259.164L593.421 252.6H595.233L592.053 261H589.821L586.641 252.6ZM596.65 261V252.6H601.546V254.016H598.354V256.008H601.066V257.424H598.354V259.584H601.546V261H596.65Z" fill="#0063CB"/>
<g filter="url(#filter5_dd_37_781)">
<g clip-path="url(#clip2_37_781)">
<rect x="409" y="276" width="200" height="119.418" rx="8" fill="url(#paint4_linear_37_781)"/>
<path fill-rule="evenodd" clip-rule="evenodd" d="M407.538 422.946C407.216 392.173 433.448 370.077 462.61 360.076C493.744 349.398 530.129 348.277 550.878 373.785C574.996 403.432 581.824 447.398 557.866 477.174C536.153 504.16 496.498 493.666 463.885 481.902C435.591 471.695 407.852 452.97 407.538 422.946Z" fill="#119787" fill-opacity="0.16"/>
<g style="mix-blend-mode:multiply">
<path fill-rule="evenodd" clip-rule="evenodd" d="M482.83 399.216C482.508 368.443 508.741 346.347 537.903 336.346C569.036 325.668 605.421 324.547 626.171 350.055C650.288 379.702 657.117 423.668 633.158 453.444C611.445 480.43 571.791 469.936 539.177 458.172C510.884 447.965 483.144 429.24 482.83 399.216Z" fill="#0B6B5F" fill-opacity="0.08"/>
</g>
<g clip-path="url(#clip3_37_781)">
<path fill-rule="evenodd" clip-rule="evenodd" d="M592.03 289.44C592.423 289.22 592.921 289.36 593.141 289.752C594.464 292.104 595.159 294.77 595.159 297.482C595.159 300.195 594.464 302.861 593.141 305.213C592.921 305.604 592.423 305.744 592.03 305.525C591.637 305.306 591.496 304.811 591.716 304.42C592.901 302.312 593.526 299.919 593.526 297.482C593.526 295.045 592.901 292.653 591.716 290.545C591.496 290.154 591.637 289.659 592.03 289.44ZM588.887 291.053C589.281 290.834 589.778 290.974 589.998 291.365C591.045 293.227 591.595 295.336 591.595 297.482C591.595 299.628 591.045 301.738 589.998 303.599C589.778 303.991 589.281 304.131 588.887 303.912C588.494 303.693 588.353 303.198 588.573 302.806C589.483 301.189 589.962 299.353 589.962 297.482C589.962 295.612 589.483 293.776 588.573 292.159C588.353 291.767 588.494 291.272 588.887 291.053ZM585.89 292.533C586.285 292.315 586.782 292.457 587 292.85C587.775 294.243 588.182 295.82 588.182 297.424C588.182 299.027 587.775 300.605 587 301.998C586.782 302.39 586.285 302.532 585.89 302.315C585.496 302.097 585.353 301.603 585.572 301.21C586.211 300.061 586.549 298.755 586.549 297.424C586.549 296.092 586.211 294.786 585.572 293.637C585.353 293.244 585.496 292.75 585.89 292.533ZM582.846 294.158C583.225 293.916 583.73 294.026 583.973 294.404C584.566 295.326 584.882 296.392 584.882 297.482C584.882 298.572 584.566 299.639 583.973 300.561C583.73 300.938 583.225 301.049 582.846 300.807C582.466 300.565 582.355 300.062 582.598 299.684C583.024 299.022 583.249 298.259 583.249 297.482C583.249 296.705 583.024 295.942 582.598 295.28C582.355 294.902 582.466 294.4 582.846 294.158Z" fill="white"/>
</g>
<g filter="url(#filter6_ii_37_781)">
<path d="M422.333 315.12C422.333 313.724 423.47 312.592 424.873 312.592H446.46C447.863 312.592 449 313.724 449 315.12V329.103C449 330.498 447.863 331.63 446.46 331.63H424.873C423.47 331.63 422.333 330.498 422.333 329.103V315.12Z" fill="#CDC9C1"/>
<path d="M422.333 315.12C422.333 313.724 423.47 312.592 424.873 312.592H446.46C447.863 312.592 449 313.724 449 315.12V329.103C449 330.498 447.863 331.63 446.46 331.63H424.873C423.47 331.63 422.333 330.498 422.333 329.103V315.12Z" fill="url(#paint5_radial_37_781)" fill-opacity="0.1"/>
<path d="M422.333 315.12C422.333 313.724 423.47 312.592 424.873 312.592H446.46C447.863 312.592 449 313.724 449 315.12V329.103C449 330.498 447.863 331.63 446.46 331.63H424.873C423.47 331.63 422.333 330.498 422.333 329.103V315.12Z" fill="url(#paint6_radial_37_781)" fill-opacity="0.1"/>
<path d="M422.333 315.12C422.333 313.724 423.47 312.592 424.873 312.592H446.46C447.863 312.592 449 313.724 449 315.12V329.103C449 330.498 447.863 331.63 446.46 331.63H424.873C423.47 331.63 422.333 330.498 422.333 329.103V315.12Z" fill="url(#paint7_radial_37_781)" fill-opacity="0.1"/>
</g>
<mask id="mask1_37_781" style="mask-type:alpha" maskUnits="userSpaceOnUse" x="422" y="312" width="27" height="20">
<path d="M422.333 315.12C422.333 313.724 423.47 312.592 424.873 312.592H446.46C447.863 312.592 449 313.724 449 315.12V329.103C449 330.498 447.863 331.63 446.46 331.63H424.873C423.47 331.63 422.333 330.498 422.333 329.103V315.12Z" fill="#D9D9D9"/>
</mask>
<g mask="url(#mask1_37_781)">
<path fill-rule="evenodd" clip-rule="evenodd" d="M422.175 314.955C422.175 314.519 422.53 314.165 422.968 314.165H429.235C429.673 314.165 430.028 314.519 430.028 314.955V318.883C430.028 319.319 429.673 319.673 429.235 319.673H422.968C422.53 319.673 422.175 319.319 422.175 318.883V314.955ZM422.968 314.481C422.705 314.481 422.492 314.693 422.492 314.955V318.883C422.492 319.145 422.705 319.357 422.968 319.357H429.235C429.498 319.357 429.711 319.145 429.711 318.883V314.955C429.711 314.693 429.498 314.481 429.235 314.481H422.968Z" fill="#10141E"/>
<path fill-rule="evenodd" clip-rule="evenodd" d="M422.175 320.147C422.175 319.711 422.53 319.357 422.968 319.357H429.235C429.673 319.357 430.028 319.711 430.028 320.147V324.075C430.028 324.511 429.673 324.865 429.235 324.865H422.968C422.53 324.865 422.175 324.511 422.175 324.075V320.147ZM422.968 319.673C422.705 319.673 422.492 319.885 422.492 320.147V324.075C422.492 324.337 422.705 324.549 422.968 324.549H429.235C429.498 324.549 429.711 324.337 429.711 324.075V320.147C429.711 319.885 429.498 319.673 429.235 319.673H422.968Z" fill="#10141E"/>
<path fill-rule="evenodd" clip-rule="evenodd" d="M431.45 319.57C431.45 319.134 431.805 318.78 432.244 318.78H440.829C441.267 318.78 441.623 319.134 441.623 319.57V319.749C441.623 320.185 441.267 320.538 440.829 320.538H440.36C440.097 320.538 439.883 320.751 439.883 321.012V325.229C439.883 325.665 439.528 326.019 439.09 326.019H430.505C430.066 326.019 429.711 325.665 429.711 325.229V324.762C429.711 324.326 430.066 323.972 430.505 323.972H430.974C431.237 323.972 431.45 323.76 431.45 323.498V319.57ZM432.244 319.096C431.981 319.096 431.767 319.308 431.767 319.57V323.498C431.767 323.935 431.412 324.288 430.974 324.288H430.505C430.242 324.288 430.028 324.5 430.028 324.762V325.229C430.028 325.491 430.242 325.703 430.505 325.703H439.09C439.353 325.703 439.566 325.491 439.566 325.229V321.012C439.566 320.576 439.921 320.223 440.36 320.223H440.829C441.092 320.223 441.305 320.01 441.305 319.749V319.57C441.305 319.308 441.092 319.096 440.829 319.096H432.244Z" fill="#10141E"/>
<path fill-rule="evenodd" clip-rule="evenodd" d="M422.175 325.339C422.175 324.903 422.53 324.549 422.968 324.549H429.235C429.673 324.549 430.028 324.903 430.028 325.339V329.268C430.028 329.704 429.673 330.057 429.235 330.057H422.968C422.53 330.057 422.175 329.704 422.175 329.268V325.339ZM422.968 324.865C422.705 324.865 422.492 325.077 422.492 325.339V329.268C422.492 329.529 422.705 329.741 422.968 329.741H429.235C429.498 329.741 429.711 329.529 429.711 329.268V325.339C429.711 325.077 429.498 324.865 429.235 324.865H422.968Z" fill="#10141E"/>
<path fill-rule="evenodd" clip-rule="evenodd" d="M441.305 314.955C441.305 314.519 441.66 314.165 442.099 314.165H448.365C448.803 314.165 449.159 314.519 449.159 314.955V318.883C449.159 319.319 448.803 319.673 448.365 319.673H442.099C441.66 319.673 441.305 319.319 441.305 318.883V314.955ZM442.099 314.481C441.836 314.481 441.623 314.693 441.623 314.955V318.883C441.623 319.145 441.836 319.357 442.099 319.357H448.365C448.628 319.357 448.841 319.145 448.841 318.883V314.955C448.841 314.693 448.628 314.481 448.365 314.481H442.099Z" fill="#10141E"/>
<path fill-rule="evenodd" clip-rule="evenodd" d="M441.305 320.147C441.305 319.711 441.66 319.357 442.099 319.357H448.365C448.803 319.357 449.159 319.711 449.159 320.147V324.075C449.159 324.511 448.803 324.865 448.365 324.865H442.099C441.66 324.865 441.305 324.511 441.305 324.075V320.147ZM442.099 319.673C441.836 319.673 441.623 319.885 441.623 320.147V324.075C441.623 324.337 441.836 324.549 442.099 324.549H448.365C448.628 324.549 448.841 324.337 448.841 324.075V320.147C448.841 319.885 448.628 319.673 448.365 319.673H442.099Z" fill="#10141E"/>
<path fill-rule="evenodd" clip-rule="evenodd" d="M441.305 325.339C441.305 324.903 441.66 324.549 442.099 324.549H448.365C448.803 324.549 449.159 324.903 449.159 325.339V329.268C449.159 329.704 448.803 330.057 448.365 330.057H442.099C441.66 330.057 441.305 329.704 441.305 329.268V325.339ZM442.099 324.865C441.836 324.865 441.623 325.077 441.623 325.339V329.268C441.623 329.529 441.836 329.741 442.099 329.741H448.365C448.628 329.741 448.841 329.529 448.841 329.268V325.339C448.841 325.077 448.628 324.865 448.365 324.865H442.099Z" fill="#10141E"/>
</g>
<path d="M425.423 341.317V342.027L424.421 341.984L425.007 342.793L424.378 343.172L423.881 342.264L423.384 343.172L422.768 342.793L423.341 341.984L422.348 342.032V341.322L423.341 341.378L422.768 340.556L423.384 340.177L423.881 341.085L424.378 340.177L425.007 340.556L424.425 341.378L425.423 341.317Z" fill="white"/>
<path d="M430.596 341.314V342.024L429.594 341.98L430.18 342.789L429.551 343.168L429.054 342.26L428.557 343.168L427.941 342.789L428.514 341.98L427.521 342.028V341.318L428.514 341.374L427.941 340.552L428.557 340.173L429.054 341.081L429.551 340.173L430.18 340.552L429.598 341.374L430.596 341.314Z" fill="white"/>
<path d="M435.769 341.309V342.019L434.767 341.976L435.353 342.785L434.724 343.164L434.227 342.256L433.73 343.164L433.114 342.785L433.688 341.976L432.694 342.023V341.313L433.688 341.369L433.114 340.548L433.73 340.169L434.227 341.077L434.724 340.169L435.353 340.548L434.771 341.369L435.769 341.309Z" fill="white"/>
<path d="M440.942 341.305V342.015L439.94 341.972L440.526 342.781L439.897 343.159L439.4 342.251L438.903 343.159L438.287 342.781L438.861 341.972L437.867 342.019V341.309L438.861 341.365L438.287 340.543L438.903 340.165L439.4 341.072L439.897 340.165L440.526 340.543L439.944 341.365L440.942 341.305Z" fill="white"/>
<path d="M449.699 341.296V342.006L448.697 341.963L449.284 342.772L448.654 343.15L448.158 342.243L447.661 343.15L447.044 342.772L447.618 341.963L446.625 342.01V341.3L447.618 341.356L447.044 340.534L447.661 340.156L448.158 341.064L448.654 340.156L449.284 340.534L448.701 341.356L449.699 341.296Z" fill="white"/>
<path d="M454.872 341.296V342.006L453.87 341.963L454.457 342.772L453.827 343.15L453.331 342.243L452.834 343.15L452.217 342.772L452.791 341.963L451.798 342.01V341.3L452.791 341.356L452.217 340.534L452.834 340.156L453.331 341.064L453.827 340.156L454.457 340.534L453.874 341.356L454.872 341.296Z" fill="white"/>
<path d="M460.045 341.292V342.002L459.039 341.955L459.626 342.764L458.996 343.142L458.5 342.234L458.003 343.142L457.386 342.764L457.96 341.955L456.966 342.002V341.292L457.96 341.348L457.386 340.526L458.003 340.147L458.5 341.055L458.996 340.147L459.626 340.526L459.043 341.348L460.045 341.292Z" fill="white"/>
<path d="M465.218 341.288V341.998L464.212 341.955L464.799 342.764L464.169 343.142L463.673 342.234L463.176 343.142L462.559 342.764L463.133 341.955L462.139 342.002V341.292L463.133 341.348L462.559 340.526L463.176 340.147L463.673 341.055L464.169 340.147L464.799 340.522L464.216 341.344L465.218 341.288Z" fill="white"/>
<path d="M473.976 341.279V341.989L472.974 341.946L473.56 342.755L472.931 343.133L472.434 342.225L471.937 343.133L471.321 342.755L471.895 341.946L470.901 341.993V341.283L471.895 341.339L471.321 340.517L471.937 340.139L472.434 341.047L472.931 340.139L473.56 340.517L472.978 341.339L473.976 341.279Z" fill="white"/>
<path d="M479.145 341.279V341.989L478.143 341.946L478.729 342.755L478.1 343.133L477.603 342.225L477.106 343.133L476.49 342.755L477.063 341.946L476.07 341.993V341.283L477.063 341.339L476.49 340.517L477.106 340.139L477.603 341.047L478.1 340.139L478.729 340.513L478.147 341.335L479.145 341.279Z" fill="white"/>
<path d="M484.318 341.274V341.984L483.316 341.941L483.902 342.75L483.273 343.129L482.776 342.221L482.279 343.129L481.663 342.75L482.236 341.941L481.243 341.989V341.279L482.236 341.335L481.663 340.513L482.279 340.134L482.776 341.042L483.273 340.134L483.902 340.513L483.32 341.335L484.318 341.274Z" fill="white"/>
<path d="M489.491 341.27V341.98L488.489 341.937L489.075 342.746L488.446 343.125L487.949 342.217L487.452 343.125L486.836 342.746L487.41 341.937L486.416 341.984V341.274L487.41 341.33L486.836 340.509L487.452 340.13L487.949 341.038L488.446 340.13L489.075 340.509L488.493 341.33L489.491 341.27Z" fill="white"/>
<path d="M494.934 348.026V347.182L497.657 344.385C498.385 343.654 498.749 343.026 498.749 342.501C498.749 342.066 498.617 341.726 498.351 341.481C498.086 341.236 497.764 341.115 497.379 341.115C496.651 341.115 496.12 341.464 495.79 342.157L494.929 341.649C495.169 341.146 495.508 340.767 495.936 340.509C496.364 340.251 496.844 340.121 497.362 340.117C498.008 340.117 498.569 340.332 499.049 340.758C499.529 341.189 499.768 341.761 499.768 342.488C499.768 343.271 499.31 344.127 498.394 345.052L496.424 347.023L499.914 347.019V348.017L494.934 348.026Z" fill="white"/>
<path d="M504.543 343.439C505.134 343.551 505.614 343.805 505.991 344.205C506.368 344.605 506.556 345.108 506.556 345.724C506.556 346.477 506.299 347.07 505.785 347.509C505.271 347.948 504.646 348.163 503.909 348.163C503.323 348.163 502.8 348.03 502.342 347.759C501.888 347.488 501.563 347.1 501.37 346.588L502.231 346.076C502.458 346.795 503.019 347.152 503.909 347.152C504.389 347.152 504.779 347.027 505.079 346.773C505.378 346.524 505.532 346.171 505.528 345.719C505.528 345.268 505.378 344.915 505.074 344.661C504.775 344.407 504.385 344.278 503.905 344.278H503.64L503.233 343.645L505.019 341.219L501.588 341.223V340.259L506.222 340.255L506.218 341.158L504.543 343.439Z" fill="white"/>
<path d="M514.174 345.573V346.537H513.236V348.013H512.213V346.537L508.277 346.541V345.577L511.044 340.255H512.149L509.382 345.577H512.217V343.383H513.241V345.577L514.174 345.573Z" fill="white"/>
<path d="M518.208 343.276C518.936 343.276 519.553 343.491 520.058 343.921C520.564 344.351 520.816 344.949 520.816 345.711C520.816 346.464 520.559 347.058 520.045 347.497C519.531 347.935 518.906 348.151 518.17 348.151C517.583 348.151 517.056 348.009 516.594 347.725C516.131 347.441 515.806 347.028 515.622 346.49L516.491 345.991C516.594 346.369 516.795 346.653 517.086 346.851C517.382 347.049 517.741 347.144 518.165 347.144C518.649 347.144 519.043 347.019 519.347 346.765C519.647 346.516 519.797 346.163 519.797 345.711C519.797 345.259 519.647 344.906 519.343 344.652C519.039 344.399 518.654 344.27 518.183 344.27H515.999L516.273 340.246L520.508 340.242V341.206L517.21 341.21L517.078 343.271L518.208 343.276Z" fill="white"/>
<path fill-rule="evenodd" clip-rule="evenodd" d="M580.658 382.731C589.104 382.731 595.952 376.021 595.952 367.744C595.952 359.467 589.104 352.757 580.658 352.757C576.872 352.757 573.408 354.105 570.737 356.338C568.066 354.105 564.602 352.757 560.816 352.757C552.37 352.757 545.522 359.467 545.522 367.744C545.522 376.021 552.37 382.731 560.816 382.731C564.602 382.731 568.066 381.383 570.737 379.151C573.408 381.383 576.872 382.731 580.658 382.731Z" fill="#ED0006"/>
<path fill-rule="evenodd" clip-rule="evenodd" d="M570.737 379.151C574.025 376.402 576.11 372.312 576.11 367.744C576.11 363.177 574.025 359.087 570.737 356.338C573.408 354.105 576.872 352.757 580.658 352.757C589.104 352.757 595.952 359.467 595.952 367.744C595.952 376.021 589.104 382.731 580.658 382.731C576.872 382.731 573.408 381.383 570.737 379.151Z" fill="#F9A000"/>
<path fill-rule="evenodd" clip-rule="evenodd" d="M570.737 379.15C574.026 376.401 576.111 372.311 576.111 367.744C576.111 363.176 574.026 359.086 570.737 356.337C567.449 359.086 565.364 363.176 565.364 367.744C565.364 372.311 567.449 376.401 570.737 379.15Z" fill="#FF5E00"/>
</g>
</g>
</g>
<path d="M440.868 92.1332C441.715 92.0336 442.317 91.2678 442.212 90.4226C442.106 89.5775 441.333 88.9731 440.485 89.0727L428.204 90.5154C427.356 90.615 426.754 91.3809 426.86 92.226C426.965 93.0711 427.738 93.6755 428.586 93.5759L440.868 92.1332Z" fill="#156DCB"/>
<path d="M420.92 65.6082C421.197 64.8049 420.766 63.926 419.958 63.645C419.15 63.3641 418.27 63.7875 417.993 64.5907L413.983 76.2263C413.706 77.0296 414.137 77.9085 414.945 78.1895C415.754 78.4705 416.633 78.0471 416.91 77.2438L420.92 65.6082Z" fill="#156DCB"/>
<path d="M434.819 76.126C435.482 75.5937 435.583 74.6239 435.044 73.96C434.506 73.296 433.531 73.1893 432.868 73.7216L423.263 81.4325C422.6 81.9648 422.499 82.9345 423.038 83.5985C423.577 84.2624 424.551 84.3691 425.214 83.8368L434.819 76.126Z" fill="#156DCB"/>
<defs>
<filter id="filter0_ddd_37_781" x="22" y="86" width="401" height="108" filterUnits="userSpaceOnUse" color-interpolation-filters="sRGB">
<feFlood flood-opacity="0" result="BackgroundImageFix"/>
<feColorMatrix in="SourceAlpha" type="matrix" values="0 0 0 0 0 0 0 0 0 0 0 0 0 0 0 0 0 0 127 0" result="hardAlpha"/>
<feOffset dy="4"/>
<feGaussianBlur stdDeviation="5"/>
<feColorMatrix type="matrix" values="0 0 0 0 0.0745098 0 0 0 0 0.113725 0 0 0 0 0.207843 0 0 0 0.06 0"/>
<feBlend mode="normal" in2="BackgroundImageFix" result="effect1_dropShadow_37_781"/>
<feColorMatrix in="SourceAlpha" type="matrix" values="0 0 0 0 0 0 0 0 0 0 0 0 0 0 0 0 0 0 127 0" result="hardAlpha"/>
<feOffset dy="2"/>
<feGaussianBlur stdDeviation="2"/>
<feColorMatrix type="matrix" values="0 0 0 0 0.0745098 0 0 0 0 0.113725 0 0 0 0 0.207843 0 0 0 0.02 0"/>
<feBlend mode="normal" in2="effect1_dropShadow_37_781" result="effect2_dropShadow_37_781"/>
<feColorMatrix in="SourceAlpha" type="matrix" values="0 0 0 0 0 0 0 0 0 0 0 0 0 0 0 0 0 0 127 0" result="hardAlpha"/>
<feMorphology radius="1" operator="dilate" in="SourceAlpha" result="effect3_dropShadow_37_781"/>
<feOffset/>
<feColorMatrix type="matrix" values="0 0 0 0 0.0745098 0 0 0 0 0.113725 0 0 0 0 0.207843 0 0 0 0.03 0"/>
<feBlend mode="normal" in2="effect2_dropShadow_37_781" result="effect3_dropShadow_37_781"/>
<feBlend mode="normal" in="SourceGraphic" in2="effect3_dropShadow_37_781" result="shape"/>
</filter>
<filter id="filter1_dd_37_781" x="70" y="124" width="28" height="28" filterUnits="userSpaceOnUse" color-interpolation-filters="sRGB">
<feFlood flood-opacity="0" result="BackgroundImageFix"/>
<feColorMatrix in="SourceAlpha" type="matrix" values="0 0 0 0 0 0 0 0 0 0 0 0 0 0 0 0 0 0 127 0" result="hardAlpha"/>
<feOffset dy="2"/>
<feGaussianBlur stdDeviation="4"/>
<feColorMatrix type="matrix" values="0 0 0 0 0 0 0 0 0 0 0 0 0 0 0 0 0 0 0.2 0"/>
<feBlend mode="normal" in2="BackgroundImageFix" result="effect1_dropShadow_37_781"/>
<feColorMatrix in="SourceAlpha" type="matrix" values="0 0 0 0 0 0 0 0 0 0 0 0 0 0 0 0 0 0 127 0" result="hardAlpha"/>
<feOffset dy="1"/>
<feGaussianBlur stdDeviation="1"/>
<feColorMatrix type="matrix" values="0 0 0 0 0 0 0 0 0 0 0 0 0 0 0 0 0 0 0.15 0"/>
<feBlend mode="normal" in2="effect1_dropShadow_37_781" result="effect2_dropShadow_37_781"/>
<feBlend mode="normal" in="SourceGraphic" in2="effect2_dropShadow_37_781" result="shape"/>
</filter>
<filter id="filter2_ddd_37_781" x="87" y="206" width="572" height="243.418" filterUnits="userSpaceOnUse" color-interpolation-filters="sRGB">
<feFlood flood-opacity="0" result="BackgroundImageFix"/>
<feColorMatrix in="SourceAlpha" type="matrix" values="0 0 0 0 0 0 0 0 0 0 0 0 0 0 0 0 0 0 127 0" result="hardAlpha"/>
<feOffset dy="4"/>
<feGaussianBlur stdDeviation="5"/>
<feColorMatrix type="matrix" values="0 0 0 0 0.0745098 0 0 0 0 0.113725 0 0 0 0 0.207843 0 0 0 0.06 0"/>
<feBlend mode="normal" in2="BackgroundImageFix" result="effect1_dropShadow_37_781"/>
<feColorMatrix in="SourceAlpha" type="matrix" values="0 0 0 0 0 0 0 0 0 0 0 0 0 0 0 0 0 0 127 0" result="hardAlpha"/>
<feOffset dy="2"/>
<feGaussianBlur stdDeviation="2"/>
<feColorMatrix type="matrix" values="0 0 0 0 0.0745098 0 0 0 0 0.113725 0 0 0 0 0.207843 0 0 0 0.02 0"/>
<feBlend mode="normal" in2="effect1_dropShadow_37_781" result="effect2_dropShadow_37_781"/>
<feColorMatrix in="SourceAlpha" type="matrix" values="0 0 0 0 0 0 0 0 0 0 0 0 0 0 0 0 0 0 127 0" result="hardAlpha"/>
<feMorphology radius="1" operator="dilate" in="SourceAlpha" result="effect3_dropShadow_37_781"/>
<feOffset/>
<feColorMatrix type="matrix" values="0 0 0 0 0.0745098 0 0 0 0 0.113725 0 0 0 0 0.207843 0 0 0 0.03 0"/>
<feBlend mode="normal" in2="effect2_dropShadow_37_781" result="effect3_dropShadow_37_781"/>
<feBlend mode="normal" in="SourceGraphic" in2="effect3_dropShadow_37_781" result="shape"/>
</filter>
<filter id="filter3_dd_37_781" x="124" y="267" width="237" height="154.418" filterUnits="userSpaceOnUse" color-interpolation-filters="sRGB">
<feFlood flood-opacity="0" result="BackgroundImageFix"/>
<feColorMatrix in="SourceAlpha" type="matrix" values="0 0 0 0 0 0 0 0 0 0 0 0 0 0 0 0 0 0 127 0" result="hardAlpha"/>
<feOffset dx="8" dy="10"/>
<feGaussianBlur stdDeviation="8"/>
<feColorMatrix type="matrix" values="0 0 0 0 0.0588235 0 0 0 0 0.0901961 0 0 0 0 0.164706 0 0 0 0.05 0"/>
<feBlend mode="normal" in2="BackgroundImageFix" result="effect1_dropShadow_37_781"/>
<feColorMatrix in="SourceAlpha" type="matrix" values="0 0 0 0 0 0 0 0 0 0 0 0 0 0 0 0 0 0 127 0" result="hardAlpha"/>
<feOffset dy="4"/>
<feGaussianBlur stdDeviation="6.5"/>
<feComposite in2="hardAlpha" operator="out"/>
<feColorMatrix type="matrix" values="0 0 0 0 0.0588235 0 0 0 0 0.0901961 0 0 0 0 0.164706 0 0 0 0.2 0"/>
<feBlend mode="normal" in2="effect1_dropShadow_37_781" result="effect2_dropShadow_37_781"/>
<feBlend mode="normal" in="SourceGraphic" in2="effect2_dropShadow_37_781" result="shape"/>
</filter>
<filter id="filter4_ii_37_781" x="150.333" y="312.592" width="26.6667" height="19.0376" filterUnits="userSpaceOnUse" color-interpolation-filters="sRGB">
<feFlood flood-opacity="0" result="BackgroundImageFix"/>
<feBlend mode="normal" in="SourceGraphic" in2="BackgroundImageFix" result="shape"/>
<feColorMatrix in="SourceAlpha" type="matrix" values="0 0 0 0 0 0 0 0 0 0 0 0 0 0 0 0 0 0 127 0" result="hardAlpha"/>
<feOffset dx="-1" dy="-1"/>
<feComposite in2="hardAlpha" operator="arithmetic" k2="-1" k3="1"/>
<feColorMatrix type="matrix" values="0 0 0 0 0.184314 0 0 0 0 0.152941 0 0 0 0 0.0941176 0 0 0 0.2 0"/>
<feBlend mode="normal" in2="shape" result="effect1_innerShadow_37_781"/>
<feColorMatrix in="SourceAlpha" type="matrix" values="0 0 0 0 0 0 0 0 0 0 0 0 0 0 0 0 0 0 127 0" result="hardAlpha"/>
<feOffset dx="1" dy="1"/>
<feComposite in2="hardAlpha" operator="arithmetic" k2="-1" k3="1"/>
<feColorMatrix type="matrix" values="0 0 0 0 0.184314 0 0 0 0 0.152941 0 0 0 0 0.0941176 0 0 0 0.2 0"/>
<feBlend mode="normal" in2="effect1_innerShadow_37_781" result="effect2_innerShadow_37_781"/>
</filter>
<filter id="filter5_dd_37_781" x="396" y="267" width="237" height="154.418" filterUnits="userSpaceOnUse" color-interpolation-filters="sRGB">
<feFlood flood-opacity="0" result="BackgroundImageFix"/>
<feColorMatrix in="SourceAlpha" type="matrix" values="0 0 0 0 0 0 0 0 0 0 0 0 0 0 0 0 0 0 127 0" result="hardAlpha"/>
<feOffset dx="8" dy="10"/>
<feGaussianBlur stdDeviation="8"/>
<feColorMatrix type="matrix" values="0 0 0 0 0.0588235 0 0 0 0 0.0901961 0 0 0 0 0.164706 0 0 0 0.05 0"/>
<feBlend mode="normal" in2="BackgroundImageFix" result="effect1_dropShadow_37_781"/>
<feColorMatrix in="SourceAlpha" type="matrix" values="0 0 0 0 0 0 0 0 0 0 0 0 0 0 0 0 0 0 127 0" result="hardAlpha"/>
<feOffset dy="4"/>
<feGaussianBlur stdDeviation="6.5"/>
<feComposite in2="hardAlpha" operator="out"/>
<feColorMatrix type="matrix" values="0 0 0 0 0.0588235 0 0 0 0 0.0901961 0 0 0 0 0.164706 0 0 0 0.2 0"/>
<feBlend mode="normal" in2="effect1_dropShadow_37_781" result="effect2_dropShadow_37_781"/>
<feBlend mode="normal" in="SourceGraphic" in2="effect2_dropShadow_37_781" result="shape"/>
</filter>
<filter id="filter6_ii_37_781" x="422.333" y="312.592" width="26.6667" height="19.0376" filterUnits="userSpaceOnUse" color-interpolation-filters="sRGB">
<feFlood flood-opacity="0" result="BackgroundImageFix"/>
<feBlend mode="normal" in="SourceGraphic" in2="BackgroundImageFix" result="shape"/>
<feColorMatrix in="SourceAlpha" type="matrix" values="0 0 0 0 0 0 0 0 0 0 0 0 0 0 0 0 0 0 127 0" result="hardAlpha"/>
<feOffset dx="-1" dy="-1"/>
<feComposite in2="hardAlpha" operator="arithmetic" k2="-1" k3="1"/>
<feColorMatrix type="matrix" values="0 0 0 0 0.184314 0 0 0 0 0.152941 0 0 0 0 0.0941176 0 0 0 0.2 0"/>
<feBlend mode="normal" in2="shape" result="effect1_innerShadow_37_781"/>
<feColorMatrix in="SourceAlpha" type="matrix" values="0 0 0 0 0 0 0 0 0 0 0 0 0 0 0 0 0 0 127 0" result="hardAlpha"/>
<feOffset dx="1" dy="1"/>
<feComposite in2="hardAlpha" operator="arithmetic" k2="-1" k3="1"/>
<feColorMatrix type="matrix" values="0 0 0 0 0.184314 0 0 0 0 0.152941 0 0 0 0 0.0941176 0 0 0 0.2 0"/>
<feBlend mode="normal" in2="effect1_innerShadow_37_781" result="effect2_innerShadow_37_781"/>
</filter>
<linearGradient id="paint0_linear_37_781" x1="136.997" y1="395.418" x2="242.125" y2="219.351" gradientUnits="userSpaceOnUse">
<stop stop-color="#0B366B"/>
<stop offset="1" stop-color="#156DCB"/>
</linearGradient>
<radialGradient id="paint1_radial_37_781" cx="0" cy="0" r="1" gradientUnits="userSpaceOnUse" gradientTransform="translate(157 312.592) rotate(70.7007) scale(20.1713 28.2246)">
<stop stop-color="#C29632"/>
<stop offset="1" stop-color="#C29632" stop-opacity="0"/>
</radialGradient>
<radialGradient id="paint2_radial_37_781" cx="0" cy="0" r="1" gradientUnits="userSpaceOnUse" gradientTransform="translate(177 322.4) rotate(145.306) scale(16.2166 22.5666)">
<stop stop-color="#664700"/>
<stop offset="1" stop-color="#664700"/>
</radialGradient>
<radialGradient id="paint3_radial_37_781" cx="0" cy="0" r="1" gradientUnits="userSpaceOnUse" gradientTransform="translate(153.812 331.63) rotate(-21.7056) scale(24.958 34.6676)">
<stop stop-color="#402200"/>
<stop offset="1" stop-color="#402200" stop-opacity="0"/>
</radialGradient>
<linearGradient id="paint4_linear_37_781" x1="408.997" y1="395.418" x2="514.125" y2="219.351" gradientUnits="userSpaceOnUse">
<stop stop-color="#0B6B5F"/>
<stop offset="1" stop-color="#0B6A61"/>
</linearGradient>
<radialGradient id="paint5_radial_37_781" cx="0" cy="0" r="1" gradientUnits="userSpaceOnUse" gradientTransform="translate(429 312.592) rotate(70.7007) scale(20.1713 28.2246)">
<stop stop-color="#C29632"/>
<stop offset="1" stop-color="#C29632" stop-opacity="0"/>
</radialGradient>
<radialGradient id="paint6_radial_37_781" cx="0" cy="0" r="1" gradientUnits="userSpaceOnUse" gradientTransform="translate(449 322.4) rotate(145.306) scale(16.2166 22.5666)">
<stop stop-color="#664700"/>
<stop offset="1" stop-color="#664700"/>
</radialGradient>
<radialGradient id="paint7_radial_37_781" cx="0" cy="0" r="1" gradientUnits="userSpaceOnUse" gradientTransform="translate(425.812 331.63) rotate(-21.7056) scale(24.958 34.6676)">
<stop stop-color="#402200"/>
<stop offset="1" stop-color="#402200" stop-opacity="0"/>
</radialGradient>
<clipPath id="clip0_37_781">
<rect x="137" y="276" width="200" height="119.418" rx="8" fill="white"/>
</clipPath>
<clipPath id="clip1_37_781">
<rect width="13.3333" height="16.4279" fill="white" transform="translate(310.333 289.269)"/>
</clipPath>
<clipPath id="clip2_37_781">
<rect x="409" y="276" width="200" height="119.418" rx="8" fill="white"/>
</clipPath>
<clipPath id="clip3_37_781">
<rect width="13.3333" height="16.4279" fill="white" transform="translate(582.333 289.269)"/>
</clipPath>
</defs>
</svg>
