<svg viewBox="0 0 681 528" fill="none" xmlns="http://www.w3.org/2000/svg">
<path d="M303.776 86.7201C217.624 113.424 121.414 154.83 117.199 244.555C114.825 295.094 133.809 341.65 165.673 378.827L108 436.5L202.61 413.514C227.365 432.297 255.999 446.714 286.456 455.455C373.519 480.441 458.773 430.886 511.922 357.835C564.779 285.186 588.579 186.678 533.861 115.407C481.971 47.8187 385.367 61.4304 303.776 86.7201Z" fill="#EBF6F4"/>
<path d="M191.04 290.108V268.13L225.748 234.728C230.644 230.101 235.253 224.751 235.253 218.245C235.253 211.593 230.788 207.689 224.596 207.689C215.667 207.689 210.626 213.907 205.586 222.293L186 210.147C194.785 195.688 208.034 186 227.044 186C245.334 186 259.879 197.568 259.879 215.642C259.879 229.523 250.662 240.368 242.453 248.031L220.995 268.13H262.471V290.108H191.04Z" fill="#25A292"/>
<path d="M313.252 186C340.759 186 353 208.991 353 239.5C353 270.009 340.759 293 313.252 293C285.889 293 273.504 270.009 273.504 239.5C273.504 208.991 285.889 186 313.252 186ZM313.396 208.557C303.027 208.557 298.419 219.98 298.419 239.5C298.419 259.165 303.027 270.443 313.396 270.443C323.333 270.443 328.086 259.02 328.086 239.5C328.086 219.835 323.333 208.557 313.396 208.557Z" fill="#25A292"/>
<path d="M409.778 186C424.387 186 434.413 196.252 434.413 210.115C434.413 223.977 424.387 234.229 409.778 234.229C395.026 234.229 385 223.977 385 210.115C385 196.252 395.026 186 409.778 186ZM392.018 290.112L465.636 189.032H488.552L414.934 290.112H392.018ZM409.778 219.356C414.505 219.356 418.085 215.891 418.085 210.115C418.085 204.194 414.505 201.018 409.778 201.018C405.052 201.018 401.471 204.194 401.471 210.115C401.471 216.035 405.052 219.356 409.778 219.356ZM471.365 244.771C485.974 244.771 496 255.023 496 268.885C496 282.748 485.974 293 471.365 293C456.613 293 446.587 282.748 446.587 268.885C446.587 255.023 456.613 244.771 471.365 244.771ZM471.365 278.127C476.092 278.127 479.672 274.661 479.672 268.885C479.672 262.965 476.092 259.788 471.365 259.788C466.639 259.788 463.058 262.965 463.058 268.885C463.058 274.806 466.639 278.127 471.365 278.127Z" fill="#25A292"/>
<path d="M192.336 323.904H194.544L198.408 333.864L202.272 323.904H204.48L199.752 336H197.064L192.336 323.904Z" fill="#141B33"/>
<path d="M217.545 334.008C216.417 335.52 214.617 336.48 212.361 336.48C208.281 336.48 205.761 333.48 205.761 329.952C205.761 326.28 208.113 323.424 211.857 323.424C215.145 323.424 217.281 325.728 217.281 328.704C217.281 329.184 217.209 329.64 217.137 329.976H207.849C207.921 332.88 209.769 334.632 212.361 334.632C213.921 334.632 215.241 333.912 216.033 332.832L217.545 334.008ZM211.809 325.152C209.817 325.152 208.425 326.328 207.993 328.416H215.241C215.169 326.64 213.945 325.152 211.809 325.152Z" fill="#141B33"/>
<path d="M220.738 336V323.904H222.778V325.416C223.666 324.36 224.77 323.664 226.306 323.664C226.69 323.664 227.05 323.712 227.338 323.808V325.8C226.978 325.704 226.618 325.656 226.138 325.656C224.554 325.656 223.522 326.472 222.778 327.696V336H220.738Z" fill="#141B33"/>
<path d="M228.981 334.344L230.421 333.12C231.261 334.176 232.269 334.776 233.493 334.776C234.837 334.776 235.605 333.96 235.605 332.904C235.605 330.192 229.557 331.152 229.557 326.88C229.557 324.984 231.165 323.424 233.493 323.424C235.221 323.424 236.709 324.24 237.549 325.416L236.133 326.616C235.485 325.704 234.573 325.128 233.517 325.128C232.221 325.128 231.525 325.896 231.525 326.832C231.525 329.544 237.597 328.68 237.597 332.808C237.573 335.064 235.773 336.48 233.517 336.48C231.597 336.48 230.085 335.712 228.981 334.344Z" fill="#141B33"/>
<path d="M246.921 321.984H244.929L247.425 318H249.729L246.921 321.984ZM251.529 334.008C250.401 335.52 248.601 336.48 246.345 336.48C242.265 336.48 239.745 333.48 239.745 329.952C239.745 326.28 242.097 323.424 245.841 323.424C249.129 323.424 251.265 325.728 251.265 328.704C251.265 329.184 251.193 329.64 251.121 329.976H241.833C241.905 332.88 243.753 334.632 246.345 334.632C247.905 334.632 249.225 333.912 250.017 332.832L251.529 334.008ZM245.793 325.152C243.801 325.152 242.409 326.328 241.977 328.416H249.225C249.153 326.64 247.929 325.152 245.793 325.152Z" fill="#141B33"/>
<path d="M253.333 334.344L254.773 333.12C255.613 334.176 256.621 334.776 257.845 334.776C259.189 334.776 259.957 333.96 259.957 332.904C259.957 330.192 253.909 331.152 253.909 326.88C253.909 324.984 255.517 323.424 257.845 323.424C259.573 323.424 261.061 324.24 261.901 325.416L260.485 326.616C259.837 325.704 258.925 325.128 257.869 325.128C256.573 325.128 255.877 325.896 255.877 326.832C255.877 329.544 261.949 328.68 261.949 332.808C261.925 335.064 260.125 336.48 257.869 336.48C255.949 336.48 254.437 335.712 253.333 334.344Z" fill="#141B33"/>
<path d="M270.442 334.344L271.882 333.12C272.722 334.176 273.73 334.776 274.954 334.776C276.298 334.776 277.066 333.96 277.066 332.904C277.066 330.192 271.018 331.152 271.018 326.88C271.018 324.984 272.626 323.424 274.954 323.424C276.682 323.424 278.17 324.24 279.01 325.416L277.594 326.616C276.946 325.704 276.034 325.128 274.978 325.128C273.682 325.128 272.986 325.896 272.986 326.832C272.986 329.544 279.058 328.68 279.058 332.808C279.034 335.064 277.234 336.48 274.978 336.48C273.058 336.48 271.546 335.712 270.442 334.344Z" fill="#141B33"/>
<path d="M290.803 330.816V323.904H292.843V330.744C292.843 334.368 290.755 336.48 287.467 336.48C284.203 336.48 282.115 334.368 282.115 330.744V323.904H284.155V330.816C284.155 333.192 285.427 334.56 287.491 334.56C289.507 334.56 290.803 333.192 290.803 330.816Z" fill="#141B33"/>
<path d="M296.863 336V323.904H298.903V325.416C299.791 324.36 300.895 323.664 302.431 323.664C302.815 323.664 303.175 323.712 303.463 323.808V325.8C303.103 325.704 302.743 325.656 302.263 325.656C300.679 325.656 299.647 326.472 298.903 327.696V336H296.863Z" fill="#141B33"/>
<path d="M312.871 336V323.904H314.911V325.224C315.823 324.168 317.023 323.424 318.703 323.424C320.455 323.424 321.895 324.216 322.639 325.752C323.599 324.432 324.871 323.424 326.959 323.424C329.551 323.424 331.447 325.152 331.447 328.44V336H329.407V328.512C329.407 326.496 328.279 325.344 326.551 325.344C325.015 325.344 323.935 326.208 323.143 327.624C323.167 327.888 323.191 328.152 323.191 328.44V336H321.151V328.512C321.151 326.496 320.047 325.344 318.295 325.344C316.639 325.344 315.607 326.376 314.911 327.624V336H312.871Z" fill="#141B33"/>
<path d="M338.846 336.336C336.47 336.336 334.862 335.016 334.862 332.952C334.862 331.128 336.254 329.832 338.822 329.4L342.902 328.728V327.888C342.902 326.208 341.702 325.248 339.974 325.248C338.582 325.248 337.454 325.896 336.71 326.928L335.174 325.752C336.23 324.312 337.934 323.424 340.046 323.424C343.118 323.424 344.942 325.224 344.942 327.888V336H342.902V334.464C341.99 335.64 340.406 336.336 338.846 336.336ZM336.926 332.88C336.926 333.912 337.766 334.656 339.182 334.656C340.79 334.656 342.11 333.888 342.902 332.592V330.216L339.326 330.816C337.67 331.104 336.926 331.848 336.926 332.88Z" fill="#141B33"/>
<path d="M363.4 334.368C365.656 334.368 367.504 333.264 368.632 331.632L370.432 333.024C368.896 335.112 366.424 336.48 363.4 336.48C358.144 336.48 354.568 332.4 354.568 327.6C354.568 322.8 358.144 318.72 363.4 318.72C366.424 318.72 368.896 320.112 370.432 322.176L368.632 323.568C367.504 321.936 365.656 320.832 363.4 320.832C359.608 320.832 356.896 323.856 356.896 327.6C356.896 331.344 359.608 334.368 363.4 334.368Z" fill="#141B33"/>
<path d="M376.721 336.336C374.345 336.336 372.737 335.016 372.737 332.952C372.737 331.128 374.129 329.832 376.697 329.4L380.777 328.728V327.888C380.777 326.208 379.577 325.248 377.849 325.248C376.457 325.248 375.329 325.896 374.585 326.928L373.049 325.752C374.105 324.312 375.809 323.424 377.921 323.424C380.993 323.424 382.817 325.224 382.817 327.888V336H380.777V334.464C379.865 335.64 378.281 336.336 376.721 336.336ZM374.801 332.88C374.801 333.912 375.641 334.656 377.057 334.656C378.665 334.656 379.985 333.888 380.777 332.592V330.216L377.201 330.816C375.545 331.104 374.801 331.848 374.801 332.88Z" fill="#141B33"/>
<path d="M386.91 336V323.904H388.95V325.416C389.838 324.36 390.942 323.664 392.478 323.664C392.862 323.664 393.222 323.712 393.51 323.808V325.8C393.15 325.704 392.79 325.656 392.31 325.656C390.726 325.656 389.694 326.472 388.95 327.696V336H386.91Z" fill="#141B33"/>
<path d="M397.708 331.944V325.752H395.428V323.904H397.708V320.88H399.772V323.904H403.972V325.752H399.772V331.944C399.772 333.84 400.732 334.368 402.196 334.368C402.988 334.368 403.54 334.272 403.996 334.08V335.904C403.42 336.144 402.772 336.24 401.908 336.24C399.22 336.24 397.708 334.896 397.708 331.944Z" fill="#141B33"/>
<path d="M417.607 334.008C416.479 335.52 414.679 336.48 412.423 336.48C408.343 336.48 405.823 333.48 405.823 329.952C405.823 326.28 408.175 323.424 411.919 323.424C415.207 323.424 417.343 325.728 417.343 328.704C417.343 329.184 417.271 329.64 417.199 329.976H407.911C407.983 332.88 409.831 334.632 412.423 334.632C413.983 334.632 415.303 333.912 416.095 332.832L417.607 334.008ZM411.871 325.152C409.879 325.152 408.487 326.328 408.055 328.416H415.303C415.231 326.64 414.007 325.152 411.871 325.152Z" fill="#141B33"/>
<path d="M425.757 319.2H428.157L433.965 333.72L439.773 319.2H442.173L435.453 336H432.477L425.757 319.2Z" fill="#141B33"/>
<path d="M454.404 334.008C453.276 335.52 451.476 336.48 449.22 336.48C445.14 336.48 442.62 333.48 442.62 329.952C442.62 326.28 444.972 323.424 448.716 323.424C452.004 323.424 454.14 325.728 454.14 328.704C454.14 329.184 454.068 329.64 453.996 329.976H444.708C444.78 332.88 446.628 334.632 449.22 334.632C450.78 334.632 452.1 333.912 452.892 332.832L454.404 334.008ZM448.668 325.152C446.676 325.152 445.284 326.328 444.852 328.416H452.1C452.028 326.64 450.804 325.152 448.668 325.152Z" fill="#141B33"/>
<path d="M457.598 336V323.904H459.638V325.416C460.526 324.36 461.629 323.664 463.165 323.664C463.549 323.664 463.91 323.712 464.198 323.808V325.8C463.838 325.704 463.477 325.656 462.997 325.656C461.413 325.656 460.382 326.472 459.638 327.696V336H457.598Z" fill="#141B33"/>
<path d="M468.395 331.944V325.752H466.115V323.904H468.395V320.88H470.459V323.904H474.659V325.752H470.459V331.944C470.459 333.84 471.419 334.368 472.883 334.368C473.675 334.368 474.227 334.272 474.683 334.08V335.904C474.107 336.144 473.459 336.24 472.595 336.24C469.907 336.24 468.395 334.896 468.395 331.944Z" fill="#141B33"/>
<path d="M488.295 334.008C487.167 335.52 485.367 336.48 483.111 336.48C479.031 336.48 476.511 333.48 476.511 329.952C476.511 326.28 478.863 323.424 482.607 323.424C485.895 323.424 488.031 325.728 488.031 328.704C488.031 329.184 487.959 329.64 487.887 329.976H478.599C478.671 332.88 480.519 334.632 483.111 334.632C484.671 334.632 485.991 333.912 486.783 332.832L488.295 334.008ZM482.559 325.152C480.567 325.152 479.175 326.328 478.743 328.416H485.991C485.919 326.64 484.695 325.152 482.559 325.152Z" fill="#141B33"/>
<g filter="url(#filter0_d_37_948)">
<circle cx="179.5" cy="84.4999" r="26.5" transform="rotate(15 179.5 84.4999)" fill="#158A7B"/>
</g>
<path d="M175.824 71.6091C179.02 72.4656 180.618 75.2746 179.814 78.278C179.009 81.2813 176.22 82.9148 173.024 82.0583C169.796 81.1935 168.198 78.3845 169.002 75.3811C169.807 72.3777 172.596 70.7443 175.824 71.6091ZM165.894 93.1244L187.869 75.5408L192.883 76.8843L170.908 94.4679L165.894 93.1244ZM173.887 78.836C174.921 79.1131 175.906 78.5721 176.241 77.3207C176.585 76.0381 175.986 75.1399 174.952 74.8628C173.918 74.5857 172.95 75.064 172.606 76.3467C172.262 77.6294 172.853 78.5589 173.887 78.836ZM185.887 87.9527C189.083 88.8092 190.682 91.6182 189.877 94.6216C189.072 97.6249 186.283 99.2584 183.087 98.4019C179.859 97.5371 178.261 94.7281 179.066 91.7247C179.87 88.7213 182.659 87.0879 185.887 87.9527ZM183.95 95.1796C184.984 95.4567 185.969 94.9157 186.304 93.6643C186.648 92.3816 186.049 91.4835 185.015 91.2064C183.981 90.9293 183.013 91.4076 182.669 92.6903C182.326 93.973 182.916 94.9025 183.95 95.1796Z" fill="white"/>
<g filter="url(#filter1_d_37_948)">
<circle cx="150.5" cy="150.5" r="26.5" transform="rotate(15 150.5 150.5)" fill="#3DB4A4"/>
</g>
<path d="M146.824 137.609C150.02 138.466 151.618 141.275 150.814 144.278C150.009 147.282 147.22 148.915 144.024 148.059C140.796 147.194 139.198 144.385 140.002 141.381C140.807 138.378 143.596 136.745 146.824 137.609ZM136.894 159.125L158.869 141.541L163.883 142.885L141.908 160.468L136.894 159.125ZM144.887 144.836C145.921 145.113 146.906 144.572 147.241 143.321C147.585 142.038 146.986 141.14 145.952 140.863C144.918 140.586 143.95 141.064 143.606 142.347C143.262 143.63 143.853 144.559 144.887 144.836ZM156.887 153.953C160.083 154.809 161.682 157.618 160.877 160.622C160.072 163.625 157.283 165.259 154.087 164.402C150.859 163.537 149.261 160.728 150.066 157.725C150.87 154.722 153.659 153.088 156.887 153.953ZM154.95 161.18C155.984 161.457 156.969 160.916 157.304 159.665C157.648 158.382 157.049 157.484 156.015 157.207C154.981 156.93 154.013 157.408 153.669 158.691C153.326 159.973 153.916 160.903 154.95 161.18Z" fill="white"/>
<g filter="url(#filter2_d_37_948)">
<circle cx="134.5" cy="102.5" r="26.5" transform="rotate(-15 134.5 102.5)" fill="#5DC1B4"/>
</g>
<path d="M124.871 93.1746C128.067 92.3181 130.856 93.9516 131.661 96.9549C132.465 99.9583 130.867 102.767 127.671 103.624C124.443 104.489 121.654 102.855 120.849 99.8518C120.045 96.8484 121.643 94.0394 124.871 93.1746ZM127.029 116.772L137.268 90.5568L142.282 89.2134L132.043 115.429L127.029 116.772ZM126.807 100.401C127.841 100.124 128.424 99.1636 128.088 97.9122C127.745 96.6295 126.777 96.1511 125.743 96.4282C124.708 96.7053 124.109 97.6035 124.453 98.8862C124.797 100.169 125.773 100.679 126.807 100.401ZM141.757 102.297C144.954 101.441 147.743 103.074 148.547 106.077C149.352 109.081 147.754 111.89 144.557 112.746C141.33 113.611 138.541 111.978 137.736 108.974C136.931 105.971 138.53 103.162 141.757 102.297ZM143.694 109.524C144.728 109.247 145.31 108.286 144.975 107.035C144.631 105.752 143.663 105.274 142.629 105.551C141.595 105.828 140.996 106.726 141.34 108.009C141.684 109.291 142.66 109.801 143.694 109.524Z" fill="white"/>
<path d="M82.7198 81.1332C81.872 81.0336 81.2702 80.2678 81.3757 79.4226C81.4812 78.5775 82.2541 77.9731 83.1019 78.0727L95.3833 79.5154C96.2312 79.615 96.833 80.3809 96.7274 81.226C96.6219 82.0711 95.8491 82.6755 95.0012 82.5759L82.7198 81.1332Z" fill="#156DCB"/>
<path d="M102.667 54.6082C102.39 53.8049 102.821 52.926 103.629 52.645C104.438 52.3641 105.317 52.7875 105.594 53.5907L109.604 65.2263C109.881 66.0296 109.45 66.9085 108.642 67.1895C107.834 67.4705 106.954 67.0471 106.677 66.2438L102.667 54.6082Z" fill="#156DCB"/>
<path d="M88.768 65.126C88.1049 64.5937 88.0041 63.6239 88.5429 62.96C89.0817 62.296 90.056 62.1893 90.7191 62.7216L100.324 70.4325C100.987 70.9648 101.088 71.9345 100.549 72.5985C100.011 73.2624 99.0364 73.3691 98.3733 72.8368L88.768 65.126Z" fill="#156DCB"/>
<defs>
<filter id="filter0_d_37_948" x="152.993" y="57.9934" width="57.0132" height="57.0132" filterUnits="userSpaceOnUse" color-interpolation-filters="sRGB">
<feFlood flood-opacity="0" result="BackgroundImageFix"/>
<feColorMatrix in="SourceAlpha" type="matrix" values="0 0 0 0 0 0 0 0 0 0 0 0 0 0 0 0 0 0 127 0" result="hardAlpha"/>
<feOffset dx="4" dy="4"/>
<feComposite in2="hardAlpha" operator="out"/>
<feColorMatrix type="matrix" values="0 0 0 0 0.184314 0 0 0 0 0.219608 0 0 0 0 0.376471 0 0 0 1 0"/>
<feBlend mode="normal" in2="BackgroundImageFix" result="effect1_dropShadow_37_948"/>
<feBlend mode="normal" in="SourceGraphic" in2="effect1_dropShadow_37_948" result="shape"/>
</filter>
<filter id="filter1_d_37_948" x="123.993" y="123.993" width="57.0132" height="57.0132" filterUnits="userSpaceOnUse" color-interpolation-filters="sRGB">
<feFlood flood-opacity="0" result="BackgroundImageFix"/>
<feColorMatrix in="SourceAlpha" type="matrix" values="0 0 0 0 0 0 0 0 0 0 0 0 0 0 0 0 0 0 127 0" result="hardAlpha"/>
<feOffset dx="4" dy="4"/>
<feComposite in2="hardAlpha" operator="out"/>
<feColorMatrix type="matrix" values="0 0 0 0 0.184314 0 0 0 0 0.219608 0 0 0 0 0.376471 0 0 0 1 0"/>
<feBlend mode="normal" in2="BackgroundImageFix" result="effect1_dropShadow_37_948"/>
<feBlend mode="normal" in="SourceGraphic" in2="effect1_dropShadow_37_948" result="shape"/>
</filter>
<filter id="filter2_d_37_948" x="107.993" y="75.9934" width="57.0132" height="57.0134" filterUnits="userSpaceOnUse" color-interpolation-filters="sRGB">
<feFlood flood-opacity="0" result="BackgroundImageFix"/>
<feColorMatrix in="SourceAlpha" type="matrix" values="0 0 0 0 0 0 0 0 0 0 0 0 0 0 0 0 0 0 127 0" result="hardAlpha"/>
<feOffset dx="4" dy="4"/>
<feComposite in2="hardAlpha" operator="out"/>
<feColorMatrix type="matrix" values="0 0 0 0 0.184314 0 0 0 0 0.219608 0 0 0 0 0.376471 0 0 0 1 0"/>
<feBlend mode="normal" in2="BackgroundImageFix" result="effect1_dropShadow_37_948"/>
<feBlend mode="normal" in="SourceGraphic" in2="effect1_dropShadow_37_948" result="shape"/>
</filter>
</defs>
</svg>
