<svg viewBox="0 0 681 528" fill="none" xmlns="http://www.w3.org/2000/svg">
<path fill-rule="evenodd" clip-rule="evenodd" d="M564.801 254.555C560.586 164.83 464.376 123.424 378.224 96.7201C296.633 71.4304 200.029 57.8187 148.139 125.407C93.4211 196.678 117.221 295.186 170.078 367.835C223.227 440.886 308.481 490.441 395.544 465.455C491.566 437.898 569.468 353.925 564.801 254.555Z" fill="#EBF6F4"/>
<g clip-path="url(#clip0_37_1002)">
<mask id="path-2-outside-1_37_1002" maskUnits="userSpaceOnUse" x="340.438" y="198.849" width="171.539" height="225.279" fill="black">
<rect fill="white" x="340.438" y="198.849" width="171.539" height="225.279"/>
<path d="M500.386 227.837C504.653 228.981 507.186 233.367 506.043 237.635L458.42 415.365C457.276 419.633 452.89 422.166 448.622 421.022L348.727 394.256C344.46 393.112 341.927 388.725 343.071 384.458L390.693 206.727C391.837 202.46 396.223 199.927 400.491 201.071L500.386 227.837Z"/>
</mask>
<path d="M500.386 227.837C504.653 228.981 507.186 233.367 506.043 237.635L458.42 415.365C457.276 419.633 452.89 422.166 448.622 421.022L348.727 394.256C344.46 393.112 341.927 388.725 343.071 384.458L390.693 206.727C391.837 202.46 396.223 199.927 400.491 201.071L500.386 227.837Z" fill="url(#paint0_linear_37_1002)"/>
<path fill-rule="evenodd" clip-rule="evenodd" d="M366.552 190.463C396.36 198.117 410.914 229.174 413.027 259.931C415.283 292.767 406.948 328.203 376.939 341.643C342.06 357.265 297.825 352.482 275.264 321.634C254.818 293.676 275.217 258.088 295.022 229.631C312.203 204.943 337.47 182.996 366.552 190.463Z" fill="#119787" fill-opacity="0.16"/>
<g clip-path="url(#clip1_37_1002)">
<path fill-rule="evenodd" clip-rule="evenodd" d="M447.76 403.223C447.869 403.659 447.606 404.104 447.17 404.215C444.556 404.884 441.801 404.865 439.181 404.163C436.561 403.461 434.166 402.1 432.236 400.213C431.915 399.899 431.909 399.383 432.222 399.059C432.536 398.736 433.05 398.729 433.371 399.043C435.1 400.733 437.25 401.956 439.604 402.586C441.958 403.217 444.43 403.233 446.773 402.634C447.208 402.522 447.65 402.786 447.76 403.223ZM447.015 399.769C447.124 400.206 446.861 400.65 446.425 400.762C444.357 401.291 442.176 401.276 440.103 400.721C438.031 400.165 436.135 399.088 434.608 397.595C434.287 397.281 434.281 396.765 434.594 396.441C434.907 396.118 435.422 396.11 435.743 396.424C437.07 397.721 438.719 398.66 440.526 399.144C442.333 399.628 444.231 399.64 446.028 399.18C446.463 399.069 446.905 399.333 447.015 399.769ZM446.361 396.492C446.469 396.929 446.203 397.372 445.767 397.481C444.222 397.869 442.593 397.854 441.044 397.439C439.494 397.024 438.076 396.223 436.931 395.114C436.609 394.801 436.6 394.285 436.912 393.96C437.224 393.635 437.739 393.625 438.061 393.938C439.006 394.853 440.18 395.517 441.466 395.862C442.752 396.207 444.101 396.218 445.377 395.898C445.813 395.789 446.253 396.054 446.361 396.492ZM445.579 393.13C445.714 393.559 445.477 394.018 445.05 394.156C444.006 394.49 442.894 394.519 441.841 394.237C440.788 393.954 439.839 393.374 439.103 392.562C438.801 392.229 438.825 391.713 439.157 391.409C439.489 391.105 440.003 391.128 440.305 391.461C440.834 392.044 441.513 392.458 442.263 392.66C443.014 392.861 443.809 392.841 444.559 392.601C444.987 392.464 445.444 392.701 445.579 393.13Z" fill="white"/>
</g>
<g filter="url(#filter0_ii_37_1002)">
<path d="M466.875 232.662C468.224 233.023 469.022 234.414 468.659 235.769L463.072 256.621C462.709 257.976 461.322 258.781 459.974 258.42L446.467 254.801C445.119 254.439 444.32 253.048 444.683 251.693L450.27 230.842C450.633 229.487 452.021 228.681 453.369 229.043L466.875 232.662Z" fill="#CDC9C1"/>
<path d="M466.875 232.662C468.224 233.023 469.022 234.414 468.659 235.769L463.072 256.621C462.709 257.976 461.322 258.781 459.974 258.42L446.467 254.801C445.119 254.439 444.32 253.048 444.683 251.693L450.27 230.842C450.633 229.487 452.021 228.681 453.369 229.043L466.875 232.662Z" fill="url(#paint1_radial_37_1002)" fill-opacity="0.1"/>
<path d="M466.875 232.662C468.224 233.023 469.022 234.414 468.659 235.769L463.072 256.621C462.709 257.976 461.322 258.781 459.974 258.42L446.467 254.801C445.119 254.439 444.32 253.048 444.683 251.693L450.27 230.842C450.633 229.487 452.021 228.681 453.369 229.043L466.875 232.662Z" fill="url(#paint2_radial_37_1002)" fill-opacity="0.1"/>
<path d="M466.875 232.662C468.224 233.023 469.022 234.414 468.659 235.769L463.072 256.621C462.709 257.976 461.322 258.781 459.974 258.42L446.467 254.801C445.119 254.439 444.32 253.048 444.683 251.693L450.27 230.842C450.633 229.487 452.021 228.681 453.369 229.043L466.875 232.662Z" fill="url(#paint3_radial_37_1002)" fill-opacity="0.1"/>
</g>
<mask id="mask0_37_1002" style="mask-type:alpha" maskUnits="userSpaceOnUse" x="444" y="228" width="25" height="31">
<path d="M466.875 232.662C468.224 233.023 469.022 234.414 468.659 235.769L463.072 256.621C462.709 257.976 461.322 258.781 459.974 258.42L446.467 254.801C445.119 254.439 444.32 253.048 444.683 251.693L450.27 230.842C450.633 229.487 452.021 228.681 453.369 229.043L466.875 232.662Z" fill="#D9D9D9"/>
</mask>
<g mask="url(#mask0_37_1002)">
<path fill-rule="evenodd" clip-rule="evenodd" d="M467.076 232.551C467.497 232.664 467.747 233.099 467.633 233.522L466.011 239.575C465.898 239.998 465.464 240.25 465.043 240.137L461.248 239.12C460.827 239.007 460.578 238.573 460.691 238.149L462.313 232.096C462.426 231.673 462.86 231.421 463.281 231.534L467.076 232.551ZM467.328 233.44C467.396 233.186 467.246 232.925 466.994 232.858L463.199 231.841C462.946 231.773 462.686 231.924 462.618 232.178L460.996 238.231C460.928 238.485 461.078 238.746 461.331 238.814L465.125 239.83C465.378 239.898 465.638 239.747 465.706 239.493L467.328 233.44Z" fill="#10141E"/>
<path fill-rule="evenodd" clip-rule="evenodd" d="M462.061 231.207C462.482 231.32 462.732 231.755 462.618 232.178L460.996 238.231C460.883 238.654 460.449 238.906 460.028 238.793L456.233 237.777C455.812 237.664 455.562 237.229 455.676 236.806L457.298 230.753C457.411 230.329 457.845 230.078 458.266 230.19L462.061 231.207ZM462.313 232.096C462.381 231.842 462.231 231.582 461.978 231.514L458.184 230.497C457.931 230.429 457.671 230.58 457.603 230.834L455.981 236.887C455.913 237.141 456.063 237.402 456.316 237.47L460.11 238.487C460.363 238.554 460.623 238.403 460.691 238.149L462.313 232.096Z" fill="#10141E"/>
<path fill-rule="evenodd" clip-rule="evenodd" d="M460.217 240.316C460.639 240.429 460.888 240.863 460.775 241.287L458.553 249.58C458.439 250.003 458.006 250.255 457.584 250.142L457.412 250.095C456.991 249.983 456.741 249.548 456.854 249.124L456.976 248.671C457.044 248.417 456.894 248.156 456.641 248.089L452.568 246.997C452.147 246.884 451.897 246.45 452.011 246.026L454.233 237.733C454.346 237.31 454.78 237.058 455.201 237.171L455.652 237.292C456.073 237.405 456.323 237.84 456.21 238.263L456.088 238.716C456.02 238.97 456.17 239.231 456.423 239.299L460.217 240.316ZM460.47 241.205C460.538 240.951 460.388 240.69 460.135 240.622L456.341 239.606C455.919 239.493 455.67 239.058 455.783 238.635L455.904 238.181C455.973 237.927 455.823 237.666 455.57 237.599L455.119 237.478C454.866 237.41 454.606 237.561 454.538 237.815L452.316 246.108C452.248 246.362 452.398 246.623 452.65 246.69L456.724 247.782C457.145 247.895 457.394 248.33 457.281 248.753L457.16 249.206C457.092 249.46 457.241 249.721 457.494 249.789L457.667 249.835C457.919 249.903 458.179 249.752 458.248 249.498L460.47 241.205Z" fill="#10141E"/>
<path fill-rule="evenodd" clip-rule="evenodd" d="M457.045 229.863C457.467 229.976 457.716 230.411 457.603 230.834L455.981 236.887C455.868 237.311 455.434 237.562 455.013 237.45L451.218 236.433C450.797 236.32 450.547 235.885 450.661 235.462L452.283 229.409C452.396 228.986 452.829 228.734 453.251 228.847L457.045 229.863ZM457.298 230.753C457.366 230.499 457.216 230.238 456.963 230.17L453.169 229.153C452.916 229.086 452.656 229.237 452.588 229.491L450.966 235.544C450.898 235.798 451.048 236.058 451.3 236.126L455.095 237.143C455.348 237.211 455.608 237.06 455.676 236.806L457.298 230.753Z" fill="#10141E"/>
<path fill-rule="evenodd" clip-rule="evenodd" d="M462.124 251.029C462.546 251.142 462.795 251.577 462.682 252L461.06 258.053C460.947 258.477 460.513 258.728 460.092 258.616L456.297 257.599C455.876 257.486 455.626 257.051 455.74 256.628L457.362 250.575C457.475 250.152 457.909 249.9 458.33 250.013L462.124 251.029ZM462.377 251.919C462.445 251.665 462.295 251.404 462.042 251.336L458.248 250.319C457.995 250.252 457.735 250.403 457.667 250.657L456.045 256.71C455.977 256.964 456.127 257.224 456.379 257.292L460.174 258.309C460.427 258.377 460.687 258.226 460.755 257.972L462.377 251.919Z" fill="#10141E"/>
<path fill-rule="evenodd" clip-rule="evenodd" d="M457.109 249.686C457.531 249.799 457.78 250.233 457.667 250.657L456.045 256.71C455.931 257.133 455.498 257.385 455.077 257.272L451.282 256.255C450.861 256.142 450.611 255.707 450.725 255.284L452.346 249.231C452.46 248.808 452.893 248.556 453.315 248.669L457.109 249.686ZM457.362 250.575C457.43 250.321 457.28 250.06 457.027 249.992L453.233 248.976C452.98 248.908 452.72 249.059 452.652 249.313L451.03 255.366C450.962 255.62 451.111 255.881 451.364 255.948L455.159 256.965C455.412 257.033 455.672 256.882 455.74 256.628L457.362 250.575Z" fill="#10141E"/>
<path fill-rule="evenodd" clip-rule="evenodd" d="M452.094 248.342C452.515 248.455 452.765 248.89 452.652 249.313L451.03 255.366C450.916 255.789 450.483 256.041 450.061 255.928L446.267 254.911C445.846 254.798 445.596 254.364 445.709 253.94L447.331 247.887C447.445 247.464 447.878 247.212 448.3 247.325L452.094 248.342ZM452.346 249.231C452.414 248.977 452.265 248.716 452.012 248.649L448.217 247.632C447.965 247.564 447.704 247.715 447.636 247.969L446.015 254.022C445.946 254.276 446.096 254.537 446.349 254.605L450.144 255.621C450.396 255.689 450.656 255.538 450.725 255.284L452.346 249.231Z" fill="#10141E"/>
</g>
<path d="M440.771 228.865L440.085 228.682L440.386 227.725L439.453 228.082L439.25 227.376L440.255 227.131L439.507 226.416L440.032 225.919L440.665 226.682L440.877 225.71L441.562 225.894L441.251 226.839L442.194 226.498L442.4 227.191L441.394 227.436L442.143 228.151L441.614 228.661L440.971 227.886L440.771 228.865Z" fill="white"/>
<path d="M439.436 233.863L438.75 233.68L439.051 232.723L438.118 233.08L437.915 232.374L438.921 232.129L438.172 231.414L438.698 230.917L439.331 231.68L439.542 230.709L440.228 230.892L439.917 231.837L440.859 231.496L441.065 232.189L440.06 232.434L440.808 233.149L440.279 233.659L439.636 232.884L439.436 233.863Z" fill="white"/>
<path d="M438.101 238.861L437.416 238.678L437.716 237.721L436.783 238.078L436.58 237.372L437.586 237.127L436.838 236.412L437.363 235.915L437.996 236.678L438.207 235.707L438.893 235.89L438.582 236.835L439.524 236.494L439.73 237.188L438.725 237.432L439.473 238.147L438.944 238.657L438.301 237.882L438.101 238.861Z" fill="white"/>
<path d="M436.767 243.859L436.081 243.675L436.382 242.718L435.449 243.076L435.246 242.37L436.251 242.125L435.503 241.41L436.028 240.912L436.661 241.676L436.872 240.704L437.558 240.888L437.247 241.833L438.189 241.491L438.396 242.185L437.39 242.43L438.138 243.145L437.61 243.655L436.967 242.88L436.767 243.859Z" fill="white"/>
<path d="M434.508 252.32L433.823 252.137L434.123 251.18L433.19 251.537L432.987 250.831L433.993 250.586L433.245 249.871L433.77 249.374L434.403 250.137L434.614 249.166L435.3 249.349L434.989 250.294L435.931 249.953L436.137 250.647L435.132 250.891L435.88 251.606L435.351 252.116L434.708 251.341L434.508 252.32Z" fill="white"/>
<path d="M433.169 257.317L432.484 257.133L432.785 256.176L431.851 256.534L431.649 255.828L432.654 255.583L431.906 254.868L432.431 254.37L433.064 255.134L433.275 254.162L433.961 254.346L433.65 255.291L434.592 254.949L434.798 255.643L433.793 255.888L434.541 256.603L434.013 257.113L433.369 256.338L433.169 257.317Z" fill="white"/>
<path d="M431.835 262.315L431.149 262.131L431.455 261.172L430.522 261.529L430.319 260.823L431.325 260.578L430.576 259.863L431.102 259.365L431.734 260.129L431.946 259.157L432.632 259.341L432.32 260.286L433.263 259.945L433.469 260.638L432.463 260.883L433.212 261.598L432.683 262.108L432.04 261.333L431.835 262.315Z" fill="white"/>
<path d="M430.5 267.313L429.814 267.129L430.116 266.168L429.183 266.525L428.98 265.819L429.986 265.575L429.237 264.86L429.763 264.362L430.396 265.126L430.607 264.154L431.293 264.338L430.982 265.283L431.924 264.941L432.13 265.635L431.125 265.88L431.873 266.594L431.348 267.106L430.705 266.33L430.5 267.313Z" fill="white"/>
<path d="M428.242 275.774L427.556 275.59L427.857 274.633L426.924 274.991L426.721 274.285L427.726 274.04L426.978 273.325L427.503 272.827L428.136 273.591L428.348 272.619L429.033 272.803L428.722 273.748L429.664 273.406L429.871 274.1L428.865 274.345L429.613 275.06L429.085 275.57L428.442 274.795L428.242 275.774Z" fill="white"/>
<path d="M426.904 280.767L426.218 280.583L426.519 279.626L425.586 279.983L425.383 279.277L426.389 279.033L425.64 278.318L426.165 277.82L426.798 278.584L427.01 277.612L427.696 277.796L427.384 278.741L428.327 278.399L428.533 279.093L427.527 279.338L428.276 280.052L427.751 280.564L427.108 279.788L426.904 280.767Z" fill="white"/>
<path d="M425.569 285.765L424.883 285.581L425.184 284.624L424.251 284.981L424.048 284.275L425.054 284.031L424.305 283.316L424.831 282.818L425.464 283.582L425.675 282.61L426.361 282.794L426.05 283.739L426.992 283.397L427.198 284.091L426.193 284.336L426.941 285.051L426.412 285.561L425.769 284.785L425.569 285.765Z" fill="white"/>
<path d="M424.234 290.763L423.549 290.579L423.85 289.622L422.916 289.98L422.714 289.273L423.719 289.029L422.971 288.314L423.496 287.816L424.129 288.58L424.34 287.608L425.026 287.792L424.715 288.737L425.657 288.395L425.863 289.089L424.858 289.334L425.606 290.049L425.078 290.559L424.434 289.783L424.234 290.763Z" fill="white"/>
<path d="M416.301 294.272L417.115 294.49L419.112 297.845C419.63 298.737 420.143 299.251 420.65 299.387C421.069 299.5 421.432 299.459 421.738 299.266C422.043 299.073 422.243 298.794 422.342 298.422C422.531 297.719 422.332 297.116 421.748 296.618L422.461 295.918C422.885 296.28 423.163 296.705 423.302 297.185C423.441 297.666 423.441 298.162 423.311 298.664C423.144 299.289 422.791 299.775 422.255 300.128C421.715 300.48 421.101 300.563 420.398 300.375C419.642 300.172 418.933 299.508 418.277 298.383L416.883 295.971L415.984 299.343L415.02 299.085L416.301 294.272Z" fill="white"/>
<path d="M418.244 304.741C417.983 305.283 417.614 305.68 417.129 305.941C416.645 306.201 416.11 306.253 415.516 306.094C414.789 305.899 414.282 305.497 413.991 304.887C413.7 304.277 413.654 303.618 413.845 302.906C413.996 302.339 414.26 301.869 414.641 301.497C415.02 301.129 415.478 300.914 416.023 300.861L416.295 301.825C415.542 301.858 415.052 302.307 414.821 303.168C414.697 303.631 414.717 304.04 414.884 304.395C415.048 304.749 415.349 304.989 415.786 305.102C416.223 305.219 416.602 305.166 416.926 304.938C417.249 304.714 417.474 304.371 417.599 303.908L417.667 303.651L418.384 303.422L420.265 305.775L421.149 302.46L422.08 302.71L420.885 307.187L420.013 306.949L418.244 304.741Z" fill="white"/>
<path d="M413.69 313.491L412.759 313.242L413.002 312.336L411.576 311.954L411.841 310.965L413.266 311.347L414.281 307.545L415.212 307.794L419.637 311.844L419.351 312.911L414.926 308.862L414.192 311.6L416.312 312.168L416.047 313.156L413.927 312.588L413.69 313.491Z" fill="white"/>
<path d="M414.865 317.983C414.677 318.686 414.309 319.226 413.763 319.603C413.216 319.979 412.573 320.069 411.838 319.872C411.11 319.677 410.603 319.275 410.312 318.665C410.022 318.055 409.976 317.395 410.166 316.684C410.318 316.117 410.592 315.645 410.986 315.272C411.38 314.899 411.863 314.691 412.43 314.653L412.687 315.621C412.295 315.623 411.968 315.744 411.702 315.974C411.434 316.208 411.25 316.531 411.14 316.94C411.015 317.408 411.033 317.821 411.2 318.18C411.363 318.534 411.665 318.77 412.102 318.887C412.538 319.004 412.918 318.951 413.241 318.723C413.565 318.495 413.79 318.156 413.912 317.701L414.477 315.591L418.292 316.897L417.2 320.989L416.269 320.74L417.118 317.554L415.162 316.892L414.865 317.983Z" fill="white"/>
<path fill-rule="evenodd" clip-rule="evenodd" d="M360.591 368.092C358.405 376.251 363.114 384.602 371.109 386.744C379.103 388.886 387.357 384.009 389.543 375.85C390.523 372.193 390.118 368.498 388.652 365.341C391.5 363.339 393.698 360.342 394.678 356.685C396.864 348.526 392.155 340.175 384.161 338.033C376.166 335.891 367.912 340.768 365.726 348.927C364.746 352.584 365.151 356.279 366.617 359.436C363.769 361.438 361.571 364.436 360.591 368.092Z" fill="#ED0006"/>
<path fill-rule="evenodd" clip-rule="evenodd" d="M366.617 359.437C368.421 363.324 371.832 366.397 376.244 367.579C380.656 368.761 385.146 367.806 388.652 365.341C390.118 368.498 390.523 372.194 389.543 375.85C387.357 384.009 379.104 388.887 371.109 386.744C363.114 384.602 358.405 376.251 360.591 368.093C361.571 364.436 363.769 361.438 366.617 359.437Z" fill="#F9A000"/>
<path fill-rule="evenodd" clip-rule="evenodd" d="M366.617 359.437C368.421 363.324 371.833 366.397 376.244 367.579C380.656 368.761 385.147 367.806 388.653 365.341C386.849 361.453 383.438 358.381 379.026 357.199C374.614 356.017 370.124 356.972 366.617 359.437Z" fill="#FF5E00"/>
</g>
<path d="M500.386 227.837C506.787 229.552 510.586 236.133 508.871 242.534L463.319 412.537C461.604 418.939 455.024 422.738 448.622 421.022C450.756 421.594 453.413 418.598 454.556 414.33L502.179 236.6C503.322 232.332 502.52 228.409 500.386 227.837ZM341 392.185L392.764 199L341 392.185ZM392.764 199L508.113 229.908L392.764 199ZM456.349 423.093L341 392.185L456.349 423.093Z" fill="#2F3860" mask="url(#path-2-outside-1_37_1002)"/>
<path d="M407.585 81.2583C408.363 78.3542 411.343 76.6293 414.24 77.4056L550.634 113.952C553.531 114.729 555.249 117.712 554.471 120.616L495.295 341.465C494.517 344.369 491.537 346.094 488.64 345.317L352.246 308.77C349.349 307.994 347.631 305.011 348.409 302.107L407.585 81.2583Z" fill="#3DB4A4"/>
<path fill-rule="evenodd" clip-rule="evenodd" d="M558.308 127.28C559.864 121.472 556.429 115.505 550.634 113.952C553.531 114.729 555.249 117.712 554.471 120.616L495.295 341.465C494.517 344.369 491.537 346.094 488.64 345.317C494.435 346.87 500.394 343.42 501.95 337.612L558.308 127.28Z" fill="#2F3860"/>
<path d="M413.46 122.283C414.238 119.379 417.218 117.654 420.115 118.431L525.034 146.543C527.931 147.32 529.649 150.303 528.871 153.207L520.417 184.757C519.639 187.661 516.659 189.386 513.762 188.61L408.843 160.497C405.946 159.721 404.228 156.737 405.006 153.833L413.46 122.283Z" fill="#0B3C6F"/>
<path d="M419.096 101.25C419.874 98.346 422.854 96.6211 425.751 97.3974L457.226 105.831C460.124 106.608 461.842 109.591 461.063 112.495C460.285 115.399 457.306 117.124 454.409 116.348L422.933 107.914C420.036 107.138 418.318 104.154 419.096 101.25Z" fill="#9BD0C9"/>
<path d="M466.309 113.901C467.088 110.997 470.067 109.272 472.964 110.048L478.21 111.454C481.107 112.23 482.825 115.214 482.047 118.118C481.269 121.022 478.29 122.747 475.392 121.97L470.146 120.565C467.249 119.789 465.531 116.805 466.309 113.901Z" fill="#9BD0C9"/>
<path d="M518.769 127.957C519.547 125.053 522.526 123.328 525.424 124.105C528.321 124.881 530.039 127.865 529.261 130.769C528.482 133.673 525.503 135.398 522.606 134.621C519.708 133.845 517.991 130.861 518.769 127.957Z" fill="#156DCB"/>
<path d="M503.031 123.74C503.809 120.836 506.789 119.111 509.686 119.888C512.583 120.664 514.301 123.648 513.523 126.552C512.745 129.456 509.765 131.181 506.868 130.404C503.971 129.628 502.253 126.644 503.031 123.74Z" fill="#9BD0C9"/>
<path d="M399.371 174.866C400.149 171.962 403.128 170.237 406.026 171.014L416.517 173.825C419.415 174.601 421.132 177.585 420.354 180.489L417.536 191.005C416.758 193.909 413.779 195.634 410.882 194.858L400.39 192.047C397.492 191.27 395.775 188.287 396.553 185.383L399.371 174.866Z" fill="white"/>
<path d="M390.917 206.416C391.695 203.512 394.675 201.787 397.572 202.563L408.064 205.375C410.961 206.151 412.679 209.134 411.901 212.039L409.083 222.555C408.305 225.459 405.325 227.184 402.428 226.408L391.936 223.596C389.039 222.82 387.321 219.837 388.099 216.933L390.917 206.416Z" fill="white"/>
<path d="M382.463 237.966C383.241 235.062 386.221 233.337 389.118 234.113L399.61 236.924C402.507 237.701 404.225 240.684 403.447 243.588L400.629 254.105C399.851 257.009 396.871 258.734 393.974 257.957L383.482 255.146C380.585 254.37 378.867 251.386 379.645 248.482L382.463 237.966Z" fill="white"/>
<path d="M374.009 269.515C374.788 266.611 377.767 264.886 380.664 265.663L422.632 276.908C425.529 277.684 427.247 280.668 426.469 283.572L423.651 294.088C422.873 296.993 419.893 298.717 416.996 297.941L375.028 286.696C372.131 285.92 370.413 282.936 371.192 280.032L374.009 269.515Z" fill="white"/>
<path d="M430.846 183.3C431.624 180.396 434.604 178.671 437.501 179.447L447.993 182.259C450.89 183.035 452.608 186.019 451.83 188.923L449.012 199.439C448.234 202.343 445.254 204.068 442.357 203.292L431.865 200.481C428.968 199.704 427.25 196.721 428.028 193.817L430.846 183.3Z" fill="white"/>
<path d="M422.392 214.85C423.171 211.946 426.15 210.221 429.047 210.997L439.539 213.808C442.436 214.585 444.154 217.568 443.376 220.472L440.558 230.989C439.78 233.893 436.801 235.618 433.903 234.842L423.412 232.03C420.514 231.254 418.796 228.27 419.575 225.366L422.392 214.85Z" fill="white"/>
<path d="M413.939 246.4C414.717 243.495 417.696 241.771 420.594 242.547L431.085 245.358C433.983 246.135 435.701 249.118 434.922 252.022L432.105 262.539C431.326 265.443 428.347 267.168 425.45 266.391L414.958 263.58C412.061 262.804 410.343 259.82 411.121 256.916L413.939 246.4Z" fill="white"/>
<path d="M462.322 191.734C463.1 188.83 466.079 187.105 468.977 187.881L479.469 190.693C482.366 191.469 484.084 194.452 483.305 197.356L480.488 207.873C479.709 210.777 476.73 212.502 473.833 211.726L463.341 208.914C460.444 208.138 458.726 205.155 459.504 202.25L462.322 191.734Z" fill="white"/>
<path d="M453.868 223.284C454.646 220.38 457.626 218.655 460.523 219.431L471.015 222.242C473.912 223.019 475.63 226.002 474.852 228.906L472.034 239.423C471.256 242.327 468.276 244.052 465.379 243.275L454.887 240.464C451.99 239.688 450.272 236.704 451.05 233.8L453.868 223.284Z" fill="white"/>
<path d="M445.414 254.833C446.192 251.929 449.172 250.204 452.069 250.981L462.561 253.792C465.458 254.568 467.176 257.552 466.398 260.456L463.58 270.973C462.802 273.877 459.822 275.602 456.925 274.825L446.433 272.014C443.536 271.238 441.818 268.254 442.596 265.35L445.414 254.833Z" fill="white"/>
<path d="M436.961 286.383C437.739 283.479 440.718 281.754 443.615 282.53L454.107 285.342C457.005 286.118 458.722 289.102 457.944 292.006L455.126 302.522C454.348 305.426 451.369 307.151 448.472 306.375L437.98 303.564C435.082 302.787 433.365 299.804 434.143 296.9L436.961 286.383Z" fill="white"/>
<path d="M493.797 200.168C494.575 197.264 497.555 195.539 500.452 196.315L510.944 199.126C513.841 199.903 515.559 202.886 514.781 205.79L511.963 216.307C511.185 219.211 508.206 220.936 505.308 220.16L494.816 217.348C491.919 216.572 490.201 213.588 490.979 210.684L493.797 200.168Z" fill="#86CCC3"/>
<path d="M485.344 231.718C486.122 228.813 489.101 227.089 491.999 227.865L502.49 230.676C505.388 231.452 507.105 234.436 506.327 237.34L503.509 247.857C502.731 250.761 499.752 252.486 496.855 251.709L486.363 248.898C483.465 248.122 481.748 245.138 482.526 242.234L485.344 231.718Z" fill="#86CCC3"/>
<path d="M476.89 263.267C477.668 260.363 480.648 258.638 483.545 259.415L494.037 262.226C496.934 263.002 498.652 265.986 497.874 268.89L495.056 279.406C494.278 282.31 491.298 284.035 488.401 283.259L477.909 280.448C475.012 279.671 473.294 276.688 474.072 273.784L476.89 263.267Z" fill="#86CCC3"/>
<path d="M468.436 294.817C469.214 291.913 472.194 290.188 475.091 290.964L485.583 293.776C488.48 294.552 490.198 297.536 489.42 300.44L486.602 310.956C485.824 313.86 482.844 315.585 479.947 314.809L469.455 311.998C466.558 311.221 464.84 308.238 465.618 305.334L468.436 294.817Z" fill="#156DCB"/>
<path d="M491.262 440.47C492.057 440.781 492.447 441.674 492.131 442.465C491.816 443.256 490.915 443.646 490.12 443.335L478.6 438.841C477.805 438.53 477.416 437.637 477.731 436.846C478.047 436.055 478.947 435.665 479.742 435.975L491.262 440.47Z" fill="#156DCB"/>
<path d="M465.268 461.104C465.333 461.951 464.694 462.693 463.841 462.761C462.988 462.829 462.244 462.197 462.178 461.35L461.234 449.079C461.169 448.232 461.807 447.49 462.66 447.422C463.514 447.354 464.258 447.986 464.323 448.833L465.268 461.104Z" fill="#156DCB"/>
<path d="M481.371 454.434C481.878 455.116 481.731 456.08 481.042 456.586C480.353 457.093 479.383 456.95 478.876 456.268L471.527 446.383C471.02 445.701 471.167 444.737 471.856 444.23C472.545 443.724 473.515 443.866 474.022 444.549L481.371 454.434Z" fill="#156DCB"/>
<g filter="url(#filter1_d_37_1002)">
<path fill-rule="evenodd" clip-rule="evenodd" d="M249.071 53.8638C248.499 51.7299 246.306 50.4636 244.172 51.0354L167.864 71.4821C165.73 72.0538 164.464 74.2472 165.035 76.381L203.007 218.093C203.249 218.995 204.484 219.103 204.879 218.257L205.596 216.722C205.8 216.285 206.347 216.138 206.743 216.415L210.623 219.129C211.132 219.486 211.84 219.296 212.102 218.733L214.105 214.442C214.309 214.005 214.857 213.858 215.253 214.134L219.133 216.849C219.642 217.206 220.349 217.016 220.612 216.453L222.615 212.162C222.819 211.724 223.367 211.578 223.762 211.854L227.643 214.569C228.152 214.925 228.859 214.736 229.122 214.173L231.125 209.881C231.329 209.444 231.877 209.297 232.272 209.574L236.555 212.571C237.074 212.934 237.796 212.729 238.047 212.147L240.024 207.562C240.222 207.101 240.797 206.947 241.199 207.247L245.095 210.149C245.613 210.534 246.355 210.336 246.61 209.743L248.533 205.282C248.732 204.821 249.306 204.667 249.709 204.967L253.713 207.95C254.221 208.328 254.949 208.145 255.217 207.571L257.428 202.834C257.632 202.396 258.18 202.25 258.575 202.526L262.455 205.241C262.964 205.597 263.672 205.408 263.935 204.845L265.938 200.553C266.142 200.116 266.689 199.969 267.085 200.246L270.965 202.961C271.474 203.317 272.182 203.128 272.444 202.565L274.447 198.273C274.651 197.836 275.199 197.689 275.595 197.966L279.475 200.681C279.984 201.037 280.691 200.847 280.954 200.284L282.957 195.993C283.161 195.556 283.709 195.409 284.104 195.686L285.507 196.667C286.272 197.202 287.288 196.49 287.046 195.589L249.071 53.8638Z" fill="#F3F6FF"/>
</g>
<path d="M202.81 94.2014C202.524 93.1345 203.157 92.0378 204.224 91.7519L223.543 86.5755C224.61 86.2896 225.707 86.9228 225.992 87.9897V87.9897C226.278 89.0567 225.645 90.1533 224.578 90.4392L205.26 95.6156C204.193 95.9015 203.096 95.2683 202.81 94.2014V94.2014Z" fill="#CFD9F4"/>
<path d="M193.29 105.035C193.004 103.968 193.637 102.871 194.704 102.585L237.205 91.1971C238.272 90.9112 239.368 91.5444 239.654 92.6113V92.6113C239.94 93.6783 239.307 94.7749 238.24 95.0608L195.739 106.449C194.672 106.735 193.576 106.102 193.29 105.035V105.035Z" fill="#CFD9F4"/>
<path d="M186.616 126.493C186.33 125.426 186.963 124.33 188.03 124.044L200.587 120.679C201.654 120.393 202.751 121.027 203.037 122.093V122.093C203.323 123.16 202.69 124.257 201.623 124.543L189.066 127.908C187.999 128.193 186.902 127.56 186.616 126.493V126.493Z" fill="#CFD9F4"/>
<path d="M240.985 128.489C240.699 127.423 241.333 126.326 242.4 126.04L254.957 122.675C256.024 122.389 257.12 123.023 257.406 124.09V124.09C257.692 125.156 257.059 126.253 255.992 126.539L243.435 129.904C242.368 130.19 241.271 129.556 240.985 128.489V128.489Z" fill="#CFD9F4"/>
<path d="M243.056 136.217C242.77 135.15 243.403 134.053 244.47 133.768L257.027 130.403C258.094 130.117 259.191 130.75 259.477 131.817V131.817C259.762 132.884 259.129 133.981 258.062 134.267L245.505 137.631C244.438 137.917 243.342 137.284 243.056 136.217V136.217Z" fill="#CFD9F4"/>
<path d="M250.303 163.263C250.017 162.196 250.65 161.099 251.717 160.813L264.274 157.449C265.341 157.163 266.438 157.796 266.724 158.863V158.863C267.009 159.93 266.376 161.027 265.309 161.312L252.752 164.677C251.685 164.963 250.589 164.33 250.303 163.263V163.263Z" fill="#CFD9F4"/>
<path d="M252.373 170.99C252.087 169.923 252.721 168.826 253.788 168.54L266.345 165.176C267.412 164.89 268.508 165.523 268.794 166.59V166.59C269.08 167.657 268.447 168.754 267.38 169.04L254.823 172.404C253.756 172.69 252.659 172.057 252.373 170.99V170.99Z" fill="#CFD9F4"/>
<path d="M190.757 141.948C190.471 140.881 191.104 139.784 192.171 139.498L234.672 128.11C235.739 127.825 236.836 128.458 237.122 129.525V129.525C237.408 130.592 236.774 131.688 235.707 131.974L193.207 143.362C192.14 143.648 191.043 143.015 190.757 141.948V141.948Z" fill="#CFD9F4"/>
<path d="M192.828 149.676C192.542 148.609 193.175 147.512 194.242 147.226L221.288 139.979C222.355 139.693 223.451 140.326 223.737 141.393V141.393C224.023 142.46 223.39 143.557 222.323 143.843L195.277 151.09C194.21 151.376 193.114 150.742 192.828 149.676V149.676Z" fill="#CFD9F4"/>
<path d="M200.075 176.721C199.789 175.654 200.422 174.558 201.489 174.272L228.535 167.025C229.602 166.739 230.698 167.372 230.984 168.439V168.439C231.27 169.506 230.637 170.603 229.57 170.889L202.524 178.136C201.457 178.421 200.361 177.788 200.075 176.721V176.721Z" fill="#CFD9F4"/>
<path d="M205.251 196.04C204.965 194.973 205.598 193.876 206.665 193.59L269.45 176.767C270.517 176.481 271.614 177.114 271.9 178.181V178.181C272.186 179.248 271.553 180.345 270.486 180.631L207.701 197.454C206.634 197.74 205.537 197.107 205.251 196.04V196.04Z" fill="#CFD9F4"/>
<path d="M202.145 184.449C201.859 183.382 202.493 182.285 203.559 181.999L215.151 178.894C216.217 178.608 217.314 179.241 217.6 180.308V180.308C217.886 181.375 217.253 182.471 216.186 182.757L204.595 185.863C203.528 186.149 202.431 185.516 202.145 184.449V184.449Z" fill="#CFD9F4"/>
<path d="M219.919 73.0527C221.349 78.3874 218.183 83.8707 212.848 85.3002C207.514 86.7296 202.03 83.5637 200.601 78.2291C199.172 72.8944 202.337 67.4111 207.672 65.9816C213.007 64.5522 218.49 67.718 219.919 73.0527Z" fill="#CFD9F4"/>
<g filter="url(#filter2_d_37_1002)">
<circle cx="212.456" cy="286.456" r="26.5" transform="rotate(15 212.456 286.456)" fill="#158A7B"/>
</g>
<path d="M208.779 273.565C211.976 274.421 213.574 277.23 212.769 280.234C211.965 283.237 209.176 284.871 205.979 284.014C202.752 283.149 201.153 280.34 201.958 277.337C202.763 274.334 205.552 272.7 208.779 273.565ZM198.849 295.08L220.825 277.497L225.839 278.84L203.863 296.424L198.849 295.08ZM206.843 280.792C207.877 281.069 208.862 280.528 209.197 279.277C209.541 277.994 208.942 277.096 207.907 276.819C206.873 276.541 205.905 277.02 205.562 278.303C205.218 279.585 205.809 280.515 206.843 280.792ZM218.842 289.909C222.039 290.765 223.637 293.574 222.832 296.577C222.028 299.581 219.239 301.214 216.042 300.358C212.815 299.493 211.216 296.684 212.021 293.681C212.826 290.677 215.615 289.044 218.842 289.909ZM216.906 297.135C217.94 297.412 218.925 296.872 219.26 295.62C219.604 294.337 219.005 293.439 217.971 293.162C216.936 292.885 215.969 293.363 215.625 294.646C215.281 295.929 215.872 296.858 216.906 297.135Z" fill="white"/>
<g filter="url(#filter3_d_37_1002)">
<circle cx="164.456" cy="340.456" r="26.5" transform="rotate(15 164.456 340.456)" fill="#3DB4A4"/>
</g>
<path d="M160.779 327.565C163.976 328.421 165.574 331.23 164.769 334.234C163.965 337.237 161.176 338.871 157.979 338.014C154.752 337.149 153.153 334.34 153.958 331.337C154.763 328.334 157.552 326.7 160.779 327.565ZM150.849 349.08L172.825 331.497L177.839 332.84L155.863 350.424L150.849 349.08ZM158.843 334.792C159.877 335.069 160.862 334.528 161.197 333.277C161.541 331.994 160.942 331.096 159.907 330.819C158.873 330.541 157.905 331.02 157.562 332.303C157.218 333.585 157.809 334.515 158.843 334.792ZM170.842 343.909C174.039 344.765 175.637 347.574 174.832 350.577C174.028 353.581 171.239 355.214 168.042 354.358C164.815 353.493 163.216 350.684 164.021 347.681C164.826 344.677 167.615 343.044 170.842 343.909ZM168.906 351.135C169.94 351.412 170.925 350.872 171.26 349.62C171.604 348.337 171.005 347.439 169.971 347.162C168.936 346.885 167.969 347.363 167.625 348.646C167.281 349.929 167.872 350.858 168.906 351.135Z" fill="white"/>
<g filter="url(#filter4_d_37_1002)">
<circle cx="129.456" cy="300.456" r="26.5" transform="rotate(-15 129.456 300.456)" fill="#5DC1B4"/>
</g>
<path d="M119.827 291.13C123.023 290.273 125.812 291.907 126.616 294.91C127.421 297.914 125.823 300.723 122.626 301.579C119.399 302.444 116.61 300.81 115.805 297.807C115 294.804 116.599 291.995 119.827 291.13ZM121.985 314.728L132.224 288.512L137.238 287.169L126.999 313.384L121.985 314.728ZM121.763 298.357C122.797 298.08 123.379 297.119 123.044 295.867C122.7 294.585 121.732 294.106 120.698 294.384C119.664 294.661 119.065 295.559 119.409 296.842C119.753 298.124 120.729 298.634 121.763 298.357ZM136.713 300.252C139.91 299.396 142.698 301.029 143.503 304.033C144.308 307.036 142.709 309.845 139.513 310.702C136.285 311.566 133.497 309.933 132.692 306.93C131.887 303.926 133.486 301.117 136.713 300.252ZM138.65 307.479C139.684 307.202 140.266 306.241 139.931 304.99C139.587 303.707 138.619 303.229 137.585 303.506C136.551 303.783 135.952 304.681 136.296 305.964C136.639 307.247 137.616 307.756 138.65 307.479Z" fill="white"/>
<defs>
<filter id="filter0_ii_37_1002" x="444.596" y="228.957" width="24.1514" height="29.5498" filterUnits="userSpaceOnUse" color-interpolation-filters="sRGB">
<feFlood flood-opacity="0" result="BackgroundImageFix"/>
<feBlend mode="normal" in="SourceGraphic" in2="BackgroundImageFix" result="shape"/>
<feColorMatrix in="SourceAlpha" type="matrix" values="0 0 0 0 0 0 0 0 0 0 0 0 0 0 0 0 0 0 127 0" result="hardAlpha"/>
<feOffset dx="-1" dy="-1"/>
<feComposite in2="hardAlpha" operator="arithmetic" k2="-1" k3="1"/>
<feColorMatrix type="matrix" values="0 0 0 0 0.184314 0 0 0 0 0.152941 0 0 0 0 0.0941176 0 0 0 0.2 0"/>
<feBlend mode="normal" in2="shape" result="effect1_innerShadow_37_1002"/>
<feColorMatrix in="SourceAlpha" type="matrix" values="0 0 0 0 0 0 0 0 0 0 0 0 0 0 0 0 0 0 127 0" result="hardAlpha"/>
<feOffset dx="1" dy="1"/>
<feComposite in2="hardAlpha" operator="arithmetic" k2="-1" k3="1"/>
<feColorMatrix type="matrix" values="0 0 0 0 0.184314 0 0 0 0 0.152941 0 0 0 0 0.0941176 0 0 0 0.2 0"/>
<feBlend mode="normal" in2="effect1_innerShadow_37_1002" result="effect2_innerShadow_37_1002"/>
</filter>
<filter id="filter1_d_37_1002" x="164.898" y="50.8979" width="126.184" height="170.413" filterUnits="userSpaceOnUse" color-interpolation-filters="sRGB">
<feFlood flood-opacity="0" result="BackgroundImageFix"/>
<feColorMatrix in="SourceAlpha" type="matrix" values="0 0 0 0 0 0 0 0 0 0 0 0 0 0 0 0 0 0 127 0" result="hardAlpha"/>
<feOffset dx="4" dy="2"/>
<feComposite in2="hardAlpha" operator="out"/>
<feColorMatrix type="matrix" values="0 0 0 0 0.0431373 0 0 0 0 0.235294 0 0 0 0 0.435294 0 0 0 1 0"/>
<feBlend mode="normal" in2="BackgroundImageFix" result="effect1_dropShadow_37_1002"/>
<feBlend mode="normal" in="SourceGraphic" in2="effect1_dropShadow_37_1002" result="shape"/>
</filter>
<filter id="filter2_d_37_1002" x="185.949" y="259.949" width="57.0132" height="57.0132" filterUnits="userSpaceOnUse" color-interpolation-filters="sRGB">
<feFlood flood-opacity="0" result="BackgroundImageFix"/>
<feColorMatrix in="SourceAlpha" type="matrix" values="0 0 0 0 0 0 0 0 0 0 0 0 0 0 0 0 0 0 127 0" result="hardAlpha"/>
<feOffset dx="4" dy="4"/>
<feComposite in2="hardAlpha" operator="out"/>
<feColorMatrix type="matrix" values="0 0 0 0 0.184314 0 0 0 0 0.219608 0 0 0 0 0.376471 0 0 0 1 0"/>
<feBlend mode="normal" in2="BackgroundImageFix" result="effect1_dropShadow_37_1002"/>
<feBlend mode="normal" in="SourceGraphic" in2="effect1_dropShadow_37_1002" result="shape"/>
</filter>
<filter id="filter3_d_37_1002" x="137.949" y="313.949" width="57.0132" height="57.0132" filterUnits="userSpaceOnUse" color-interpolation-filters="sRGB">
<feFlood flood-opacity="0" result="BackgroundImageFix"/>
<feColorMatrix in="SourceAlpha" type="matrix" values="0 0 0 0 0 0 0 0 0 0 0 0 0 0 0 0 0 0 127 0" result="hardAlpha"/>
<feOffset dx="4" dy="4"/>
<feComposite in2="hardAlpha" operator="out"/>
<feColorMatrix type="matrix" values="0 0 0 0 0.184314 0 0 0 0 0.219608 0 0 0 0 0.376471 0 0 0 1 0"/>
<feBlend mode="normal" in2="BackgroundImageFix" result="effect1_dropShadow_37_1002"/>
<feBlend mode="normal" in="SourceGraphic" in2="effect1_dropShadow_37_1002" result="shape"/>
</filter>
<filter id="filter4_d_37_1002" x="102.949" y="273.949" width="57.0132" height="57.0132" filterUnits="userSpaceOnUse" color-interpolation-filters="sRGB">
<feFlood flood-opacity="0" result="BackgroundImageFix"/>
<feColorMatrix in="SourceAlpha" type="matrix" values="0 0 0 0 0 0 0 0 0 0 0 0 0 0 0 0 0 0 127 0" result="hardAlpha"/>
<feOffset dx="4" dy="4"/>
<feComposite in2="hardAlpha" operator="out"/>
<feColorMatrix type="matrix" values="0 0 0 0 0.184314 0 0 0 0 0.219608 0 0 0 0 0.376471 0 0 0 1 0"/>
<feBlend mode="normal" in2="BackgroundImageFix" result="effect1_dropShadow_37_1002"/>
<feBlend mode="normal" in="SourceGraphic" in2="effect1_dropShadow_37_1002" result="shape"/>
</filter>
<linearGradient id="paint0_linear_37_1002" x1="392.765" y1="198.997" x2="535.624" y2="346.112" gradientUnits="userSpaceOnUse">
<stop stop-color="#0B6B5F"/>
<stop offset="1" stop-color="#0B6A61"/>
</linearGradient>
<radialGradient id="paint1_radial_37_1002" cx="0" cy="0" r="1" gradientUnits="userSpaceOnUse" gradientTransform="translate(467.591 239.755) rotate(175.701) scale(20.1713 28.2246)">
<stop stop-color="#C29632"/>
<stop offset="1" stop-color="#C29632" stop-opacity="0"/>
</radialGradient>
<radialGradient id="paint2_radial_37_1002" cx="0" cy="0" r="1" gradientUnits="userSpaceOnUse" gradientTransform="translate(452.942 256.536) rotate(-109.694) scale(16.2166 22.5666)">
<stop stop-color="#664700"/>
<stop offset="1" stop-color="#664700"/>
</radialGradient>
<radialGradient id="paint3_radial_37_1002" cx="0" cy="0" r="1" gradientUnits="userSpaceOnUse" gradientTransform="translate(450.027 231.748) rotate(83.2944) scale(24.958 34.6676)">
<stop stop-color="#402200"/>
<stop offset="1" stop-color="#402200" stop-opacity="0"/>
</radialGradient>
<clipPath id="clip0_37_1002">
<path d="M500.386 227.837C504.653 228.981 507.186 233.367 506.043 237.635L458.42 415.365C457.276 419.633 452.89 422.166 448.622 421.022L348.727 394.256C344.46 393.112 341.927 388.725 343.071 384.458L390.693 206.727C391.837 202.46 396.223 199.927 400.491 201.071L500.386 227.837Z" fill="white"/>
</clipPath>
<clipPath id="clip1_37_1002">
<rect width="13.3333" height="16.4279" fill="white" transform="translate(450.435 393.901) rotate(105)"/>
</clipPath>
</defs>
</svg>
