<svg viewBox="0 0 681 528" fill="none" xmlns="http://www.w3.org/2000/svg">
<path fill-rule="evenodd" clip-rule="evenodd" d="M595.772 285.81C590.955 388.477 481.001 435.855 382.541 466.411C289.295 495.349 178.89 510.924 119.588 433.587C57.0527 352.035 84.2521 239.318 144.66 156.189C205.402 72.6017 302.836 15.8992 402.337 44.4894C512.076 76.0214 601.107 172.106 595.772 285.81Z" fill="#EBF6F4"/>
<mask id="path-2-outside-1_37_1073" maskUnits="userSpaceOnUse" x="155.356" y="191.06" width="461" height="337" fill="black">
<rect fill="white" x="155.356" y="191.06" width="461" height="337"/>
<path d="M163.356 215.06C163.356 206.223 170.52 199.06 179.356 199.06H592C600.837 199.06 608 206.223 608 215.06V528H163.356V215.06Z"/>
</mask>
<path d="M163.356 215.06C163.356 206.223 170.52 199.06 179.356 199.06H592C600.837 199.06 608 206.223 608 215.06V528H163.356V215.06Z" fill="white"/>
<path d="M155.356 215.06C155.356 201.805 166.102 191.06 179.356 191.06H592C605.255 191.06 616 201.805 616 215.06H600C600 210.641 596.418 207.06 592 207.06H179.356C174.938 207.06 171.356 210.641 171.356 215.06H155.356ZM608 528H163.356H608ZM155.356 528V215.06C155.356 201.805 166.102 191.06 179.356 191.06V207.06C174.938 207.06 171.356 210.641 171.356 215.06V528H155.356ZM592 191.06C605.255 191.06 616 201.805 616 215.06V528H600V215.06C600 210.641 596.418 207.06 592 207.06V191.06Z" fill="#353F5F" mask="url(#path-2-outside-1_37_1073)"/>
<path opacity="0.3" d="M163.356 215.06C163.356 206.223 170.52 199.06 179.356 199.06H592C600.837 199.06 608 206.223 608 215.06V252.608H163.356V215.06Z" fill="#156DCB"/>
<path d="M320.177 191.41H445.442V205.578C445.442 207.787 443.651 209.578 441.442 209.578H324.177C321.968 209.578 320.177 207.787 320.177 205.578V191.41Z" fill="#353F5F"/>
<path d="M416.262 484.637C417.058 484.326 417.447 483.433 417.131 482.642C416.816 481.851 415.916 481.461 415.12 481.772L403.6 486.266C402.805 486.577 402.416 487.47 402.731 488.261C403.047 489.052 403.947 489.442 404.742 489.131L416.262 484.637Z" fill="#156DCB"/>
<path d="M390.268 464.003C390.333 463.156 389.694 462.414 388.841 462.346C387.988 462.278 387.244 462.91 387.179 463.757L386.234 476.028C386.169 476.875 386.808 477.617 387.661 477.685C388.514 477.753 389.258 477.121 389.323 476.274L390.268 464.003Z" fill="#156DCB"/>
<path d="M406.371 470.673C406.878 469.991 406.731 469.027 406.042 468.521C405.353 468.014 404.384 468.157 403.876 468.839L396.527 478.724C396.02 479.406 396.167 480.37 396.856 480.877C397.545 481.383 398.515 481.241 399.022 480.558L406.371 470.673Z" fill="#156DCB"/>
<rect x="307.746" y="485.926" width="84.1476" height="22.9493" rx="4" fill="#828FB4"/>
<path d="M307.746 280.768C307.746 277.89 310.079 275.557 312.957 275.557H427.607C430.485 275.557 432.819 277.89 432.819 280.768V280.768C432.819 283.647 430.485 285.98 427.607 285.98H312.957C310.079 285.98 307.746 283.647 307.746 280.768V280.768Z" fill="#9CAAD2"/>
<rect x="309.746" y="314.473" width="14.9901" height="14.9901" rx="6" stroke="#CFD9F4" stroke-width="4"/>
<rect x="309.746" y="370.652" width="14.9901" height="14.9901" rx="6" stroke="#CFD9F4" stroke-width="4"/>
<rect x="309.746" y="407.841" width="14.9901" height="14.9901" rx="6" stroke="#CFD9F4" stroke-width="4"/>
<rect x="309.746" y="445.031" width="14.9901" height="14.9901" rx="6" stroke="#CFD9F4" stroke-width="4"/>
<path d="M340.188 321.641C340.188 318.763 342.521 316.43 345.399 316.43H460.049C462.927 316.43 465.26 318.763 465.26 321.641V321.641C465.26 324.519 462.927 326.852 460.049 326.852H345.399C342.521 326.852 340.188 324.519 340.188 321.641V321.641Z" fill="#CFD9F4"/>
<path d="M340.188 377.82C340.188 374.942 342.521 372.609 345.399 372.609H460.049C462.927 372.609 465.26 374.942 465.26 377.82V377.82C465.26 380.698 462.927 383.032 460.049 383.032H345.399C342.521 383.032 340.188 380.698 340.188 377.82V377.82Z" fill="#CFD9F4"/>
<path d="M340.188 415.009C340.188 412.131 342.521 409.798 345.399 409.798H460.049C462.927 409.798 465.26 412.131 465.26 415.009V415.009C465.26 417.887 462.927 420.221 460.049 420.221H345.399C342.521 420.221 340.188 417.887 340.188 415.009V415.009Z" fill="#CFD9F4"/>
<path d="M340.188 452.198C340.188 449.32 342.521 446.987 345.399 446.987H460.049C462.927 446.987 465.26 449.32 465.26 452.198V452.198C465.26 455.076 462.927 457.41 460.049 457.41H345.399C342.521 457.41 340.188 455.076 340.188 452.198V452.198Z" fill="#CFD9F4"/>
<path d="M340.188 341.422C340.188 338.544 342.521 336.211 345.399 336.211H418.358C421.236 336.211 423.569 338.544 423.569 341.422V341.422C423.569 344.3 421.236 346.634 418.358 346.634H345.399C342.521 346.634 340.188 344.3 340.188 341.422V341.422Z" fill="#CFD9F4"/>
<g filter="url(#filter0_ddd_37_1073)">
<rect x="45" y="73" width="358" height="72" rx="16" fill="white"/>
<rect x="45.5" y="73.5" width="357" height="71" rx="15.5" stroke="#EAEFFD"/>
<rect x="77" y="99" width="59" height="20" rx="4" fill="#E8EDFF"/>
<path d="M87.44 104.88H85.892L87.248 103.26H89L87.44 104.88ZM84.236 114V105.6H89.132V107.016H85.94V109.008H88.652V110.424H85.94V112.584H89.132V114H84.236ZM90.5439 107.148V105.6H97.4319V107.148H94.8399V114H93.1359V107.148H90.5439ZM97.1839 114L100.364 105.6H102.596L105.776 114H103.964L103.16 111.816H99.7999L98.9959 114H97.1839ZM100.328 110.364H102.632L101.48 107.208L100.328 110.364ZM107.193 114V105.6H109.965C111.813 105.6 112.941 106.548 112.941 108.108C112.941 109.656 111.813 110.604 109.965 110.604H108.897V114H107.193ZM110.037 107.016H108.897V109.188H110.037C110.757 109.188 111.189 108.768 111.189 108.084C111.189 107.448 110.757 107.016 110.037 107.016ZM114.47 114V105.6H119.366V107.016H116.174V109.008H118.886V110.424H116.174V112.584H119.366V114H114.47ZM126.033 113.988V107.256L124.293 108.24L123.489 107.088L126.081 105.588H127.653V113.988H126.033Z" fill="#0063CB"/>
<path d="M145.776 116V104.8H148.752C151.008 104.8 152.4 106.032 152.4 107.952C152.4 109.296 151.712 110.304 150.512 110.784L154.128 116H152.352L149.104 111.072C148.992 111.088 148.864 111.088 148.752 111.088H147.28V116H145.776ZM148.816 106.08H147.28V109.808H148.816C150.096 109.808 150.848 109.12 150.848 107.92C150.848 106.784 150.096 106.08 148.816 106.08ZM162.764 114.672C162.012 115.68 160.812 116.32 159.308 116.32C156.588 116.32 154.908 114.32 154.908 111.968C154.908 109.52 156.476 107.616 158.972 107.616C161.164 107.616 162.588 109.152 162.588 111.136C162.588 111.456 162.54 111.76 162.492 111.984H156.3C156.348 113.92 157.58 115.088 159.308 115.088C160.348 115.088 161.228 114.608 161.756 113.888L162.764 114.672ZM158.94 108.768C157.612 108.768 156.684 109.552 156.396 110.944H161.228C161.18 109.76 160.364 108.768 158.94 108.768ZM164.893 116V107.936H166.253V108.816C166.861 108.112 167.661 107.616 168.781 107.616C169.949 107.616 170.909 108.144 171.405 109.168C172.045 108.288 172.893 107.616 174.285 107.616C176.013 107.616 177.277 108.768 177.277 110.96V116H175.917V111.008C175.917 109.664 175.165 108.896 174.013 108.896C172.989 108.896 172.269 109.472 171.741 110.416C171.757 110.592 171.773 110.768 171.773 110.96V116H170.413V111.008C170.413 109.664 169.677 108.896 168.509 108.896C167.405 108.896 166.717 109.584 166.253 110.416V116H164.893ZM180.018 119.936V107.936H181.378V108.896C182.098 108.08 183.042 107.616 184.242 107.616C186.77 107.616 188.386 109.616 188.386 111.968C188.386 114.32 186.77 116.32 184.242 116.32C183.042 116.32 182.098 115.856 181.378 115.04V119.936H180.018ZM184.082 108.896C182.962 108.896 181.986 109.44 181.378 110.4V113.536C182.002 114.512 182.978 115.04 184.082 115.04C185.794 115.04 186.962 113.68 186.962 111.968C186.962 110.256 185.794 108.896 184.082 108.896ZM190.581 116V104H191.941V116H190.581ZM195.503 105.84C194.975 105.84 194.543 105.408 194.543 104.88C194.543 104.368 194.975 103.936 195.503 103.936C196.031 103.936 196.447 104.368 196.447 104.88C196.447 105.408 196.031 105.84 195.503 105.84ZM194.815 116V107.936H196.175V116H194.815ZM199.049 116V107.936H200.409V108.944C201.001 108.24 201.737 107.776 202.761 107.776C203.017 107.776 203.257 107.808 203.449 107.872V109.2C203.209 109.136 202.969 109.104 202.649 109.104C201.593 109.104 200.905 109.648 200.409 110.464V116H199.049ZM209.721 116V104H211.081V116H209.721ZM221.124 114.672C220.372 115.68 219.172 116.32 217.668 116.32C214.948 116.32 213.268 114.32 213.268 111.968C213.268 109.52 214.836 107.616 217.332 107.616C219.524 107.616 220.948 109.152 220.948 111.136C220.948 111.456 220.9 111.76 220.852 111.984H214.66C214.708 113.92 215.94 115.088 217.668 115.088C218.708 115.088 219.588 114.608 220.116 113.888L221.124 114.672ZM217.3 108.768C215.972 108.768 215.044 109.552 214.756 110.944H219.588C219.54 109.76 218.724 108.768 217.3 108.768ZM226.509 107.936H228.029V106.944C228.029 105.232 229.133 104 230.893 104C231.629 104 232.221 104.208 232.669 104.464L232.061 105.6C231.757 105.376 231.389 105.232 230.925 105.232C230.013 105.232 229.405 105.856 229.405 106.912V107.936H232.205V109.168H229.405V116H228.029V109.168H226.509V107.936ZM237.089 107.616C239.681 107.616 241.457 109.616 241.457 111.968C241.457 114.32 239.681 116.32 237.089 116.32C234.481 116.32 232.721 114.32 232.721 111.968C232.721 109.616 234.481 107.616 237.089 107.616ZM237.105 115.04C238.785 115.04 240.017 113.632 240.017 111.968C240.017 110.288 238.785 108.896 237.105 108.896C235.377 108.896 234.145 110.288 234.145 111.968C234.145 113.648 235.377 115.04 237.105 115.04ZM243.643 116V107.936H245.003V108.944C245.595 108.24 246.331 107.776 247.355 107.776C247.611 107.776 247.851 107.808 248.043 107.872V109.2C247.803 109.136 247.563 109.104 247.243 109.104C246.187 109.104 245.499 109.648 245.003 110.464V116H243.643ZM250.003 116V107.936H251.363V108.816C251.971 108.112 252.771 107.616 253.891 107.616C255.059 107.616 256.019 108.144 256.515 109.168C257.155 108.288 258.003 107.616 259.395 107.616C261.123 107.616 262.387 108.768 262.387 110.96V116H261.027V111.008C261.027 109.664 260.275 108.896 259.123 108.896C258.099 108.896 257.378 109.472 256.851 110.416C256.867 110.592 256.883 110.768 256.883 110.96V116H255.523V111.008C255.523 109.664 254.787 108.896 253.619 108.896C252.515 108.896 251.827 109.584 251.363 110.416V116H250.003ZM270.744 112.544V107.936H272.104V112.496C272.104 114.912 270.712 116.32 268.52 116.32C266.344 116.32 264.952 114.912 264.952 112.496V107.936H266.312V112.544C266.312 114.128 267.16 115.04 268.536 115.04C269.88 115.04 270.744 114.128 270.744 112.544ZM274.784 116V104H276.144V116H274.784ZM281.21 116.224C279.626 116.224 278.554 115.344 278.554 113.968C278.554 112.752 279.482 111.888 281.194 111.6L283.914 111.152V110.592C283.914 109.472 283.114 108.832 281.962 108.832C281.034 108.832 280.282 109.264 279.786 109.952L278.762 109.168C279.466 108.208 280.602 107.616 282.01 107.616C284.058 107.616 285.274 108.816 285.274 110.592V116H283.914V114.976C283.306 115.76 282.25 116.224 281.21 116.224ZM279.93 113.92C279.93 114.608 280.49 115.104 281.434 115.104C282.506 115.104 283.386 114.592 283.914 113.728V112.144L281.53 112.544C280.426 112.736 279.93 113.232 279.93 113.92ZM288.691 105.84C288.163 105.84 287.731 105.408 287.731 104.88C287.731 104.368 288.163 103.936 288.691 103.936C289.219 103.936 289.635 104.368 289.635 104.88C289.635 105.408 289.219 105.84 288.691 105.84ZM288.003 116V107.936H289.363V116H288.003ZM292.237 116V107.936H293.597V108.944C294.189 108.24 294.925 107.776 295.949 107.776C296.205 107.776 296.445 107.808 296.637 107.872V109.2C296.397 109.136 296.157 109.104 295.837 109.104C294.781 109.104 294.093 109.648 293.597 110.464V116H292.237ZM305.28 114.672C304.528 115.68 303.328 116.32 301.824 116.32C299.104 116.32 297.424 114.32 297.424 111.968C297.424 109.52 298.992 107.616 301.488 107.616C303.68 107.616 305.104 109.152 305.104 111.136C305.104 111.456 305.056 111.76 305.008 111.984H298.816C298.864 113.92 300.096 115.088 301.824 115.088C302.864 115.088 303.744 114.608 304.272 113.888L305.28 114.672ZM301.456 108.768C300.128 108.768 299.2 109.552 298.912 110.944H303.744C303.696 109.76 302.88 108.768 301.456 108.768ZM318.889 114.672C318.137 115.68 316.937 116.32 315.433 116.32C312.713 116.32 311.033 114.32 311.033 111.968C311.033 109.52 312.601 107.616 315.097 107.616C317.289 107.616 318.713 109.152 318.713 111.136C318.713 111.456 318.665 111.76 318.617 111.984H312.425C312.473 113.92 313.705 115.088 315.433 115.088C316.473 115.088 317.353 114.608 317.881 113.888L318.889 114.672ZM315.065 108.768C313.737 108.768 312.809 109.552 312.521 110.944H317.353C317.305 109.76 316.489 108.768 315.065 108.768ZM321.018 116V107.936H322.378V108.848C323.034 108.128 323.866 107.616 325.066 107.616C326.874 107.616 328.218 108.832 328.218 111.12V116H326.858V111.168C326.858 109.728 326.042 108.896 324.794 108.896C323.626 108.896 322.89 109.568 322.378 110.416V116H321.018ZM335.268 116V104H336.628V116H335.268ZM340.191 105.84C339.663 105.84 339.231 105.408 339.231 104.88C339.231 104.368 339.663 103.936 340.191 103.936C340.719 103.936 341.135 104.368 341.135 104.88C341.135 105.408 340.719 105.84 340.191 105.84ZM339.503 116V107.936H340.863V116H339.503ZM342.809 117.456C342.809 116.64 343.209 115.984 344.009 115.424C343.641 115.136 343.449 114.704 343.449 114.272C343.449 113.632 343.785 113.104 344.409 112.704C343.705 112.176 343.289 111.36 343.289 110.464C343.289 108.912 344.505 107.6 346.425 107.6C347.017 107.6 347.545 107.728 347.977 107.936H350.969V109.12H349.225C349.449 109.52 349.561 109.984 349.561 110.464C349.561 112 348.361 113.312 346.425 113.312C346.025 113.312 345.641 113.248 345.305 113.152C344.969 113.392 344.777 113.68 344.777 113.984C344.777 114.32 344.953 114.56 345.449 114.56H347.753C349.881 114.56 350.873 115.6 350.873 117.04C350.873 118.736 349.177 120 346.761 120C344.377 120 342.809 119.072 342.809 117.456ZM346.441 112.24C347.609 112.24 348.281 111.44 348.281 110.464C348.281 109.472 347.609 108.672 346.441 108.672C345.241 108.672 344.585 109.472 344.585 110.464C344.585 111.456 345.241 112.24 346.441 112.24ZM344.137 117.296C344.137 118.272 345.145 118.864 346.745 118.864C348.441 118.864 349.513 118.192 349.513 117.136C349.513 116.368 349.081 115.76 347.641 115.76H345.033C344.473 116.176 344.137 116.656 344.137 117.296ZM352.628 116V107.936H353.988V108.848C354.644 108.128 355.476 107.616 356.676 107.616C358.484 107.616 359.828 108.832 359.828 111.12V116H358.468V111.168C358.468 109.728 357.652 108.896 356.404 108.896C355.236 108.896 354.5 109.568 353.988 110.416V116H352.628ZM369.733 114.672C368.981 115.68 367.781 116.32 366.277 116.32C363.557 116.32 361.877 114.32 361.877 111.968C361.877 109.52 363.445 107.616 365.941 107.616C368.133 107.616 369.557 109.152 369.557 111.136C369.557 111.456 369.509 111.76 369.461 111.984H363.269C363.317 113.92 364.549 115.088 366.277 115.088C367.317 115.088 368.197 114.608 368.725 113.888L369.733 114.672ZM365.909 108.768C364.581 108.768 363.653 109.552 363.365 110.944H368.197C368.149 109.76 367.333 108.768 365.909 108.768Z" fill="#141B33"/>
</g>
<path d="M464.465 134.279C464.514 134.709 464.643 135.682 464.708 136.793C464.751 137.347 464.791 137.936 464.808 138.512C464.828 139.085 464.867 139.642 464.865 140.128C464.994 144.634 464.512 149.139 463.383 153.444C463.199 154.113 462.963 155.27 461.909 155.029C460.809 154.775 460.313 153.897 460.574 152.764C461.179 150.009 461.789 147.207 461.75 144.393C461.704 140.298 461.639 136.23 460.822 132.271C460.448 130.5 459.969 128.757 459.395 127.053C458.799 125.349 458.069 123.718 457.2 122.156C455.501 119.252 453.269 116.712 450.824 114.492C448.735 112.564 446.502 110.703 443.891 109.484C443.582 109.343 443.224 109.241 442.856 109.133C442.484 109.044 442.102 108.978 441.757 108.851C441.193 108.614 440.209 108.398 439.647 108.155C439.404 108.041 439.144 107.965 438.886 107.959C437.711 107.959 437.438 107.516 437.993 106.356C438.123 106.099 438.058 105.728 438.392 105.596C438.404 105.589 438.432 105.579 438.444 105.572C438.971 105.273 439.481 105.254 439.97 105.325C440.454 105.432 440.919 105.633 441.409 105.742C446.192 106.931 450.481 109.597 453.954 112.972C456.087 115.063 457.866 117.462 459.483 119.955C459.943 120.628 460.448 121.291 460.738 122.072L460.731 122.06C460.953 122.434 461.143 122.821 461.34 123.21C461.532 123.601 461.733 123.987 461.89 124.393C463.078 127.431 464.01 130.734 464.366 133.828C464.374 133.939 464.444 134.098 464.465 134.279Z" fill="#156DCB"/>
<path d="M463.427 151.542C463.586 151.318 464.179 150.551 464.519 150.035C465.307 148.835 466.125 147.651 467.226 146.667C467.398 146.513 467.618 146.204 468.507 146.822C469.432 147.463 469.829 148.045 469.569 148.344C468.947 149.062 468.195 149.7 467.819 150.585C467.273 151.877 466.365 152.925 465.633 154.087L465.375 154.484L464.908 155.173C464.602 155.642 464.261 156.088 463.908 156.38C463.558 156.676 463.194 156.881 462.79 156.987C462.397 157.103 461.89 157.071 461.483 156.914L461.439 156.895C461.069 156.733 460.797 156.532 460.52 156.234C460.241 155.942 459.986 155.482 459.797 154.963L459.49 154.191L459.334 153.795L459.237 153.57C459.122 153.305 459.021 153.033 458.93 152.76C458.621 151.812 458.571 150.776 458.351 149.799C458.301 149.569 458.019 149.367 457.953 149.119C457.9 148.912 457.795 148.575 457.815 148.343C457.825 148.244 457.846 148.137 457.778 148.067C457.471 147.736 457.81 147.507 459.032 147.243C459.297 147.184 459.628 147.037 459.836 147.071C459.843 147.073 459.86 147.074 459.873 147.077C460.682 147.124 460.447 147.524 460.565 147.815C461.129 149.233 461.623 150.675 462.145 152.106L462.362 152.731C462.377 152.778 462.39 152.82 462.412 152.857C462.451 152.934 462.494 153.008 462.566 152.961C462.583 152.951 462.608 152.909 462.627 152.865C462.662 152.801 462.676 152.738 462.675 152.832C462.707 152.764 462.705 152.644 462.707 152.648C462.718 152.647 462.713 152.611 462.704 152.605L462.702 152.601L462.92 152.287C463.067 152.081 463.223 151.881 463.384 151.689C463.406 151.659 463.393 151.59 463.427 151.542Z" fill="#156DCB"/>
<defs>
<filter id="filter0_ddd_37_1073" x="35" y="67" width="378" height="92" filterUnits="userSpaceOnUse" color-interpolation-filters="sRGB">
<feFlood flood-opacity="0" result="BackgroundImageFix"/>
<feColorMatrix in="SourceAlpha" type="matrix" values="0 0 0 0 0 0 0 0 0 0 0 0 0 0 0 0 0 0 127 0" result="hardAlpha"/>
<feOffset dy="4"/>
<feGaussianBlur stdDeviation="5"/>
<feColorMatrix type="matrix" values="0 0 0 0 0.0745098 0 0 0 0 0.113725 0 0 0 0 0.207843 0 0 0 0.06 0"/>
<feBlend mode="normal" in2="BackgroundImageFix" result="effect1_dropShadow_37_1073"/>
<feColorMatrix in="SourceAlpha" type="matrix" values="0 0 0 0 0 0 0 0 0 0 0 0 0 0 0 0 0 0 127 0" result="hardAlpha"/>
<feOffset dy="2"/>
<feGaussianBlur stdDeviation="2"/>
<feColorMatrix type="matrix" values="0 0 0 0 0.0745098 0 0 0 0 0.113725 0 0 0 0 0.207843 0 0 0 0.02 0"/>
<feBlend mode="normal" in2="effect1_dropShadow_37_1073" result="effect2_dropShadow_37_1073"/>
<feColorMatrix in="SourceAlpha" type="matrix" values="0 0 0 0 0 0 0 0 0 0 0 0 0 0 0 0 0 0 127 0" result="hardAlpha"/>
<feMorphology radius="1" operator="dilate" in="SourceAlpha" result="effect3_dropShadow_37_1073"/>
<feOffset/>
<feColorMatrix type="matrix" values="0 0 0 0 0.0745098 0 0 0 0 0.113725 0 0 0 0 0.207843 0 0 0 0.03 0"/>
<feBlend mode="normal" in2="effect2_dropShadow_37_1073" result="effect3_dropShadow_37_1073"/>
<feBlend mode="normal" in="SourceGraphic" in2="effect3_dropShadow_37_1073" result="shape"/>
</filter>
</defs>
</svg>
