<svg viewBox="0 0 681 528" fill="none" xmlns="http://www.w3.org/2000/svg">
<path fill-rule="evenodd" clip-rule="evenodd" d="M84.2279 285.81C89.0446 388.477 198.999 435.855 297.459 466.411C390.705 495.349 501.11 510.924 560.412 433.587C622.947 352.035 595.748 239.318 535.34 156.189C474.598 72.6017 377.164 15.8992 277.663 44.4894C167.924 76.0214 78.8933 172.106 84.2279 285.81Z" fill="#EBF6F4"/>
<path d="M640.906 350.737C641.753 350.845 642.521 350.247 642.623 349.401C642.725 348.556 642.121 347.782 641.274 347.674L629.007 346.11C628.161 346.002 627.392 346.6 627.29 347.445C627.188 348.291 627.793 349.064 628.639 349.172L640.906 350.737Z" fill="#156DCB"/>
<path d="M627.952 320.181C628.414 319.468 628.208 318.511 627.492 318.043C626.775 317.576 625.819 317.774 625.357 318.487L618.656 328.81C618.194 329.523 618.4 330.48 619.116 330.948C619.833 331.415 620.789 331.217 621.251 330.504L627.952 320.181Z" fill="#156DCB"/>
<path d="M638.901 333.743C639.673 333.386 640.005 332.47 639.642 331.695C639.279 330.921 638.36 330.582 637.588 330.939L626.405 336.103C625.633 336.459 625.301 337.376 625.664 338.15C626.026 338.925 626.946 339.263 627.718 338.907L638.901 333.743Z" fill="#156DCB"/>
<g filter="url(#filter0_d_37_962)">
<path d="M196.017 173.699C197.153 181.781 191.522 189.254 183.44 190.39L81.0023 204.786C72.9207 205.922 65.4475 200.291 64.3117 192.209L55.0567 126.356C53.9209 118.275 59.5524 110.801 67.634 109.665L170.072 95.2688C178.153 94.133 185.627 99.7645 186.762 107.846L196.017 173.699Z" fill="#B5C2E7"/>
<path d="M103.216 151.807L67.6443 199.012C67.56 199.128 67.5414 199.262 67.4716 199.376C69.0086 201.286 70.9859 202.773 73.2466 203.728C73.3408 203.629 73.4601 203.574 73.545 203.462L109.12 156.252C110.346 154.621 110.021 152.309 108.393 151.079C106.758 149.85 104.446 150.175 103.216 151.807ZM194.955 181.459C194.864 181.368 194.802 181.246 194.69 181.161L147.487 145.585C145.852 144.356 143.54 144.681 142.311 146.312C141.082 147.948 141.407 150.26 143.038 151.485L190.244 187.061C190.352 187.143 190.489 187.164 190.604 187.234C192.518 185.697 194.005 183.719 194.955 181.459Z" fill="#9CAAD2"/>
<path d="M170.072 95.2688L67.634 109.665C59.5524 110.801 53.9209 118.275 55.0567 126.356L55.5863 130.124L116.19 175.688C124.093 181.64 135.412 180.049 141.375 172.148L187.281 111.538L186.762 107.846C185.627 99.7645 178.153 94.133 170.072 95.2688Z" fill="#9CAAD2"/>
<path d="M170.072 95.2686L67.6341 109.665C61.8244 110.482 57.3254 114.599 55.6515 119.837L117.266 166.269C123.783 171.181 133.054 169.878 137.962 163.361L184.394 101.743C181.341 97.1693 175.885 94.4515 170.072 95.2686Z" fill="#CFD9F4"/>
</g>
<g filter="url(#filter1_d_37_962)">
<path d="M397.635 313.376C398.847 321.447 393.286 328.973 385.216 330.185L282.919 345.551C274.849 346.763 267.322 341.203 266.11 333.132L256.232 267.37C255.02 259.3 260.58 251.773 268.651 250.561L370.948 235.195C379.018 233.983 386.544 239.543 387.756 247.614L397.635 313.376Z" fill="#B5C2E7"/>
<path d="M304.63 292.364L269.507 339.904C269.424 340.021 269.407 340.154 269.338 340.269C270.893 342.165 272.884 343.633 275.154 344.566C275.247 344.466 275.366 344.411 275.45 344.297L310.576 296.753C311.786 295.111 311.439 292.802 309.8 291.587C308.153 290.374 305.844 290.721 304.63 292.364ZM396.646 321.146C396.554 321.055 396.491 320.934 396.378 320.85L348.841 285.723C347.194 284.509 344.885 284.856 343.671 286.499C342.458 288.146 342.805 290.455 344.447 291.665L391.988 326.792C392.097 326.873 392.235 326.893 392.349 326.962C394.249 325.406 395.717 323.415 396.646 321.146Z" fill="#9CAAD2"/>
<path d="M370.948 235.195L268.651 250.561C260.58 251.773 255.02 259.3 256.232 267.37L256.797 271.133L317.83 316.121C325.788 321.998 337.092 320.3 342.98 312.343L388.31 251.3L387.756 247.614C386.544 239.543 379.018 233.983 370.948 235.195Z" fill="#9CAAD2"/>
<path d="M370.948 235.195L268.651 250.561C262.849 251.433 258.389 255.592 256.765 260.846L318.816 306.693C325.38 311.542 334.638 310.152 339.484 303.588L385.33 241.534C382.234 236.989 376.753 234.323 370.948 235.195Z" fill="#CFD9F4"/>
</g>
<g filter="url(#filter2_d_37_962)">
<path d="M272.647 259.191C271.295 267.239 263.673 272.668 255.625 271.316L153.61 254.176C145.562 252.824 140.133 245.203 141.485 237.154L152.503 171.574C153.856 163.525 161.477 158.096 169.525 159.448L271.54 176.588C279.588 177.94 285.017 185.562 283.665 193.61L272.647 259.191Z" fill="#CFD9F4"/>
<path d="M190.756 210.353L142.613 244.645C142.498 244.731 142.44 244.852 142.339 244.94C143.229 247.225 144.666 249.239 146.534 250.83C146.654 250.764 146.784 250.748 146.899 250.666L195.045 216.371C196.706 215.185 197.093 212.882 195.911 211.219C194.722 209.554 192.42 209.168 190.756 210.353ZM269.296 266.27C269.237 266.155 269.214 266.021 269.133 265.906L234.844 217.76C233.655 216.096 231.353 215.709 229.689 216.894C228.024 218.083 227.637 220.385 228.823 222.046L263.115 270.192C263.194 270.303 263.319 270.365 263.406 270.466C265.695 269.576 267.708 268.139 269.296 266.27Z" fill="#9CAAD2"/>
<path d="M271.54 176.588L169.525 159.448C161.477 158.096 153.856 163.525 152.503 171.574L151.873 175.326L195.931 237.034C201.672 245.09 212.945 246.984 221.012 241.247L283.048 197.286L283.665 193.61C285.017 185.562 279.588 177.94 271.54 176.588Z" fill="#9CAAD2"/>
<path d="M271.54 176.588L169.526 159.449C163.74 158.477 158.209 161.046 155.035 165.537L199.794 228.377C204.529 235.024 213.761 236.575 220.405 231.84L283.246 187.077C281.713 181.796 277.33 177.561 271.54 176.588Z" fill="#EAEFFD"/>
</g>
<g filter="url(#filter3_d_37_962)">
<path d="M361.63 136.122C363.882 143.966 359.348 152.152 351.504 154.404L252.075 182.947C244.231 185.199 236.045 180.665 233.793 172.821L215.444 108.903C213.192 101.059 217.726 92.873 225.57 90.6211L324.999 62.0774C332.843 59.8256 341.029 64.3596 343.28 72.2038L361.63 136.122Z" fill="#CFD9F4"/>
<path d="M266.682 127.387L238.042 179.093C237.975 179.22 237.975 179.354 237.922 179.477C239.71 181.155 241.876 182.351 244.247 182.981C244.327 182.87 244.438 182.799 244.506 182.676L273.148 130.966C274.135 129.18 273.49 126.936 271.707 125.945C269.916 124.956 267.672 125.6 266.682 127.387ZM361.661 143.955C361.558 143.876 361.479 143.764 361.356 143.696L309.653 115.052C307.863 114.063 305.618 114.707 304.628 116.494C303.64 118.285 304.284 120.529 306.07 121.515L357.776 150.159C357.895 150.225 358.034 150.227 358.157 150.28C359.838 148.491 361.034 146.325 361.661 143.955Z" fill="#9CAAD2"/>
<path d="M324.999 62.0774L225.57 90.6211C217.726 92.873 213.192 101.059 215.444 108.903L216.494 112.56L282.86 149.226C291.516 154.017 302.503 150.863 307.306 142.208L344.309 75.7868L343.28 72.2038C341.029 64.3596 332.843 59.8256 324.999 62.0774Z" fill="#9CAAD2"/>
<path d="M324.999 62.0772L225.57 90.6208C219.931 92.2397 216.051 96.9438 215.124 102.364L282.612 139.749C289.751 143.704 298.749 141.121 302.7 133.983L340.084 66.491C336.423 62.3876 330.641 60.4574 324.999 62.0772Z" fill="#EAEFFD"/>
</g>
<g filter="url(#filter4_d_37_962)">
<path d="M424.143 260.126C421.369 267.801 412.897 271.775 405.222 269.002L307.935 233.845C300.26 231.072 296.286 222.6 299.059 214.925L321.66 152.383C324.434 144.708 332.905 140.734 340.581 143.507L437.868 178.664C445.543 181.438 449.517 189.909 446.743 197.584L424.143 260.126Z" fill="#CFD9F4"/>
<path d="M352.337 197.394L298.825 222.496C298.696 222.56 298.618 222.669 298.503 222.737C298.968 225.145 300.021 227.383 301.574 229.284C301.703 229.24 301.834 229.248 301.962 229.188L355.478 204.083C357.324 203.214 358.118 201.018 357.254 199.17C356.383 197.319 354.187 196.526 352.337 197.394ZM419.576 266.49C419.539 266.366 419.541 266.229 419.481 266.102L394.383 212.588C393.512 210.737 391.316 209.943 389.466 210.811C387.616 211.682 386.822 213.878 387.691 215.724L412.793 269.239C412.85 269.362 412.961 269.446 413.03 269.561C415.441 269.096 417.679 268.043 419.576 266.49Z" fill="#9CAAD2"/>
<path d="M437.868 178.664L340.581 143.507C332.905 140.734 324.434 144.708 321.66 152.383L320.367 155.962L352.644 224.57C356.848 233.525 367.598 237.41 376.562 233.213L445.476 201.09L446.743 197.584C449.517 189.909 445.543 181.438 437.868 178.664Z" fill="#9CAAD2"/>
<path d="M437.868 178.664L340.581 143.508C335.063 141.514 329.161 143.05 325.233 146.898L357.997 216.747C361.463 224.135 370.267 227.317 377.652 223.85L447.502 191.083C446.941 185.612 443.389 180.659 437.868 178.664Z" fill="#EAEFFD"/>
</g>
<g filter="url(#filter5_d_37_962)">
<path d="M582.634 423.981C580.664 431.9 572.645 436.724 564.726 434.754L464.341 409.782C456.421 407.812 451.597 399.794 453.567 391.874L469.621 327.341C471.591 319.421 479.609 314.597 487.529 316.567L587.914 341.539C595.833 343.509 600.657 351.528 598.687 359.447L582.634 423.981Z" fill="#71C6BB"/>
<path d="M504.762 368.96L454.113 399.43C453.991 399.506 453.924 399.623 453.817 399.702C454.527 402.049 455.805 404.168 457.544 405.899C457.669 405.842 457.8 405.836 457.92 405.764L508.574 375.291C510.32 374.237 510.884 371.972 509.835 370.222C508.778 368.471 506.512 367.907 504.762 368.96ZM578.746 430.78C578.696 430.661 578.684 430.524 578.611 430.404L548.146 379.752C547.089 378.001 544.823 377.437 543.073 378.49C541.321 379.547 540.758 381.813 541.812 383.56L572.281 434.212C572.351 434.328 572.47 434.4 572.55 434.507C574.9 433.798 577.019 432.52 578.746 430.78Z" fill="#25A292"/>
<path d="M587.914 341.539L487.529 316.567C479.609 314.597 471.591 319.421 469.621 327.341L468.702 331.033L507.859 395.961C512.961 404.437 524.054 407.196 532.54 402.101L597.787 363.065L598.687 359.447C600.657 351.528 595.833 343.509 587.914 341.539Z" fill="#25A292"/>
<path d="M587.914 341.539L487.529 316.568C481.836 315.151 476.123 317.286 472.611 321.518L512.38 387.629C516.587 394.622 525.672 396.882 532.661 392.674L598.774 352.902C597.654 347.518 593.611 342.956 587.914 341.539Z" fill="#9BD0C9"/>
</g>
<g filter="url(#filter6_ddd_37_962)">
<rect x="54" y="408" width="288" height="72" rx="16" fill="white"/>
<rect x="54.5" y="408.5" width="287" height="71" rx="15.5" stroke="#EAEFFD"/>
<rect x="86" y="434" width="60" height="20" rx="4" fill="#E8EDFF"/>
<path d="M96.44 439.88H94.892L96.248 438.26H98L96.44 439.88ZM93.236 449V440.6H98.132V442.016H94.94V444.008H97.652V445.424H94.94V447.584H98.132V449H93.236ZM99.5439 442.148V440.6H106.432V442.148H103.84V449H102.136V442.148H99.5439ZM106.184 449L109.364 440.6H111.596L114.776 449H112.964L112.16 446.816H108.8L107.996 449H106.184ZM109.328 445.364H111.632L110.48 442.208L109.328 445.364ZM116.193 449V440.6H118.965C120.813 440.6 121.941 441.548 121.941 443.108C121.941 444.656 120.813 445.604 118.965 445.604H117.897V449H116.193ZM119.037 442.016H117.897V444.188H119.037C119.757 444.188 120.189 443.768 120.189 443.084C120.189 442.448 119.757 442.016 119.037 442.016ZM123.47 449V440.6H128.366V442.016H125.174V444.008H127.886V445.424H125.174V447.584H128.366V449H123.47ZM133.161 449V447.536L136.041 444.704C136.689 444.044 137.097 443.588 137.097 442.904C137.097 442.208 136.617 441.8 135.957 441.8C135.153 441.8 134.661 442.292 134.217 443.036L132.897 442.232C133.605 441.08 134.649 440.36 136.113 440.36C137.577 440.36 138.753 441.296 138.753 442.736C138.753 443.888 137.997 444.776 137.169 445.58L135.141 447.536H138.969V449H133.161Z" fill="#0063CB"/>
<path d="M154.928 449.464L156.048 448.44C156.816 449.432 157.712 449.96 158.752 449.96C160 449.96 160.72 449.208 160.72 448.184C160.72 445.656 155.408 446.2 155.408 442.504C155.408 440.84 156.784 439.48 158.736 439.48C160.304 439.48 161.456 440.2 162.288 441.304L161.152 442.296C160.496 441.352 159.712 440.824 158.752 440.824C157.648 440.824 156.944 441.512 156.944 442.472C156.944 444.984 162.24 444.408 162.24 448.136C162.24 450.072 160.752 451.304 158.768 451.304C157.12 451.304 155.904 450.68 154.928 449.464ZM168.849 441.656H167.521L169.185 439H170.721L168.849 441.656ZM171.921 449.672C171.169 450.68 169.969 451.32 168.465 451.32C165.745 451.32 164.065 449.32 164.065 446.968C164.065 444.52 165.633 442.616 168.129 442.616C170.321 442.616 171.745 444.152 171.745 446.136C171.745 446.456 171.697 446.76 171.649 446.984H165.457C165.505 448.92 166.737 450.088 168.465 450.088C169.505 450.088 170.385 449.608 170.913 448.888L171.921 449.672ZM168.097 443.768C166.769 443.768 165.841 444.552 165.553 445.944H170.385C170.337 444.76 169.521 443.768 168.097 443.768ZM174.049 451V439H175.409V451H174.049ZM185.452 449.672C184.7 450.68 183.5 451.32 181.996 451.32C179.276 451.32 177.596 449.32 177.596 446.968C177.596 444.52 179.164 442.616 181.66 442.616C183.852 442.616 185.276 444.152 185.276 446.136C185.276 446.456 185.228 446.76 185.18 446.984H178.988C179.036 448.92 180.268 450.088 181.996 450.088C183.036 450.088 183.916 449.608 184.444 448.888L185.452 449.672ZM181.628 443.768C180.3 443.768 179.372 444.552 179.084 445.944H183.916C183.868 444.76 183.052 443.768 181.628 443.768ZM191.261 450.04C192.253 450.04 193.069 449.56 193.565 448.856L194.637 449.672C193.885 450.68 192.717 451.32 191.245 451.32C188.573 451.32 186.861 449.32 186.861 446.968C186.861 444.616 188.573 442.616 191.245 442.616C192.701 442.616 193.885 443.272 194.637 444.264L193.565 445.08C193.069 444.376 192.253 443.896 191.245 443.896C189.517 443.896 188.285 445.256 188.285 446.968C188.285 448.696 189.517 450.04 191.261 450.04ZM196.935 448.296V444.168H195.415V442.936H196.935V440.92H198.311V442.936H201.111V444.168H198.311V448.296C198.311 449.56 198.951 449.912 199.927 449.912C200.455 449.912 200.823 449.848 201.127 449.72V450.936C200.743 451.096 200.311 451.16 199.735 451.16C197.943 451.16 196.935 450.264 196.935 448.296ZM203.878 440.84C203.35 440.84 202.918 440.408 202.918 439.88C202.918 439.368 203.35 438.936 203.878 438.936C204.406 438.936 204.822 439.368 204.822 439.88C204.822 440.408 204.406 440.84 203.878 440.84ZM203.19 451V442.936H204.55V451H203.19ZM211.104 442.616C213.696 442.616 215.472 444.616 215.472 446.968C215.472 449.32 213.696 451.32 211.104 451.32C208.496 451.32 206.736 449.32 206.736 446.968C206.736 444.616 208.496 442.616 211.104 442.616ZM211.12 450.04C212.8 450.04 214.032 448.632 214.032 446.968C214.032 445.288 212.8 443.896 211.12 443.896C209.392 443.896 208.16 445.288 208.16 446.968C208.16 448.648 209.392 450.04 211.12 450.04ZM217.659 451V442.936H219.019V443.848C219.675 443.128 220.507 442.616 221.707 442.616C223.515 442.616 224.859 443.832 224.859 446.12V451H223.499V446.168C223.499 444.728 222.683 443.896 221.435 443.896C220.267 443.896 219.531 444.568 219.019 445.416V451H217.659ZM231.221 446.968C231.221 444.616 232.837 442.616 235.365 442.616C236.565 442.616 237.509 443.08 238.229 443.896V439H239.589V451H238.229V450.04C237.509 450.856 236.565 451.32 235.365 451.32C232.837 451.32 231.221 449.32 231.221 446.968ZM232.661 446.968C232.661 448.68 233.813 450.04 235.525 450.04C236.645 450.04 237.637 449.496 238.229 448.552V445.384C237.605 444.424 236.629 443.896 235.525 443.896C233.813 443.896 232.661 445.256 232.661 446.968ZM249.624 449.672C248.872 450.68 247.672 451.32 246.168 451.32C243.448 451.32 241.768 449.32 241.768 446.968C241.768 444.52 243.336 442.616 245.832 442.616C248.024 442.616 249.448 444.152 249.448 446.136C249.448 446.456 249.4 446.76 249.352 446.984H243.16C243.208 448.92 244.44 450.088 246.168 450.088C247.208 450.088 248.088 449.608 248.616 448.888L249.624 449.672ZM245.8 443.768C244.472 443.768 243.544 444.552 243.256 445.944H248.088C248.04 444.76 247.224 443.768 245.8 443.768ZM250.826 449.896L251.786 449.08C252.346 449.784 253.018 450.184 253.834 450.184C254.73 450.184 255.242 449.64 255.242 448.936C255.242 447.128 251.21 447.768 251.21 444.92C251.21 443.656 252.282 442.616 253.834 442.616C254.986 442.616 255.978 443.16 256.538 443.944L255.594 444.744C255.162 444.136 254.554 443.752 253.85 443.752C252.986 443.752 252.522 444.264 252.522 444.888C252.522 446.696 256.57 446.12 256.57 448.872C256.554 450.376 255.354 451.32 253.85 451.32C252.57 451.32 251.562 450.808 250.826 449.896ZM263.096 454.936V442.936H264.456V443.896C265.176 443.08 266.12 442.616 267.32 442.616C269.848 442.616 271.464 444.616 271.464 446.968C271.464 449.32 269.848 451.32 267.32 451.32C266.12 451.32 265.176 450.856 264.456 450.04V454.936H263.096ZM267.16 443.896C266.04 443.896 265.064 444.44 264.456 445.4V448.536C265.08 449.512 266.056 450.04 267.16 450.04C268.872 450.04 270.04 448.68 270.04 446.968C270.04 445.256 268.872 443.896 267.16 443.896ZM273.659 451V442.936H275.019V443.944C275.611 443.24 276.347 442.776 277.371 442.776C277.627 442.776 277.867 442.808 278.059 442.872V444.2C277.819 444.136 277.579 444.104 277.259 444.104C276.203 444.104 275.515 444.648 275.019 445.464V451H273.659ZM283.214 442.616C285.806 442.616 287.582 444.616 287.582 446.968C287.582 449.32 285.806 451.32 283.214 451.32C280.606 451.32 278.846 449.32 278.846 446.968C278.846 444.616 280.606 442.616 283.214 442.616ZM283.23 450.04C284.91 450.04 286.142 448.632 286.142 446.968C286.142 445.288 284.91 443.896 283.23 443.896C281.502 443.896 280.27 445.288 280.27 446.968C280.27 448.648 281.502 450.04 283.23 450.04ZM288.587 442.936H290.107V441.944C290.107 440.232 291.211 439 292.971 439C293.707 439 294.299 439.208 294.747 439.464L294.139 440.6C293.835 440.376 293.467 440.232 293.003 440.232C292.091 440.232 291.483 440.856 291.483 441.912V442.936H294.283V444.168H291.483V451H290.107V444.168H288.587V442.936ZM296.628 440.84C296.1 440.84 295.668 440.408 295.668 439.88C295.668 439.368 296.1 438.936 296.628 438.936C297.156 438.936 297.572 439.368 297.572 439.88C297.572 440.408 297.156 440.84 296.628 440.84ZM295.94 451V442.936H297.3V451H295.94ZM300.174 451V439H301.534V451H300.174ZM303.482 449.896L304.442 449.08C305.002 449.784 305.674 450.184 306.49 450.184C307.386 450.184 307.898 449.64 307.898 448.936C307.898 447.128 303.866 447.768 303.866 444.92C303.866 443.656 304.938 442.616 306.49 442.616C307.642 442.616 308.634 443.16 309.194 443.944L308.25 444.744C307.818 444.136 307.21 443.752 306.506 443.752C305.642 443.752 305.178 444.264 305.178 444.888C305.178 446.696 309.226 446.12 309.226 448.872C309.21 450.376 308.01 451.32 306.506 451.32C305.226 451.32 304.218 450.808 303.482 449.896Z" fill="#141B33"/>
</g>
<defs>
<filter id="filter0_d_37_962" x="54.911" y="95.123" width="145.252" height="113.809" filterUnits="userSpaceOnUse" color-interpolation-filters="sRGB">
<feFlood flood-opacity="0" result="BackgroundImageFix"/>
<feColorMatrix in="SourceAlpha" type="matrix" values="0 0 0 0 0 0 0 0 0 0 0 0 0 0 0 0 0 0 127 0" result="hardAlpha"/>
<feOffset dx="4" dy="4"/>
<feComposite in2="hardAlpha" operator="out"/>
<feColorMatrix type="matrix" values="0 0 0 0 0.0431373 0 0 0 0 0.235294 0 0 0 0 0.435294 0 0 0 1 0"/>
<feBlend mode="normal" in2="BackgroundImageFix" result="effect1_dropShadow_37_962"/>
<feBlend mode="normal" in="SourceGraphic" in2="effect1_dropShadow_37_962" result="shape"/>
</filter>
<filter id="filter1_d_37_962" x="256.066" y="235.029" width="145.735" height="114.688" filterUnits="userSpaceOnUse" color-interpolation-filters="sRGB">
<feFlood flood-opacity="0" result="BackgroundImageFix"/>
<feColorMatrix in="SourceAlpha" type="matrix" values="0 0 0 0 0 0 0 0 0 0 0 0 0 0 0 0 0 0 127 0" result="hardAlpha"/>
<feOffset dx="4" dy="4"/>
<feComposite in2="hardAlpha" operator="out"/>
<feColorMatrix type="matrix" values="0 0 0 0 0.0431373 0 0 0 0 0.235294 0 0 0 0 0.435294 0 0 0 1 0"/>
<feBlend mode="normal" in2="BackgroundImageFix" result="effect1_dropShadow_37_962"/>
<feBlend mode="normal" in="SourceGraphic" in2="effect1_dropShadow_37_962" result="shape"/>
</filter>
<filter id="filter2_d_37_962" x="141.279" y="159.242" width="146.593" height="116.281" filterUnits="userSpaceOnUse" color-interpolation-filters="sRGB">
<feFlood flood-opacity="0" result="BackgroundImageFix"/>
<feColorMatrix in="SourceAlpha" type="matrix" values="0 0 0 0 0 0 0 0 0 0 0 0 0 0 0 0 0 0 127 0" result="hardAlpha"/>
<feOffset dx="4" dy="4"/>
<feComposite in2="hardAlpha" operator="out"/>
<feColorMatrix type="matrix" values="0 0 0 0 0.0431373 0 0 0 0 0.235294 0 0 0 0 0.435294 0 0 0 1 0"/>
<feBlend mode="normal" in2="BackgroundImageFix" result="effect1_dropShadow_37_962"/>
<feBlend mode="normal" in="SourceGraphic" in2="effect1_dropShadow_37_962" result="shape"/>
</filter>
<filter id="filter3_d_37_962" x="214.866" y="61.5" width="151.341" height="126.025" filterUnits="userSpaceOnUse" color-interpolation-filters="sRGB">
<feFlood flood-opacity="0" result="BackgroundImageFix"/>
<feColorMatrix in="SourceAlpha" type="matrix" values="0 0 0 0 0 0 0 0 0 0 0 0 0 0 0 0 0 0 127 0" result="hardAlpha"/>
<feOffset dx="4" dy="4"/>
<feComposite in2="hardAlpha" operator="out"/>
<feColorMatrix type="matrix" values="0 0 0 0 0.0431373 0 0 0 0 0.235294 0 0 0 0 0.435294 0 0 0 1 0"/>
<feBlend mode="normal" in2="BackgroundImageFix" result="effect1_dropShadow_37_962"/>
<feBlend mode="normal" in="SourceGraphic" in2="effect1_dropShadow_37_962" result="shape"/>
</filter>
<filter id="filter4_d_37_962" x="298.176" y="142.624" width="153.451" height="131.262" filterUnits="userSpaceOnUse" color-interpolation-filters="sRGB">
<feFlood flood-opacity="0" result="BackgroundImageFix"/>
<feColorMatrix in="SourceAlpha" type="matrix" values="0 0 0 0 0 0 0 0 0 0 0 0 0 0 0 0 0 0 127 0" result="hardAlpha"/>
<feOffset dx="4" dy="4"/>
<feComposite in2="hardAlpha" operator="out"/>
<feColorMatrix type="matrix" values="0 0 0 0 0.0431373 0 0 0 0 0.235294 0 0 0 0 0.435294 0 0 0 1 0"/>
<feBlend mode="normal" in2="BackgroundImageFix" result="effect1_dropShadow_37_962"/>
<feBlend mode="normal" in="SourceGraphic" in2="effect1_dropShadow_37_962" result="shape"/>
</filter>
<filter id="filter5_d_37_962" x="453.127" y="316.127" width="150.001" height="123.067" filterUnits="userSpaceOnUse" color-interpolation-filters="sRGB">
<feFlood flood-opacity="0" result="BackgroundImageFix"/>
<feColorMatrix in="SourceAlpha" type="matrix" values="0 0 0 0 0 0 0 0 0 0 0 0 0 0 0 0 0 0 127 0" result="hardAlpha"/>
<feOffset dx="4" dy="4"/>
<feComposite in2="hardAlpha" operator="out"/>
<feColorMatrix type="matrix" values="0 0 0 0 0.0431373 0 0 0 0 0.235294 0 0 0 0 0.435294 0 0 0 1 0"/>
<feBlend mode="normal" in2="BackgroundImageFix" result="effect1_dropShadow_37_962"/>
<feBlend mode="normal" in="SourceGraphic" in2="effect1_dropShadow_37_962" result="shape"/>
</filter>
<filter id="filter6_ddd_37_962" x="44" y="402" width="308" height="92" filterUnits="userSpaceOnUse" color-interpolation-filters="sRGB">
<feFlood flood-opacity="0" result="BackgroundImageFix"/>
<feColorMatrix in="SourceAlpha" type="matrix" values="0 0 0 0 0 0 0 0 0 0 0 0 0 0 0 0 0 0 127 0" result="hardAlpha"/>
<feOffset dy="4"/>
<feGaussianBlur stdDeviation="5"/>
<feColorMatrix type="matrix" values="0 0 0 0 0.0745098 0 0 0 0 0.113725 0 0 0 0 0.207843 0 0 0 0.06 0"/>
<feBlend mode="normal" in2="BackgroundImageFix" result="effect1_dropShadow_37_962"/>
<feColorMatrix in="SourceAlpha" type="matrix" values="0 0 0 0 0 0 0 0 0 0 0 0 0 0 0 0 0 0 127 0" result="hardAlpha"/>
<feOffset dy="2"/>
<feGaussianBlur stdDeviation="2"/>
<feColorMatrix type="matrix" values="0 0 0 0 0.0745098 0 0 0 0 0.113725 0 0 0 0 0.207843 0 0 0 0.02 0"/>
<feBlend mode="normal" in2="effect1_dropShadow_37_962" result="effect2_dropShadow_37_962"/>
<feColorMatrix in="SourceAlpha" type="matrix" values="0 0 0 0 0 0 0 0 0 0 0 0 0 0 0 0 0 0 127 0" result="hardAlpha"/>
<feMorphology radius="1" operator="dilate" in="SourceAlpha" result="effect3_dropShadow_37_962"/>
<feOffset/>
<feColorMatrix type="matrix" values="0 0 0 0 0.0745098 0 0 0 0 0.113725 0 0 0 0 0.207843 0 0 0 0.03 0"/>
<feBlend mode="normal" in2="effect2_dropShadow_37_962" result="effect3_dropShadow_37_962"/>
<feBlend mode="normal" in="SourceGraphic" in2="effect3_dropShadow_37_962" result="shape"/>
</filter>
</defs>
</svg>
