<svg viewBox="0 0 681 528" fill="none" xmlns="http://www.w3.org/2000/svg">
<path fill-rule="evenodd" clip-rule="evenodd" d="M595.772 241.19C590.955 138.523 481.001 91.1445 382.541 60.589C289.295 31.6514 178.89 16.0764 119.588 93.4132C57.0527 174.965 84.2521 287.682 144.66 370.811C205.402 454.398 302.836 511.101 402.337 482.511C512.076 450.979 601.107 354.894 595.772 241.19Z" fill="#EBF6F4"/>
<g filter="url(#filter0_ddd_37_889)">
<rect x="327" y="212" width="280" height="223.418" rx="24" fill="white"/>
<rect x="327.5" y="212.5" width="279" height="222.418" rx="23.5" stroke="#EAEFFD"/>
<path d="M373.704 261.912C375.208 261.912 376.44 261.176 377.192 260.088L378.392 261.016C377.368 262.408 375.72 263.32 373.704 263.32C370.2 263.32 367.816 260.6 367.816 257.4C367.816 254.2 370.2 251.48 373.704 251.48C375.72 251.48 377.368 252.408 378.392 253.784L377.192 254.712C376.44 253.624 375.208 252.888 373.704 252.888C371.176 252.888 369.368 254.904 369.368 257.4C369.368 259.896 371.176 261.912 373.704 261.912ZM382.585 263.224C381.001 263.224 379.929 262.344 379.929 260.968C379.929 259.752 380.857 258.888 382.569 258.6L385.289 258.152V257.592C385.289 256.472 384.489 255.832 383.337 255.832C382.409 255.832 381.657 256.264 381.161 256.952L380.137 256.168C380.841 255.208 381.977 254.616 383.385 254.616C385.433 254.616 386.649 255.816 386.649 257.592V263H385.289V261.976C384.681 262.76 383.625 263.224 382.585 263.224ZM381.305 260.92C381.305 261.608 381.865 262.104 382.809 262.104C383.881 262.104 384.761 261.592 385.289 260.728V259.144L382.905 259.544C381.801 259.736 381.305 260.232 381.305 260.92ZM389.377 263V254.936H390.737V255.944C391.329 255.24 392.065 254.776 393.089 254.776C393.345 254.776 393.585 254.808 393.777 254.872V256.2C393.537 256.136 393.297 256.104 392.977 256.104C391.921 256.104 391.233 256.648 390.737 257.464V263H389.377ZM396.576 260.296V256.168H395.056V254.936H396.576V252.92H397.952V254.936H400.752V256.168H397.952V260.296C397.952 261.56 398.592 261.912 399.568 261.912C400.096 261.912 400.464 261.848 400.768 261.72V262.936C400.384 263.096 399.952 263.16 399.376 263.16C397.584 263.16 396.576 262.264 396.576 260.296ZM409.842 261.672C409.09 262.68 407.89 263.32 406.386 263.32C403.666 263.32 401.986 261.32 401.986 258.968C401.986 256.52 403.554 254.616 406.05 254.616C408.242 254.616 409.666 256.152 409.666 258.136C409.666 258.456 409.618 258.76 409.57 258.984H403.378C403.426 260.92 404.658 262.088 406.386 262.088C407.426 262.088 408.306 261.608 408.834 260.888L409.842 261.672ZM406.018 255.768C404.69 255.768 403.762 256.552 403.474 257.944H408.306C408.258 256.76 407.442 255.768 406.018 255.768ZM415.276 251.8H416.876L420.748 261.48L424.62 251.8H426.22L421.74 263H419.756L415.276 251.8ZM434.374 261.672C433.622 262.68 432.422 263.32 430.918 263.32C428.198 263.32 426.518 261.32 426.518 258.968C426.518 256.52 428.086 254.616 430.582 254.616C432.774 254.616 434.198 256.152 434.198 258.136C434.198 258.456 434.15 258.76 434.102 258.984H427.91C427.958 260.92 429.19 262.088 430.918 262.088C431.958 262.088 432.838 261.608 433.366 260.888L434.374 261.672ZM430.55 255.768C429.222 255.768 428.294 256.552 428.006 257.944H432.838C432.79 256.76 431.974 255.768 430.55 255.768ZM436.502 263V254.936H437.862V255.944C438.454 255.24 439.19 254.776 440.214 254.776C440.47 254.776 440.71 254.808 440.902 254.872V256.2C440.662 256.136 440.422 256.104 440.102 256.104C439.046 256.104 438.358 256.648 437.862 257.464V263H436.502ZM443.701 260.296V256.168H442.181V254.936H443.701V252.92H445.077V254.936H447.877V256.168H445.077V260.296C445.077 261.56 445.717 261.912 446.693 261.912C447.221 261.912 447.589 261.848 447.893 261.72V262.936C447.509 263.096 447.077 263.16 446.501 263.16C444.709 263.16 443.701 262.264 443.701 260.296ZM456.967 261.672C456.215 262.68 455.015 263.32 453.511 263.32C450.791 263.32 449.111 261.32 449.111 258.968C449.111 256.52 450.679 254.616 453.175 254.616C455.367 254.616 456.791 256.152 456.791 258.136C456.791 258.456 456.743 258.76 456.695 258.984H450.503C450.551 260.92 451.783 262.088 453.511 262.088C454.551 262.088 455.431 261.608 455.959 260.888L456.967 261.672ZM453.143 255.768C451.815 255.768 450.887 256.552 450.599 257.944H455.431C455.383 256.76 454.567 255.768 453.143 255.768Z" fill="#141B33"/>
<rect x="497" y="246" width="70" height="20" rx="4" fill="#E8EDFF"/>
<path fill-rule="evenodd" clip-rule="evenodd" d="M507 261C504.238 261 502 258.762 502 256C502 253.238 504.238 251 507 251C509.761 251 512 253.238 512 256C512 258.762 509.761 261 507 261ZM507 260C509.209 260 511 258.209 511 256C511 253.791 509.209 252 507 252C504.791 252 503 253.791 503 256C503 258.209 504.791 260 507 260ZM506.501 258L504.38 255.878L505.087 255.172L506.501 256.586L509.329 253.757L510.037 254.464L506.501 258Z" fill="#0063CB"/>
<path d="M515.18 261L518.36 252.6H520.592L523.772 261H521.96L521.156 258.816H517.796L516.992 261H515.18ZM518.324 257.364H520.628L519.476 254.208L518.324 257.364ZM528.746 259.644C529.706 259.644 530.462 259.176 530.942 258.492L532.286 259.524C531.518 260.568 530.27 261.24 528.746 261.24C526.094 261.24 524.282 259.2 524.282 256.8C524.282 254.4 526.094 252.36 528.746 252.36C530.27 252.36 531.518 253.044 532.286 254.064L530.942 255.108C530.462 254.424 529.706 253.956 528.746 253.956C527.162 253.956 526.034 255.192 526.034 256.8C526.034 258.408 527.162 259.644 528.746 259.644ZM533.02 254.148V252.6H539.908V254.148H537.316V261H535.612V254.148H533.02ZM541.525 261V252.6H543.229V261H541.525ZM544.641 252.6H546.453L548.937 259.164L551.421 252.6H553.233L550.053 261H547.821L544.641 252.6ZM554.65 261V252.6H559.546V254.016H556.354V256.008H559.066V257.424H556.354V259.584H559.546V261H554.65Z" fill="#0063CB"/>
<g filter="url(#filter1_dd_37_889)">
<g clip-path="url(#clip0_37_889)">
<rect x="367" y="276" width="200" height="119.418" rx="8" fill="url(#paint0_linear_37_889)"/>
<path fill-rule="evenodd" clip-rule="evenodd" d="M365.538 422.946C365.216 392.173 391.448 370.077 420.61 360.076C451.744 349.398 488.129 348.277 508.878 373.785C532.996 403.432 539.824 447.398 515.866 477.174C494.153 504.16 454.498 493.666 421.885 481.902C393.591 471.695 365.852 452.97 365.538 422.946Z" fill="#119787" fill-opacity="0.16"/>
<g style="mix-blend-mode:multiply">
<path fill-rule="evenodd" clip-rule="evenodd" d="M440.83 399.216C440.508 368.443 466.74 346.347 495.903 336.346C527.036 325.668 563.421 324.547 584.171 350.055C608.288 379.702 615.117 423.668 591.158 453.444C569.445 480.43 529.79 469.936 497.177 458.172C468.883 447.965 441.144 429.24 440.83 399.216Z" fill="#0B6B5F" fill-opacity="0.08"/>
</g>
<g clip-path="url(#clip1_37_889)">
<path fill-rule="evenodd" clip-rule="evenodd" d="M550.03 289.44C550.423 289.22 550.921 289.36 551.141 289.752C552.463 292.104 553.159 294.77 553.159 297.482C553.159 300.195 552.463 302.861 551.141 305.213C550.921 305.604 550.423 305.744 550.03 305.525C549.636 305.306 549.496 304.811 549.716 304.42C550.901 302.312 551.526 299.919 551.526 297.482C551.526 295.045 550.901 292.653 549.716 290.545C549.496 290.154 549.636 289.659 550.03 289.44ZM546.887 291.053C547.28 290.834 547.778 290.974 547.998 291.365C549.045 293.227 549.595 295.336 549.595 297.482C549.595 299.628 549.045 301.738 547.998 303.599C547.778 303.991 547.28 304.131 546.887 303.912C546.494 303.693 546.353 303.198 546.573 302.806C547.483 301.189 547.962 299.353 547.962 297.482C547.962 295.612 547.483 293.776 546.573 292.159C546.353 291.767 546.494 291.272 546.887 291.053ZM543.89 292.533C544.285 292.315 544.781 292.457 545 292.85C545.775 294.243 546.181 295.82 546.181 297.424C546.181 299.027 545.775 300.605 545 301.998C544.781 302.39 544.285 302.532 543.89 302.315C543.496 302.097 543.353 301.603 543.572 301.21C544.211 300.061 544.549 298.755 544.549 297.424C544.549 296.092 544.211 294.786 543.572 293.637C543.353 293.244 543.496 292.75 543.89 292.533ZM540.845 294.158C541.225 293.916 541.73 294.026 541.973 294.404C542.566 295.326 542.882 296.392 542.882 297.482C542.882 298.572 542.566 299.639 541.973 300.561C541.73 300.938 541.225 301.049 540.845 300.807C540.466 300.565 540.355 300.062 540.598 299.684C541.024 299.022 541.249 298.259 541.249 297.482C541.249 296.705 541.024 295.942 540.598 295.28C540.355 294.902 540.466 294.4 540.845 294.158Z" fill="white"/>
</g>
<g filter="url(#filter2_ii_37_889)">
<path d="M380.333 315.12C380.333 313.724 381.47 312.592 382.873 312.592H404.46C405.863 312.592 407 313.724 407 315.12V329.103C407 330.498 405.863 331.63 404.46 331.63H382.873C381.47 331.63 380.333 330.498 380.333 329.103V315.12Z" fill="#CDC9C1"/>
<path d="M380.333 315.12C380.333 313.724 381.47 312.592 382.873 312.592H404.46C405.863 312.592 407 313.724 407 315.12V329.103C407 330.498 405.863 331.63 404.46 331.63H382.873C381.47 331.63 380.333 330.498 380.333 329.103V315.12Z" fill="url(#paint1_radial_37_889)" fill-opacity="0.1"/>
<path d="M380.333 315.12C380.333 313.724 381.47 312.592 382.873 312.592H404.46C405.863 312.592 407 313.724 407 315.12V329.103C407 330.498 405.863 331.63 404.46 331.63H382.873C381.47 331.63 380.333 330.498 380.333 329.103V315.12Z" fill="url(#paint2_radial_37_889)" fill-opacity="0.1"/>
<path d="M380.333 315.12C380.333 313.724 381.47 312.592 382.873 312.592H404.46C405.863 312.592 407 313.724 407 315.12V329.103C407 330.498 405.863 331.63 404.46 331.63H382.873C381.47 331.63 380.333 330.498 380.333 329.103V315.12Z" fill="url(#paint3_radial_37_889)" fill-opacity="0.1"/>
</g>
<mask id="mask0_37_889" style="mask-type:alpha" maskUnits="userSpaceOnUse" x="380" y="312" width="27" height="20">
<path d="M380.333 315.12C380.333 313.724 381.47 312.592 382.873 312.592H404.46C405.863 312.592 407 313.724 407 315.12V329.103C407 330.498 405.863 331.63 404.46 331.63H382.873C381.47 331.63 380.333 330.498 380.333 329.103V315.12Z" fill="#D9D9D9"/>
</mask>
<g mask="url(#mask0_37_889)">
<path fill-rule="evenodd" clip-rule="evenodd" d="M380.175 314.955C380.175 314.519 380.53 314.165 380.968 314.165H387.235C387.673 314.165 388.028 314.519 388.028 314.955V318.883C388.028 319.319 387.673 319.673 387.235 319.673H380.968C380.53 319.673 380.175 319.319 380.175 318.883V314.955ZM380.968 314.481C380.705 314.481 380.492 314.693 380.492 314.955V318.883C380.492 319.145 380.705 319.357 380.968 319.357H387.235C387.498 319.357 387.711 319.145 387.711 318.883V314.955C387.711 314.693 387.498 314.481 387.235 314.481H380.968Z" fill="#10141E"/>
<path fill-rule="evenodd" clip-rule="evenodd" d="M380.175 320.147C380.175 319.711 380.53 319.357 380.968 319.357H387.235C387.673 319.357 388.028 319.711 388.028 320.147V324.075C388.028 324.511 387.673 324.865 387.235 324.865H380.968C380.53 324.865 380.175 324.511 380.175 324.075V320.147ZM380.968 319.673C380.705 319.673 380.492 319.885 380.492 320.147V324.075C380.492 324.337 380.705 324.549 380.968 324.549H387.235C387.498 324.549 387.711 324.337 387.711 324.075V320.147C387.711 319.885 387.498 319.673 387.235 319.673H380.968Z" fill="#10141E"/>
<path fill-rule="evenodd" clip-rule="evenodd" d="M389.45 319.57C389.45 319.134 389.805 318.78 390.244 318.78H398.829C399.267 318.78 399.622 319.134 399.622 319.57V319.749C399.622 320.185 399.267 320.538 398.829 320.538H398.359C398.096 320.538 397.883 320.751 397.883 321.012V325.229C397.883 325.665 397.528 326.019 397.09 326.019H388.504C388.066 326.019 387.711 325.665 387.711 325.229V324.762C387.711 324.326 388.066 323.972 388.504 323.972H388.974C389.237 323.972 389.45 323.76 389.45 323.498V319.57ZM390.244 319.096C389.981 319.096 389.767 319.308 389.767 319.57V323.498C389.767 323.935 389.412 324.288 388.974 324.288H388.504C388.241 324.288 388.028 324.5 388.028 324.762V325.229C388.028 325.491 388.241 325.703 388.504 325.703H397.09C397.353 325.703 397.566 325.491 397.566 325.229V321.012C397.566 320.576 397.921 320.223 398.359 320.223H398.829C399.092 320.223 399.305 320.01 399.305 319.749V319.57C399.305 319.308 399.092 319.096 398.829 319.096H390.244Z" fill="#10141E"/>
<path fill-rule="evenodd" clip-rule="evenodd" d="M380.175 325.339C380.175 324.903 380.53 324.549 380.968 324.549H387.235C387.673 324.549 388.028 324.903 388.028 325.339V329.268C388.028 329.704 387.673 330.057 387.235 330.057H380.968C380.53 330.057 380.175 329.704 380.175 329.268V325.339ZM380.968 324.865C380.705 324.865 380.492 325.077 380.492 325.339V329.268C380.492 329.529 380.705 329.741 380.968 329.741H387.235C387.498 329.741 387.711 329.529 387.711 329.268V325.339C387.711 325.077 387.498 324.865 387.235 324.865H380.968Z" fill="#10141E"/>
<path fill-rule="evenodd" clip-rule="evenodd" d="M399.305 314.955C399.305 314.519 399.66 314.165 400.099 314.165H406.365C406.803 314.165 407.159 314.519 407.159 314.955V318.883C407.159 319.319 406.803 319.673 406.365 319.673H400.099C399.66 319.673 399.305 319.319 399.305 318.883V314.955ZM400.099 314.481C399.836 314.481 399.622 314.693 399.622 314.955V318.883C399.622 319.145 399.836 319.357 400.099 319.357H406.365C406.628 319.357 406.841 319.145 406.841 318.883V314.955C406.841 314.693 406.628 314.481 406.365 314.481H400.099Z" fill="#10141E"/>
<path fill-rule="evenodd" clip-rule="evenodd" d="M399.305 320.147C399.305 319.711 399.66 319.357 400.099 319.357H406.365C406.803 319.357 407.159 319.711 407.159 320.147V324.075C407.159 324.511 406.803 324.865 406.365 324.865H400.099C399.66 324.865 399.305 324.511 399.305 324.075V320.147ZM400.099 319.673C399.836 319.673 399.622 319.885 399.622 320.147V324.075C399.622 324.337 399.836 324.549 400.099 324.549H406.365C406.628 324.549 406.841 324.337 406.841 324.075V320.147C406.841 319.885 406.628 319.673 406.365 319.673H400.099Z" fill="#10141E"/>
<path fill-rule="evenodd" clip-rule="evenodd" d="M399.305 325.339C399.305 324.903 399.66 324.549 400.099 324.549H406.365C406.803 324.549 407.159 324.903 407.159 325.339V329.268C407.159 329.704 406.803 330.057 406.365 330.057H400.099C399.66 330.057 399.305 329.704 399.305 329.268V325.339ZM400.099 324.865C399.836 324.865 399.622 325.077 399.622 325.339V329.268C399.622 329.529 399.836 329.741 400.099 329.741H406.365C406.628 329.741 406.841 329.529 406.841 329.268V325.339C406.841 325.077 406.628 324.865 406.365 324.865H400.099Z" fill="#10141E"/>
</g>
<path d="M383.423 341.317V342.027L382.42 341.984L383.007 342.793L382.378 343.172L381.881 342.264L381.384 343.172L380.768 342.793L381.341 341.984L380.348 342.032V341.322L381.341 341.378L380.768 340.556L381.384 340.177L381.881 341.085L382.378 340.177L383.007 340.556L382.425 341.378L383.423 341.317Z" fill="white"/>
<path d="M388.596 341.314V342.024L387.594 341.98L388.18 342.789L387.551 343.168L387.054 342.26L386.557 343.168L385.941 342.789L386.514 341.98L385.521 342.028V341.318L386.514 341.374L385.941 340.552L386.557 340.173L387.054 341.081L387.551 340.173L388.18 340.552L387.598 341.374L388.596 341.314Z" fill="white"/>
<path d="M393.769 341.309V342.019L392.767 341.976L393.353 342.785L392.724 343.164L392.227 342.256L391.73 343.164L391.114 342.785L391.687 341.976L390.694 342.023V341.313L391.687 341.369L391.114 340.548L391.73 340.169L392.227 341.077L392.724 340.169L393.353 340.548L392.771 341.369L393.769 341.309Z" fill="white"/>
<path d="M398.942 341.305V342.015L397.94 341.972L398.526 342.781L397.897 343.159L397.4 342.251L396.903 343.159L396.287 342.781L396.861 341.972L395.867 342.019V341.309L396.861 341.365L396.287 340.543L396.903 340.165L397.4 341.072L397.897 340.165L398.526 340.543L397.944 341.365L398.942 341.305Z" fill="white"/>
<path d="M407.699 341.296V342.006L406.697 341.963L407.284 342.772L406.654 343.15L406.158 342.243L405.661 343.15L405.044 342.772L405.618 341.963L404.624 342.01V341.3L405.618 341.356L405.044 340.534L405.661 340.156L406.158 341.064L406.654 340.156L407.284 340.534L406.701 341.356L407.699 341.296Z" fill="white"/>
<path d="M412.872 341.296V342.006L411.87 341.963L412.457 342.772L411.827 343.15L411.331 342.243L410.834 343.15L410.217 342.772L410.791 341.963L409.797 342.01V341.3L410.791 341.356L410.217 340.534L410.834 340.156L411.331 341.064L411.827 340.156L412.457 340.534L411.874 341.356L412.872 341.296Z" fill="white"/>
<path d="M418.045 341.292V342.002L417.039 341.955L417.626 342.764L416.996 343.142L416.499 342.234L416.003 343.142L415.386 342.764L415.96 341.955L414.966 342.002V341.292L415.96 341.348L415.386 340.526L416.003 340.147L416.499 341.055L416.996 340.147L417.626 340.526L417.043 341.348L418.045 341.292Z" fill="white"/>
<path d="M423.218 341.288V341.998L422.212 341.955L422.799 342.764L422.169 343.142L421.672 342.234L421.176 343.142L420.559 342.764L421.133 341.955L420.139 342.002V341.292L421.133 341.348L420.559 340.526L421.176 340.147L421.672 341.055L422.169 340.147L422.799 340.522L422.216 341.344L423.218 341.288Z" fill="white"/>
<path d="M431.976 341.279V341.989L430.974 341.946L431.56 342.755L430.931 343.133L430.434 342.225L429.937 343.133L429.321 342.755L429.895 341.946L428.901 341.993V341.283L429.895 341.339L429.321 340.517L429.937 340.139L430.434 341.047L430.931 340.139L431.56 340.517L430.978 341.339L431.976 341.279Z" fill="white"/>
<path d="M437.145 341.279V341.989L436.143 341.946L436.729 342.755L436.1 343.133L435.603 342.225L435.106 343.133L434.49 342.755L435.063 341.946L434.07 341.993V341.283L435.063 341.339L434.49 340.517L435.106 340.139L435.603 341.047L436.1 340.139L436.729 340.513L436.147 341.335L437.145 341.279Z" fill="white"/>
<path d="M442.318 341.274V341.984L441.316 341.941L441.902 342.75L441.273 343.129L440.776 342.221L440.279 343.129L439.663 342.75L440.236 341.941L439.243 341.989V341.279L440.236 341.335L439.663 340.513L440.279 340.134L440.776 341.042L441.273 340.134L441.902 340.513L441.32 341.335L442.318 341.274Z" fill="white"/>
<path d="M447.491 341.27V341.98L446.489 341.937L447.075 342.746L446.446 343.125L445.949 342.217L445.452 343.125L444.836 342.746L445.41 341.937L444.416 341.984V341.274L445.41 341.33L444.836 340.509L445.452 340.13L445.949 341.038L446.446 340.13L447.075 340.509L446.493 341.33L447.491 341.27Z" fill="white"/>
<path d="M452.934 348.026V347.182L455.657 344.385C456.385 343.654 456.749 343.026 456.749 342.501C456.749 342.066 456.616 341.726 456.351 341.481C456.085 341.236 455.764 341.115 455.379 341.115C454.651 341.115 454.12 341.464 453.79 342.157L452.929 341.649C453.169 341.146 453.508 340.767 453.936 340.509C454.364 340.251 454.844 340.121 455.362 340.117C456.008 340.117 456.569 340.332 457.049 340.758C457.529 341.189 457.768 341.761 457.768 342.488C457.768 343.271 457.31 344.127 456.394 345.052L454.424 347.023L457.914 347.019V348.017L452.934 348.026Z" fill="white"/>
<path d="M462.543 343.439C463.134 343.551 463.614 343.805 463.991 344.205C464.367 344.605 464.556 345.108 464.556 345.724C464.556 346.477 464.299 347.07 463.785 347.509C463.271 347.948 462.646 348.163 461.909 348.163C461.323 348.163 460.8 348.03 460.342 347.759C459.888 347.488 459.563 347.1 459.37 346.588L460.231 346.076C460.458 346.795 461.019 347.152 461.909 347.152C462.389 347.152 462.779 347.027 463.079 346.773C463.378 346.524 463.532 346.171 463.528 345.719C463.528 345.268 463.378 344.915 463.074 344.661C462.774 344.407 462.385 344.278 461.905 344.278H461.64L461.233 343.645L463.019 341.219L459.588 341.223V340.259L464.222 340.255L464.218 341.158L462.543 343.439Z" fill="white"/>
<path d="M472.174 345.573V346.537H471.236V348.013H470.213V346.537L466.277 346.541V345.577L469.044 340.255H470.149L467.382 345.577H470.217V343.383H471.241V345.577L472.174 345.573Z" fill="white"/>
<path d="M476.208 343.276C476.936 343.276 477.553 343.491 478.058 343.921C478.563 344.351 478.816 344.949 478.816 345.711C478.816 346.464 478.559 347.058 478.045 347.497C477.531 347.935 476.906 348.151 476.17 348.151C475.583 348.151 475.056 348.009 474.594 347.725C474.131 347.441 473.806 347.028 473.622 346.49L474.491 345.991C474.594 346.369 474.795 346.653 475.086 346.851C475.382 347.049 475.741 347.144 476.165 347.144C476.649 347.144 477.043 347.019 477.347 346.765C477.647 346.516 477.797 346.163 477.797 345.711C477.797 345.259 477.647 344.906 477.343 344.652C477.039 344.399 476.654 344.27 476.182 344.27H473.998L474.273 340.246L478.508 340.242V341.206L475.21 341.21L475.078 343.271L476.208 343.276Z" fill="white"/>
<path fill-rule="evenodd" clip-rule="evenodd" d="M538.657 382.731C547.104 382.731 553.952 376.021 553.952 367.744C553.952 359.467 547.104 352.757 538.657 352.757C534.872 352.757 531.408 354.105 528.737 356.338C526.066 354.105 522.602 352.757 518.816 352.757C510.37 352.757 503.522 359.467 503.522 367.744C503.522 376.021 510.37 382.731 518.816 382.731C522.602 382.731 526.066 381.383 528.737 379.151C531.408 381.383 534.872 382.731 538.657 382.731Z" fill="#ED0006"/>
<path fill-rule="evenodd" clip-rule="evenodd" d="M528.737 379.151C532.025 376.402 534.11 372.312 534.11 367.744C534.11 363.177 532.025 359.087 528.737 356.338C531.408 354.105 534.872 352.757 538.658 352.757C547.104 352.757 553.952 359.467 553.952 367.744C553.952 376.021 547.104 382.731 538.658 382.731C534.872 382.731 531.408 381.383 528.737 379.151Z" fill="#F9A000"/>
<path fill-rule="evenodd" clip-rule="evenodd" d="M528.737 379.15C532.025 376.401 534.111 372.311 534.111 367.744C534.111 363.176 532.025 359.086 528.737 356.337C525.449 359.086 523.364 363.176 523.364 367.744C523.364 372.311 525.449 376.401 528.737 379.15Z" fill="#FF5E00"/>
</g>
</g>
</g>
<path d="M293.72 205.133C292.872 205.034 292.27 204.268 292.376 203.423C292.481 202.577 293.254 201.973 294.102 202.073L306.383 203.515C307.231 203.615 307.833 204.381 307.727 205.226C307.622 206.071 306.849 206.676 306.001 206.576L293.72 205.133Z" fill="#156DCB"/>
<path d="M313.667 178.608C313.39 177.805 313.821 176.926 314.629 176.645C315.438 176.364 316.317 176.787 316.594 177.591L320.604 189.226C320.881 190.03 320.45 190.909 319.642 191.189C318.834 191.47 317.954 191.047 317.677 190.244L313.667 178.608Z" fill="#156DCB"/>
<path d="M299.768 189.126C299.105 188.594 299.004 187.624 299.543 186.96C300.082 186.296 301.056 186.189 301.719 186.722L311.324 194.432C311.987 194.965 312.088 195.935 311.549 196.598C311.011 197.262 310.036 197.369 309.373 196.837L299.768 189.126Z" fill="#156DCB"/>
<g filter="url(#filter3_ddd_37_889)">
<rect x="53" y="74" width="298" height="72" rx="16" fill="white"/>
<rect x="53.5" y="74.5" width="297" height="71" rx="15.5" stroke="#EAEFFD"/>
<rect x="85" y="100" width="60" height="20" rx="4" fill="#E8EDFF"/>
<path d="M95.44 105.88H93.892L95.248 104.26H97L95.44 105.88ZM92.236 115V106.6H97.132V108.016H93.94V110.008H96.652V111.424H93.94V113.584H97.132V115H92.236ZM98.5439 108.148V106.6H105.432V108.148H102.84V115H101.136V108.148H98.5439ZM105.184 115L108.364 106.6H110.596L113.776 115H111.964L111.16 112.816H107.8L106.996 115H105.184ZM108.328 111.364H110.632L109.48 108.208L108.328 111.364ZM115.193 115V106.6H117.965C119.813 106.6 120.941 107.548 120.941 109.108C120.941 110.656 119.813 111.604 117.965 111.604H116.897V115H115.193ZM118.037 108.016H116.897V110.188H118.037C118.757 110.188 119.189 109.768 119.189 109.084C119.189 108.448 118.757 108.016 118.037 108.016ZM122.47 115V106.6H127.366V108.016H124.174V110.008H126.886V111.424H124.174V113.584H127.366V115H122.47ZM138.077 112.6C138.077 114.196 136.769 115.24 135.017 115.24C133.433 115.24 132.413 114.544 131.729 113.344L133.145 112.468C133.613 113.392 134.177 113.8 135.005 113.8C135.821 113.8 136.433 113.308 136.433 112.528C136.433 111.76 135.833 111.28 134.945 111.28H133.565V109.84H134.837C135.545 109.84 136.061 109.444 136.061 108.796C136.061 108.16 135.581 107.8 134.921 107.8C134.249 107.8 133.793 108.16 133.445 108.76L132.125 107.944C132.737 106.948 133.685 106.36 135.041 106.36C136.577 106.36 137.717 107.236 137.717 108.616C137.717 109.396 137.381 110.056 136.757 110.488C137.609 110.92 138.077 111.676 138.077 112.6Z" fill="#0063CB"/>
<path d="M154.776 117V105.8H157.752C160.008 105.8 161.4 107.032 161.4 108.952C161.4 110.296 160.712 111.304 159.512 111.784L163.128 117H161.352L158.104 112.072C157.992 112.088 157.864 112.088 157.752 112.088H156.28V117H154.776ZM157.816 107.08H156.28V110.808H157.816C159.096 110.808 159.848 110.12 159.848 108.92C159.848 107.784 159.096 107.08 157.816 107.08ZM168.692 107.656H167.364L169.028 105H170.564L168.692 107.656ZM171.764 115.672C171.012 116.68 169.812 117.32 168.308 117.32C165.588 117.32 163.908 115.32 163.908 112.968C163.908 110.52 165.476 108.616 167.972 108.616C170.164 108.616 171.588 110.152 171.588 112.136C171.588 112.456 171.54 112.76 171.492 112.984H165.3C165.348 114.92 166.58 116.088 168.308 116.088C169.348 116.088 170.228 115.608 170.756 114.888L171.764 115.672ZM167.94 109.768C166.612 109.768 165.684 110.552 165.396 111.944H170.228C170.18 110.76 169.364 109.768 167.94 109.768ZM177.574 116.04C178.566 116.04 179.382 115.56 179.878 114.856L180.95 115.672C180.198 116.68 179.03 117.32 177.558 117.32C174.886 117.32 173.174 115.32 173.174 112.968C173.174 110.616 174.886 108.616 177.558 108.616C179.014 108.616 180.198 109.272 180.95 110.264L179.878 111.08C179.382 110.376 178.566 109.896 177.558 109.896C175.83 109.896 174.598 111.256 174.598 112.968C174.598 114.696 175.83 116.04 177.574 116.04ZM189.671 115.672C188.919 116.68 187.719 117.32 186.215 117.32C183.495 117.32 181.815 115.32 181.815 112.968C181.815 110.52 183.383 108.616 185.879 108.616C188.071 108.616 189.495 110.152 189.495 112.136C189.495 112.456 189.447 112.76 189.399 112.984H183.207C183.255 114.92 184.487 116.088 186.215 116.088C187.255 116.088 188.135 115.608 188.663 114.888L189.671 115.672ZM185.847 109.768C184.519 109.768 183.591 110.552 183.303 111.944H188.135C188.087 110.76 187.271 109.768 185.847 109.768ZM191.799 120.936V108.936H193.159V109.896C193.879 109.08 194.823 108.616 196.023 108.616C198.551 108.616 200.167 110.616 200.167 112.968C200.167 115.32 198.551 117.32 196.023 117.32C194.823 117.32 193.879 116.856 193.159 116.04V120.936H191.799ZM195.863 109.896C194.743 109.896 193.767 110.44 193.159 111.4V114.536C193.783 115.512 194.759 116.04 195.863 116.04C197.575 116.04 198.743 114.68 198.743 112.968C198.743 111.256 197.575 109.896 195.863 109.896ZM202.701 114.296V110.168H201.181V108.936H202.701V106.92H204.077V108.936H206.877V110.168H204.077V114.296C204.077 115.56 204.717 115.912 205.693 115.912C206.221 115.912 206.589 115.848 206.893 115.72V116.936C206.509 117.096 206.077 117.16 205.501 117.16C203.709 117.16 202.701 116.264 202.701 114.296ZM209.644 106.84C209.116 106.84 208.684 106.408 208.684 105.88C208.684 105.368 209.116 104.936 209.644 104.936C210.172 104.936 210.588 105.368 210.588 105.88C210.588 106.408 210.172 106.84 209.644 106.84ZM208.956 117V108.936H210.316V117H208.956ZM216.87 108.616C219.462 108.616 221.238 110.616 221.238 112.968C221.238 115.32 219.462 117.32 216.87 117.32C214.262 117.32 212.502 115.32 212.502 112.968C212.502 110.616 214.262 108.616 216.87 108.616ZM216.886 116.04C218.566 116.04 219.798 114.632 219.798 112.968C219.798 111.288 218.566 109.896 216.886 109.896C215.158 109.896 213.926 111.288 213.926 112.968C213.926 114.648 215.158 116.04 216.886 116.04ZM223.424 117V108.936H224.784V109.848C225.44 109.128 226.272 108.616 227.472 108.616C229.28 108.616 230.624 109.832 230.624 112.12V117H229.264V112.168C229.264 110.728 228.448 109.896 227.2 109.896C226.032 109.896 225.296 110.568 224.784 111.416V117H223.424ZM236.986 112.968C236.986 110.616 238.602 108.616 241.13 108.616C242.33 108.616 243.274 109.08 243.994 109.896V105H245.354V117H243.994V116.04C243.274 116.856 242.33 117.32 241.13 117.32C238.602 117.32 236.986 115.32 236.986 112.968ZM238.426 112.968C238.426 114.68 239.578 116.04 241.29 116.04C242.41 116.04 243.402 115.496 243.994 114.552V111.384C243.37 110.424 242.394 109.896 241.29 109.896C239.578 109.896 238.426 111.256 238.426 112.968ZM255.389 115.672C254.637 116.68 253.437 117.32 251.933 117.32C249.213 117.32 247.533 115.32 247.533 112.968C247.533 110.52 249.101 108.616 251.597 108.616C253.789 108.616 255.213 110.152 255.213 112.136C255.213 112.456 255.165 112.76 255.117 112.984H248.925C248.973 114.92 250.205 116.088 251.933 116.088C252.973 116.088 253.853 115.608 254.381 114.888L255.389 115.672ZM251.565 109.768C250.237 109.768 249.309 110.552 249.021 111.944H253.853C253.805 110.76 252.989 109.768 251.565 109.768ZM261.831 117V105H263.191V117H261.831ZM268.257 117.224C266.673 117.224 265.601 116.344 265.601 114.968C265.601 113.752 266.529 112.888 268.241 112.6L270.961 112.152V111.592C270.961 110.472 270.161 109.832 269.009 109.832C268.081 109.832 267.329 110.264 266.833 110.952L265.809 110.168C266.513 109.208 267.649 108.616 269.057 108.616C271.105 108.616 272.321 109.816 272.321 111.592V117H270.961V115.976C270.353 116.76 269.297 117.224 268.257 117.224ZM266.977 114.92C266.977 115.608 267.537 116.104 268.481 116.104C269.553 116.104 270.433 115.592 270.961 114.728V113.144L268.577 113.544C267.473 113.736 266.977 114.232 266.977 114.92ZM283.074 116.04C284.066 116.04 284.882 115.56 285.378 114.856L286.45 115.672C285.698 116.68 284.53 117.32 283.058 117.32C280.386 117.32 278.674 115.32 278.674 112.968C278.674 110.616 280.386 108.616 283.058 108.616C284.514 108.616 285.698 109.272 286.45 110.264L285.378 111.08C284.882 110.376 284.066 109.896 283.058 109.896C281.33 109.896 280.098 111.256 280.098 112.968C280.098 114.696 281.33 116.04 283.074 116.04ZM290.398 117.224C288.814 117.224 287.742 116.344 287.742 114.968C287.742 113.752 288.67 112.888 290.382 112.6L293.102 112.152V111.592C293.102 110.472 292.302 109.832 291.15 109.832C290.222 109.832 289.47 110.264 288.974 110.952L287.95 110.168C288.654 109.208 289.79 108.616 291.198 108.616C293.246 108.616 294.462 109.816 294.462 111.592V117H293.102V115.976C292.494 116.76 291.438 117.224 290.398 117.224ZM289.118 114.92C289.118 115.608 289.678 116.104 290.622 116.104C291.694 116.104 292.574 115.592 293.102 114.728V113.144L290.718 113.544C289.614 113.736 289.118 114.232 289.118 114.92ZM297.19 117V108.936H298.55V109.944C299.142 109.24 299.878 108.776 300.902 108.776C301.158 108.776 301.398 108.808 301.59 108.872V110.2C301.35 110.136 301.11 110.104 300.79 110.104C299.734 110.104 299.046 110.648 298.55 111.464V117H297.19ZM304.388 114.296V110.168H302.868V108.936H304.388V106.92H305.764V108.936H308.564V110.168H305.764V114.296C305.764 115.56 306.404 115.912 307.38 115.912C307.908 115.912 308.276 115.848 308.58 115.72V116.936C308.196 117.096 307.764 117.16 307.188 117.16C305.396 117.16 304.388 116.264 304.388 114.296ZM317.655 115.672C316.903 116.68 315.703 117.32 314.199 117.32C311.479 117.32 309.799 115.32 309.799 112.968C309.799 110.52 311.367 108.616 313.863 108.616C316.055 108.616 317.479 110.152 317.479 112.136C317.479 112.456 317.431 112.76 317.383 112.984H311.191C311.239 114.92 312.471 116.088 314.199 116.088C315.239 116.088 316.119 115.608 316.647 114.888L317.655 115.672ZM313.831 109.768C312.503 109.768 311.575 110.552 311.287 111.944H316.119C316.071 110.76 315.255 109.768 313.831 109.768Z" fill="#141B33"/>
</g>
<path d="M425.627 164.81C425.431 164.923 425.194 165.026 424.933 165.157C424.801 165.217 424.655 165.271 424.507 165.332C424.356 165.393 424.2 165.459 424.031 165.506C423.366 165.74 422.559 165.924 421.648 165.995C420.738 166.062 419.715 166.004 418.669 165.699C417.627 165.391 416.581 164.796 415.741 163.931C415.334 163.491 414.958 163.002 414.681 162.46C414.525 162.197 414.42 161.909 414.298 161.631C414.206 161.342 414.091 161.056 414.03 160.759C413.728 159.576 413.717 158.339 413.922 157.156C414.038 156.568 414.185 155.985 414.417 155.437C414.517 155.157 414.661 154.898 414.785 154.632C414.928 154.38 415.063 154.126 415.222 153.893C415.845 152.946 416.588 152.142 417.363 151.508C417.806 151.133 418.282 150.806 418.765 150.496C419.259 150.201 419.757 149.919 420.28 149.688C421.316 149.206 422.403 148.862 423.516 148.634C425.747 148.179 428.054 148.262 430.228 148.783C432.404 149.304 434.456 150.248 436.272 151.518C438.085 152.79 439.67 154.394 440.887 156.259C442.101 158.121 442.939 160.261 443.226 162.497C443.517 164.733 443.258 167.026 442.565 169.154C441.872 171.286 440.758 173.267 439.343 174.99C437.926 176.712 436.204 178.187 434.261 179.286C433.659 179.639 432.916 179.988 432.139 180.299C431.358 180.598 430.536 180.827 429.788 180.966C428.285 181.236 427.127 181.101 427.172 180.84C427.211 180.538 427.982 180.318 429.227 179.917C429.539 179.827 429.876 179.69 430.247 179.57C430.61 179.423 431.006 179.283 431.416 179.1C432.239 178.742 433.147 178.289 434.088 177.699C434.664 177.349 435.204 176.944 435.735 176.525C436.252 176.089 436.763 175.647 437.227 175.155C438.176 174.189 438.997 173.098 439.691 171.936C440.389 170.774 440.92 169.521 441.301 168.233C441.671 166.939 441.864 165.601 441.859 164.265C441.836 162.932 441.63 161.603 441.207 160.341C440.782 159.08 440.188 157.871 439.42 156.78C438.662 155.682 437.759 154.682 436.742 153.818C436.241 153.378 435.698 152.986 435.149 152.607C434.586 152.248 434.017 151.898 433.415 151.609C431.671 150.738 429.775 150.172 427.839 149.992C425.904 149.809 423.946 150.046 422.11 150.681C420.287 151.324 418.574 152.354 417.328 153.781C417.009 154.131 416.74 154.518 416.484 154.911C416.373 155.115 416.238 155.313 416.145 155.523L415.994 155.832L415.869 156.154C415.534 157.015 415.391 157.949 415.405 158.866C415.419 159.787 415.638 160.691 416.014 161.501C416.417 162.297 416.985 162.997 417.727 163.48C418.464 163.965 419.332 164.262 420.239 164.363C421.149 164.455 422.093 164.365 422.998 164.128C423.906 163.894 424.771 163.484 425.539 162.958C426.313 162.424 427.019 161.757 427.628 161.013C428.858 159.523 429.737 157.733 430.416 155.871C432.797 149.11 433.07 141.644 431.296 134.747C430.836 133.028 430.278 131.335 429.588 129.697C429.417 129.288 429.22 128.889 429.037 128.485L428.758 127.88L428.447 127.291C428.038 126.503 427.616 125.721 427.138 124.977C425.261 121.985 422.862 119.29 419.888 117.459C419.192 117.028 418.462 116.656 417.722 116.327C416.97 116.019 416.2 115.754 415.409 115.556C413.828 115.17 412.185 115.023 410.57 115.179C409.765 115.26 408.965 115.395 408.193 115.634L407.903 115.717C407.808 115.748 407.714 115.785 407.621 115.819C407.433 115.889 407.243 115.953 407.056 116.028C406.691 116.195 406.32 116.349 405.973 116.551C405.61 116.729 405.293 116.963 404.958 117.176L404.488 117.543C404.327 117.66 404.181 117.796 404.036 117.931C403.44 118.458 402.924 119.077 402.469 119.729C401.559 121.041 400.959 122.557 400.748 124.105C400.644 124.879 400.664 125.658 400.764 126.417L400.876 126.978L400.904 127.119L400.947 127.254L401.032 127.527C401.134 127.897 401.282 128.233 401.45 128.568C402.839 131.22 406.149 132.883 409.118 132.405C410.396 132.213 411.553 131.566 412.456 130.611C412.905 130.139 413.283 129.598 413.587 129.01C413.887 128.419 414.116 127.781 414.28 127.121C414.61 125.796 414.675 124.385 414.588 122.981C414.496 121.575 414.244 120.171 413.865 118.8C413.066 116.057 411.97 113.345 410.501 110.902C409.77 109.675 408.928 108.522 407.984 107.463C407.517 106.929 407.008 106.435 406.49 105.953C405.957 105.492 405.414 105.04 404.83 104.643C403.739 103.887 402.431 103.191 401.015 102.72L400.485 102.544L399.943 102.396C399.584 102.288 399.214 102.23 398.85 102.148C398.114 102.026 397.381 101.926 396.661 101.915C396.512 101.911 396.358 101.901 396.196 101.901C396.036 101.906 395.871 101.913 395.7 101.917C395.36 101.916 395.004 101.974 394.634 102.006C393.898 102.118 393.124 102.261 392.388 102.541C390.889 103.039 389.553 103.949 388.655 104.712C387.878 105.373 387.159 106.172 386.645 107.024C386.057 108.003 385.724 108.87 385.53 109.563C385.411 109.906 385.363 110.211 385.296 110.466C385.221 110.722 385.196 110.935 385.152 111.1C384.985 111.761 384.784 111.722 384.531 110.888C384.429 110.512 384.178 110.924 384.299 109.692C384.306 109.641 384.328 109.543 384.335 109.496L384.464 108.799C384.52 108.569 384.596 108.344 384.663 108.116C384.728 107.885 384.819 107.666 384.915 107.446C385.015 107.229 385.093 106.999 385.217 106.793L385.569 106.16C385.697 105.957 385.84 105.76 385.976 105.559C386.108 105.355 386.264 105.169 386.419 104.983C386.578 104.801 386.721 104.601 386.897 104.436C387.555 103.719 388.324 103.113 389.131 102.568C389.941 102.025 390.828 101.602 391.739 101.245C394.002 100.38 396.458 100.258 398.778 100.651C401.105 101.048 403.308 101.96 405.263 103.227C407.226 104.497 408.899 106.157 410.296 107.988C411.695 109.825 412.825 111.846 413.74 113.945C414.199 114.995 414.604 116.066 414.967 117.147C415.342 118.235 415.638 119.362 415.855 120.502C416.064 121.644 416.197 122.807 416.208 123.985C416.22 125.161 416.114 126.354 415.826 127.526C415.544 128.697 415.061 129.854 414.33 130.866C413.968 131.371 413.545 131.84 413.072 132.253C412.605 132.664 412.086 133.026 411.517 133.316C410.384 133.894 409.114 134.149 407.881 134.121C406.643 134.094 405.434 133.802 404.326 133.306C402.963 132.7 401.746 131.776 400.815 130.592C400.35 130.003 399.967 129.338 399.684 128.632C399.607 128.457 399.558 128.278 399.501 128.097L399.338 127.558C399.295 127.376 399.264 127.19 399.227 127.006C399.195 126.82 399.144 126.638 399.136 126.451C398.956 124.959 399.134 123.443 399.582 122.027C400.035 120.609 400.769 119.292 401.7 118.131C402.158 117.546 402.694 117.02 403.25 116.526C403.542 116.292 403.833 116.058 404.14 115.843L404.611 115.536L404.848 115.385L405.092 115.253C406.391 114.531 407.808 114.043 409.255 113.781C412.151 113.289 415.132 113.632 417.826 114.671C419.309 115.237 420.702 115.995 421.982 116.912C423.271 117.821 424.437 118.894 425.476 120.08L425.441 120.041C426.56 121.249 427.544 122.57 428.437 123.942C428.872 124.634 429.305 125.331 429.676 126.06L430.25 127.143L430.766 128.255C431.106 128.949 431.365 129.683 431.659 130.402C431.809 130.761 431.917 131.135 432.048 131.502C432.17 131.874 432.308 132.238 432.416 132.612L432.738 133.739L432.898 134.303L433.032 134.874L433.297 136.019C433.379 136.403 433.439 136.79 433.51 137.177C433.801 138.722 433.951 140.291 434.057 141.863C434.114 143.437 434.136 145.015 434.006 146.585C433.915 148.156 433.67 149.714 433.389 151.256C433.311 151.639 433.219 152.021 433.133 152.401C433.043 152.782 432.97 153.166 432.854 153.54C432.637 154.291 432.444 155.044 432.187 155.783C431.686 157.261 431.063 158.711 430.259 160.07C429.455 161.426 428.441 162.684 427.214 163.701C426.829 164.003 426.29 164.454 425.627 164.81Z" fill="#156DCB"/>
<defs>
<filter id="filter0_ddd_37_889" x="317" y="206" width="300" height="243.418" filterUnits="userSpaceOnUse" color-interpolation-filters="sRGB">
<feFlood flood-opacity="0" result="BackgroundImageFix"/>
<feColorMatrix in="SourceAlpha" type="matrix" values="0 0 0 0 0 0 0 0 0 0 0 0 0 0 0 0 0 0 127 0" result="hardAlpha"/>
<feOffset dy="4"/>
<feGaussianBlur stdDeviation="5"/>
<feColorMatrix type="matrix" values="0 0 0 0 0.0745098 0 0 0 0 0.113725 0 0 0 0 0.207843 0 0 0 0.06 0"/>
<feBlend mode="normal" in2="BackgroundImageFix" result="effect1_dropShadow_37_889"/>
<feColorMatrix in="SourceAlpha" type="matrix" values="0 0 0 0 0 0 0 0 0 0 0 0 0 0 0 0 0 0 127 0" result="hardAlpha"/>
<feOffset dy="2"/>
<feGaussianBlur stdDeviation="2"/>
<feColorMatrix type="matrix" values="0 0 0 0 0.0745098 0 0 0 0 0.113725 0 0 0 0 0.207843 0 0 0 0.02 0"/>
<feBlend mode="normal" in2="effect1_dropShadow_37_889" result="effect2_dropShadow_37_889"/>
<feColorMatrix in="SourceAlpha" type="matrix" values="0 0 0 0 0 0 0 0 0 0 0 0 0 0 0 0 0 0 127 0" result="hardAlpha"/>
<feMorphology radius="1" operator="dilate" in="SourceAlpha" result="effect3_dropShadow_37_889"/>
<feOffset/>
<feColorMatrix type="matrix" values="0 0 0 0 0.0745098 0 0 0 0 0.113725 0 0 0 0 0.207843 0 0 0 0.03 0"/>
<feBlend mode="normal" in2="effect2_dropShadow_37_889" result="effect3_dropShadow_37_889"/>
<feBlend mode="normal" in="SourceGraphic" in2="effect3_dropShadow_37_889" result="shape"/>
</filter>
<filter id="filter1_dd_37_889" x="354" y="267" width="237" height="154.418" filterUnits="userSpaceOnUse" color-interpolation-filters="sRGB">
<feFlood flood-opacity="0" result="BackgroundImageFix"/>
<feColorMatrix in="SourceAlpha" type="matrix" values="0 0 0 0 0 0 0 0 0 0 0 0 0 0 0 0 0 0 127 0" result="hardAlpha"/>
<feOffset dx="8" dy="10"/>
<feGaussianBlur stdDeviation="8"/>
<feColorMatrix type="matrix" values="0 0 0 0 0.0588235 0 0 0 0 0.0901961 0 0 0 0 0.164706 0 0 0 0.05 0"/>
<feBlend mode="normal" in2="BackgroundImageFix" result="effect1_dropShadow_37_889"/>
<feColorMatrix in="SourceAlpha" type="matrix" values="0 0 0 0 0 0 0 0 0 0 0 0 0 0 0 0 0 0 127 0" result="hardAlpha"/>
<feOffset dy="4"/>
<feGaussianBlur stdDeviation="6.5"/>
<feComposite in2="hardAlpha" operator="out"/>
<feColorMatrix type="matrix" values="0 0 0 0 0.0588235 0 0 0 0 0.0901961 0 0 0 0 0.164706 0 0 0 0.2 0"/>
<feBlend mode="normal" in2="effect1_dropShadow_37_889" result="effect2_dropShadow_37_889"/>
<feBlend mode="normal" in="SourceGraphic" in2="effect2_dropShadow_37_889" result="shape"/>
</filter>
<filter id="filter2_ii_37_889" x="380.333" y="312.592" width="26.6667" height="19.0376" filterUnits="userSpaceOnUse" color-interpolation-filters="sRGB">
<feFlood flood-opacity="0" result="BackgroundImageFix"/>
<feBlend mode="normal" in="SourceGraphic" in2="BackgroundImageFix" result="shape"/>
<feColorMatrix in="SourceAlpha" type="matrix" values="0 0 0 0 0 0 0 0 0 0 0 0 0 0 0 0 0 0 127 0" result="hardAlpha"/>
<feOffset dx="-1" dy="-1"/>
<feComposite in2="hardAlpha" operator="arithmetic" k2="-1" k3="1"/>
<feColorMatrix type="matrix" values="0 0 0 0 0.184314 0 0 0 0 0.152941 0 0 0 0 0.0941176 0 0 0 0.2 0"/>
<feBlend mode="normal" in2="shape" result="effect1_innerShadow_37_889"/>
<feColorMatrix in="SourceAlpha" type="matrix" values="0 0 0 0 0 0 0 0 0 0 0 0 0 0 0 0 0 0 127 0" result="hardAlpha"/>
<feOffset dx="1" dy="1"/>
<feComposite in2="hardAlpha" operator="arithmetic" k2="-1" k3="1"/>
<feColorMatrix type="matrix" values="0 0 0 0 0.184314 0 0 0 0 0.152941 0 0 0 0 0.0941176 0 0 0 0.2 0"/>
<feBlend mode="normal" in2="effect1_innerShadow_37_889" result="effect2_innerShadow_37_889"/>
</filter>
<filter id="filter3_ddd_37_889" x="43" y="68" width="318" height="92" filterUnits="userSpaceOnUse" color-interpolation-filters="sRGB">
<feFlood flood-opacity="0" result="BackgroundImageFix"/>
<feColorMatrix in="SourceAlpha" type="matrix" values="0 0 0 0 0 0 0 0 0 0 0 0 0 0 0 0 0 0 127 0" result="hardAlpha"/>
<feOffset dy="4"/>
<feGaussianBlur stdDeviation="5"/>
<feColorMatrix type="matrix" values="0 0 0 0 0.0745098 0 0 0 0 0.113725 0 0 0 0 0.207843 0 0 0 0.06 0"/>
<feBlend mode="normal" in2="BackgroundImageFix" result="effect1_dropShadow_37_889"/>
<feColorMatrix in="SourceAlpha" type="matrix" values="0 0 0 0 0 0 0 0 0 0 0 0 0 0 0 0 0 0 127 0" result="hardAlpha"/>
<feOffset dy="2"/>
<feGaussianBlur stdDeviation="2"/>
<feColorMatrix type="matrix" values="0 0 0 0 0.0745098 0 0 0 0 0.113725 0 0 0 0 0.207843 0 0 0 0.02 0"/>
<feBlend mode="normal" in2="effect1_dropShadow_37_889" result="effect2_dropShadow_37_889"/>
<feColorMatrix in="SourceAlpha" type="matrix" values="0 0 0 0 0 0 0 0 0 0 0 0 0 0 0 0 0 0 127 0" result="hardAlpha"/>
<feMorphology radius="1" operator="dilate" in="SourceAlpha" result="effect3_dropShadow_37_889"/>
<feOffset/>
<feColorMatrix type="matrix" values="0 0 0 0 0.0745098 0 0 0 0 0.113725 0 0 0 0 0.207843 0 0 0 0.03 0"/>
<feBlend mode="normal" in2="effect2_dropShadow_37_889" result="effect3_dropShadow_37_889"/>
<feBlend mode="normal" in="SourceGraphic" in2="effect3_dropShadow_37_889" result="shape"/>
</filter>
<linearGradient id="paint0_linear_37_889" x1="366.997" y1="395.418" x2="472.125" y2="219.351" gradientUnits="userSpaceOnUse">
<stop stop-color="#0B6B5F"/>
<stop offset="1" stop-color="#0B6A61"/>
</linearGradient>
<radialGradient id="paint1_radial_37_889" cx="0" cy="0" r="1" gradientUnits="userSpaceOnUse" gradientTransform="translate(387 312.592) rotate(70.7007) scale(20.1713 28.2246)">
<stop stop-color="#C29632"/>
<stop offset="1" stop-color="#C29632" stop-opacity="0"/>
</radialGradient>
<radialGradient id="paint2_radial_37_889" cx="0" cy="0" r="1" gradientUnits="userSpaceOnUse" gradientTransform="translate(407 322.4) rotate(145.306) scale(16.2166 22.5666)">
<stop stop-color="#664700"/>
<stop offset="1" stop-color="#664700"/>
</radialGradient>
<radialGradient id="paint3_radial_37_889" cx="0" cy="0" r="1" gradientUnits="userSpaceOnUse" gradientTransform="translate(383.812 331.63) rotate(-21.7056) scale(24.958 34.6676)">
<stop stop-color="#402200"/>
<stop offset="1" stop-color="#402200" stop-opacity="0"/>
</radialGradient>
<clipPath id="clip0_37_889">
<rect x="367" y="276" width="200" height="119.418" rx="8" fill="white"/>
</clipPath>
<clipPath id="clip1_37_889">
<rect width="13.3333" height="16.4279" fill="white" transform="translate(540.333 289.269)"/>
</clipPath>
</defs>
</svg>
