<svg width="1920" height="1080" viewBox="0 0 1920 1080" fill="none" xmlns="http://www.w3.org/2000/svg">
<path d="M856.108 182.521C666.836 241.189 455.47 332.157 446.21 529.279C440.995 640.312 482.702 742.595 552.704 824.272L426 950.977L633.853 900.477C688.236 941.744 751.143 973.417 818.055 992.62C1009.33 1047.51 1196.63 938.644 1313.39 778.154C1429.52 618.544 1481.8 402.126 1361.59 245.545C1247.59 97.0562 1035.36 126.961 856.108 182.521Z" fill="#F5F5F5"/>
<path d="M613.057 683.649C610.847 683.649 609.057 681.858 609.057 679.649V637.079C609.057 635.992 609.499 634.952 610.281 634.198L685.189 562.02C695.93 551.858 706.038 540.108 706.038 525.818C706.038 511.209 696.245 502.635 682.662 502.635C664.325 502.635 653.465 514.604 643.081 531.245C641.899 533.139 639.41 533.745 637.513 532.568L601.364 510.122C599.5 508.965 598.912 506.519 600.1 504.676C619.36 474.786 647.82 455 688.032 455C728.152 455 760.058 480.405 760.058 520.101C760.058 550.588 739.84 574.405 721.833 591.236L682.141 628.461C679.496 630.941 681.251 635.378 684.877 635.378H761.744C763.953 635.378 765.744 637.169 765.744 639.378V679.649C765.744 681.858 763.953 683.649 761.744 683.649H613.057Z" fill="#009099"/>
<path d="M877.134 455C937.471 455 964.323 505.493 964.323 572.5C964.323 639.507 937.471 690 877.134 690C817.112 690 789.945 639.507 789.945 572.5C789.945 505.493 817.112 455 877.134 455ZM877.45 504.541C854.705 504.541 844.596 529.628 844.596 572.5C844.596 615.689 854.705 640.459 877.45 640.459C899.247 640.459 909.672 615.372 909.672 572.5C909.672 529.311 899.247 504.541 877.45 504.541Z" fill="#009099"/>
<path d="M1088.87 455C1120.91 455 1142.91 477.517 1142.91 507.962C1142.91 538.408 1120.91 560.924 1088.87 560.924C1056.51 560.924 1034.52 538.408 1034.52 507.962C1034.52 477.517 1056.51 455 1088.87 455ZM1057.77 683.657C1054.5 683.657 1052.61 679.948 1054.53 677.304L1210.2 463.307C1210.95 462.272 1212.15 461.66 1213.43 461.66H1253.81C1257.08 461.66 1258.96 465.369 1257.04 468.013L1101.38 682.01C1100.62 683.045 1099.42 683.657 1098.14 683.657H1057.77ZM1088.87 528.259C1099.24 528.259 1107.09 520.648 1107.09 507.962C1107.09 494.96 1099.24 487.982 1088.87 487.982C1078.5 487.982 1070.65 494.96 1070.65 507.962C1070.65 520.965 1078.5 528.259 1088.87 528.259ZM1223.96 584.076C1256.01 584.076 1278 606.592 1278 637.038C1278 667.483 1256.01 690 1223.96 690C1191.6 690 1169.61 667.483 1169.61 637.038C1169.61 606.592 1191.6 584.076 1223.96 584.076ZM1223.96 657.335C1234.33 657.335 1242.18 649.723 1242.18 637.038C1242.18 624.035 1234.33 617.058 1223.96 617.058C1213.59 617.058 1205.74 624.035 1205.74 637.038C1205.74 650.04 1213.59 657.335 1223.96 657.335Z" fill="#009099"/>
<path d="M1261.77 307.391C1252.54 337.582 1220.58 354.574 1190.39 345.343C1160.2 336.113 1143.21 304.156 1152.44 273.966C1161.67 243.775 1193.63 226.783 1223.82 236.013C1254.01 245.244 1271 277.201 1261.77 307.391Z" fill="#A6F2FA"/>
<path d="M1259.03 295.501C1249.8 325.691 1217.84 342.683 1187.65 333.453C1157.46 324.223 1140.47 292.266 1149.7 262.075C1158.93 231.885 1190.88 214.893 1221.07 224.123C1251.26 233.353 1268.26 265.31 1259.03 295.501Z" fill="white"/>
<path d="M1197.41 250.722C1204.23 252.809 1207.47 258.985 1205.51 265.399C1203.55 271.813 1197.41 275.124 1190.58 273.037C1183.69 270.93 1180.46 264.754 1182.42 258.34C1184.38 251.926 1190.51 248.614 1197.41 250.722ZM1174.38 296.356L1223.08 260.104L1233.79 263.378L1185.09 299.63L1174.38 296.356ZM1192.69 266.155C1194.9 266.831 1197.06 265.739 1197.88 263.066C1198.71 260.327 1197.49 258.345 1195.28 257.67C1193.07 256.995 1190.95 257.953 1190.11 260.693C1189.28 263.432 1190.48 265.48 1192.69 266.155ZM1217.87 286.712C1224.7 288.799 1227.93 294.975 1225.97 301.389C1224.01 307.803 1217.87 311.115 1211.05 309.028C1204.15 306.92 1200.92 300.744 1202.88 294.33C1204.84 287.916 1210.98 284.605 1217.87 286.712ZM1213.15 302.146C1215.36 302.821 1217.52 301.729 1218.34 299.057C1219.18 296.317 1217.95 294.336 1215.75 293.661C1213.54 292.986 1211.41 293.944 1210.58 296.683C1209.74 299.423 1210.94 301.471 1213.15 302.146Z" fill="#009099"/>
<path d="M1395.73 257.618C1385.18 292.122 1348.65 311.541 1314.15 300.993C1279.65 290.444 1260.23 253.921 1270.78 219.417C1281.33 184.913 1317.85 165.494 1352.35 176.043C1386.86 186.592 1406.27 223.114 1395.73 257.618Z" fill="#A6F2FA"/>
<path d="M1392.59 244.029C1382.04 278.533 1345.52 297.952 1311.01 287.403C1276.51 276.854 1257.09 240.332 1267.64 205.828C1278.19 171.324 1314.71 151.905 1349.21 162.454C1383.72 173.003 1403.14 209.525 1392.59 244.029Z" fill="white"/>
<path d="M1322.17 192.852C1329.97 195.238 1333.66 202.296 1331.42 209.626C1329.18 216.956 1322.17 220.741 1314.37 218.356C1306.49 215.947 1302.79 208.889 1305.04 201.559C1307.28 194.228 1314.29 190.444 1322.17 192.852ZM1295.85 245.007L1351.5 203.576L1363.74 207.317L1308.09 248.748L1295.85 245.007ZM1316.77 210.491C1319.3 211.263 1321.77 210.015 1322.7 206.96C1323.66 203.83 1322.26 201.565 1319.74 200.794C1317.21 200.022 1314.79 201.117 1313.83 204.248C1312.87 207.379 1314.25 209.719 1316.77 210.491ZM1345.55 233.985C1353.35 236.37 1357.05 243.428 1354.81 250.759C1352.57 258.089 1345.56 261.874 1337.76 259.488C1329.88 257.08 1326.18 250.022 1328.42 242.691C1330.66 235.361 1337.67 231.576 1345.55 233.985ZM1340.16 251.624C1342.68 252.395 1345.16 251.147 1346.09 248.093C1347.05 244.962 1345.65 242.698 1343.12 241.926C1340.6 241.154 1338.18 242.25 1337.22 245.38C1336.26 248.511 1337.64 250.852 1340.16 251.624Z" fill="#009099"/>
<path d="M1458.19 385.002C1469.89 428.642 1443.99 473.499 1400.35 485.192C1356.71 496.886 1311.85 470.988 1300.16 427.347C1288.46 383.707 1314.36 338.851 1358 327.157C1401.64 315.464 1446.5 341.362 1458.19 385.002Z" fill="#A6F2FA"/>
<path d="M1445.84 372.653C1457.54 416.293 1431.64 461.149 1388 472.843C1344.36 484.536 1299.5 458.638 1287.81 414.998C1276.11 371.358 1302.01 326.501 1345.65 314.808C1389.29 303.114 1434.15 329.012 1445.84 372.653Z" fill="white"/>
<path d="M1337.1 365.038C1346.97 362.394 1355.58 367.436 1358.06 376.707C1360.55 385.979 1355.61 394.65 1345.74 397.294C1335.78 399.964 1327.17 394.921 1324.69 385.65C1322.2 376.379 1327.14 367.707 1337.1 365.038ZM1343.76 437.883L1375.37 356.957L1390.85 352.809L1359.24 433.736L1343.76 437.883ZM1343.08 387.347C1346.27 386.491 1348.07 383.525 1347.03 379.662C1345.97 375.703 1342.98 374.226 1339.79 375.081C1336.6 375.937 1334.75 378.71 1335.81 382.669C1336.87 386.629 1339.89 388.202 1343.08 387.347ZM1389.23 393.198C1399.1 390.554 1407.71 395.597 1410.19 404.868C1412.67 414.14 1407.74 422.811 1397.87 425.455C1387.91 428.125 1379.3 423.082 1376.82 413.811C1374.33 404.539 1379.27 395.868 1389.23 393.198ZM1395.21 415.507C1398.4 414.652 1400.2 411.686 1399.16 407.823C1398.1 403.864 1395.11 402.387 1391.92 403.242C1388.73 404.098 1386.88 406.87 1387.94 410.83C1389 414.79 1392.02 416.363 1395.21 415.507Z" fill="#009099"/>
<path d="M1469.88 172.988C1473.18 172.17 1475.17 168.844 1474.33 165.56C1473.49 162.275 1470.13 160.277 1466.83 161.095L1419.06 172.954C1415.77 173.773 1413.77 177.099 1414.62 180.383C1415.46 183.667 1418.81 185.666 1422.11 184.847L1469.88 172.988Z" fill="#60E0EB"/>
<path d="M1377.81 78.2626C1378.5 74.952 1376.35 71.6976 1373.02 70.9938C1369.69 70.29 1366.43 72.4032 1365.74 75.7138L1355.74 123.669C1355.05 126.98 1357.2 130.234 1360.53 130.938C1363.86 131.642 1367.12 129.529 1367.81 126.218L1377.81 78.2626Z" fill="#60E0EB"/>
<path d="M1437.97 112.818C1440.32 110.384 1440.23 106.504 1437.77 104.153C1435.31 101.801 1431.41 101.869 1429.05 104.304L1395 139.569C1392.65 142.004 1392.73 145.884 1395.2 148.235C1397.66 150.586 1401.56 150.519 1403.91 148.084L1437.97 112.818Z" fill="#60E0EB"/>
</svg>
