<svg width="681" height="528" viewBox="0 0 681 528" fill="none" xmlns="http://www.w3.org/2000/svg">
<g clip-path="url(#clip0_20_125)">
<rect width="681" height="528" fill="white"/>
<path opacity="0.3" d="M402.989 92C450.151 92 482.516 124.961 482.516 169.528C482.516 214.094 450.151 247.055 402.989 247.055C355.366 247.055 323 214.094 323 169.528C323 124.961 355.366 92 402.989 92ZM345.656 426.715L583.312 101.749H657.29L419.634 426.715H345.656ZM402.989 199.239C418.247 199.239 429.806 188.097 429.806 169.528C429.806 150.494 418.247 140.281 402.989 140.281C387.731 140.281 376.172 150.494 376.172 169.528C376.172 188.561 387.731 199.239 402.989 199.239ZM601.806 280.945C648.968 280.945 681.333 313.906 681.333 358.472C681.333 403.039 648.968 436 601.806 436C554.183 436 521.817 403.039 521.817 358.472C521.817 313.906 554.183 280.945 601.806 280.945ZM601.806 388.184C617.065 388.184 628.624 377.042 628.624 358.472C628.624 339.439 617.065 329.225 601.806 329.225C586.548 329.225 574.989 339.439 574.989 358.472C574.989 377.506 586.548 388.184 601.806 388.184Z" fill="#0B6B5F"/>
<path d="M11.3382 377.514V328.216L89.4094 253.297C100.424 242.919 110.79 230.919 110.79 216.324C110.79 201.405 100.748 192.649 86.8178 192.649C66.7331 192.649 55.395 206.595 44.0568 225.405L0 198.162C19.7608 165.73 49.5639 144 92.3249 144C133.466 144 166.185 169.946 166.185 210.486C166.185 241.622 145.452 265.946 126.987 283.135L78.7192 328.216H172.016V377.514H11.3382Z" fill="#0A665B"/>
<path d="M286.243 144C348.117 144 375.652 195.568 375.652 264C375.652 332.432 348.117 384 286.243 384C224.693 384 196.833 332.432 196.833 264C196.833 195.568 224.693 144 286.243 144ZM286.567 194.595C263.242 194.595 252.876 220.216 252.876 264C252.876 308.108 263.242 333.405 286.567 333.405C308.919 333.405 319.609 307.784 319.609 264C319.609 219.892 308.919 194.595 286.567 194.595Z" fill="#0A665B"/>
</g>
<defs>
<clipPath id="clip0_20_125">
<rect width="681" height="528" fill="white"/>
</clipPath>
</defs>
</svg>
