<svg width="1920" height="1080" viewBox="0 0 1920 1080" fill="none" xmlns="http://www.w3.org/2000/svg">
<g clip-path="url(#clip0_78_376)">
<path fill-rule="evenodd" clip-rule="evenodd" d="M1951.16 1341.09C1933.44 963.162 1528.84 788.755 1166.54 676.276C823.422 569.752 417.166 512.418 198.951 797.106C-31.158 1097.31 68.9275 1512.24 291.211 1818.25C514.72 2125.94 873.248 2334.67 1239.38 2229.43C1643.19 2113.36 1970.79 1759.65 1951.16 1341.09Z" fill="#E5FBFD"/>
<rect x="358.484" y="417.759" width="1017.12" height="609.483" rx="56" transform="rotate(-9.32902 358.484 417.759)" fill="#A6F2FA"/>
<rect x="309.263" y="384.995" width="1009.12" height="601.483" rx="52" transform="rotate(-9.32902 309.263 384.995)" fill="white" stroke="#006A6F" stroke-width="8"/>
<circle cx="1137.29" cy="717.768" r="77.7031" transform="rotate(-9.32902 1137.29 717.768)" fill="#A6F2FA" stroke="white" stroke-width="8"/>
<circle cx="1243.04" cy="700.396" r="77.7031" transform="rotate(-9.32902 1243.04 700.396)" fill="#A6F2FA" stroke="white" stroke-width="8"/>
<path fill-rule="evenodd" clip-rule="evenodd" d="M1218.68 300.535C1220.48 299.114 1223.09 299.404 1224.51 301.182C1233.08 311.868 1238.76 324.643 1240.99 338.224C1243.23 351.804 1241.93 365.726 1237.23 378.591C1236.45 380.733 1234.07 381.843 1231.91 381.07C1229.76 380.297 1228.65 377.935 1229.43 375.793C1233.64 364.264 1234.81 351.77 1232.8 339.569C1230.8 327.368 1225.7 315.904 1218.02 306.329C1216.59 304.55 1216.89 301.956 1218.68 300.535ZM1204.24 311.203C1206.04 309.782 1208.65 310.072 1210.07 311.85C1216.86 320.307 1221.35 330.416 1223.12 341.161C1224.88 351.905 1223.86 362.921 1220.14 373.103C1219.35 375.245 1216.97 376.355 1214.82 375.582C1212.67 374.809 1211.55 372.447 1212.34 370.305C1215.57 361.46 1216.46 351.871 1214.93 342.506C1213.39 333.141 1209.47 324.343 1203.58 316.997C1202.15 315.218 1202.45 312.624 1204.24 311.203ZM1190.43 321.081C1192.23 319.667 1194.84 319.969 1196.25 321.754C1201.29 328.088 1204.62 335.65 1205.94 343.68C1207.26 351.71 1206.52 359.942 1203.78 367.553C1203.01 369.698 1200.63 370.819 1198.47 370.056C1196.32 369.293 1195.19 366.935 1195.97 364.79C1198.23 358.509 1198.85 351.691 1197.75 345.025C1196.66 338.36 1193.89 332.099 1189.74 326.872C1188.32 325.087 1188.63 322.494 1190.43 321.081ZM1176.49 331.728C1178.2 330.203 1180.82 330.339 1182.35 332.03C1186.08 336.156 1188.54 341.236 1189.44 346.693C1190.34 352.15 1189.63 357.75 1187.41 362.854C1186.5 364.946 1184.06 365.913 1181.96 365.015C1179.85 364.116 1178.89 361.692 1179.8 359.6C1181.39 355.933 1181.89 351.929 1181.25 348.038C1180.61 344.148 1178.86 340.514 1176.17 337.55C1174.64 335.859 1174.78 333.252 1176.49 331.728Z" fill="#006A6F"/>
<path d="M403.727 566.564C402.579 559.576 407.352 552.974 414.389 551.818L522.682 534.028C529.718 532.872 536.353 537.6 537.501 544.588L549.001 614.596C550.149 621.585 545.376 628.187 538.34 629.343L430.047 647.133C423.011 648.289 416.376 643.561 415.228 636.572L403.727 566.564Z" fill="#A6F2FA"/>
<path d="M440.778 695.182L441.361 698.736L436.299 699.347L439.908 702.913L437.061 705.327L433.822 701.191L432.077 706.146L428.672 704.759L430.886 700.236L425.941 701.292L425.357 697.737L430.387 697.198L426.832 693.557L429.614 691.153L432.853 695.289L434.598 690.334L438.067 691.711L435.822 696.306L440.778 695.182Z" fill="#006A6F"/>
<path d="M466.725 690.897L467.309 694.451L462.246 695.062L465.855 698.628L463.008 701.043L459.77 696.907L458.024 701.861L454.619 700.474L456.833 695.951L451.888 697.007L451.304 693.452L456.334 692.914L452.779 689.272L455.561 686.868L458.8 691.004L460.545 686.049L464.015 687.426L461.769 692.021L466.725 690.897Z" fill="#006A6F"/>
<path d="M492.672 686.612L493.256 690.167L488.194 690.777L491.802 694.344L488.955 696.758L485.717 692.622L483.972 697.577L480.567 696.189L482.78 691.667L477.835 692.722L477.251 689.168L482.281 688.629L478.726 684.987L481.508 682.584L484.747 686.72L486.492 681.765L489.962 683.142L487.716 687.736L492.672 686.612Z" fill="#006A6F"/>
<path d="M518.619 682.328L519.203 685.882L514.141 686.493L517.749 690.059L514.903 692.474L511.664 688.337L509.919 693.292L506.514 691.905L508.727 687.382L503.782 688.438L503.198 684.883L508.228 684.344L504.674 680.703L507.456 678.299L510.694 682.435L512.44 677.48L515.909 678.857L513.663 683.452L518.619 682.328Z" fill="#006A6F"/>
<path d="M562.544 675.068L563.128 678.622L558.065 679.233L561.674 682.799L558.827 685.214L555.589 681.078L553.843 686.032L550.438 684.645L552.652 680.122L547.707 681.178L547.123 677.623L552.153 677.085L548.598 673.443L551.38 671.039L554.619 675.175L556.364 670.22L559.833 671.597L557.588 676.192L562.544 675.068Z" fill="#006A6F"/>
<path d="M588.494 670.805L589.078 674.359L584.016 674.97L587.624 678.536L584.778 680.95L581.539 676.814L579.794 681.769L576.389 680.382L578.602 675.859L573.657 676.915L573.073 673.36L578.103 672.821L574.549 669.18L577.331 666.776L580.57 670.912L582.315 665.957L585.784 667.334L583.538 671.929L588.494 670.805Z" fill="#006A6F"/>
<path d="M614.442 666.52L615.026 670.074L609.938 670.667L613.547 674.233L610.7 676.648L607.462 672.512L605.716 677.466L602.311 676.079L604.525 671.556L599.58 672.612L598.996 669.057L604.026 668.519L600.471 664.877L603.253 662.473L606.492 666.609L608.237 661.654L611.707 663.031L609.461 667.626L614.442 666.52Z" fill="#006A6F"/>
<path d="M640.389 662.235L640.973 665.79L635.889 666.404L639.497 669.97L636.651 672.385L633.412 668.249L631.667 673.203L628.262 671.816L630.475 667.293L625.53 668.349L624.946 664.794L629.976 664.256L626.422 660.614L629.204 658.21L632.443 662.346L634.188 657.391L637.654 658.747L635.408 663.341L640.389 662.235Z" fill="#006A6F"/>
<path d="M684.313 654.975L684.897 658.53L679.835 659.14L683.443 662.707L680.597 665.121L677.358 660.985L675.613 665.94L672.208 664.552L674.421 660.03L669.476 661.085L668.892 657.531L673.922 656.992L670.368 653.35L673.15 650.947L676.388 655.083L678.134 650.128L681.603 651.505L679.357 656.099L684.313 654.975Z" fill="#006A6F"/>
<path d="M710.243 650.716L710.827 654.27L705.764 654.881L709.373 658.447L706.526 660.862L703.288 656.726L701.542 661.68L698.138 660.293L700.351 655.77L695.406 656.826L694.822 653.271L699.852 652.733L696.297 649.091L699.079 646.687L702.318 650.823L704.063 645.868L707.529 647.224L705.283 651.818L710.243 650.716Z" fill="#006A6F"/>
<path d="M736.19 646.431L736.774 649.986L731.711 650.596L735.32 654.162L732.473 656.577L729.235 652.441L727.489 657.396L724.085 656.008L726.298 651.485L721.353 652.541L720.769 648.987L725.799 648.448L722.244 644.806L725.026 642.402L728.265 646.538L730.01 641.584L733.48 642.961L731.234 647.555L736.19 646.431Z" fill="#006A6F"/>
<path d="M762.137 642.146L762.721 645.701L757.659 646.311L761.267 649.878L758.421 652.292L755.182 648.156L753.437 653.111L750.032 651.723L752.245 647.201L747.3 648.256L746.716 644.702L751.746 644.163L748.192 640.522L750.974 638.118L754.212 642.254L755.958 637.299L759.427 638.676L757.181 643.27L762.137 642.146Z" fill="#006A6F"/>
<path d="M794.998 671.482L794.304 667.26L805.666 651.013C808.717 646.751 810.026 643.306 809.594 640.678C809.237 638.502 808.291 636.91 806.758 635.9C805.224 634.891 803.514 634.553 801.581 634.87C797.929 635.47 795.551 637.653 794.467 641.393L789.731 639.56C790.52 636.842 791.906 634.668 793.842 633.022C795.778 631.377 798.078 630.335 800.674 629.887C803.917 629.354 806.909 629.969 809.665 631.706C812.425 633.465 814.099 636.133 814.697 639.773C815.341 643.694 813.746 648.358 809.91 653.745L801.649 665.235L819.153 662.337L819.974 667.335L794.998 671.482Z" fill="#006A6F"/>
<path d="M839.431 640.599C842.488 640.672 845.103 641.548 847.322 643.241C849.542 644.934 850.901 647.299 851.407 650.379C852.027 654.149 851.226 657.334 849.009 659.955C846.792 662.575 843.833 664.168 840.138 664.775C837.195 665.258 834.464 665.021 831.943 664.041C829.442 663.058 827.491 661.388 826.103 658.983L830 655.71C831.73 659.121 834.838 660.446 839.306 659.712C841.712 659.317 843.564 658.371 844.859 656.853C846.158 655.357 846.641 653.463 846.248 651.205C845.876 648.943 844.834 647.3 843.1 646.28C841.388 645.256 839.327 644.93 836.921 645.326L835.589 645.545L833.028 642.713L839.99 629.092L822.786 631.94L821.993 627.115L845.234 623.275L845.955 627.802L839.431 640.599Z" fill="#006A6F"/>
<path d="M889.501 643.347L890.293 648.173L885.589 648.946L886.803 656.334L881.668 657.178L880.454 649.789L860.716 653.054L859.923 648.228L869.423 619.301L874.966 618.39L865.465 647.318L879.687 644.982L877.882 633.995L883.016 633.152L884.821 644.138L889.501 643.347Z" fill="#006A6F"/>
<path d="M907.847 628.519C911.499 627.919 914.77 628.488 917.659 630.226C920.547 631.964 922.307 634.75 922.933 638.563C923.552 642.333 922.752 645.517 920.535 648.138C918.318 650.759 915.358 652.351 911.663 652.958C908.72 653.442 905.961 653.165 903.408 652.124C900.854 651.084 898.882 649.284 897.515 646.743L901.466 643.528C902.293 645.339 903.536 646.594 905.16 647.345C906.805 648.093 908.687 648.27 910.814 647.921C913.241 647.522 915.115 646.573 916.432 645.051C917.73 643.555 918.192 641.665 917.82 639.403C917.449 637.141 916.407 635.498 914.673 634.478C912.939 633.457 910.899 633.129 908.536 633.517L897.58 635.317L895.646 614.949L916.888 611.437L917.681 616.262L901.143 619.001L902.172 629.429L907.847 628.519Z" fill="#006A6F"/>
<path d="M1469.88 172.988C1473.17 172.17 1475.17 168.844 1474.33 165.56C1473.48 162.275 1470.13 160.277 1466.83 161.095L1419.06 172.954C1415.76 173.773 1413.77 177.099 1414.61 180.383C1415.45 183.667 1418.81 185.666 1422.11 184.847L1469.88 172.988Z" fill="#E2CF58"/>
<path d="M1377.8 78.2626C1378.49 74.952 1376.35 71.6976 1373.02 70.9938C1369.69 70.29 1366.43 72.4032 1365.74 75.7138L1355.74 123.669C1355.05 126.98 1357.19 130.234 1360.53 130.938C1363.86 131.642 1367.12 129.529 1367.81 126.218L1377.8 78.2626Z" fill="#E2CF58"/>
<path d="M1437.96 112.818C1440.31 110.384 1440.23 106.504 1437.77 104.153C1435.3 101.801 1431.4 101.869 1429.05 104.304L1395 139.569C1392.64 142.004 1392.73 145.884 1395.19 148.235C1397.65 150.586 1401.55 150.519 1403.91 148.084L1437.96 112.818Z" fill="#E2CF58"/>
</g>
<defs>
<clipPath id="clip0_78_376">
<rect width="1920" height="1080" fill="white"/>
</clipPath>
</defs>
</svg>
