<svg width="1920" height="1080" viewBox="0 0 1920 1080" fill="none" xmlns="http://www.w3.org/2000/svg">
<path fill-rule="evenodd" clip-rule="evenodd" d="M504.846 582.917C514.097 780.946 725.277 872.332 914.382 931.269C1093.47 987.085 1305.52 1017.13 1419.42 867.956C1539.53 710.655 1487.29 493.242 1371.26 332.898C1254.6 171.67 1067.47 62.2998 876.363 117.446C665.595 178.266 494.6 363.6 504.846 582.917Z" fill="#B2D4D0"/>
<path d="M117.197 172.535C114.311 171.815 112.567 168.891 113.303 166.004C114.039 163.117 116.975 161.36 119.862 162.079L161.677 172.505C164.563 173.225 166.307 176.149 165.571 179.036C164.835 181.923 161.899 183.68 159.012 182.96L117.197 172.535Z" fill="#457BE7"/>
<path d="M197.791 89.2583C197.187 86.3478 199.063 83.4868 201.98 82.868C204.897 82.2493 207.751 84.1071 208.355 87.0176L217.105 129.177C217.709 132.087 215.834 134.948 212.916 135.567C209.999 136.186 207.145 134.328 206.541 131.417L197.791 89.2583Z" fill="#457BE7"/>
<path d="M145.132 119.637C143.074 117.497 143.152 114.086 145.305 112.019C147.459 109.952 150.874 110.011 152.932 112.152L182.744 143.155C184.802 145.295 184.724 148.706 182.57 150.773C180.417 152.84 177.002 152.781 174.944 150.641L145.132 119.637Z" fill="#457BE7"/>
<path d="M917.527 387.521C918.454 386.541 919.445 385.517 920.275 384.73C924.772 380.477 929.18 376.094 932.515 370.562C932.536 370.527 932.558 370.492 932.581 370.456L932.624 370.388C933.17 369.535 933.968 368.287 930.87 364.9C927.428 361.129 924.647 359.693 923.575 361.038C922.927 361.849 922.306 362.695 921.685 363.541C919.84 366.055 917.99 368.575 915.39 370.234C911.961 372.412 909.132 375.265 906.306 378.115C904.95 379.483 903.594 380.851 902.174 382.141L900.682 383.539L898.11 386.048C896.351 387.701 894.718 389.501 893.748 391.259C892.759 393.008 892.169 394.766 892.027 396.645C891.835 398.479 892.366 400.737 893.347 402.469L893.461 402.656C894.433 404.224 895.501 405.324 896.982 406.392C898.437 407.472 900.59 408.341 902.948 408.88L906.468 409.799L908.271 410.265L909.305 410.566C910.521 410.921 911.758 411.216 912.99 411.462C915.563 411.957 918.201 412.01 920.838 412.063C922.576 412.098 924.313 412.132 926.031 412.294C926.543 412.337 927.068 412.648 927.605 412.966C928.137 413.282 928.681 413.604 929.234 413.677C929.375 413.695 929.53 413.716 929.694 413.739C930.605 413.863 931.816 414.029 932.641 413.832L932.722 413.812L932.791 413.794C933.159 413.699 933.534 413.602 933.845 413.836C935.487 415.019 936.2 413.359 936.382 407.711C936.397 407.319 936.446 406.891 936.494 406.461C936.597 405.546 936.702 404.618 936.494 403.996C936.491 403.99 936.489 403.984 936.486 403.976L936.475 403.94C936.465 403.907 936.453 403.867 936.438 403.834C935.824 401.138 934.818 401.182 933.794 401.226C933.449 401.241 933.102 401.256 932.768 401.166C930.097 400.47 927.419 399.829 924.738 399.212C931.808 396.764 939.005 394.728 946.411 393.801C963.87 391.569 981.229 389.433 998.704 390.741C1006.53 391.363 1014.31 392.478 1022.01 394.039C1029.71 395.698 1037.21 398.008 1044.53 400.978C1058.2 406.876 1070.73 415.387 1082.05 425.047C1091.87 433.281 1101.51 442.202 1108.71 453.202C1109.5 454.431 1110.18 455.878 1110.87 457.368L1111 457.64C1111.17 458.062 1111.34 458.489 1111.51 458.914C1111.98 460.121 1112.45 461.321 1113.04 462.41C1113.75 463.577 1114.51 465.197 1115.27 466.826C1116.08 468.534 1116.88 470.253 1117.64 471.471C1118.31 472.494 1118.83 473.618 1119.05 474.774C1119.96 480.053 1122.06 481.014 1126.56 477.827C1126.89 477.587 1127.28 477.433 1127.67 477.28C1128.48 476.963 1129.28 476.647 1129.49 475.584C1129.51 475.523 1129.53 475.394 1129.55 475.334C1130.42 472.792 1130.1 470.489 1129.43 468.331C1129.01 467.28 1128.5 466.263 1127.99 465.242C1127.48 464.218 1126.97 463.19 1126.54 462.12C1117.8 441.343 1103.15 423.667 1086.11 410.08C1075.57 401.746 1063.99 395.187 1052.14 389.411C1051.9 389.288 1051.66 389.164 1051.42 389.04C1051.28 388.963 1051.13 388.885 1050.98 388.808L1050.72 388.669C1047.97 387.219 1045.19 385.751 1042.16 385.035C1040.65 384.374 1039.11 383.822 1037.56 383.266L1036.86 383.012C1036.56 382.907 1036.26 382.802 1035.96 382.696C1034.45 382.164 1032.94 381.632 1031.4 381.247C1017.56 377.72 1002.79 375.507 989.346 375.753C989.123 375.765 988.845 375.725 988.532 375.679C988.175 375.627 987.772 375.569 987.353 375.575C987.044 375.582 986.671 375.587 986.24 375.593C984.068 375.623 980.454 375.673 976.47 375.984C974.078 376.122 971.54 376.29 969.079 376.56C968.253 376.644 967.433 376.718 966.63 376.79L966.612 376.792L966.61 376.792C965.034 376.934 963.523 377.069 962.156 377.266C946.833 378.943 931.81 382.354 917.527 387.521Z" fill="white"/>
<path d="M1006.52 704.407L1005.96 704.415C1005.75 704.418 1005.57 704.421 1005.4 704.424C1004.98 704.431 1004.58 704.372 1004.22 704.32C1003.91 704.275 1003.63 704.234 1003.41 704.247C989.97 704.493 975.199 702.28 961.355 698.753C959.814 698.367 958.308 697.836 956.799 697.305L956.796 697.303C956.497 697.198 956.197 697.092 955.897 696.988L955.189 696.733L955.184 696.731C953.638 696.176 952.104 695.625 950.591 694.965C947.564 694.249 944.783 692.781 942.035 691.331C941.775 691.194 941.516 691.057 941.257 690.921C941.045 690.81 940.832 690.699 940.62 690.589C928.765 684.813 917.185 678.253 906.646 669.92C889.609 656.333 874.958 638.657 866.211 617.88C865.789 616.81 865.275 615.782 864.762 614.758C864.252 613.737 863.743 612.72 863.329 611.669C862.652 609.511 862.338 607.208 863.202 604.666C863.223 604.605 863.245 604.477 863.267 604.416C863.472 603.353 864.277 603.037 865.084 602.72C865.476 602.566 865.868 602.412 866.192 602.173C870.697 598.985 872.796 599.946 873.702 605.226C873.925 606.382 874.449 607.505 875.119 608.529C875.872 609.747 876.679 611.466 877.481 613.174C878.245 614.803 879.005 616.423 879.71 617.59C880.305 618.679 880.775 619.879 881.248 621.086C881.414 621.511 881.581 621.938 881.754 622.36L881.881 622.631C882.578 624.121 883.256 625.569 884.048 626.798C891.246 637.798 900.887 646.719 910.702 654.952C922.028 664.613 934.559 673.123 948.224 679.022C955.541 681.992 963.042 684.302 970.749 685.961C978.444 687.522 986.229 688.636 994.051 689.259C1011.53 690.566 1028.89 688.431 1046.34 686.199C1053.75 685.271 1060.95 683.235 1068.02 680.788C1065.34 680.171 1062.66 679.53 1059.99 678.834C1059.65 678.744 1059.31 678.759 1058.96 678.774C1057.94 678.818 1056.93 678.861 1056.32 676.166C1056.3 676.133 1056.29 676.093 1056.28 676.06C1056.27 676.036 1056.27 676.016 1056.26 676.004C1056.05 675.382 1056.16 674.454 1056.26 673.539C1056.31 673.108 1056.36 672.681 1056.37 672.288C1056.55 666.64 1057.27 664.981 1058.91 666.164C1059.22 666.398 1059.6 666.301 1059.96 666.205C1060.01 666.192 1060.06 666.179 1060.11 666.167C1060.94 665.97 1062.15 666.136 1063.06 666.261C1063.22 666.283 1063.38 666.305 1063.52 666.322C1064.07 666.396 1064.62 666.718 1065.15 667.033C1065.69 667.351 1066.21 667.662 1066.72 667.706C1068.44 667.867 1070.18 667.902 1071.92 667.937C1074.55 667.99 1077.19 668.043 1079.77 668.538C1081 668.784 1082.23 669.079 1083.45 669.434L1084.48 669.735L1086.29 670.201L1089.81 671.119C1092.16 671.659 1094.32 672.528 1095.77 673.608C1097.25 674.676 1098.32 675.776 1099.29 677.343L1099.41 677.53C1100.39 679.263 1100.92 681.52 1100.73 683.355C1100.59 685.234 1100 686.991 1099.01 688.741C1098.04 690.499 1096.4 692.299 1094.64 693.952L1092.07 696.461L1090.58 697.858C1089.16 699.149 1087.81 700.515 1086.45 701.883L1086.45 701.885C1083.62 704.735 1080.79 707.588 1077.37 709.765C1074.77 711.424 1072.92 713.945 1071.07 716.459L1071.07 716.462C1070.45 717.307 1069.83 718.151 1069.18 718.962C1068.11 720.307 1065.33 718.871 1061.88 715.1C1058.79 711.713 1059.59 710.465 1060.13 709.612L1060.13 709.608L1060.14 709.602C1060.17 709.546 1060.21 709.491 1060.24 709.438C1063.58 703.906 1067.98 699.523 1072.48 695.27C1073.31 694.483 1074.3 693.458 1075.23 692.478C1060.94 697.646 1045.92 701.056 1030.6 702.733C1029.23 702.93 1027.72 703.066 1026.15 703.207L1026.14 703.208C1025.71 703.247 1025.27 703.287 1024.82 703.328C1024.44 703.363 1024.06 703.4 1023.68 703.439C1021.21 703.71 1018.68 703.878 1016.28 704.016C1012.3 704.326 1008.69 704.377 1006.52 704.407L1006.52 704.407Z" fill="white"/>
<rect x="1211.89" y="565.211" width="578.728" height="346.789" rx="56" fill="#71C6BB"/>
<rect x="1189" y="544" width="570.728" height="338.789" rx="52" fill="white" stroke="#158A7B" stroke-width="8"/>
<circle cx="1621.49" cy="805.488" r="42.4881" fill="#B2D4D0" stroke="white" stroke-width="8"/>
<circle cx="1682.47" cy="805.488" r="42.4881" fill="#B2D4D0" stroke="white" stroke-width="8"/>
<path fill-rule="evenodd" clip-rule="evenodd" d="M1705.67 578.735C1706.81 578.102 1708.25 578.506 1708.88 579.636C1712.71 586.426 1714.72 594.123 1714.72 601.953C1714.72 609.784 1712.71 617.481 1708.88 624.271C1708.25 625.401 1706.81 625.805 1705.67 625.172C1704.53 624.54 1704.13 623.111 1704.76 621.98C1708.19 615.896 1710 608.989 1710 601.953C1710 594.918 1708.19 588.011 1704.76 581.926C1704.13 580.796 1704.53 579.367 1705.67 578.735ZM1696.58 583.392C1697.72 582.76 1699.16 583.164 1699.79 584.294C1702.82 589.668 1704.41 595.758 1704.41 601.953C1704.41 608.149 1702.82 614.239 1699.79 619.613C1699.16 620.743 1697.72 621.147 1696.58 620.514C1695.44 619.882 1695.04 618.453 1695.67 617.323C1698.3 612.654 1699.69 607.353 1699.69 601.953C1699.69 596.553 1698.3 591.253 1695.67 586.584C1695.04 585.454 1695.44 584.025 1696.58 583.392ZM1687.91 587.664C1689.05 587.037 1690.49 587.447 1691.12 588.58C1693.36 592.6 1694.54 597.154 1694.54 601.784C1694.54 606.414 1693.36 610.968 1691.12 614.988C1690.49 616.121 1689.05 616.531 1687.91 615.904C1686.77 615.277 1686.36 613.849 1686.99 612.716C1688.84 609.398 1689.82 605.628 1689.82 601.784C1689.82 597.94 1688.84 594.17 1686.99 590.852C1686.36 589.719 1686.77 588.292 1687.91 587.664ZM1679.1 592.356C1680.2 591.658 1681.66 591.976 1682.37 593.067C1684.08 595.727 1684.99 598.807 1684.99 601.953C1684.99 605.1 1684.08 608.179 1682.37 610.84C1681.66 611.931 1680.2 612.249 1679.1 611.55C1678.01 610.852 1677.69 609.401 1678.39 608.311C1679.62 606.399 1680.27 604.197 1680.27 601.953C1680.27 599.71 1679.62 597.508 1678.39 595.596C1677.69 594.505 1678.01 593.055 1679.1 592.356Z" fill="#158A7B"/>
<path d="M1223.57 652.933C1223.57 648.903 1226.86 645.637 1230.91 645.637H1293.36C1297.41 645.637 1300.7 648.903 1300.7 652.933V693.3C1300.7 697.33 1297.41 700.597 1293.36 700.597H1230.91C1226.86 700.597 1223.57 697.33 1223.57 693.3V652.933Z" fill="#B2D4D0"/>
<path d="M1232.5 728.564L1232.5 730.613L1229.61 730.489L1231.3 732.825L1229.48 733.918L1228.04 731.297L1226.61 733.918L1224.82 732.825L1226.48 730.489L1223.61 730.626L1223.61 728.576L1226.48 728.738L1224.82 726.365L1226.61 725.272L1228.04 727.893L1229.48 725.272L1231.3 726.365L1229.62 728.738L1232.5 728.564Z" fill="#158A7B"/>
<path d="M1247.47 728.551L1247.47 730.601L1244.57 730.477L1246.27 732.812L1244.44 733.905L1243.01 731.284L1241.57 733.905L1239.79 732.812L1241.45 730.477L1238.57 730.613L1238.57 728.564L1241.45 728.725L1239.79 726.353L1241.57 725.26L1243.01 727.881L1244.44 725.26L1246.27 726.353L1244.58 728.725L1247.47 728.551Z" fill="#158A7B"/>
<path d="M1262.43 728.539L1262.43 730.589L1259.53 730.464L1261.23 732.8L1259.41 733.893L1257.97 731.272L1256.53 733.893L1254.75 732.8L1256.41 730.464L1253.54 730.601L1253.54 728.551L1256.41 728.713L1254.75 726.34L1256.53 725.247L1257.97 727.868L1259.41 725.247L1261.23 726.34L1259.54 728.713L1262.43 728.539Z" fill="#158A7B"/>
<path d="M1277.39 728.527L1277.39 730.576L1274.5 730.452L1276.19 732.787L1274.37 733.88L1272.94 731.259L1271.5 733.88L1269.71 732.787L1271.37 730.452L1268.5 730.589L1268.5 728.539L1271.37 728.701L1269.71 726.328L1271.5 725.235L1272.94 727.856L1274.37 725.235L1276.19 726.328L1274.51 728.701L1277.39 728.527Z" fill="#158A7B"/>
<path d="M1302.73 728.502L1302.73 730.551L1299.83 730.427L1301.52 732.762L1299.7 733.855L1298.27 731.235L1296.83 733.855L1295.05 732.762L1296.71 730.427L1293.83 730.564L1293.83 728.514L1296.71 728.676L1295.05 726.303L1296.83 725.21L1298.27 727.831L1299.7 725.21L1301.52 726.303L1299.84 728.676L1302.73 728.502Z" fill="#158A7B"/>
<path d="M1317.69 728.502L1317.69 730.551L1314.79 730.427L1316.49 732.762L1314.67 733.855L1313.23 731.235L1311.79 733.855L1310.01 732.762L1311.67 730.427L1308.8 730.564L1308.8 728.514L1311.67 728.676L1310.01 726.303L1311.79 725.21L1313.23 727.831L1314.67 725.21L1316.49 726.303L1314.8 728.676L1317.69 728.502Z" fill="#158A7B"/>
<path d="M1332.65 728.489L1332.65 730.539L1329.74 730.402L1331.44 732.738L1329.62 733.831L1328.18 731.21L1326.74 733.831L1324.96 732.738L1326.62 730.402L1323.75 730.539L1323.75 728.489L1326.62 728.651L1324.96 726.278L1326.74 725.185L1328.18 727.806L1329.62 725.185L1331.44 726.278L1329.75 728.651L1332.65 728.489Z" fill="#158A7B"/>
<path d="M1347.62 728.477L1347.62 730.526L1344.71 730.402L1346.4 732.738L1344.58 733.831L1343.15 731.21L1341.71 733.831L1339.92 732.738L1341.58 730.402L1338.71 730.539L1338.71 728.489L1341.58 728.651L1339.92 726.278L1341.71 725.185L1343.15 727.806L1344.58 725.185L1346.4 726.266L1344.72 728.638L1347.62 728.477Z" fill="#158A7B"/>
<path d="M1372.95 728.452L1372.95 730.502L1370.05 730.377L1371.75 732.713L1369.93 733.806L1368.49 731.185L1367.05 733.806L1365.27 732.713L1366.93 730.377L1364.05 730.514L1364.05 728.465L1366.93 728.626L1365.27 726.254L1367.05 725.16L1368.49 727.781L1369.93 725.16L1371.75 726.254L1370.06 728.626L1372.95 728.452Z" fill="#158A7B"/>
<path d="M1387.9 728.452L1387.9 730.502L1385 730.377L1386.7 732.713L1384.88 733.806L1383.44 731.185L1382 733.806L1380.22 732.713L1381.88 730.377L1379.01 730.514L1379.01 728.465L1381.88 728.626L1380.22 726.254L1382 725.16L1383.44 727.781L1384.88 725.16L1386.7 726.241L1385.01 728.614L1387.9 728.452Z" fill="#158A7B"/>
<path d="M1402.86 728.44L1402.86 730.489L1399.96 730.365L1401.66 732.7L1399.84 733.793L1398.4 731.172L1396.97 733.793L1395.18 732.7L1396.84 730.365L1393.97 730.502L1393.97 728.452L1396.84 728.614L1395.18 726.241L1396.97 725.148L1398.4 727.769L1399.84 725.148L1401.66 726.241L1399.98 728.614L1402.86 728.44Z" fill="#158A7B"/>
<path d="M1417.83 728.427L1417.83 730.477L1414.93 730.353L1416.63 732.688L1414.8 733.781L1413.37 731.16L1411.93 733.781L1410.15 732.688L1411.81 730.353L1408.93 730.489L1408.93 728.44L1411.81 728.601L1410.15 726.229L1411.93 725.136L1413.37 727.756L1414.8 725.136L1416.63 726.229L1414.94 728.601L1417.83 728.427Z" fill="#158A7B"/>
<path d="M1433.57 747.929L1433.57 745.494L1441.45 737.42C1443.55 735.309 1444.61 733.495 1444.61 731.98C1444.61 730.725 1444.22 729.744 1443.46 729.036C1442.69 728.328 1441.76 727.98 1440.64 727.98C1438.54 727.98 1437 728.986 1436.05 730.986L1433.56 729.52C1434.25 728.067 1435.23 726.974 1436.47 726.229C1437.71 725.483 1439.1 725.111 1440.59 725.098C1442.46 725.098 1444.09 725.719 1445.47 726.949C1446.86 728.191 1447.56 729.843 1447.56 731.943C1447.56 734.203 1446.23 736.675 1443.58 739.346L1437.88 745.035L1447.98 745.022L1447.98 747.904L1433.57 747.929Z" fill="#158A7B"/>
<path d="M1461.37 734.688C1463.08 735.011 1464.46 735.744 1465.55 736.899C1466.64 738.054 1467.19 739.507 1467.19 741.284C1467.19 743.457 1466.45 745.171 1464.96 746.438C1463.47 747.705 1461.66 748.327 1459.53 748.327C1457.84 748.327 1456.33 747.941 1455 747.159C1453.69 746.376 1452.75 745.258 1452.19 743.78L1454.68 742.302C1455.33 744.376 1456.96 745.407 1459.53 745.407C1460.92 745.407 1462.05 745.047 1462.92 744.314C1463.78 743.594 1464.23 742.575 1464.22 741.271C1464.22 739.967 1463.78 738.948 1462.9 738.215C1462.04 737.483 1460.91 737.11 1459.52 737.11L1458.75 737.11L1457.58 735.284L1462.74 728.278L1452.82 728.291L1452.82 725.508L1466.22 725.496L1466.21 728.104L1461.37 734.688Z" fill="#158A7B"/>
<path d="M1489.23 740.849L1489.23 743.631L1486.51 743.631L1486.51 747.892L1483.55 747.892L1483.55 743.631L1472.17 743.644L1472.17 740.861L1480.17 725.496L1483.37 725.496L1475.36 740.861L1483.57 740.861L1483.57 734.526L1486.53 734.526L1486.53 740.861L1489.23 740.849Z" fill="#158A7B"/>
<path d="M1500.89 734.216C1503 734.216 1504.78 734.837 1506.25 736.079C1507.71 737.321 1508.44 739.048 1508.44 741.246C1508.44 743.42 1507.7 745.134 1506.21 746.401C1504.72 747.668 1502.91 748.289 1500.78 748.289C1499.09 748.289 1497.56 747.879 1496.22 747.059C1494.89 746.24 1493.95 745.047 1493.41 743.495L1495.93 742.054C1496.22 743.147 1496.81 743.967 1497.65 744.538C1498.5 745.109 1499.54 745.383 1500.77 745.383C1502.17 745.383 1503.31 745.022 1504.19 744.29C1505.06 743.569 1505.49 742.55 1505.49 741.246C1505.49 739.942 1505.06 738.923 1504.18 738.191C1503.3 737.458 1502.18 737.085 1500.82 737.085L1494.5 737.085L1495.3 725.471L1507.55 725.459L1507.55 728.241L1498.01 728.253L1497.62 734.203L1500.89 734.216Z" fill="#158A7B"/>
<rect x="227.891" y="193.211" width="578.728" height="346.789" rx="56" fill="#AEC8FC"/>
<rect x="205" y="172" width="570.728" height="338.789" rx="52" fill="white" stroke="#235DD2" stroke-width="8"/>
<path d="M713.46 415.035C713.463 413.078 713.077 411.121 712.302 409.164C711.527 407.207 710.362 405.641 709.196 404.467C707.642 402.902 706.087 401.728 704.141 401.336C702.196 400.553 699.86 400.553 696.745 400.553H653.923L653.872 429.517H696.305C699.42 429.517 702.145 429.125 703.703 428.734C705.651 427.951 707.21 427.168 708.77 425.603C710.33 424.037 711.111 422.471 711.892 420.906C713.064 418.949 713.456 416.992 713.46 415.035Z" fill="#AEC8FC"/>
<path d="M713.397 450.652C713.401 448.695 713.015 446.738 712.24 444.781C711.464 442.824 710.299 441.259 709.133 440.084C707.579 438.519 706.024 437.345 704.078 436.953C702.133 436.17 699.797 436.17 696.683 436.17H653.86L653.809 465.134H696.243C699.357 465.134 702.083 464.742 703.641 464.351C705.589 463.568 707.147 462.785 708.707 461.22C710.267 459.654 711.048 458.089 711.83 456.523C713.001 454.566 713.394 452.609 713.397 450.652Z" fill="#AEC8FC"/>
<path d="M648.033 429.517C646.508 410.73 633.294 398.205 612.272 398.205C590.082 398.205 576.433 411.904 576.396 432.648C576.359 454.175 590.74 467.091 612.151 467.091C633.173 467.091 646.431 454.957 648.022 435.779H611.817L611.829 429.125H648.033L648.033 429.517Z" fill="#AEC8FC"/>
<path fill-rule="evenodd" clip-rule="evenodd" d="M721.671 206.735C722.809 206.102 724.248 206.506 724.885 207.636C728.71 214.426 730.722 222.123 730.722 229.953C730.722 237.784 728.71 245.481 724.885 252.271C724.248 253.401 722.809 253.805 721.671 253.172C720.533 252.54 720.127 251.111 720.764 249.98C724.192 243.896 725.999 236.989 725.999 229.953C725.999 222.918 724.192 216.011 720.764 209.926C720.127 208.796 720.533 207.367 721.671 206.735ZM712.58 211.392C713.718 210.76 715.157 211.164 715.794 212.294C718.822 217.668 720.413 223.758 720.413 229.953C720.413 236.149 718.822 242.239 715.794 247.613C715.157 248.743 713.718 249.147 712.58 248.514C711.442 247.882 711.036 246.453 711.673 245.323C714.303 240.654 715.69 235.353 715.69 229.953C715.69 224.553 714.303 219.253 711.673 214.584C711.036 213.454 711.442 212.025 712.58 211.392ZM703.912 215.664C705.053 215.037 706.49 215.447 707.121 216.58C709.363 220.6 710.539 225.154 710.539 229.784C710.539 234.414 709.363 238.968 707.121 242.988C706.49 244.121 705.053 244.531 703.912 243.904C702.771 243.277 702.358 241.849 702.99 240.716C704.839 237.398 705.817 233.628 705.817 229.784C705.817 225.94 704.839 222.17 702.99 218.852C702.358 217.719 702.771 216.292 703.912 215.664ZM695.104 220.356C696.202 219.658 697.663 219.976 698.366 221.067C700.082 223.727 700.995 226.807 700.995 229.953C700.995 233.1 700.082 236.179 698.366 238.84C697.663 239.931 696.202 240.249 695.104 239.55C694.006 238.852 693.686 237.401 694.389 236.311C695.622 234.399 696.272 232.197 696.272 229.953C696.272 227.71 695.622 225.508 694.389 223.596C693.686 222.505 694.006 221.055 695.104 220.356Z" fill="#235DD2"/>
<path d="M239.568 280.933C239.568 276.903 242.857 273.637 246.914 273.637H309.357C313.415 273.637 316.704 276.903 316.704 280.933V321.3C316.704 325.33 313.415 328.597 309.357 328.597H246.914C242.857 328.597 239.568 325.33 239.568 321.3V280.933Z" fill="#CCDCFD"/>
<path d="M248.504 356.564L248.504 358.613L245.605 358.489L247.302 360.825L245.482 361.918L244.045 359.297L242.608 361.918L240.824 360.825L242.484 358.489L239.61 358.626L239.61 356.576L242.484 356.738L240.824 354.365L242.608 353.272L244.045 355.893L245.482 353.272L247.302 354.365L245.618 356.738L248.504 356.564Z" fill="#235DD2"/>
<path d="M263.468 356.551L263.468 358.601L260.569 358.477L262.266 360.812L260.445 361.905L259.008 359.284L257.571 361.905L255.788 360.812L257.447 358.477L254.574 358.613L254.574 356.564L257.447 356.725L255.788 354.353L257.571 353.26L259.008 355.881L260.445 353.26L262.266 354.353L260.581 356.725L263.468 356.551Z" fill="#235DD2"/>
<path d="M278.431 356.539L278.431 358.589L275.533 358.464L277.23 360.8L275.409 361.893L273.972 359.272L272.535 361.893L270.751 360.8L272.411 358.464L269.537 358.601L269.537 356.551L272.411 356.713L270.751 354.34L272.535 353.247L273.972 355.868L275.409 353.247L277.23 354.34L275.545 356.713L278.431 356.539Z" fill="#235DD2"/>
<path d="M293.395 356.527L293.395 358.576L290.496 358.452L292.193 360.787L290.372 361.88L288.935 359.259L287.499 361.88L285.715 360.787L287.375 358.452L284.501 358.589L284.501 356.539L287.375 356.701L285.715 354.328L287.499 353.235L288.935 355.856L290.372 353.235L292.193 354.328L290.509 356.701L293.395 356.527Z" fill="#235DD2"/>
<path d="M318.726 356.502L318.726 358.551L315.828 358.427L317.525 360.762L315.704 361.855L314.267 359.235L312.83 361.855L311.046 360.762L312.706 358.427L309.832 358.564L309.832 356.514L312.706 356.676L311.046 354.303L312.83 353.21L314.267 355.831L315.704 353.21L317.525 354.303L315.84 356.676L318.726 356.502Z" fill="#235DD2"/>
<path d="M333.69 356.502L333.69 358.551L330.791 358.427L332.488 360.762L330.667 361.855L329.23 359.235L327.794 361.855L326.01 360.762L327.67 358.427L324.796 358.564L324.796 356.514L327.67 356.676L326.01 354.303L327.794 353.21L329.23 355.831L330.667 353.21L332.488 354.303L330.804 356.676L333.69 356.502Z" fill="#235DD2"/>
<path d="M348.654 356.489L348.654 358.539L345.743 358.402L347.44 360.738L345.619 361.831L344.182 359.21L342.745 361.831L340.961 360.738L342.621 358.402L339.747 358.539L339.747 356.489L342.621 356.651L340.961 354.278L342.745 353.185L344.182 355.806L345.619 353.185L347.44 354.278L345.755 356.651L348.654 356.489Z" fill="#235DD2"/>
<path d="M363.617 356.477L363.617 358.526L360.706 358.402L362.403 360.738L360.582 361.831L359.145 359.21L357.708 361.831L355.925 360.738L357.584 358.402L354.711 358.539L354.711 356.489L357.584 356.651L355.925 354.278L357.708 353.185L359.145 355.806L360.582 353.185L362.403 354.266L360.718 356.638L363.617 356.477Z" fill="#235DD2"/>
<path d="M388.948 356.452L388.949 358.502L386.05 358.377L387.747 360.713L385.926 361.806L384.489 359.185L383.052 361.806L381.269 360.713L382.928 358.377L380.055 358.514L380.055 356.465L382.928 356.626L381.269 354.254L383.052 353.16L384.489 355.781L385.926 353.16L387.747 354.254L386.062 356.626L388.948 356.452Z" fill="#235DD2"/>
<path d="M403.9 356.452L403.9 358.502L401.001 358.377L402.698 360.713L400.877 361.806L399.441 359.185L398.004 361.806L396.22 360.713L397.88 358.377L395.006 358.514L395.006 356.465L397.88 356.626L396.22 354.254L398.004 353.16L399.441 355.781L400.877 353.16L402.698 354.241L401.014 356.614L403.9 356.452Z" fill="#235DD2"/>
<path d="M418.863 356.44L418.863 358.489L415.965 358.365L417.662 360.7L415.841 361.793L414.404 359.172L412.967 361.793L411.183 360.7L412.843 358.365L409.969 358.502L409.969 356.452L412.843 356.614L411.183 354.241L412.967 353.148L414.404 355.769L415.841 353.148L417.662 354.241L415.977 356.614L418.863 356.44Z" fill="#235DD2"/>
<path d="M433.827 356.427L433.827 358.477L430.928 358.353L432.625 360.688L430.804 361.781L429.368 359.16L427.931 361.781L426.147 360.688L427.807 358.353L424.933 358.489L424.933 356.44L427.807 356.601L426.147 354.229L427.931 353.136L429.368 355.756L430.804 353.136L432.625 354.229L430.941 356.601L433.827 356.427Z" fill="#235DD2"/>
<path d="M449.571 375.929L449.571 373.494L457.449 365.42C459.555 363.309 460.608 361.495 460.608 359.98C460.608 358.725 460.224 357.744 459.456 357.036C458.688 356.328 457.759 355.98 456.644 355.98C454.538 355.98 453.002 356.986 452.048 358.986L449.559 357.52C450.252 356.067 451.231 354.974 452.47 354.229C453.708 353.483 455.096 353.111 456.595 353.098C458.465 353.098 460.088 353.719 461.475 354.949C462.862 356.191 463.556 357.843 463.556 359.943C463.556 362.203 462.231 364.675 459.58 367.346L453.882 373.035L463.977 373.022L463.977 375.904L449.571 375.929Z" fill="#235DD2"/>
<path d="M477.368 362.688C479.077 363.011 480.464 363.744 481.554 364.899C482.644 366.054 483.189 367.507 483.189 369.284C483.189 371.457 482.446 373.171 480.96 374.438C479.473 375.705 477.665 376.327 475.534 376.327C473.837 376.327 472.326 375.941 471.001 375.159C469.688 374.376 468.746 373.258 468.189 371.78L470.679 370.302C471.335 372.376 472.958 373.407 475.534 373.407C476.922 373.407 478.049 373.047 478.916 372.314C479.783 371.594 480.229 370.575 480.217 369.271C480.217 367.967 479.783 366.948 478.904 366.215C478.036 365.483 476.909 365.11 475.522 365.11L474.754 365.11L473.577 363.284L478.743 356.278L468.82 356.291L468.82 353.508L482.223 353.496L482.211 356.104L477.368 362.688Z" fill="#235DD2"/>
<path d="M505.226 368.849L505.226 371.631L502.513 371.631L502.513 375.892L499.553 375.892L499.553 371.631L488.169 371.644L488.169 368.861L496.171 353.496L499.367 353.496L491.365 368.861L499.565 368.861L499.565 362.526L502.526 362.526L502.526 368.861L505.226 368.849Z" fill="#235DD2"/>
<path d="M516.895 362.216C519 362.216 520.784 362.837 522.246 364.079C523.708 365.321 524.438 367.048 524.438 369.246C524.438 371.42 523.695 373.134 522.209 374.401C520.722 375.668 518.914 376.289 516.783 376.289C515.086 376.289 513.563 375.879 512.225 375.059C510.887 374.24 509.946 373.047 509.413 371.495L511.927 370.054C512.225 371.147 512.807 371.967 513.649 372.538C514.504 373.109 515.544 373.383 516.771 373.383C518.171 373.383 519.31 373.022 520.19 372.29C521.057 371.569 521.49 370.55 521.49 369.246C521.49 367.942 521.057 366.923 520.177 366.191C519.298 365.458 518.183 365.085 516.82 365.085L510.503 365.085L511.296 353.471L523.546 353.459L523.546 356.241L514.008 356.253L513.624 362.203L516.895 362.216Z" fill="#235DD2"/>
</svg>
