<svg width="1920" height="1080" viewBox="0 0 1920 1080" fill="none" xmlns="http://www.w3.org/2000/svg">
<path fill-rule="evenodd" clip-rule="evenodd" d="M504.846 582.917C514.097 780.946 725.278 872.332 914.383 931.269C1093.47 987.085 1305.52 1017.13 1419.42 867.956C1539.53 710.655 1487.29 493.242 1371.26 332.898C1254.6 171.67 1067.47 62.2998 876.364 117.446C665.595 178.266 494.6 363.6 504.846 582.917Z" fill="#F5F5F5"/>
<path d="M917.528 387.521C918.454 386.541 919.445 385.517 920.275 384.73C924.772 380.477 929.181 376.094 932.516 370.562C932.537 370.527 932.559 370.492 932.582 370.456L932.625 370.388C933.17 369.535 933.969 368.287 930.871 364.9C927.429 361.129 924.647 359.693 923.575 361.038C922.927 361.849 922.307 362.695 921.686 363.541C919.841 366.055 917.991 368.575 915.391 370.234C911.962 372.412 909.132 375.265 906.307 378.115C904.951 379.483 903.595 380.851 902.175 382.141L900.683 383.539L898.111 386.048C896.351 387.701 894.719 389.501 893.749 391.259C892.76 393.008 892.17 394.766 892.028 396.645C891.836 398.479 892.366 400.737 893.348 402.469L893.462 402.656C894.434 404.224 895.502 405.324 896.983 406.392C898.437 407.472 900.591 408.341 902.949 408.88L906.469 409.799L908.272 410.265L909.306 410.566C910.522 410.921 911.759 411.216 912.991 411.462C915.564 411.957 918.202 412.01 920.839 412.063C922.577 412.098 924.314 412.132 926.032 412.294C926.544 412.337 927.069 412.648 927.606 412.966C928.138 413.282 928.682 413.604 929.234 413.677C929.375 413.695 929.53 413.716 929.695 413.739C930.606 413.863 931.817 414.029 932.642 413.832L932.723 413.812L932.791 413.794C933.16 413.699 933.534 413.602 933.846 413.836C935.488 415.019 936.201 413.359 936.383 407.711C936.398 407.319 936.446 406.891 936.495 406.461C936.598 405.546 936.703 404.618 936.494 403.996C936.492 403.99 936.49 403.984 936.487 403.976L936.476 403.94C936.466 403.907 936.454 403.867 936.439 403.834C935.825 401.138 934.819 401.182 933.795 401.226C933.45 401.241 933.103 401.256 932.769 401.166C930.098 400.47 927.42 399.829 924.739 399.212C931.809 396.764 939.006 394.728 946.412 393.801C963.871 391.569 981.229 389.433 998.705 390.741C1006.53 391.363 1014.31 392.478 1022.01 394.039C1029.71 395.698 1037.22 398.008 1044.53 400.978C1058.2 406.876 1070.73 415.387 1082.05 425.047C1091.87 433.281 1101.51 442.202 1108.71 453.202C1109.5 454.431 1110.18 455.878 1110.87 457.368L1111 457.64C1111.17 458.062 1111.34 458.489 1111.51 458.914C1111.98 460.121 1112.45 461.321 1113.05 462.41C1113.75 463.577 1114.51 465.197 1115.28 466.826C1116.08 468.534 1116.88 470.253 1117.64 471.471C1118.31 472.494 1118.83 473.618 1119.05 474.774C1119.96 480.053 1122.06 481.014 1126.56 477.827C1126.89 477.587 1127.28 477.433 1127.67 477.28C1128.48 476.963 1129.28 476.647 1129.49 475.584C1129.51 475.523 1129.53 475.394 1129.55 475.334C1130.42 472.792 1130.1 470.489 1129.43 468.331C1129.01 467.28 1128.5 466.263 1127.99 465.242C1127.48 464.218 1126.97 463.19 1126.54 462.12C1117.8 441.343 1103.15 423.667 1086.11 410.08C1075.57 401.746 1063.99 395.187 1052.14 389.411C1051.9 389.288 1051.66 389.165 1051.43 389.04C1051.28 388.963 1051.13 388.885 1050.98 388.808L1050.72 388.669C1047.97 387.219 1045.19 385.751 1042.16 385.035C1040.65 384.374 1039.11 383.822 1037.56 383.266L1036.86 383.012C1036.56 382.907 1036.26 382.802 1035.96 382.696C1034.45 382.164 1032.94 381.632 1031.4 381.247C1017.56 377.72 1002.79 375.507 989.347 375.753C989.124 375.765 988.846 375.725 988.533 375.679C988.176 375.627 987.773 375.569 987.354 375.575C987.045 375.582 986.671 375.587 986.241 375.593C984.069 375.623 980.455 375.673 976.471 375.984C974.078 376.122 971.541 376.29 969.08 376.56C968.254 376.644 967.434 376.718 966.631 376.79L966.613 376.792L966.611 376.792C965.035 376.934 963.524 377.069 962.157 377.266C946.834 378.943 931.811 382.354 917.528 387.521Z" fill="#4CB4BD"/>
<path d="M1006.52 704.407L1005.96 704.415C1005.76 704.418 1005.57 704.421 1005.4 704.424C1004.98 704.431 1004.58 704.372 1004.22 704.32C1003.91 704.275 1003.63 704.234 1003.41 704.247C989.97 704.493 975.2 702.28 961.356 698.753C959.815 698.367 958.309 697.836 956.8 697.305L956.797 697.303C956.497 697.198 956.198 697.092 955.897 696.988L955.19 696.733L955.184 696.731C953.639 696.176 952.105 695.625 950.592 694.965C947.565 694.249 944.783 692.781 942.035 691.331C941.776 691.194 941.517 691.057 941.258 690.921C941.045 690.81 940.833 690.699 940.62 690.589C928.766 684.813 917.185 678.253 906.647 669.92C889.61 656.333 874.959 638.657 866.212 617.88C865.79 616.81 865.276 615.782 864.763 614.758C864.252 613.737 863.743 612.72 863.33 611.669C862.653 609.511 862.339 607.208 863.203 604.666C863.224 604.605 863.246 604.477 863.267 604.416C863.472 603.353 864.278 603.037 865.085 602.72C865.477 602.566 865.869 602.412 866.193 602.173C870.698 598.985 872.797 599.946 873.703 605.226C873.925 606.382 874.45 607.505 875.12 608.529C875.873 609.747 876.68 611.466 877.481 613.174C878.246 614.803 879.006 616.423 879.711 617.59C880.305 618.679 880.776 619.879 881.248 621.086C881.415 621.511 881.582 621.938 881.755 622.36L881.882 622.631C882.579 624.121 883.256 625.569 884.049 626.798C891.247 637.798 900.888 646.719 910.702 654.952C922.029 664.613 934.56 673.123 948.225 679.022C955.541 681.992 963.043 684.302 970.749 685.961C978.445 687.522 986.23 688.636 994.052 689.259C1011.53 690.566 1028.89 688.431 1046.34 686.199C1053.75 685.271 1060.95 683.235 1068.02 680.788C1065.34 680.171 1062.66 679.53 1059.99 678.834C1059.65 678.744 1059.31 678.759 1058.96 678.774C1057.94 678.818 1056.93 678.861 1056.32 676.166C1056.3 676.133 1056.29 676.093 1056.28 676.06C1056.27 676.036 1056.27 676.016 1056.26 676.004C1056.05 675.382 1056.16 674.454 1056.26 673.539C1056.31 673.108 1056.36 672.681 1056.37 672.288C1056.56 666.64 1057.27 664.981 1058.91 666.164C1059.22 666.398 1059.6 666.301 1059.97 666.205C1060.02 666.192 1060.07 666.179 1060.11 666.167C1060.94 665.97 1062.15 666.136 1063.06 666.261C1063.23 666.283 1063.38 666.305 1063.52 666.322C1064.07 666.396 1064.62 666.718 1065.15 667.033C1065.69 667.351 1066.21 667.663 1066.72 667.706C1068.44 667.867 1070.18 667.902 1071.92 667.937C1074.55 667.99 1077.19 668.043 1079.77 668.538C1081 668.784 1082.23 669.079 1083.45 669.434L1084.48 669.735L1086.29 670.201L1089.81 671.119C1092.17 671.659 1094.32 672.528 1095.77 673.608C1097.25 674.676 1098.32 675.776 1099.29 677.343L1099.41 677.53C1100.39 679.263 1100.92 681.52 1100.73 683.355C1100.59 685.234 1100 686.991 1099.01 688.741C1098.04 690.499 1096.41 692.299 1094.65 693.952L1092.07 696.461L1090.58 697.858C1089.16 699.149 1087.81 700.515 1086.45 701.883L1086.45 701.885C1083.62 704.735 1080.79 707.588 1077.37 709.765C1074.77 711.424 1072.92 713.945 1071.07 716.459L1071.07 716.462C1070.45 717.307 1069.83 718.151 1069.18 718.962C1068.11 720.307 1065.33 718.871 1061.89 715.1C1058.79 711.713 1059.59 710.465 1060.13 709.612L1060.13 709.608L1060.14 709.602C1060.17 709.546 1060.21 709.491 1060.24 709.438C1063.58 703.906 1067.98 699.523 1072.48 695.27C1073.31 694.483 1074.3 693.458 1075.23 692.478C1060.95 697.646 1045.92 701.056 1030.6 702.733C1029.23 702.93 1027.72 703.066 1026.15 703.207L1026.14 703.208C1025.71 703.247 1025.27 703.287 1024.82 703.328C1024.44 703.363 1024.06 703.4 1023.68 703.439C1021.22 703.71 1018.68 703.878 1016.29 704.016C1012.3 704.326 1008.69 704.377 1006.52 704.407L1006.52 704.407Z" fill="#4CB4BD"/>
<rect x="1211.89" y="565.212" width="578.728" height="346.789" rx="56" fill="#A6F2FA"/>
<rect x="1189" y="544" width="570.728" height="338.789" rx="52" fill="white" stroke="#006A6F" stroke-width="8"/>
<circle cx="1621.49" cy="805.488" r="42.4881" fill="#A6F2FA" stroke="white" stroke-width="8"/>
<circle cx="1682.47" cy="805.488" r="42.4881" fill="#A6F2FA" stroke="white" stroke-width="8"/>
<path fill-rule="evenodd" clip-rule="evenodd" d="M1705.67 578.735C1706.81 578.102 1708.25 578.506 1708.88 579.636C1712.71 586.426 1714.72 594.123 1714.72 601.953C1714.72 609.784 1712.71 617.481 1708.88 624.271C1708.25 625.401 1706.81 625.805 1705.67 625.172C1704.53 624.54 1704.13 623.111 1704.76 621.98C1708.19 615.896 1710 608.989 1710 601.953C1710 594.918 1708.19 588.011 1704.76 581.926C1704.13 580.796 1704.53 579.367 1705.67 578.735ZM1696.58 583.392C1697.72 582.76 1699.16 583.164 1699.79 584.294C1702.82 589.668 1704.41 595.758 1704.41 601.953C1704.41 608.149 1702.82 614.239 1699.79 619.613C1699.16 620.743 1697.72 621.147 1696.58 620.514C1695.44 619.882 1695.04 618.453 1695.67 617.323C1698.3 612.654 1699.69 607.353 1699.69 601.953C1699.69 596.553 1698.3 591.253 1695.67 586.584C1695.04 585.454 1695.44 584.025 1696.58 583.392ZM1687.91 587.664C1689.05 587.037 1690.49 587.447 1691.12 588.58C1693.36 592.6 1694.54 597.154 1694.54 601.784C1694.54 606.414 1693.36 610.968 1691.12 614.988C1690.49 616.121 1689.05 616.531 1687.91 615.904C1686.77 615.277 1686.36 613.849 1686.99 612.716C1688.84 609.398 1689.82 605.628 1689.82 601.784C1689.82 597.94 1688.84 594.17 1686.99 590.852C1686.36 589.719 1686.77 588.292 1687.91 587.664ZM1679.1 592.356C1680.2 591.658 1681.66 591.976 1682.37 593.067C1684.08 595.727 1684.99 598.807 1684.99 601.953C1684.99 605.1 1684.08 608.179 1682.37 610.84C1681.66 611.931 1680.2 612.249 1679.1 611.55C1678.01 610.852 1677.69 609.401 1678.39 608.311C1679.62 606.399 1680.27 604.197 1680.27 601.953C1680.27 599.71 1679.62 597.508 1678.39 595.596C1677.69 594.505 1678.01 593.055 1679.1 592.356Z" fill="#006A6F"/>
<path d="M1223.57 652.933C1223.57 648.903 1226.86 645.637 1230.91 645.637H1293.36C1297.42 645.637 1300.7 648.903 1300.7 652.933V693.3C1300.7 697.33 1297.42 700.597 1293.36 700.597H1230.91C1226.86 700.597 1223.57 697.33 1223.57 693.3V652.933Z" fill="#A6F2FA"/>
<path d="M1232.5 728.564L1232.5 730.613L1229.61 730.489L1231.3 732.825L1229.48 733.918L1228.04 731.297L1226.61 733.918L1224.82 732.825L1226.48 730.489L1223.61 730.626L1223.61 728.576L1226.48 728.738L1224.82 726.365L1226.61 725.272L1228.04 727.893L1229.48 725.272L1231.3 726.365L1229.62 728.738L1232.5 728.564Z" fill="#006A6F"/>
<path d="M1247.47 728.551L1247.47 730.601L1244.57 730.477L1246.27 732.812L1244.44 733.905L1243.01 731.284L1241.57 733.905L1239.79 732.812L1241.45 730.477L1238.57 730.613L1238.57 728.564L1241.45 728.725L1239.79 726.353L1241.57 725.26L1243.01 727.881L1244.44 725.26L1246.27 726.353L1244.58 728.725L1247.47 728.551Z" fill="#006A6F"/>
<path d="M1262.43 728.539L1262.43 730.589L1259.53 730.464L1261.23 732.8L1259.41 733.893L1257.97 731.272L1256.53 733.893L1254.75 732.8L1256.41 730.464L1253.54 730.601L1253.54 728.551L1256.41 728.713L1254.75 726.34L1256.53 725.247L1257.97 727.868L1259.41 725.247L1261.23 726.34L1259.54 728.713L1262.43 728.539Z" fill="#006A6F"/>
<path d="M1277.39 728.527L1277.39 730.576L1274.5 730.452L1276.19 732.787L1274.37 733.88L1272.94 731.259L1271.5 733.88L1269.71 732.787L1271.37 730.452L1268.5 730.589L1268.5 728.539L1271.37 728.701L1269.71 726.328L1271.5 725.235L1272.94 727.856L1274.37 725.235L1276.19 726.328L1274.51 728.701L1277.39 728.527Z" fill="#006A6F"/>
<path d="M1302.73 728.502L1302.73 730.551L1299.83 730.427L1301.52 732.762L1299.7 733.855L1298.27 731.235L1296.83 733.855L1295.05 732.762L1296.71 730.427L1293.83 730.564L1293.83 728.514L1296.71 728.676L1295.05 726.303L1296.83 725.21L1298.27 727.831L1299.7 725.21L1301.52 726.303L1299.84 728.676L1302.73 728.502Z" fill="#006A6F"/>
<path d="M1317.69 728.502L1317.69 730.551L1314.79 730.427L1316.49 732.762L1314.67 733.855L1313.23 731.235L1311.79 733.855L1310.01 732.762L1311.67 730.427L1308.8 730.564L1308.8 728.514L1311.67 728.676L1310.01 726.303L1311.79 725.21L1313.23 727.831L1314.67 725.21L1316.49 726.303L1314.8 728.676L1317.69 728.502Z" fill="#006A6F"/>
<path d="M1332.65 728.489L1332.65 730.539L1329.74 730.402L1331.44 732.738L1329.62 733.831L1328.18 731.21L1326.74 733.831L1324.96 732.738L1326.62 730.402L1323.75 730.539L1323.75 728.489L1326.62 728.651L1324.96 726.278L1326.74 725.185L1328.18 727.806L1329.62 725.185L1331.44 726.278L1329.75 728.651L1332.65 728.489Z" fill="#006A6F"/>
<path d="M1347.62 728.477L1347.62 730.526L1344.71 730.402L1346.4 732.738L1344.58 733.831L1343.14 731.21L1341.71 733.831L1339.92 732.738L1341.58 730.402L1338.71 730.539L1338.71 728.489L1341.58 728.651L1339.92 726.278L1341.71 725.185L1343.14 727.806L1344.58 725.185L1346.4 726.266L1344.72 728.638L1347.62 728.477Z" fill="#006A6F"/>
<path d="M1372.95 728.452L1372.95 730.502L1370.05 730.377L1371.75 732.713L1369.93 733.806L1368.49 731.185L1367.05 733.806L1365.27 732.713L1366.93 730.377L1364.05 730.514L1364.05 728.465L1366.93 728.626L1365.27 726.254L1367.05 725.16L1368.49 727.781L1369.93 725.16L1371.75 726.254L1370.06 728.626L1372.95 728.452Z" fill="#006A6F"/>
<path d="M1387.9 728.452L1387.9 730.502L1385 730.377L1386.7 732.713L1384.88 733.806L1383.44 731.185L1382 733.806L1380.22 732.713L1381.88 730.377L1379.01 730.514L1379.01 728.465L1381.88 728.626L1380.22 726.254L1382 725.16L1383.44 727.781L1384.88 725.16L1386.7 726.241L1385.01 728.614L1387.9 728.452Z" fill="#006A6F"/>
<path d="M1402.86 728.44L1402.86 730.489L1399.96 730.365L1401.66 732.7L1399.84 733.793L1398.4 731.172L1396.97 733.793L1395.18 732.7L1396.84 730.365L1393.97 730.502L1393.97 728.452L1396.84 728.614L1395.18 726.241L1396.97 725.148L1398.4 727.769L1399.84 725.148L1401.66 726.241L1399.98 728.614L1402.86 728.44Z" fill="#006A6F"/>
<path d="M1417.83 728.427L1417.83 730.477L1414.93 730.353L1416.63 732.688L1414.8 733.781L1413.37 731.16L1411.93 733.781L1410.15 732.688L1411.81 730.353L1408.93 730.489L1408.93 728.44L1411.81 728.601L1410.15 726.229L1411.93 725.136L1413.37 727.756L1414.8 725.136L1416.63 726.229L1414.94 728.601L1417.83 728.427Z" fill="#006A6F"/>
<path d="M1433.57 747.929L1433.57 745.494L1441.45 737.42C1443.55 735.309 1444.61 733.495 1444.61 731.98C1444.61 730.725 1444.22 729.744 1443.46 729.036C1442.69 728.328 1441.76 727.98 1440.64 727.98C1438.54 727.98 1437 728.986 1436.05 730.986L1433.56 729.52C1434.25 728.067 1435.23 726.974 1436.47 726.229C1437.71 725.483 1439.1 725.111 1440.59 725.098C1442.46 725.098 1444.09 725.719 1445.47 726.949C1446.86 728.191 1447.56 729.843 1447.56 731.943C1447.56 734.203 1446.23 736.675 1443.58 739.346L1437.88 745.035L1447.98 745.022L1447.98 747.904L1433.57 747.929Z" fill="#006A6F"/>
<path d="M1461.37 734.688C1463.08 735.011 1464.46 735.744 1465.55 736.899C1466.64 738.054 1467.19 739.507 1467.19 741.284C1467.19 743.457 1466.45 745.171 1464.96 746.438C1463.47 747.705 1461.66 748.327 1459.53 748.327C1457.84 748.327 1456.33 747.941 1455 747.159C1453.69 746.376 1452.75 745.258 1452.19 743.78L1454.68 742.302C1455.33 744.376 1456.96 745.407 1459.53 745.407C1460.92 745.407 1462.05 745.047 1462.92 744.314C1463.78 743.594 1464.23 742.575 1464.22 741.271C1464.22 739.967 1463.78 738.948 1462.9 738.215C1462.04 737.483 1460.91 737.11 1459.52 737.11L1458.75 737.11L1457.58 735.284L1462.74 728.278L1452.82 728.291L1452.82 725.508L1466.22 725.496L1466.21 728.104L1461.37 734.688Z" fill="#006A6F"/>
<path d="M1489.23 740.849L1489.23 743.631L1486.51 743.631L1486.51 747.892L1483.55 747.892L1483.55 743.631L1472.17 743.644L1472.17 740.861L1480.17 725.496L1483.37 725.496L1475.36 740.861L1483.56 740.861L1483.56 734.526L1486.53 734.526L1486.53 740.861L1489.23 740.849Z" fill="#006A6F"/>
<path d="M1500.89 734.216C1503 734.216 1504.78 734.837 1506.25 736.079C1507.71 737.321 1508.44 739.048 1508.44 741.246C1508.44 743.42 1507.69 745.134 1506.21 746.401C1504.72 747.668 1502.91 748.289 1500.78 748.289C1499.09 748.289 1497.56 747.879 1496.22 747.06C1494.89 746.24 1493.95 745.047 1493.41 743.495L1495.93 742.054C1496.22 743.147 1496.81 743.967 1497.65 744.538C1498.5 745.109 1499.54 745.383 1500.77 745.383C1502.17 745.383 1503.31 745.022 1504.19 744.29C1505.06 743.569 1505.49 742.55 1505.49 741.246C1505.49 739.942 1505.06 738.923 1504.18 738.191C1503.3 737.458 1502.18 737.085 1500.82 737.085L1494.5 737.085L1495.3 725.471L1507.55 725.459L1507.55 728.241L1498.01 728.253L1497.62 734.203L1500.89 734.216Z" fill="#006A6F"/>
<rect x="253" y="191.352" width="378" height="786" rx="48" transform="rotate(-15 253 191.352)" fill="white"/>
<path d="M265.423 237.716C258.562 212.11 273.758 185.789 299.364 178.928L571.756 105.941C597.362 99.0801 623.682 114.276 630.543 139.882L661.238 254.436L639.344 268.174C542.251 329.1 428.8 358.764 314.311 353.16L296.118 352.269L265.423 237.716Z" fill="#CFCFCF"/>
<path fill-rule="evenodd" clip-rule="evenodd" d="M579.123 125.708L304.8 199.213C290.396 203.072 281.848 217.877 285.708 232.281L464.293 898.77C468.152 913.173 482.957 921.721 497.361 917.861L771.684 844.357C786.088 840.497 794.635 825.692 790.776 811.289L612.191 144.8C608.331 130.396 593.526 121.849 579.123 125.708ZM299.364 178.928C273.758 185.789 258.562 212.11 265.423 237.716L444.008 904.205C450.87 929.811 477.19 945.007 502.796 938.146L777.119 864.641C802.726 857.78 817.921 831.46 811.06 805.854L632.475 139.365C625.614 113.758 599.294 98.5624 573.687 105.424L299.364 178.928Z" fill="#666666"/>
<path d="M364.738 171.764L513.49 131.906L516.079 141.565C519.509 154.369 511.911 167.529 499.108 170.959L396.72 198.394C383.917 201.825 370.757 194.227 367.326 181.424L364.738 171.764Z" fill="#666666"/>
<rect x="353.541" y="342.48" width="262" height="465" rx="15" transform="rotate(-15 353.541 342.48)" fill="white" stroke="#CFCFCF" stroke-width="2"/>
<rect x="483.338" y="718.705" width="206" height="40" rx="20" transform="rotate(-15 483.338 718.705)" fill="#666666"/>
<rect x="398.426" y="386.357" width="200" height="8" rx="4" transform="rotate(-15 398.426 386.357)" fill="#666666"/>
<rect x="436.842" y="406.087" width="136" height="8" rx="4" transform="rotate(-15 436.842 406.087)" fill="#666666"/>
<rect x="427.293" y="501.819" width="202.409" height="119.686" rx="14" transform="rotate(-15 427.293 501.819)" fill="white" stroke="#666666" stroke-width="4"/>
<circle cx="599.725" cy="551.576" r="14.5804" transform="rotate(-15 599.725 551.576)" fill="#CFCFCF" stroke="white" stroke-width="4"/>
<circle cx="620.733" cy="545.947" r="14.5804" transform="rotate(-15 620.733 545.947)" fill="#CFCFCF" stroke="white" stroke-width="4"/>
<path fill-rule="evenodd" clip-rule="evenodd" d="M607.795 465.686C608.129 465.363 608.662 465.369 608.986 465.7C610.93 467.686 612.334 470.152 613.057 472.85C613.779 475.547 613.797 478.385 613.106 481.077C612.991 481.525 612.532 481.797 612.082 481.684C611.631 481.571 611.36 481.116 611.475 480.668C612.094 478.256 612.079 475.709 611.43 473.285C610.78 470.862 609.52 468.649 607.777 466.869C607.453 466.539 607.462 466.009 607.795 465.686ZM605.093 468.13C605.427 467.807 605.96 467.813 606.284 468.144C607.823 469.715 608.933 471.667 609.505 473.801C610.077 475.936 610.091 478.181 609.544 480.311C609.429 480.76 608.97 481.031 608.52 480.919C608.07 480.806 607.798 480.351 607.913 479.903C608.388 478.052 608.377 476.097 607.878 474.237C607.38 472.377 606.412 470.679 605.075 469.313C604.752 468.983 604.76 468.453 605.093 468.13ZM602.501 470.402C602.836 470.08 603.369 470.089 603.691 470.421C604.835 471.599 605.66 473.059 606.088 474.654C606.515 476.249 606.53 477.927 606.129 479.519C606.016 479.967 605.559 480.241 605.108 480.13C604.657 480.02 604.383 479.566 604.496 479.117C604.827 477.804 604.816 476.414 604.461 475.09C604.106 473.766 603.421 472.557 602.478 471.585C602.156 471.253 602.166 470.723 602.501 470.402ZM599.9 472.831C600.214 472.489 600.746 472.464 601.089 472.775C601.926 473.533 602.525 474.51 602.815 475.594C603.106 476.678 603.076 477.823 602.73 478.898C602.589 479.339 602.115 479.583 601.672 479.444C601.229 479.304 600.985 478.834 601.127 478.393C601.375 477.621 601.395 476.802 601.188 476.03C600.981 475.257 600.554 474.558 599.953 474.013C599.61 473.702 599.586 473.173 599.9 472.831Z" fill="#666666"/>
<path d="M448.554 535.752C448.182 534.364 449.014 532.935 450.412 532.56L471.924 526.796C473.322 526.421 474.756 527.243 475.128 528.631L478.855 542.538C479.227 543.927 478.395 545.356 476.997 545.73L455.485 551.494C454.087 551.869 452.653 551.047 452.281 549.659L448.554 535.752Z" fill="#CFCFCF"/>
<path d="M458.285 561.092C458.463 561.033 458.655 561.136 458.704 561.318L458.714 561.354C458.763 561.536 458.65 561.723 458.465 561.764L458.452 561.767C458.186 561.826 458.106 562.166 458.317 562.337V562.337C458.466 562.458 458.479 562.679 458.347 562.817L458.324 562.84C458.184 562.985 457.951 562.984 457.812 562.839L457.798 562.824C457.596 562.613 457.239 562.708 457.17 562.993L457.165 563.012C457.117 563.208 456.916 563.323 456.723 563.266L456.697 563.258C456.516 563.205 456.418 563.009 456.484 562.831V562.831C456.579 562.576 456.333 562.324 456.073 562.407V562.407C455.893 562.465 455.7 562.361 455.651 562.179L455.642 562.144C455.593 561.961 455.707 561.775 455.892 561.736V561.736C456.162 561.68 456.246 561.337 456.036 561.161V561.161C455.89 561.038 455.876 560.817 456.008 560.679L456.024 560.662C456.163 560.515 456.396 560.515 456.535 560.661L456.548 560.674C456.751 560.886 457.107 560.79 457.177 560.506L457.181 560.488C457.229 560.291 457.431 560.174 457.626 560.23L457.657 560.238C457.841 560.291 457.941 560.489 457.874 560.668V560.668C457.778 560.925 458.024 561.179 458.285 561.092V561.092Z" fill="#666666"/>
<path d="M463.438 559.707C463.617 559.647 463.809 559.75 463.858 559.933L463.868 559.968C463.917 560.151 463.803 560.337 463.619 560.378L463.605 560.381C463.34 560.44 463.26 560.78 463.471 560.952V560.952C463.62 561.072 463.633 561.294 463.501 561.431L463.478 561.454C463.338 561.599 463.105 561.599 462.966 561.453L462.952 561.439C462.749 561.227 462.393 561.323 462.324 561.607L462.319 561.627C462.271 561.822 462.07 561.938 461.877 561.881L461.851 561.873C461.67 561.819 461.572 561.623 461.638 561.446V561.446C461.733 561.19 461.487 560.939 461.227 561.022V561.022C461.047 561.079 460.854 560.976 460.805 560.793L460.796 560.759C460.747 560.576 460.861 560.39 461.046 560.351V560.351C461.316 560.295 461.4 559.952 461.189 559.775V559.775C461.043 559.652 461.03 559.432 461.161 559.293L461.178 559.276C461.317 559.13 461.55 559.129 461.689 559.275L461.702 559.288C461.905 559.5 462.261 559.405 462.331 559.12L462.335 559.103C462.383 558.906 462.585 558.788 462.78 558.844L462.811 558.853C462.995 558.905 463.095 559.103 463.028 559.282V559.282C462.932 559.54 463.178 559.794 463.438 559.707V559.707Z" fill="#666666"/>
<path d="M468.592 558.321C468.771 558.262 468.963 558.365 469.012 558.547L469.022 558.582C469.07 558.765 468.957 558.952 468.773 558.993L468.759 558.996C468.493 559.055 468.414 559.395 468.625 559.566V559.566C468.774 559.686 468.787 559.908 468.654 560.045L468.632 560.069C468.492 560.214 468.259 560.213 468.12 560.068L468.106 560.053C467.903 559.842 467.547 559.937 467.477 560.222L467.473 560.241C467.425 560.436 467.224 560.552 467.031 560.495L467.005 560.487C466.824 560.434 466.726 560.237 466.792 560.06V560.06C466.887 559.804 466.641 559.553 466.381 559.636V559.636C466.201 559.694 466.008 559.59 465.959 559.408L465.949 559.373C465.9 559.19 466.015 559.004 466.2 558.965V558.965C466.469 558.909 466.554 558.566 466.343 558.389V558.389C466.197 558.267 466.184 558.046 466.315 557.908L466.332 557.89C466.471 557.744 466.704 557.744 466.843 557.889L466.856 557.903C467.059 558.114 467.415 558.019 467.485 557.734L467.489 557.717C467.537 557.52 467.739 557.403 467.934 557.458L467.965 557.467C468.149 557.52 468.248 557.718 468.182 557.896V557.896C468.086 558.154 468.332 558.408 468.592 558.321V558.321Z" fill="#666666"/>
<path d="M473.746 556.936C473.925 556.876 474.117 556.979 474.166 557.161L474.176 557.197C474.224 557.379 474.111 557.566 473.927 557.607L473.913 557.61C473.647 557.669 473.567 558.009 473.779 558.181V558.181C473.928 558.301 473.941 558.523 473.808 558.66L473.786 558.683C473.646 558.828 473.413 558.828 473.274 558.682L473.26 558.668C473.057 558.456 472.701 558.552 472.631 558.836L472.627 558.855C472.579 559.051 472.378 559.166 472.185 559.109L472.159 559.102C471.978 559.048 471.88 558.852 471.946 558.674V558.674C472.041 558.419 471.795 558.168 471.535 558.251V558.251C471.355 558.308 471.162 558.204 471.113 558.022L471.103 557.987C471.054 557.805 471.169 557.618 471.354 557.58V557.58C471.623 557.524 471.708 557.181 471.497 557.004V557.004C471.351 556.881 471.338 556.66 471.469 556.522L471.486 556.505C471.625 556.358 471.858 556.358 471.997 556.504L472.01 556.517C472.213 556.729 472.569 556.633 472.639 556.349L472.643 556.332C472.691 556.135 472.893 556.017 473.088 556.073L473.119 556.082C473.303 556.134 473.402 556.332 473.336 556.511V556.511C473.24 556.769 473.485 557.023 473.746 556.936V556.936Z" fill="#666666"/>
<path d="M482.471 554.589C482.65 554.529 482.842 554.632 482.891 554.815L482.9 554.85C482.949 555.032 482.836 555.219 482.651 555.26L482.638 555.263C482.372 555.322 482.292 555.662 482.504 555.834V555.834C482.652 555.954 482.666 556.176 482.533 556.313L482.51 556.336C482.37 556.481 482.138 556.481 481.998 556.335L481.984 556.321C481.782 556.109 481.426 556.205 481.356 556.489L481.351 556.509C481.304 556.704 481.102 556.82 480.909 556.762L480.884 556.755C480.702 556.701 480.604 556.505 480.67 556.328V556.328C480.765 556.072 480.519 555.821 480.26 555.904V555.904C480.08 555.961 479.886 555.858 479.837 555.675L479.828 555.641C479.779 555.458 479.894 555.271 480.079 555.233V555.233C480.348 555.177 480.432 554.834 480.222 554.657V554.657C480.076 554.534 480.063 554.313 480.194 554.175L480.21 554.158C480.349 554.012 480.582 554.011 480.722 554.157L480.735 554.17C480.937 554.382 481.294 554.286 481.363 554.002L481.367 553.985C481.415 553.788 481.618 553.67 481.813 553.726L481.844 553.735C482.027 553.787 482.127 553.985 482.061 554.164V554.164C481.965 554.422 482.21 554.676 482.471 554.589V554.589Z" fill="#666666"/>
<path d="M487.626 553.207C487.805 553.148 487.997 553.251 488.046 553.433L488.055 553.469C488.104 553.651 487.991 553.838 487.806 553.879L487.793 553.882C487.527 553.941 487.447 554.281 487.659 554.453V554.453C487.807 554.573 487.821 554.794 487.688 554.932L487.665 554.955C487.525 555.1 487.293 555.1 487.153 554.954L487.139 554.939C486.937 554.728 486.581 554.823 486.511 555.108L486.506 555.127C486.459 555.323 486.257 555.438 486.064 555.381L486.039 555.374C485.857 555.32 485.759 555.124 485.825 554.946V554.946C485.92 554.691 485.674 554.44 485.415 554.523V554.523C485.235 554.58 485.041 554.476 484.992 554.294L484.983 554.259C484.934 554.077 485.049 553.89 485.234 553.852V553.852C485.503 553.795 485.587 553.452 485.377 553.276V553.276C485.231 553.153 485.218 552.932 485.349 552.794L485.365 552.777C485.504 552.63 485.737 552.63 485.877 552.776L485.89 552.789C486.092 553.001 486.449 552.905 486.518 552.621L486.522 552.603C486.571 552.406 486.773 552.289 486.968 552.345L486.999 552.354C487.182 552.406 487.282 552.604 487.216 552.783V552.783C487.12 553.04 487.365 553.294 487.626 553.207V553.207Z" fill="#666666"/>
<path d="M492.777 551.821C492.957 551.762 493.151 551.866 493.2 552.049L493.209 552.082C493.258 552.265 493.144 552.452 492.959 552.492L492.943 552.496C492.677 552.554 492.597 552.893 492.808 553.065V553.065C492.956 553.184 492.97 553.405 492.837 553.542L492.814 553.566C492.674 553.711 492.441 553.711 492.302 553.565L492.288 553.551C492.086 553.339 491.729 553.435 491.66 553.719L491.655 553.739C491.607 553.934 491.406 554.05 491.213 553.992L491.187 553.985C491.006 553.931 490.908 553.735 490.974 553.558V553.558C491.069 553.302 490.823 553.051 490.563 553.134V553.134C490.383 553.191 490.19 553.088 490.141 552.905L490.132 552.87C490.083 552.688 490.197 552.501 490.382 552.463V552.463C490.652 552.407 490.736 552.064 490.525 551.887V551.887C490.379 551.764 490.366 551.543 490.497 551.405L490.514 551.388C490.653 551.242 490.886 551.241 491.025 551.387L491.038 551.4C491.241 551.612 491.597 551.516 491.667 551.232L491.671 551.215C491.719 551.018 491.921 550.9 492.116 550.956L492.146 550.964C492.33 551.017 492.43 551.215 492.364 551.395V551.395C492.268 551.653 492.515 551.907 492.777 551.821V551.821Z" fill="#666666"/>
<path d="M497.93 550.436C498.11 550.377 498.305 550.48 498.354 550.664L498.363 550.696C498.412 550.879 498.298 551.067 498.113 551.108L498.096 551.112C497.831 551.171 497.751 551.511 497.962 551.682V551.682C498.111 551.803 498.124 552.024 497.992 552.162L497.969 552.185C497.829 552.33 497.596 552.33 497.457 552.184L497.443 552.169C497.241 551.958 496.884 552.053 496.815 552.338L496.81 552.357C496.762 552.553 496.561 552.668 496.368 552.611L496.342 552.604C496.161 552.55 496.063 552.354 496.129 552.176V552.176C496.224 551.921 495.978 551.669 495.718 551.752V551.752C495.538 551.81 495.345 551.706 495.296 551.524L495.287 551.489C495.238 551.306 495.352 551.12 495.537 551.082V551.082C495.807 551.025 495.891 550.682 495.68 550.506V550.506C495.535 550.383 495.521 550.162 495.652 550.024L495.669 550.007C495.808 549.86 496.041 549.86 496.18 550.006L496.193 550.019C496.396 550.231 496.752 550.135 496.822 549.851L496.827 549.83C496.874 549.635 497.075 549.518 497.269 549.572L497.298 549.58C497.483 549.632 497.584 549.831 497.517 550.011V550.011C497.421 550.268 497.669 550.522 497.93 550.436V550.436Z" fill="#666666"/>
<path d="M506.658 548.089C506.837 548.03 507.029 548.133 507.078 548.315L507.088 548.351C507.137 548.533 507.023 548.72 506.839 548.761L506.825 548.764C506.559 548.823 506.48 549.163 506.691 549.334V549.334C506.84 549.455 506.853 549.676 506.721 549.814L506.698 549.837C506.558 549.982 506.325 549.981 506.186 549.836L506.172 549.821C505.969 549.61 505.613 549.705 505.543 549.99L505.539 550.009C505.491 550.205 505.29 550.32 505.097 550.263L505.071 550.255C504.89 550.202 504.792 550.006 504.858 549.828V549.828C504.953 549.573 504.707 549.321 504.447 549.404V549.404C504.267 549.462 504.074 549.358 504.025 549.176L504.015 549.141C503.966 548.958 504.081 548.772 504.266 548.733V548.733C504.535 548.677 504.62 548.334 504.409 548.158V548.158C504.263 548.035 504.25 547.814 504.381 547.676L504.398 547.659C504.537 547.512 504.77 547.512 504.909 547.658L504.922 547.671C505.125 547.883 505.481 547.787 505.551 547.503L505.555 547.485C505.603 547.288 505.805 547.171 506 547.227L506.031 547.235C506.215 547.288 506.314 547.486 506.248 547.665V547.665C506.152 547.922 506.398 548.176 506.658 548.089V548.089Z" fill="#666666"/>
<path d="M511.808 546.708C511.987 546.649 512.18 546.753 512.229 546.935L512.238 546.97C512.287 547.153 512.174 547.34 511.99 547.381L511.976 547.384C511.71 547.443 511.63 547.783 511.842 547.954V547.954C511.991 548.074 512.004 548.296 511.871 548.433L511.849 548.457C511.709 548.602 511.476 548.601 511.336 548.456L511.323 548.441C511.12 548.23 510.764 548.325 510.694 548.61L510.69 548.629C510.642 548.824 510.44 548.94 510.248 548.883L510.222 548.875C510.04 548.822 509.942 548.625 510.008 548.448V548.448C510.104 548.192 509.858 547.941 509.598 548.024V548.024C509.418 548.082 509.224 547.978 509.176 547.796L509.166 547.761C509.117 547.578 509.232 547.392 509.417 547.353V547.353C509.686 547.297 509.771 546.954 509.56 546.777V546.777C509.414 546.655 509.401 546.434 509.532 546.296L509.549 546.278C509.688 546.132 509.921 546.132 510.06 546.277L510.073 546.291C510.275 546.502 510.632 546.407 510.701 546.122L510.706 546.102C510.754 545.906 510.955 545.789 511.149 545.844L511.178 545.852C511.363 545.904 511.464 546.102 511.397 546.282V546.282C511.301 546.54 511.547 546.794 511.808 546.708V546.708Z" fill="#666666"/>
<path d="M516.963 545.324C517.142 545.264 517.334 545.367 517.383 545.549L517.392 545.585C517.441 545.767 517.328 545.954 517.144 545.995L517.13 545.998C516.864 546.057 516.784 546.397 516.996 546.569V546.569C517.144 546.689 517.158 546.911 517.025 547.048L517.003 547.071C516.862 547.216 516.63 547.216 516.49 547.07L516.477 547.056C516.274 546.844 515.918 546.94 515.848 547.224L515.843 547.243C515.796 547.439 515.594 547.554 515.402 547.497L515.376 547.49C515.194 547.436 515.096 547.24 515.162 547.062V547.062C515.257 546.807 515.011 546.556 514.752 546.639V546.639C514.572 546.696 514.378 546.592 514.329 546.41L514.32 546.375C514.271 546.193 514.386 546.006 514.571 545.968V545.968C514.84 545.912 514.925 545.569 514.714 545.392V545.392C514.568 545.269 514.555 545.048 514.686 544.91L514.702 544.893C514.841 544.746 515.074 544.746 515.214 544.892L515.227 544.905C515.429 545.117 515.786 545.021 515.855 544.737L515.86 544.72C515.908 544.523 516.11 544.405 516.305 544.461L516.336 544.47C516.519 544.522 516.619 544.72 516.553 544.899V544.899C516.457 545.157 516.702 545.411 516.963 545.324V545.324Z" fill="#666666"/>
<path d="M522.117 543.938C522.296 543.878 522.488 543.982 522.537 544.164L522.546 544.199C522.595 544.382 522.482 544.568 522.298 544.609L522.284 544.612C522.018 544.672 521.938 545.012 522.15 545.183V545.183C522.298 545.303 522.312 545.525 522.179 545.662L522.157 545.686C522.016 545.831 521.784 545.83 521.644 545.684L521.631 545.67C521.428 545.458 521.072 545.554 521.002 545.838L520.997 545.858C520.95 546.053 520.748 546.169 520.556 546.112L520.53 546.104C520.348 546.05 520.25 545.854 520.316 545.677V545.677C520.411 545.421 520.165 545.17 519.906 545.253V545.253C519.726 545.311 519.532 545.207 519.483 545.025L519.474 544.99C519.425 544.807 519.54 544.621 519.725 544.582V544.582C519.994 544.526 520.079 544.183 519.868 544.006V544.006C519.722 543.884 519.709 543.663 519.84 543.525L519.856 543.507C519.995 543.361 520.228 543.36 520.368 543.506L520.381 543.52C520.583 543.731 520.94 543.636 521.009 543.351L521.013 543.334C521.062 543.137 521.264 543.019 521.459 543.075L521.49 543.084C521.673 543.137 521.773 543.334 521.707 543.513V543.513C521.611 543.771 521.856 544.025 522.117 543.938V543.938Z" fill="#666666"/>
<path d="M530.267 548.932C529.938 549.021 529.599 548.826 529.511 548.497V548.497C529.47 548.341 529.49 548.176 529.569 548.036L531.415 544.746C531.946 543.824 532.141 543.102 532.001 542.58C531.885 542.148 531.662 541.845 531.332 541.672C531.002 541.499 530.65 541.465 530.266 541.568C529.724 541.713 529.343 542.022 529.125 542.494C528.999 542.767 528.711 542.958 528.421 542.878V542.878C528.164 542.807 527.999 542.549 528.087 542.298C528.215 541.932 528.409 541.616 528.666 541.35C529.024 540.979 529.468 540.722 529.983 540.58C530.627 540.407 531.244 540.471 531.835 540.767C532.428 541.066 532.819 541.572 533.013 542.295C533.222 543.074 532.993 544.048 532.327 545.212L532.164 545.493C531.694 546.305 532.442 547.28 533.348 547.036L533.869 546.896C534.143 546.822 534.425 546.985 534.499 547.259V547.259C534.572 547.533 534.41 547.815 534.136 547.888L530.267 548.932Z" fill="#666666"/>
<path d="M538.65 540.365C538.36 541.107 538.994 541.923 539.671 542.341V542.341C540.153 542.638 540.475 543.089 540.639 543.7C540.84 544.449 540.742 545.108 540.347 545.682C539.952 546.256 539.386 546.637 538.652 546.833C538.068 546.99 537.511 546.997 536.982 546.85C536.59 546.739 536.251 546.543 535.968 546.26C535.799 546.091 535.823 545.821 535.99 545.65V545.65C536.211 545.423 536.584 545.474 536.842 545.659C537.236 545.942 537.75 545.997 538.383 545.828C538.861 545.7 539.216 545.472 539.447 545.139C539.679 544.811 539.739 544.419 539.614 543.971C539.494 543.521 539.25 543.21 538.88 543.039C538.513 542.867 538.09 542.842 537.612 542.97V542.97C537.448 543.015 537.271 542.972 537.145 542.857L537.095 542.812C536.902 542.637 536.837 542.36 536.932 542.118L537.066 541.775C537.414 540.887 536.604 539.981 535.683 540.229L534.969 540.422C534.705 540.493 534.432 540.336 534.361 540.071V540.071C534.29 539.806 534.447 539.535 534.711 539.463L538.17 538.533C538.545 538.433 538.929 538.656 539.028 539.03V539.03C539.065 539.173 539.057 539.325 539.003 539.462L538.65 540.365Z" fill="#666666"/>
<path d="M547.726 541.643C547.983 541.573 548.247 541.725 548.316 541.982L548.323 542.008C548.392 542.266 548.239 542.531 547.98 542.6V542.6C547.722 542.669 547.569 542.935 547.638 543.193L547.77 543.683C547.845 543.965 547.678 544.254 547.397 544.33V544.33C547.115 544.405 546.825 544.238 546.75 543.957L546.69 543.733C546.581 543.328 546.164 543.087 545.759 543.196L543.343 543.847C542.918 543.961 542.48 543.709 542.366 543.284V543.284C542.333 543.16 542.33 543.03 542.358 542.905L543.588 537.363C543.629 537.179 543.768 537.033 543.95 536.984V536.984C544.317 536.886 544.657 537.211 544.575 537.581L543.811 541.023C543.632 541.832 544.374 542.544 545.175 542.329V542.329C545.764 542.171 546.114 541.566 545.956 540.977L545.794 540.371C545.718 540.089 545.885 539.8 546.167 539.724V539.724C546.449 539.649 546.738 539.816 546.814 540.098L547.137 541.305C547.206 541.561 547.47 541.713 547.726 541.643V541.643Z" fill="#666666"/>
<path d="M551.599 538.154C552.324 537.96 552.996 538.009 553.614 538.302C554.232 538.595 554.643 539.122 554.846 539.88C555.047 540.629 554.949 541.288 554.554 541.862C554.159 542.435 553.593 542.816 552.859 543.013C552.275 543.17 551.712 543.169 551.175 543.01C550.765 542.889 550.415 542.671 550.126 542.358C549.968 542.186 549.997 541.922 550.163 541.758V541.758C550.39 541.533 550.767 541.593 551.02 541.788C551.144 541.884 551.282 541.957 551.433 542.01C551.781 542.128 552.164 542.126 552.587 542.013C553.069 541.883 553.428 541.654 553.664 541.321C553.896 540.992 553.951 540.601 553.831 540.152C553.71 539.703 553.467 539.392 553.096 539.221C552.726 539.049 552.307 539.024 551.838 539.15L551.804 539.159C550.645 539.469 549.465 538.733 549.234 537.556V537.556C549.025 536.487 549.678 535.439 550.73 535.156L552.602 534.652C552.867 534.581 553.139 534.738 553.21 535.003V535.003C553.281 535.268 553.124 535.539 552.86 535.611L551.016 536.107C550.475 536.253 550.139 536.794 550.249 537.343V537.343C550.369 537.944 550.971 538.32 551.564 538.163L551.599 538.154Z" fill="#666666"/>
</svg>
