<svg width="1920" height="1080" viewBox="0 0 1920 1080" fill="none" xmlns="http://www.w3.org/2000/svg">
<path fill-rule="evenodd" clip-rule="evenodd" d="M1476.56 522.69C1467.16 322.848 1252.62 230.626 1060.51 171.149C878.566 114.822 663.147 84.5053 547.437 235.042C425.421 393.783 478.492 613.186 596.359 774.997C714.876 937.701 904.987 1048.07 1099.13 992.422C1313.25 931.045 1486.96 744.015 1476.56 522.69Z" fill="#B2D4D0"/>
<path d="M1001.86 833.491C992.369 830.946 986.738 821.185 989.281 811.688L1095.16 416.19C1097.71 406.693 1107.46 401.057 1116.95 403.602L1340.3 463.5C1349.79 466.044 1355.42 475.806 1352.88 485.303L1247 880.801C1244.45 890.298 1234.7 895.934 1225.21 893.389L1001.86 833.491Z" fill="#2F3860"/>
<path d="M995.188 833.491C985.699 830.946 980.068 821.185 982.61 811.688L1088.49 416.19C1091.04 406.693 1100.79 401.057 1110.28 403.602L1333.63 463.5C1343.12 466.044 1348.75 475.806 1346.21 485.303L1240.33 880.801C1237.78 890.298 1228.03 895.934 1218.54 893.389L995.188 833.491Z" fill="#0B6B5F"/>
<path fill-rule="evenodd" clip-rule="evenodd" d="M1215.37 853.444C1215.62 854.416 1215.03 855.405 1214.06 855.653C1208.25 857.141 1202.13 857.1 1196.3 855.537C1190.48 853.975 1185.15 850.945 1180.86 846.748C1180.15 846.049 1180.13 844.899 1180.83 844.18C1181.53 843.46 1182.67 843.444 1183.38 844.142C1187.23 847.904 1192.01 850.625 1197.24 852.028C1202.47 853.432 1207.97 853.467 1213.18 852.133C1214.15 851.885 1215.13 852.472 1215.37 853.444ZM1213.72 845.76C1213.96 846.732 1213.38 847.72 1212.41 847.968C1207.81 849.146 1202.96 849.113 1198.35 847.877C1193.74 846.641 1189.53 844.244 1186.13 840.922C1185.42 840.223 1185.41 839.073 1186.1 838.354C1186.8 837.634 1187.94 837.617 1188.66 838.316C1191.61 841.202 1195.27 843.29 1199.29 844.368C1203.31 845.445 1207.53 845.472 1211.52 844.448C1212.49 844.201 1213.47 844.788 1213.72 845.76ZM1212.26 838.466C1212.5 839.439 1211.91 840.425 1210.95 840.668C1207.51 841.532 1203.89 841.498 1200.44 840.574C1197 839.65 1193.84 837.867 1191.3 835.4C1190.58 834.704 1190.56 833.555 1191.26 832.832C1191.95 832.109 1193.09 832.087 1193.81 832.783C1195.91 834.819 1198.52 836.298 1201.38 837.065C1204.24 837.831 1207.24 837.857 1210.08 837.145C1211.05 836.902 1212.03 837.493 1212.26 838.466ZM1210.53 830.985C1210.83 831.941 1210.3 832.962 1209.35 833.267C1207.03 834.011 1204.56 834.076 1202.21 833.448C1199.87 832.82 1197.76 831.527 1196.13 829.722C1195.46 828.981 1195.51 827.833 1196.25 827.156C1196.99 826.479 1198.13 826.531 1198.8 827.271C1199.98 828.568 1201.49 829.491 1203.15 829.938C1204.82 830.386 1206.59 830.342 1208.26 829.808C1209.21 829.503 1210.23 830.03 1210.53 830.985Z" fill="white"/>
<path fill-rule="evenodd" clip-rule="evenodd" d="M1021.56 775.27C1016.7 793.425 1027.17 812.008 1044.95 816.775C1062.73 821.542 1081.08 810.688 1085.94 792.533C1088.11 784.396 1087.21 776.173 1083.96 769.147C1090.29 764.692 1095.18 758.022 1097.35 749.885C1102.21 731.73 1091.74 713.147 1073.97 708.38C1056.19 703.613 1037.84 714.467 1032.98 732.622C1030.8 740.759 1031.7 748.982 1034.96 756.008C1028.63 760.463 1023.74 767.133 1021.56 775.27Z" fill="#ED0006"/>
<path fill-rule="evenodd" clip-rule="evenodd" d="M1034.96 756.008C1038.97 764.659 1046.56 771.497 1056.37 774.127C1066.18 776.758 1076.16 774.632 1083.96 769.147C1087.21 776.173 1088.11 784.396 1085.94 792.533C1081.08 810.688 1062.73 821.542 1044.95 816.775C1027.17 812.008 1016.7 793.425 1021.56 775.27C1023.74 767.133 1028.63 760.463 1034.96 756.008Z" fill="#F9A000"/>
<path fill-rule="evenodd" clip-rule="evenodd" d="M1034.96 756.008C1038.97 764.659 1046.56 771.497 1056.37 774.127C1066.18 776.758 1076.16 774.632 1083.96 769.147C1079.95 760.496 1072.36 753.659 1062.55 751.029C1052.74 748.398 1042.76 750.523 1034.96 756.008Z" fill="#FF5E00"/>
<path d="M1126.05 136.987C1127.78 130.525 1134.41 126.686 1140.85 128.414L1444.11 209.74C1450.55 211.468 1454.37 218.107 1452.64 224.569L1321.06 716.017C1319.33 722.479 1312.71 726.317 1306.27 724.59L1003.01 643.263C996.569 641.536 992.75 634.897 994.48 628.434L1126.05 136.987Z" fill="#3DB4A4"/>
<path fill-rule="evenodd" clip-rule="evenodd" d="M1461.17 239.398C1464.63 226.474 1456.99 213.195 1444.11 209.74C1450.55 211.468 1454.37 218.107 1452.64 224.569L1321.06 716.017C1319.33 722.479 1312.71 726.317 1306.27 724.59C1319.15 728.045 1332.4 720.368 1335.86 707.443L1461.17 239.398Z" fill="#2F3860"/>
<path d="M1139.11 228.279C1140.84 221.816 1147.47 217.978 1153.91 219.706L1387.19 282.264C1393.63 283.992 1397.45 290.631 1395.72 297.093L1376.92 367.3C1375.19 373.762 1368.57 377.601 1362.12 375.873L1128.85 313.315C1122.41 311.587 1118.59 304.948 1120.32 298.485L1139.11 228.279Z" fill="#0B3C6F"/>
<path d="M1151.64 181.474C1153.37 175.012 1160 171.174 1166.44 172.901L1236.42 191.669C1242.87 193.396 1246.68 200.035 1244.95 206.498C1243.22 212.96 1236.6 216.798 1230.16 215.071L1160.18 196.303C1153.73 194.576 1149.91 187.937 1151.64 181.474Z" fill="#9BD0C9"/>
<path d="M1256.62 209.626C1258.35 203.163 1264.97 199.325 1271.41 201.052L1283.08 204.18C1289.52 205.908 1293.34 212.547 1291.61 219.009C1289.88 225.472 1283.25 229.31 1276.81 227.583L1265.15 224.455C1258.71 222.727 1254.89 216.088 1256.62 209.626Z" fill="#9BD0C9"/>
<path d="M1373.26 240.905C1374.99 234.443 1381.61 230.604 1388.05 232.332C1394.49 234.059 1398.31 240.699 1396.58 247.161C1394.85 253.623 1388.23 257.462 1381.79 255.734C1375.35 254.007 1371.53 247.367 1373.26 240.905Z" fill="#156DCB"/>
<path d="M1338.26 231.521C1339.99 225.059 1346.62 221.221 1353.06 222.948C1359.5 224.676 1363.32 231.315 1361.59 237.777C1359.86 244.239 1353.24 248.078 1346.8 246.35C1340.35 244.623 1336.53 237.984 1338.26 231.521Z" fill="#9BD0C9"/>
<path d="M1107.79 345.29C1109.52 338.828 1116.14 334.989 1122.58 336.717L1145.91 342.973C1152.35 344.7 1156.17 351.339 1154.44 357.802L1148.18 381.204C1146.45 387.666 1139.82 391.505 1133.38 389.777L1110.05 383.521C1103.61 381.794 1099.79 375.155 1101.52 368.692L1107.79 345.29Z" fill="white"/>
<path d="M1088.99 415.497C1090.72 409.034 1097.35 405.196 1103.79 406.924L1127.12 413.179C1133.56 414.907 1137.38 421.546 1135.65 428.009L1129.38 451.411C1127.65 457.873 1121.03 461.711 1114.58 459.984L1091.26 453.728C1084.82 452.001 1081 445.361 1082.73 438.899L1088.99 415.497Z" fill="white"/>
<path d="M1070.2 485.703C1071.93 479.241 1078.55 475.403 1084.99 477.13L1108.32 483.386C1114.76 485.114 1118.58 491.753 1116.85 498.215L1110.59 521.617C1108.86 528.08 1102.23 531.918 1095.79 530.191L1072.46 523.935C1066.02 522.207 1062.2 515.568 1063.93 509.106L1070.2 485.703Z" fill="white"/>
<path d="M1051.4 555.91C1053.13 549.448 1059.75 545.61 1066.2 547.337L1159.51 572.361C1165.95 574.088 1169.77 580.727 1168.04 587.19L1161.77 610.592C1160.04 617.054 1153.42 620.893 1146.98 619.165L1053.67 594.142C1047.22 592.414 1043.4 585.775 1045.13 579.312L1051.4 555.91Z" fill="white"/>
<path d="M1177.77 364.058C1179.5 357.595 1186.12 353.757 1192.57 355.484L1215.89 361.74C1222.34 363.468 1226.15 370.107 1224.42 376.569L1218.16 399.972C1216.43 406.434 1209.8 410.272 1203.36 408.545L1180.04 402.289C1173.59 400.561 1169.77 393.922 1171.5 387.46L1177.77 364.058Z" fill="white"/>
<path d="M1158.97 434.264C1160.7 427.802 1167.33 423.964 1173.77 425.691L1197.1 431.947C1203.54 433.675 1207.36 440.314 1205.63 446.776L1199.36 470.178C1197.63 476.641 1191.01 480.479 1184.57 478.752L1161.24 472.496C1154.8 470.768 1150.98 464.129 1152.71 457.667L1158.97 434.264Z" fill="white"/>
<path d="M1140.18 504.471C1141.91 498.009 1148.53 494.17 1154.97 495.898L1178.3 502.154C1184.74 503.881 1188.56 510.52 1186.83 516.983L1180.57 540.385C1178.84 546.847 1172.21 550.686 1165.77 548.958L1142.44 542.702C1136 540.975 1132.18 534.336 1133.91 527.873L1140.18 504.471Z" fill="white"/>
<path d="M1247.75 382.825C1249.48 376.363 1256.11 372.525 1262.55 374.252L1285.88 380.508C1292.32 382.235 1296.14 388.875 1294.41 395.337L1288.14 418.739C1286.41 425.202 1279.79 429.04 1273.35 427.312L1250.02 421.057C1243.58 419.329 1239.76 412.69 1241.49 406.227L1247.75 382.825Z" fill="white"/>
<path d="M1228.96 453.032C1230.69 446.57 1237.31 442.731 1243.75 444.459L1267.08 450.715C1273.52 452.442 1277.34 459.081 1275.61 465.544L1269.35 488.946C1267.62 495.408 1260.99 499.247 1254.55 497.519L1231.22 491.263C1224.78 489.536 1220.96 482.897 1222.69 476.434L1228.96 453.032Z" fill="white"/>
<path d="M1210.16 523.239C1211.89 516.776 1218.52 512.938 1224.96 514.666L1248.28 520.921C1254.73 522.649 1258.55 529.288 1256.82 535.75L1250.55 559.153C1248.82 565.615 1242.2 569.453 1235.75 567.726L1212.43 561.47C1205.98 559.743 1202.17 553.103 1203.9 546.641L1210.16 523.239Z" fill="white"/>
<path d="M1191.36 593.445C1193.09 586.983 1199.72 583.145 1206.16 584.872L1229.49 591.128C1235.93 592.856 1239.75 599.495 1238.02 605.957L1231.75 629.359C1230.02 635.822 1223.4 639.66 1216.96 637.933L1193.63 631.677C1187.19 629.949 1183.37 623.31 1185.1 616.848L1191.36 593.445Z" fill="white"/>
<path d="M1317.73 401.593C1319.46 395.13 1326.09 391.292 1332.53 393.02L1355.86 399.276C1362.3 401.003 1366.12 407.642 1364.39 414.105L1358.12 437.507C1356.39 443.969 1349.77 447.808 1343.33 446.08L1320 439.824C1313.56 438.097 1309.74 431.457 1311.47 424.995L1317.73 401.593Z" fill="#86CCC3"/>
<path d="M1298.94 471.8C1300.67 465.337 1307.29 461.499 1313.74 463.226L1337.06 469.482C1343.5 471.21 1347.32 477.849 1345.59 484.311L1339.33 507.714C1337.6 514.176 1330.97 518.014 1324.53 516.287L1301.2 510.031C1294.76 508.303 1290.94 501.664 1292.67 495.202L1298.94 471.8Z" fill="#86CCC3"/>
<path d="M1280.14 542.006C1281.87 535.544 1288.5 531.706 1294.94 533.433L1318.27 539.689C1324.71 541.417 1328.53 548.056 1326.8 554.518L1320.53 577.92C1318.8 584.383 1312.18 588.221 1305.74 586.493L1282.41 580.238C1275.97 578.51 1272.15 571.871 1273.88 565.409L1280.14 542.006Z" fill="#86CCC3"/>
<path d="M1261.35 612.213C1263.08 605.751 1269.7 601.912 1276.14 603.64L1299.47 609.896C1305.91 611.623 1309.73 618.262 1308 624.725L1301.74 648.127C1300.01 654.589 1293.38 658.428 1286.94 656.7L1263.61 650.444C1257.17 648.717 1253.35 642.078 1255.08 635.615L1261.35 612.213Z" fill="#156DCB"/>
<path d="M1312.4 936.761C1314.17 937.453 1315.03 939.442 1314.33 941.204C1313.63 942.967 1311.62 943.835 1309.85 943.144L1284.19 933.131C1282.42 932.439 1281.55 930.45 1282.25 928.688C1282.96 926.925 1284.96 926.057 1286.73 926.748L1312.4 936.761Z" fill="#156DCB"/>
<path d="M1254.49 982.728C1254.63 984.615 1253.21 986.267 1251.31 986.419C1249.41 986.57 1247.75 985.163 1247.61 983.276L1245.5 955.939C1245.36 954.052 1246.78 952.4 1248.68 952.248C1250.58 952.097 1252.24 953.504 1252.38 955.391L1254.49 982.728Z" fill="#156DCB"/>
<path d="M1290.36 967.868C1291.49 969.388 1291.16 971.535 1289.63 972.663C1288.09 973.792 1285.93 973.474 1284.8 971.954L1268.43 949.933C1267.3 948.413 1267.63 946.266 1269.16 945.137C1270.7 944.009 1272.86 944.327 1273.99 945.847L1290.36 967.868Z" fill="#156DCB"/>
<path fill-rule="evenodd" clip-rule="evenodd" d="M782.051 80.073C780.773 75.3147 775.872 72.4909 771.103 73.7659L600.567 119.36C595.798 120.635 592.968 125.526 594.246 130.284L679.106 446.286C679.646 448.296 682.408 448.538 683.29 446.652L684.891 443.228C685.348 442.253 686.571 441.926 687.455 442.543L696.127 448.597C697.265 449.391 698.846 448.968 699.433 447.713L703.909 438.144C704.365 437.169 705.589 436.841 706.473 437.458L715.145 443.512C716.283 444.306 717.864 443.884 718.451 442.628L722.927 433.059C723.383 432.084 724.607 431.757 725.491 432.374L734.163 438.427C735.3 439.222 736.881 438.799 737.469 437.544L741.945 427.975C742.401 426.999 743.625 426.672 744.509 427.289L754.081 433.972C755.241 434.782 756.854 434.325 757.414 433.027L761.832 422.802C762.276 421.775 763.56 421.432 764.459 422.1L773.165 428.57C774.322 429.43 775.981 428.987 776.552 427.665L780.85 417.718C781.294 416.691 782.578 416.347 783.477 417.016L792.426 423.667C793.562 424.511 795.188 424.102 795.786 422.821L800.728 412.259C801.184 411.284 802.408 410.956 803.291 411.573L811.963 417.627C813.101 418.421 814.682 417.999 815.269 416.743L819.745 407.174C820.202 406.199 821.425 405.872 822.309 406.489L830.981 412.542C832.119 413.337 833.7 412.914 834.287 411.659L838.763 402.09C839.219 401.114 840.443 400.787 841.327 401.404L849.999 407.458C851.137 408.252 852.717 407.83 853.305 406.574L857.781 397.005C858.237 396.03 859.461 395.703 860.345 396.32L863.479 398.508C865.188 399.701 867.459 398.114 866.919 396.103L782.051 80.073Z" fill="#71C6BB"/>
<path fill-rule="evenodd" clip-rule="evenodd" d="M773.112 75.6132C771.834 70.8549 766.932 68.0312 762.163 69.3061L591.628 114.9C586.859 116.175 584.029 121.066 585.307 125.824L670.167 441.826C670.707 443.836 673.468 444.078 674.351 442.192L675.952 438.768C676.408 437.793 677.632 437.466 678.516 438.083L687.187 444.137C688.325 444.931 689.906 444.509 690.494 443.253L694.97 433.684C695.426 432.709 696.65 432.382 697.534 432.999L706.205 439.052C707.343 439.847 708.924 439.424 709.512 438.168L713.988 428.599C714.444 427.624 715.668 427.297 716.552 427.914L725.223 433.968C726.361 434.762 727.942 434.339 728.529 433.084L733.006 423.515C733.462 422.54 734.686 422.212 735.569 422.829L745.142 429.512C746.302 430.322 747.915 429.865 748.475 428.568L752.893 418.343C753.336 417.316 754.621 416.972 755.52 417.64L764.226 424.111C765.383 424.971 767.042 424.527 767.613 423.205L771.911 413.258C772.354 412.231 773.638 411.888 774.537 412.556L783.487 419.207C784.622 420.051 786.248 419.642 786.847 418.362L791.788 407.799C792.244 406.824 793.468 406.497 794.352 407.114L803.024 413.167C804.161 413.962 805.742 413.539 806.33 412.283L810.806 402.714C811.262 401.739 812.486 401.412 813.37 402.029L822.041 408.083C823.179 408.877 824.76 408.455 825.348 407.199L829.824 397.63C830.28 396.655 831.504 396.327 832.388 396.944L841.059 402.998C842.197 403.793 843.778 403.37 844.366 402.114L848.842 392.545C849.298 391.57 850.522 391.243 851.406 391.86L854.54 394.048C856.249 395.241 858.52 393.654 857.98 391.644L773.112 75.6132Z" fill="#F3F6FF"/>
<path d="M669.727 165.562C669.088 163.183 670.503 160.738 672.888 160.1L716.061 148.558C718.445 147.92 720.896 149.332 721.535 151.711C722.174 154.09 720.759 156.536 718.375 157.173L675.201 168.716C672.817 169.354 670.366 167.942 669.727 165.562Z" fill="#71C6BB"/>
<path d="M648.45 189.719C647.811 187.34 649.226 184.895 651.611 184.257L746.593 158.863C748.977 158.226 751.428 159.638 752.067 162.017C752.706 164.396 751.291 166.841 748.906 167.479L653.924 192.873C651.54 193.51 649.089 192.099 648.45 189.719Z" fill="#71C6BB"/>
<path d="M633.536 237.569C632.897 235.19 634.312 232.745 636.696 232.107L664.759 224.604C667.144 223.967 669.595 225.379 670.233 227.758C670.872 230.137 669.457 232.582 667.073 233.22L639.01 240.723C636.626 241.36 634.175 239.948 633.536 237.569Z" fill="#71C6BB"/>
<path d="M755.042 242.021C754.403 239.641 755.818 237.196 758.202 236.558L786.265 229.056C788.65 228.418 791.1 229.83 791.739 232.209C792.378 234.588 790.963 237.034 788.579 237.671L760.516 245.174C758.132 245.812 755.681 244.4 755.042 242.021Z" fill="#71C6BB"/>
<path d="M759.669 259.252C759.03 256.873 760.445 254.427 762.83 253.79L790.893 246.287C793.277 245.649 795.728 247.061 796.367 249.44C797.006 251.82 795.591 254.265 793.206 254.903L765.143 262.405C762.759 263.043 760.308 261.631 759.669 259.252Z" fill="#71C6BB"/>
<path d="M775.865 319.561C775.226 317.182 776.641 314.736 779.025 314.099L807.088 306.596C809.473 305.959 811.923 307.371 812.562 309.75C813.201 312.129 811.786 314.574 809.402 315.212L781.339 322.715C778.955 323.352 776.504 321.94 775.865 319.561Z" fill="#71C6BB"/>
<path d="M780.492 336.792C779.853 334.413 781.268 331.968 783.653 331.33L811.716 323.827C814.1 323.19 816.551 324.602 817.19 326.981C817.829 329.36 816.414 331.806 814.029 332.443L785.966 339.946C783.582 340.583 781.131 339.171 780.492 336.792Z" fill="#71C6BB"/>
<path d="M642.791 272.032C642.152 269.653 643.567 267.207 645.951 266.57L740.933 241.176C743.317 240.538 745.768 241.95 746.407 244.329C747.046 246.708 745.631 249.154 743.247 249.791L648.265 275.185C645.88 275.823 643.43 274.411 642.791 272.032Z" fill="#71C6BB"/>
<path d="M647.418 289.263C646.779 286.884 648.194 284.438 650.578 283.801L711.021 267.641C713.406 267.003 715.857 268.415 716.496 270.795C717.135 273.174 715.72 275.619 713.335 276.257L652.892 292.416C650.508 293.054 648.057 291.642 647.418 289.263Z" fill="#71C6BB"/>
<path d="M663.614 349.572C662.975 347.193 664.39 344.748 666.774 344.11L727.217 327.95C729.602 327.313 732.052 328.725 732.691 331.104C733.33 333.483 731.915 335.928 729.531 336.566L669.088 352.726C666.703 353.363 664.252 351.951 663.614 349.572Z" fill="#71C6BB"/>
<path d="M675.182 392.65C674.543 390.271 675.958 387.826 678.342 387.188L818.657 349.674C821.041 349.037 823.492 350.449 824.131 352.828C824.77 355.207 823.355 357.652 820.97 358.29L680.656 395.804C678.272 396.441 675.821 395.029 675.182 392.65Z" fill="#71C6BB"/>
<path d="M668.241 366.803C667.602 364.424 669.017 361.979 671.401 361.341L697.306 354.416C699.69 353.778 702.141 355.19 702.78 357.569C703.419 359.948 702.004 362.394 699.619 363.031L673.715 369.957C671.331 370.594 668.88 369.183 668.241 366.803Z" fill="#71C6BB"/>
<path d="M707.963 118.403C711.158 130.299 704.083 142.526 692.161 145.713C680.239 148.901 667.984 141.841 664.79 129.946C661.595 118.05 668.67 105.823 680.592 102.635C692.514 99.4479 704.769 106.507 707.963 118.403Z" fill="#71C6BB"/>
<path d="M728.802 829.666C719.269 860.845 686.266 878.393 655.087 868.861C623.907 859.328 606.359 826.325 615.891 795.146C625.424 763.966 658.427 746.418 689.607 755.951C720.786 765.483 738.334 798.487 728.802 829.666Z" fill="#71C6BB"/>
<path d="M725.968 817.386C716.435 848.565 683.432 866.114 652.252 856.581C621.073 847.049 603.525 814.045 613.057 782.866C622.59 751.686 655.593 734.138 686.772 743.671C717.952 753.203 735.5 786.207 725.968 817.386Z" fill="white"/>
<path d="M662.33 771.141C669.379 773.296 672.72 779.674 670.694 786.298C668.669 792.922 662.333 796.342 655.284 794.187C648.165 792.01 644.825 785.632 646.85 779.008C648.875 772.384 655.211 768.964 662.33 771.141ZM638.55 818.27L688.841 780.83L699.9 784.211L649.608 821.65L638.55 818.27ZM657.457 787.08C659.737 787.777 661.972 786.649 662.815 783.889C663.68 781.06 662.416 779.014 660.136 778.317C657.855 777.619 655.663 778.609 654.798 781.438C653.933 784.267 655.176 786.382 657.457 787.08ZM683.463 808.31C690.513 810.465 693.853 816.843 691.828 823.467C689.803 830.091 683.467 833.511 676.417 831.356C669.298 829.179 665.958 822.801 667.983 816.177C670.008 809.553 676.344 806.133 683.463 808.31ZM678.59 824.249C680.871 824.946 683.105 823.818 683.949 821.058C684.814 818.229 683.55 816.183 681.269 815.486C678.988 814.788 676.796 815.778 675.932 818.607C675.067 821.436 676.309 823.552 678.59 824.249Z" fill="#158A7B"/>
<path d="M836.38 621.908C826.848 653.087 793.844 670.636 762.665 661.103C731.486 651.571 713.938 618.567 723.47 587.388C733.003 556.209 766.006 538.66 797.185 548.193C828.365 557.725 845.913 590.729 836.38 621.908Z" fill="#71C6BB"/>
<path d="M833.546 609.628C824.014 640.807 791.01 658.356 759.831 648.823C728.652 639.291 711.103 606.287 720.636 575.108C730.168 543.929 763.172 526.38 794.351 535.913C825.53 545.445 843.079 578.449 833.546 609.628Z" fill="white"/>
<path d="M769.908 563.383C776.958 565.538 780.298 571.916 778.273 578.54C776.248 585.164 769.912 588.584 762.862 586.429C755.744 584.252 752.403 577.874 754.428 571.25C756.454 564.626 762.789 561.206 769.908 563.383ZM746.128 610.512L796.42 573.073L807.478 576.453L757.187 613.893L746.128 610.512ZM765.035 579.322C767.316 580.019 769.55 578.891 770.394 576.131C771.259 573.302 769.995 571.256 767.714 570.559C765.434 569.861 763.242 570.851 762.377 573.68C761.512 576.509 762.754 578.624 765.035 579.322ZM791.042 600.552C798.091 602.707 801.432 609.085 799.407 615.709C797.381 622.333 791.046 625.753 783.996 623.598C776.877 621.422 773.537 615.043 775.562 608.419C777.587 601.795 783.923 598.375 791.042 600.552ZM786.169 616.491C788.449 617.188 790.684 616.061 791.527 613.301C792.392 610.472 791.129 608.425 788.848 607.728C786.567 607.031 784.375 608.02 783.51 610.849C782.645 613.678 783.888 615.794 786.169 616.491Z" fill="#158A7B"/>
<path d="M689.974 644.092C698.412 675.831 679.724 708.454 648.233 716.958C616.743 725.462 584.374 706.627 575.936 674.889C567.498 643.151 586.186 610.528 617.677 602.023C649.168 593.519 681.536 612.354 689.974 644.092Z" fill="#71C6BB"/>
<path d="M681.064 635.111C689.502 666.849 670.814 699.472 639.323 707.977C607.832 716.481 575.464 697.646 567.026 665.908C558.588 634.169 577.276 601.546 608.767 593.042C640.257 584.538 672.626 603.373 681.064 635.111Z" fill="white"/>
<path d="M602.595 629.573C609.715 627.65 615.928 631.317 617.72 638.06C619.513 644.803 615.952 651.109 608.832 653.032C601.642 654.974 595.43 651.306 593.637 644.564C591.845 637.821 595.405 631.514 602.595 629.573ZM607.403 682.551L630.211 623.696L641.38 620.68L618.572 679.535L607.403 682.551ZM606.909 645.798C609.212 645.175 610.509 643.018 609.762 640.209C608.997 637.329 606.841 636.255 604.537 636.877C602.234 637.5 600.899 639.516 601.665 642.396C602.431 645.275 604.605 646.42 606.909 645.798ZM640.211 650.053C647.331 648.13 653.544 651.798 655.336 658.541C657.129 665.283 653.568 671.59 646.448 673.513C639.258 675.454 633.046 671.787 631.254 665.044C629.461 658.301 633.021 651.995 640.211 650.053ZM644.525 666.278C646.828 665.656 648.125 663.499 647.378 660.69C646.613 657.81 644.457 656.736 642.153 657.358C639.85 657.98 638.515 659.997 639.281 662.876C640.047 665.756 642.221 666.9 644.525 666.278Z" fill="#158A7B"/>
</svg>
