<svg  viewBox="0 0 681 528" fill="none" xmlns="http://www.w3.org/2000/svg">
<g clip-path="url(#clip0_20_34)">
<!-- <rect width="681" height="528" fill="white"/> -->
<path opacity="0.3" fill-rule="evenodd" clip-rule="evenodd" d="M445.341 455.932C371.066 472.013 296.848 532.715 255.968 591.408L190.322 545.686C239.105 475.646 328.915 399.285 428.413 377.743C479.365 366.712 533.95 369.935 585.564 397.308C636.888 424.528 681.133 473.422 715.93 546.193L643.757 580.704C614.233 518.961 580.438 485.144 548.081 467.984C516.014 450.977 481.276 448.152 445.341 455.932Z" fill="#0B6B5F"/>
<path opacity="0.3" fill-rule="evenodd" clip-rule="evenodd" d="M594.136 86.0917C645.2 142.376 734.879 176.299 806.149 182.356L799.375 262.068C714.327 254.841 603.291 215.243 534.887 139.846C499.857 101.236 475.356 52.3524 473.255 -6.03296C471.166 -64.0913 491.387 -126.856 537.01 -193.376L602.984 -148.128C564.275 -91.6879 551.886 -45.512 553.203 -8.91002C554.509 27.3649 569.431 58.8614 594.136 86.0917Z" fill="#0B6B5F"/>
<g filter="url(#filter0_d_20_34)">
<rect x="72.6874" y="196.802" width="490.059" height="292" rx="30" transform="rotate(-16 72.6874 196.802)" fill="#1BF197"/>
</g>
<g filter="url(#filter1_d_20_34)">
<g clip-path="url(#clip1_20_34)">
<rect x="64.6874" y="191.802" width="490.059" height="292" rx="24" transform="rotate(-16 64.6874 191.802)" fill="url(#paint0_linear_20_34)"/>
<path fill-rule="evenodd" clip-rule="evenodd" d="M126.354 22.6521C216.265 -4.14843 303.015 54.0055 356.782 130.891C414.183 212.973 447.98 318.447 390.632 400.566C323.975 496.015 200.86 552.931 93.5099 507.881C-3.7806 467.053 -6.2861 342.259 0.839368 236.99C7.0211 145.663 38.6327 48.8 126.354 22.6521Z" fill="#0A6156" fill-opacity="0.5"/>
<path fill-rule="evenodd" clip-rule="evenodd" d="M547.273 323.234C563.053 318.709 572.254 302.514 567.823 287.062C563.392 271.61 547.008 262.751 531.227 267.276C524.155 269.304 518.404 273.676 514.61 279.275C508.425 276.538 501.231 275.878 494.159 277.906C478.378 282.431 469.178 298.626 473.609 314.078C478.039 329.53 494.424 338.388 510.205 333.863C517.277 331.835 523.028 327.463 526.822 321.865C533.007 324.602 540.2 325.262 547.273 323.234Z" fill="#ED0006"/>
<path fill-rule="evenodd" clip-rule="evenodd" d="M526.822 321.864C531.494 314.971 533.2 306.218 530.755 297.691C528.31 289.164 522.225 282.645 514.61 279.275C518.404 273.676 524.155 269.304 531.228 267.276C547.008 262.751 563.393 271.609 567.824 287.062C572.255 302.514 563.054 318.709 547.273 323.234C540.201 325.262 533.007 324.602 526.822 321.864Z" fill="#F9A000"/>
<path fill-rule="evenodd" clip-rule="evenodd" d="M526.822 321.863C531.494 314.97 533.2 306.217 530.755 297.69C528.31 289.163 522.225 282.644 514.61 279.274C509.938 286.167 508.232 294.92 510.677 303.447C513.122 311.974 519.207 318.493 526.822 321.863Z" fill="#FF5E00"/>
<g clip-path="url(#clip2_20_34)">
<path fill-rule="evenodd" clip-rule="evenodd" d="M504.85 99.7748C505.629 98.9941 506.895 98.9867 507.677 99.7583C512.377 104.393 515.812 110.19 517.64 116.566C519.468 122.942 519.627 129.678 518.098 136.099C517.843 137.168 516.766 137.833 515.691 137.583C514.617 137.334 513.952 136.266 514.207 135.197C515.578 129.442 515.437 123.397 513.795 117.669C512.152 111.941 509.068 106.739 504.856 102.585C504.073 101.814 504.071 100.556 504.85 99.7748ZM498.535 105.69C499.314 104.909 500.579 104.902 501.362 105.673C505.082 109.342 507.799 113.929 509.246 118.973C510.692 124.017 510.818 129.347 509.608 134.43C509.353 135.499 508.275 136.163 507.201 135.914C506.127 135.665 505.462 134.596 505.717 133.527C506.769 129.112 506.661 124.472 505.4 120.076C504.14 115.679 501.772 111.687 498.541 108.5C497.758 107.729 497.756 106.471 498.535 105.69ZM492.473 111.192C493.256 110.415 494.522 110.413 495.301 111.188C498.064 113.938 500.085 117.371 501.166 121.14C502.247 124.91 502.352 128.892 501.466 132.689C501.216 133.759 500.142 134.429 499.066 134.184C497.991 133.94 497.321 132.874 497.571 131.804C498.303 128.671 498.218 125.373 497.321 122.243C496.424 119.114 494.747 116.272 492.467 114.002C491.688 113.227 491.691 111.969 492.473 111.192ZM486.397 117.069C487.128 116.243 488.392 116.161 489.219 116.885C491.237 118.651 492.699 120.945 493.434 123.507C494.169 126.069 494.144 128.789 493.368 131.356C493.05 132.408 491.935 133.008 490.878 132.696C489.821 132.384 489.221 131.277 489.54 130.225C490.097 128.381 490.112 126.436 489.589 124.61C489.065 122.783 488.021 121.142 486.571 119.873C485.744 119.149 485.666 117.894 486.397 117.069Z" fill="white"/>
</g>
<g filter="url(#filter2_ii_20_34)">
<path d="M122.459 274.746C121.518 271.466 123.433 268.038 126.737 267.091L177.583 252.511C180.887 251.563 184.328 253.455 185.269 256.736L194.693 289.602C195.634 292.883 193.718 296.311 190.414 297.258L139.568 311.838C136.264 312.785 132.824 310.894 131.883 307.613L122.459 274.746Z" fill="#CDC9C1"/>
<path d="M122.459 274.746C121.518 271.466 123.433 268.038 126.737 267.091L177.583 252.511C180.887 251.563 184.328 253.455 185.269 256.736L194.693 289.602C195.634 292.883 193.718 296.311 190.414 297.258L139.568 311.838C136.264 312.785 132.824 310.894 131.883 307.613L122.459 274.746Z" fill="url(#paint1_radial_20_34)" fill-opacity="0.1"/>
<path d="M122.459 274.746C121.518 271.466 123.433 268.038 126.737 267.091L177.583 252.511C180.887 251.563 184.328 253.455 185.269 256.736L194.693 289.602C195.634 292.883 193.718 296.311 190.414 297.258L139.568 311.838C136.264 312.785 132.824 310.894 131.883 307.613L122.459 274.746Z" fill="url(#paint2_radial_20_34)" fill-opacity="0.1"/>
<path d="M122.459 274.746C121.518 271.466 123.433 268.038 126.737 267.091L177.583 252.511C180.887 251.563 184.328 253.455 185.269 256.736L194.693 289.602C195.634 292.883 193.718 296.311 190.414 297.258L139.568 311.838C136.264 312.785 132.824 310.894 131.883 307.613L122.459 274.746Z" fill="url(#paint3_radial_20_34)" fill-opacity="0.1"/>
</g>
<mask id="mask0_20_34" style="mask-type:alpha" maskUnits="userSpaceOnUse" x="122" y="252" width="73" height="61">
<path d="M122.459 274.746C121.518 271.466 123.433 268.038 126.737 267.091L177.583 252.511C180.887 251.563 184.328 253.455 185.269 256.736L194.693 289.602C195.634 292.883 193.718 296.311 190.414 297.258L139.568 311.838C136.264 312.785 132.824 310.894 131.883 307.613L122.459 274.746Z" fill="#D9D9D9"/>
</mask>
<g mask="url(#mask0_20_34)">
<path fill-rule="evenodd" clip-rule="evenodd" d="M121.973 274.466C121.679 273.441 122.278 272.37 123.311 272.074L138.07 267.842C139.103 267.546 140.178 268.137 140.472 269.162L143.12 278.396C143.414 279.421 142.815 280.492 141.783 280.788L127.023 285.02C125.99 285.316 124.915 284.725 124.621 283.7L121.973 274.466ZM123.523 272.816C122.904 272.994 122.545 273.637 122.721 274.252L125.369 283.485C125.545 284.101 126.19 284.455 126.81 284.278L141.57 280.045C142.189 279.868 142.548 279.225 142.372 278.61L139.724 269.376C139.548 268.761 138.903 268.407 138.283 268.584L123.523 272.816Z" fill="#10141E"/>
<path fill-rule="evenodd" clip-rule="evenodd" d="M125.473 286.67C125.179 285.645 125.777 284.573 126.81 284.277L141.57 280.045C142.602 279.749 143.677 280.34 143.971 281.366L146.619 290.599C146.913 291.624 146.314 292.696 145.282 292.992L130.522 297.224C129.49 297.52 128.415 296.929 128.121 295.903L125.473 286.67ZM127.023 285.02C126.403 285.198 126.044 285.84 126.221 286.455L128.868 295.689C129.045 296.304 129.69 296.659 130.309 296.481L145.069 292.249C145.688 292.071 146.048 291.429 145.871 290.814L143.224 281.58C143.047 280.965 142.402 280.61 141.783 280.788L127.023 285.02Z" fill="#10141E"/>
<path fill-rule="evenodd" clip-rule="evenodd" d="M146.931 279.049C146.637 278.024 147.236 276.953 148.268 276.657L168.489 270.859C169.522 270.562 170.597 271.154 170.891 272.179L171.011 272.599C171.305 273.624 170.707 274.695 169.674 274.991L168.569 275.308C167.95 275.486 167.59 276.128 167.767 276.743L170.609 286.655C170.903 287.68 170.304 288.751 169.272 289.047L149.051 294.846C148.018 295.142 146.943 294.551 146.649 293.526L146.334 292.428C146.04 291.403 146.639 290.331 147.671 290.035L148.776 289.718C149.396 289.541 149.755 288.898 149.579 288.283L146.931 279.049ZM148.481 277.399C147.861 277.577 147.502 278.22 147.679 278.835L150.326 288.069C150.62 289.094 150.022 290.165 148.989 290.461L147.884 290.778C147.265 290.956 146.905 291.598 147.082 292.213L147.397 293.311C147.573 293.926 148.218 294.281 148.838 294.103L169.059 288.305C169.678 288.127 170.038 287.485 169.861 286.869L167.019 276.958C166.725 275.933 167.324 274.861 168.356 274.565L169.462 274.248C170.081 274.071 170.44 273.428 170.264 272.813L170.143 272.393C169.967 271.778 169.322 271.423 168.702 271.601L148.481 277.399Z" fill="#10141E"/>
<path fill-rule="evenodd" clip-rule="evenodd" d="M128.972 298.874C128.678 297.848 129.277 296.777 130.309 296.481L145.069 292.249C146.101 291.953 147.177 292.544 147.471 293.569L150.118 302.803C150.412 303.828 149.814 304.899 148.781 305.195L134.022 309.428C132.989 309.724 131.914 309.133 131.62 308.107L128.972 298.874ZM130.522 297.224C129.903 297.401 129.544 298.044 129.72 298.659L132.368 307.893C132.544 308.508 133.189 308.863 133.809 308.685L148.568 304.453C149.188 304.275 149.547 303.633 149.371 303.017L146.723 293.784C146.547 293.169 145.901 292.814 145.282 292.992L130.522 297.224Z" fill="#10141E"/>
<path fill-rule="evenodd" clip-rule="evenodd" d="M167.033 261.545C166.739 260.52 167.337 259.449 168.37 259.153L183.13 254.921C184.162 254.625 185.237 255.216 185.531 256.241L188.179 265.475C188.473 266.5 187.874 267.571 186.842 267.867L172.082 272.099C171.05 272.396 169.974 271.804 169.68 270.779L167.033 261.545ZM168.583 259.896C167.963 260.073 167.604 260.716 167.781 261.331L170.428 270.565C170.605 271.18 171.25 271.535 171.869 271.357L186.629 267.125C187.248 266.947 187.608 266.304 187.431 265.689L184.783 256.456C184.607 255.84 183.962 255.486 183.342 255.663L168.583 259.896Z" fill="#10141E"/>
<path fill-rule="evenodd" clip-rule="evenodd" d="M170.532 273.749C170.238 272.724 170.837 271.653 171.869 271.357L186.629 267.125C187.661 266.829 188.737 267.42 189.031 268.445L191.678 277.679C191.972 278.704 191.374 279.775 190.341 280.071L175.582 284.303C174.549 284.599 173.474 284.008 173.18 282.983L170.532 273.749ZM172.082 272.099C171.463 272.277 171.104 272.92 171.28 273.535L173.928 282.769C174.104 283.384 174.749 283.738 175.369 283.561L190.128 279.328C190.748 279.151 191.107 278.508 190.931 277.893L188.283 268.659C188.106 268.044 187.461 267.69 186.842 267.867L172.082 272.099Z" fill="#10141E"/>
<path fill-rule="evenodd" clip-rule="evenodd" d="M174.032 285.953C173.738 284.928 174.336 283.857 175.369 283.561L190.128 279.329C191.161 279.032 192.236 279.624 192.53 280.649L195.178 289.882C195.472 290.908 194.873 291.979 193.841 292.275L179.081 296.507C178.049 296.803 176.973 296.212 176.679 295.187L174.032 285.953ZM175.582 284.303C174.962 284.481 174.603 285.124 174.779 285.739L177.427 294.972C177.603 295.588 178.249 295.942 178.868 295.765L193.628 291.532C194.247 291.355 194.606 290.712 194.43 290.097L191.782 280.863C191.606 280.248 190.961 279.893 190.341 280.071L175.582 284.303Z" fill="#10141E"/>
</g>
<path d="M147.392 334.237L147.87 335.905L145.481 336.481L147.408 337.986L146.181 339.301L144.399 337.503L143.841 339.972L142.133 339.499L142.939 337.21L140.631 337.992L140.153 336.323L142.53 335.784L140.625 334.24L141.822 332.933L143.604 334.732L144.162 332.262L145.9 332.727L145.082 335.052L147.392 334.237Z" fill="white"/>
<path d="M159.573 330.733L160.052 332.401L157.663 332.977L159.59 334.482L158.362 335.797L156.58 333.999L156.022 336.468L154.314 335.995L155.121 333.706L152.813 334.488L152.334 332.819L154.712 332.28L152.806 330.736L154.004 329.429L155.786 331.228L156.344 328.758L158.082 329.223L157.264 331.548L159.573 330.733Z" fill="white"/>
<path d="M171.755 327.229L172.233 328.897L169.844 329.473L171.771 330.978L170.544 332.293L168.762 330.495L168.204 332.964L166.496 332.491L167.302 330.202L164.994 330.984L164.516 329.315L166.894 328.776L164.988 327.232L166.185 325.925L167.967 327.724L168.525 325.254L170.263 325.719L169.445 328.044L171.755 327.229Z" fill="white"/>
<path d="M183.937 323.725L184.415 325.393L182.026 325.969L183.953 327.474L182.726 328.789L180.944 326.991L180.385 329.46L178.678 328.987L179.484 326.698L177.176 327.48L176.698 325.811L179.075 325.272L177.17 323.728L178.367 322.421L180.149 324.22L180.707 321.75L182.445 322.215L181.627 324.54L183.937 323.725Z" fill="white"/>
<path d="M204.558 317.79L205.036 319.458L202.647 320.034L204.574 321.539L203.347 322.854L201.565 321.056L201.007 323.525L199.299 323.052L200.105 320.763L197.797 321.545L197.319 319.877L199.696 319.337L197.791 317.793L198.988 316.486L200.77 318.285L201.328 315.815L203.066 316.28L202.248 318.605L204.558 317.79Z" fill="white"/>
<path d="M216.742 314.296L217.221 315.965L214.832 316.54L216.759 318.045L215.531 319.36L213.749 317.562L213.191 320.031L211.483 319.558L212.29 317.269L209.982 318.051L209.503 316.383L211.881 315.843L209.975 314.299L211.173 312.993L212.955 314.791L213.513 312.322L215.251 312.786L214.433 315.111L216.742 314.296Z" fill="white"/>
<path d="M228.924 310.792L229.402 312.461L227 313.029L228.927 314.534L227.7 315.849L225.918 314.051L225.36 316.52L223.652 316.047L224.458 313.758L222.15 314.54L221.672 312.871L224.05 312.332L222.144 310.788L223.341 309.481L225.123 311.28L225.681 308.81L227.419 309.275L226.601 311.6L228.924 310.792Z" fill="white"/>
<path d="M241.106 307.288L241.584 308.957L239.185 309.535L241.112 311.04L239.884 312.355L238.102 310.557L237.544 313.026L235.836 312.553L236.643 310.264L234.335 311.046L233.856 309.378L236.234 308.838L234.329 307.294L235.526 305.987L237.308 307.786L237.866 305.316L239.601 305.771L238.783 308.096L241.106 307.288Z" fill="white"/>
<path d="M261.727 301.353L262.205 303.022L259.816 303.597L261.743 305.102L260.516 306.418L258.734 304.619L258.176 307.089L256.468 306.615L257.274 304.326L254.966 305.108L254.488 303.44L256.865 302.9L254.96 301.356L256.157 300.05L257.939 301.848L258.497 299.379L260.235 299.844L259.417 302.169L261.727 301.353Z" fill="white"/>
<path d="M273.901 297.862L274.38 299.531L271.99 300.106L273.918 301.611L272.69 302.927L270.908 301.128L270.35 303.598L268.642 303.124L269.449 300.835L267.141 301.618L266.662 299.949L269.04 299.409L267.134 297.865L268.332 296.559L270.114 298.357L270.672 295.888L272.407 296.342L271.589 298.667L273.901 297.862Z" fill="white"/>
<path d="M286.083 294.358L286.561 296.027L284.172 296.603L286.099 298.108L284.872 299.423L283.09 297.624L282.531 300.094L280.824 299.62L281.63 297.331L279.322 298.114L278.844 296.445L281.221 295.905L279.316 294.361L280.513 293.055L282.295 294.853L282.853 292.384L284.591 292.849L283.773 295.174L286.083 294.358Z" fill="white"/>
<path d="M298.264 290.854L298.743 292.523L296.354 293.098L298.281 294.604L297.053 295.919L295.271 294.12L294.713 296.59L293.005 296.116L293.812 293.827L291.504 294.61L291.025 292.941L293.403 292.401L291.497 290.857L292.695 289.551L294.477 291.349L295.035 288.88L296.773 289.345L295.955 291.67L298.264 290.854Z" fill="white"/>
<path d="M315.637 303.056L315.069 301.074L319.599 292.661C320.821 290.45 321.255 288.727 320.901 287.493C320.608 286.472 320.066 285.763 319.276 285.366C318.485 284.968 317.647 284.902 316.74 285.163C315.025 285.654 314.009 286.832 313.699 288.683L311.33 288.071C311.555 286.726 312.097 285.607 312.931 284.711C313.766 283.815 314.809 283.188 316.026 282.828C317.549 282.391 319.016 282.518 320.433 283.195C321.852 283.883 322.803 285.066 323.293 286.775C323.821 288.615 323.319 290.937 321.783 293.731L318.472 299.693L326.689 297.326L327.362 299.672L315.637 303.056Z" fill="white"/>
<path d="M335.18 285.785C336.648 285.649 337.948 285.922 339.106 286.608C340.263 287.294 341.046 288.35 341.461 289.796C341.968 291.566 341.763 293.135 340.849 294.513C339.934 295.892 338.606 296.82 336.872 297.317C335.49 297.714 334.169 297.753 332.907 297.425C331.655 297.095 330.628 296.404 329.829 295.331L331.511 293.546C332.53 295.082 334.092 295.542 336.19 294.941C337.32 294.617 338.154 294.06 338.689 293.261C339.226 292.472 339.352 291.539 339.037 290.48C338.733 289.418 338.142 288.69 337.255 288.298C336.377 287.904 335.373 287.864 334.243 288.188L333.617 288.367L332.233 287.155L334.803 280.245L326.727 282.572L326.077 280.307L336.988 277.167L337.587 279.294L335.18 285.785Z" fill="white"/>
<path d="M359.303 284.296L359.953 286.562L357.744 287.195L358.739 290.664L356.328 291.355L355.333 287.886L346.067 290.555L345.417 288.289L348.346 273.911L350.948 273.164L348.019 287.543L354.697 285.628L353.218 280.47L355.628 279.779L357.107 284.937L359.303 284.296Z" fill="white"/>
<path d="M367.256 276.171C368.971 275.68 370.568 275.769 372.048 276.439C373.529 277.109 374.527 278.344 375.04 280.134C375.548 281.904 375.343 283.473 374.428 284.852C373.514 286.23 372.186 287.158 370.451 287.656C369.069 288.052 367.733 288.074 366.452 287.719C365.171 287.364 364.126 286.613 363.33 285.473L365.041 283.713C365.539 284.533 366.204 285.065 367.023 285.333C367.853 285.599 368.764 285.578 369.762 285.292C370.902 284.965 371.746 284.406 372.291 283.604C372.829 282.815 372.944 281.884 372.64 280.822C372.335 279.761 371.744 279.032 370.857 278.641C369.97 278.25 368.975 278.207 367.865 278.525L362.721 280L360.655 270.359L370.628 267.488L371.278 269.754L363.514 271.991L364.59 276.925L367.256 276.171Z" fill="white"/>
</g>
</g>
</g>
<defs>
<filter id="filter0_d_20_34" x="64.6874" y="55.7234" width="583.561" height="447.767" filterUnits="userSpaceOnUse" color-interpolation-filters="sRGB">
<feFlood flood-opacity="0" result="BackgroundImageFix"/>
<feColorMatrix in="SourceAlpha" type="matrix" values="0 0 0 0 0 0 0 0 0 0 0 0 0 0 0 0 0 0 127 0" result="hardAlpha"/>
<feOffset dx="8" dy="10"/>
<feGaussianBlur stdDeviation="8"/>
<feColorMatrix type="matrix" values="0 0 0 0 0 0 0 0 0 0 0 0 0 0 0 0 0 0 0.05 0"/>
<feBlend mode="normal" in2="BackgroundImageFix" result="effect1_dropShadow_20_34"/>
<feBlend mode="normal" in="SourceGraphic" in2="effect1_dropShadow_20_34" result="shape"/>
</filter>
<filter id="filter1_d_20_34" x="56.6874" y="50.7234" width="583.561" height="447.767" filterUnits="userSpaceOnUse" color-interpolation-filters="sRGB">
<feFlood flood-opacity="0" result="BackgroundImageFix"/>
<feColorMatrix in="SourceAlpha" type="matrix" values="0 0 0 0 0 0 0 0 0 0 0 0 0 0 0 0 0 0 127 0" result="hardAlpha"/>
<feOffset dx="8" dy="10"/>
<feGaussianBlur stdDeviation="8"/>
<feColorMatrix type="matrix" values="0 0 0 0 0 0 0 0 0 0 0 0 0 0 0 0 0 0 0.05 0"/>
<feBlend mode="normal" in2="BackgroundImageFix" result="effect1_dropShadow_20_34"/>
<feBlend mode="normal" in="SourceGraphic" in2="effect1_dropShadow_20_34" result="shape"/>
</filter>
<filter id="filter2_ii_20_34" x="122.219" y="252.266" width="72.7131" height="59.8159" filterUnits="userSpaceOnUse" color-interpolation-filters="sRGB">
<feFlood flood-opacity="0" result="BackgroundImageFix"/>
<feBlend mode="normal" in="SourceGraphic" in2="BackgroundImageFix" result="shape"/>
<feColorMatrix in="SourceAlpha" type="matrix" values="0 0 0 0 0 0 0 0 0 0 0 0 0 0 0 0 0 0 127 0" result="hardAlpha"/>
<feOffset dx="-1" dy="-1"/>
<feComposite in2="hardAlpha" operator="arithmetic" k2="-1" k3="1"/>
<feColorMatrix type="matrix" values="0 0 0 0 0.184314 0 0 0 0 0.152941 0 0 0 0 0.0941176 0 0 0 0.2 0"/>
<feBlend mode="normal" in2="shape" result="effect1_innerShadow_20_34"/>
<feColorMatrix in="SourceAlpha" type="matrix" values="0 0 0 0 0 0 0 0 0 0 0 0 0 0 0 0 0 0 127 0" result="hardAlpha"/>
<feOffset dx="1" dy="1"/>
<feComposite in2="hardAlpha" operator="arithmetic" k2="-1" k3="1"/>
<feColorMatrix type="matrix" values="0 0 0 0 0.184314 0 0 0 0 0.152941 0 0 0 0 0.0941176 0 0 0 0.2 0"/>
<feBlend mode="normal" in2="effect1_innerShadow_20_34" result="effect2_innerShadow_20_34"/>
</filter>
<linearGradient id="paint0_linear_20_34" x1="64.6797" y1="483.8" x2="321.482" y2="52.8124" gradientUnits="userSpaceOnUse">
<stop stop-color="#0B6B5F"/>
<stop offset="1" stop-color="#0B6B5F"/>
</linearGradient>
<radialGradient id="paint1_radial_20_34" cx="0" cy="0" r="1" gradientUnits="userSpaceOnUse" gradientTransform="translate(136.458 264.303) rotate(54.6633) scale(49.3337 69.1428)">
<stop stop-color="#C29632"/>
<stop offset="1" stop-color="#C29632" stop-opacity="0"/>
</radialGradient>
<radialGradient id="paint2_radial_20_34" cx="0" cy="0" r="1" gradientUnits="userSpaceOnUse" gradientTransform="translate(190.175 273.847) rotate(129.362) scale(39.7086 55.2167)">
<stop stop-color="#664700"/>
<stop offset="1" stop-color="#664700"/>
</radialGradient>
<radialGradient id="paint3_radial_20_34" cx="0" cy="0" r="1" gradientUnits="userSpaceOnUse" gradientTransform="translate(141.779 311.204) rotate(-37.6645) scale(61.1371 84.7928)">
<stop stop-color="#402200"/>
<stop offset="1" stop-color="#402200" stop-opacity="0"/>
</radialGradient>
<clipPath id="clip0_20_34">
<rect width="681" height="528" fill="white"/>
</clipPath>
<clipPath id="clip1_20_34">
<rect x="64.6874" y="191.802" width="490.059" height="292" rx="24" transform="rotate(-16 64.6874 191.802)" fill="white"/>
</clipPath>
<clipPath id="clip2_20_34">
<rect width="32.6706" height="40.1693" fill="white" transform="translate(481.895 105.922) rotate(-16)"/>
</clipPath>
</defs>
</svg>
