<svg width="1920" height="1080" viewBox="0 0 1920 1080" fill="none" xmlns="http://www.w3.org/2000/svg">
<path fill-rule="evenodd" clip-rule="evenodd" d="M1805.33 791.236C1800.19 791.236 1795.52 793.334 1792.14 796.72C1788.76 800.107 1786.67 804.783 1786.67 809.941C1786.67 815.098 1788.76 819.774 1792.14 823.162C1795.52 826.548 1800.19 828.646 1805.33 828.646C1810.48 828.646 1815.14 826.548 1818.52 823.162C1821.9 819.774 1824 815.098 1824 809.941C1824 804.783 1821.91 800.107 1818.52 796.72C1815.14 793.334 1810.48 791.236 1805.33 791.236ZM1805.33 792.798C1810.05 792.798 1814.33 794.72 1817.43 797.826C1820.53 800.93 1822.45 805.215 1822.45 809.941C1822.45 814.667 1820.53 818.952 1817.43 822.056C1814.33 825.162 1810.05 827.084 1805.33 827.084C1800.61 827.084 1796.33 825.162 1793.23 822.057C1790.14 818.953 1788.22 814.667 1788.22 809.941C1788.22 805.215 1790.14 800.929 1793.23 797.825C1796.33 794.72 1800.61 792.798 1805.33 792.798ZM330.228 921.129C329.862 921.129 329.495 921.27 329.211 921.555C328.929 921.837 328.789 922.207 328.789 922.576C328.789 922.948 328.93 923.319 329.213 923.603L345.418 939.833L329.213 956.068C328.93 956.351 328.788 956.722 328.788 957.092C328.788 957.463 328.93 957.834 329.213 958.117C329.493 958.398 329.861 958.54 330.229 958.54C330.598 958.54 330.966 958.398 331.246 958.117L347.457 941.875L363.665 958.117C363.945 958.398 364.313 958.54 364.681 958.54C365.049 958.54 365.417 958.398 365.698 958.117C365.98 957.834 366.122 957.463 366.122 957.092C366.122 956.722 365.981 956.351 365.698 956.068L349.495 939.833L365.697 923.603C365.98 923.319 366.122 922.948 366.122 922.576C366.122 922.207 365.981 921.837 365.695 921.551C365.416 921.27 365.049 921.129 364.682 921.129L347.457 937.786L331.246 921.553C330.965 921.271 330.597 921.129 330.228 921.129ZM1668.49 446.94C1668.12 446.94 1667.75 447.082 1667.47 447.363C1667.19 447.646 1667.05 448.016 1667.05 448.387C1667.05 448.759 1667.19 449.131 1667.47 449.413L1683.68 465.643L1667.47 481.878C1667.19 482.161 1667.05 482.532 1667.05 482.903C1667.05 483.274 1667.19 483.644 1667.47 483.928C1667.75 484.209 1668.12 484.351 1668.49 484.351C1668.85 484.351 1669.22 484.209 1669.5 483.928L1685.71 467.685L1701.92 483.928C1702.2 484.209 1702.57 484.351 1702.94 484.351C1703.31 484.351 1703.67 484.209 1703.95 483.928C1704.24 483.644 1704.38 483.274 1704.38 482.903C1704.38 482.532 1704.24 482.161 1703.95 481.878L1687.75 465.643L1703.95 449.415C1704.24 449.131 1704.38 448.759 1704.38 448.387C1704.38 448.016 1704.24 447.646 1703.96 447.363C1703.67 447.082 1703.31 446.94 1702.94 446.94L1685.71 463.602L1669.5 447.361C1669.22 447.08 1668.85 446.94 1668.49 446.94ZM243.457 312.328C238.31 312.328 233.644 314.426 230.265 317.811C226.883 321.198 224.788 325.875 224.788 331.031C224.788 336.19 226.883 340.867 230.265 344.254C233.644 347.64 238.31 349.738 243.457 349.738C248.603 349.738 253.268 347.64 256.647 344.254C260.028 340.866 262.122 336.189 262.122 331.031C262.122 325.875 260.028 321.199 256.646 317.811C253.267 314.426 248.602 312.328 243.457 312.328ZM243.457 313.89C248.176 313.89 252.456 315.811 255.555 318.917C258.653 322.02 260.571 326.306 260.571 331.031C260.571 335.757 258.653 340.043 255.555 343.148C252.455 346.254 248.176 348.176 243.457 348.176C238.738 348.176 234.458 346.254 231.357 343.148C228.259 340.043 226.34 335.757 226.34 331.031C226.34 326.306 228.258 322.021 231.357 318.917C234.457 315.811 238.738 313.89 243.457 313.89ZM745.384 21.6447C741.516 25.0503 739.392 29.7157 739.084 34.4971C738.776 39.2785 740.284 44.1776 743.683 48.0519C746.96 51.7875 751.487 54.0306 756.439 54.3669C762.207 54.3933 766.571 52.802 770.031 49.7517C773.778 46.4559 776.017 41.8944 776.34 36.9043C776.66 31.9183 775.024 27.1036 771.727 23.3483C768.331 19.4748 763.678 17.3476 758.908 17.0392C754.138 16.7308 749.25 18.2408 745.384 21.6447ZM757.698 18.5623C762.454 18.5623 767.188 20.5315 770.568 24.3825C773.585 27.8249 775.085 32.2349 774.788 36.8068C774.493 41.3737 772.441 45.5551 769.01 48.5762C765.571 51.6044 761.156 53.1201 756.599 52.8103C752.041 52.516 747.865 50.4562 744.848 47.0173C741.734 43.4681 740.35 38.9806 740.631 34.5992C740.913 30.2176 742.861 25.9437 746.404 22.8216C749.651 19.9668 753.683 18.5623 757.698 18.5623Z" fill="#F5F5F5"/>
<path fill-rule="evenodd" clip-rule="evenodd" d="M1448.28 84.1712C1583.17 140.961 1678.1 276.254 1701.08 417.393C1724.07 558.532 1674.1 705.517 1575.18 809.91C1476.25 914.303 1328.37 976.938 1176.48 1018.7C1023.6 1061.29 866.721 1083 746.813 1038.74C626.905 994.476 543.968 883.402 472.023 770.658C400.078 658.749 339.125 545.17 365.105 448.293C392.084 351.417 504.998 272.078 618.911 212.783C732.824 153.488 845.737 113.401 990.626 82.5009C1135.52 50.7655 1312.38 28.2167 1448.28 84.1712Z" fill="#F5F5F5"/>
<path d="M1442.5 811.588C1442.5 757.508 1486.34 713.668 1540.42 713.668H1548.58C1602.66 713.668 1646.5 757.508 1646.5 811.588V868.708C1646.5 895.748 1624.58 917.668 1597.54 917.668H1491.46C1464.42 917.668 1442.5 895.748 1442.5 868.708V811.588Z" fill="#A6F2FA"/>
<path d="M1603.16 778.36H1589.36L1601.6 766.119C1602.57 765.112 1603.11 763.764 1603.1 762.364C1603.08 760.964 1602.52 759.625 1601.53 758.635C1600.54 757.646 1599.2 757.084 1597.8 757.072C1596.4 757.06 1595.06 757.598 1594.05 758.57L1581.81 770.811V757.006C1581.81 755.59 1581.25 754.233 1580.24 753.232C1579.24 752.23 1577.89 751.668 1576.47 751.668C1575.05 751.668 1573.7 752.23 1572.7 753.232C1571.69 754.233 1571.13 755.59 1571.13 757.006V780.794C1566.76 776.142 1561.6 772.3 1555.9 769.445C1551.89 767.677 1547.41 767.267 1543.15 768.277C1538.89 769.287 1535.07 771.661 1532.28 775.039C1522.9 784.424 1496.74 832.389 1481.98 860.137C1480.68 862.662 1480.22 865.534 1480.66 868.338C1481.1 871.142 1482.42 873.735 1484.43 875.742C1486.43 877.749 1489.03 879.067 1491.83 879.506C1494.63 879.946 1497.51 879.483 1500.03 878.186C1527.79 863.431 1575.74 837.268 1585.13 827.883C1588.51 825.095 1590.88 821.281 1591.89 817.02C1592.9 812.759 1592.49 808.285 1590.73 804.277C1587.87 798.569 1584.03 793.409 1579.37 789.036H1603.16C1604.58 789.036 1605.94 788.474 1606.94 787.473C1607.94 786.472 1608.5 785.114 1608.5 783.698C1608.5 782.282 1607.94 780.924 1606.94 779.923C1605.94 778.922 1604.58 778.36 1603.16 778.36Z" fill="#F5F5F5"/>
<path d="M1603.16 778.36H1589.36L1601.6 766.119C1602.57 765.112 1603.11 763.764 1603.1 762.364C1603.08 760.964 1602.52 759.625 1601.53 758.635C1600.54 757.646 1599.2 757.084 1597.8 757.072C1596.4 757.06 1595.06 757.598 1594.05 758.57L1581.81 770.811V757.006C1581.81 755.59 1581.25 754.233 1580.24 753.232C1579.24 752.23 1577.89 751.668 1576.47 751.668C1575.05 751.668 1573.7 752.23 1572.7 753.232C1571.69 754.233 1571.13 755.59 1571.13 757.006V780.794C1566.76 776.142 1561.6 772.3 1555.9 769.445C1551.89 767.677 1547.41 767.267 1543.15 768.277C1538.89 769.287 1535.07 771.661 1532.28 775.039C1522.9 784.424 1496.74 832.389 1481.98 860.137C1480.68 862.662 1480.22 865.533 1480.66 868.338C1481.1 871.142 1482.42 873.735 1484.43 875.742C1486.43 877.749 1489.03 879.067 1491.83 879.506C1494.63 879.946 1497.51 879.483 1500.03 878.186C1527.79 863.431 1575.74 837.268 1585.13 827.883C1588.51 825.095 1590.88 821.281 1591.89 817.02C1592.9 812.759 1592.49 808.285 1590.73 804.277C1587.87 798.569 1584.03 793.409 1579.37 789.036H1603.16C1604.58 789.036 1605.94 788.474 1606.94 787.473C1607.94 786.472 1608.5 785.114 1608.5 783.698C1608.5 782.282 1607.94 780.924 1606.94 779.923C1605.94 778.922 1604.58 778.36 1603.16 778.36ZM1577.58 820.335C1573.76 823.6 1569.67 826.525 1565.34 829.074L1553.55 817.292C1552.55 816.32 1551.2 815.781 1549.8 815.794C1548.4 815.806 1547.06 816.367 1546.07 817.357C1545.08 818.347 1544.52 819.686 1544.51 821.085C1544.49 822.485 1545.03 823.834 1546 824.84L1555.99 834.818C1541.33 843.589 1520.28 855.327 1495.02 868.759C1494.51 869.026 1493.94 869.125 1493.37 869.04C1492.81 868.956 1492.28 868.692 1491.88 868.288C1491.48 867.884 1491.21 867.361 1491.13 866.797C1491.04 866.232 1491.14 865.655 1491.41 865.15C1499.53 849.877 1507.01 836.195 1513.62 824.483L1524.65 835.517C1525.66 836.489 1527.01 837.027 1528.41 837.015C1529.81 837.003 1531.14 836.442 1532.13 835.452C1533.12 834.462 1533.69 833.123 1533.7 831.724C1533.71 830.324 1533.17 828.975 1532.2 827.969L1519.09 814.858C1524.91 804.774 1529.8 796.707 1533.55 791.033L1546 803.487C1547.01 804.459 1548.36 804.998 1549.76 804.985C1551.16 804.973 1552.5 804.412 1553.49 803.422C1554.48 802.432 1555.04 801.093 1555.05 799.694C1555.06 798.294 1554.53 796.945 1553.55 795.939L1540.03 782.417C1544.55 778.205 1547.32 777.495 1551.68 779.256C1557.74 782.711 1563.17 787.162 1567.74 792.421C1573 796.997 1577.46 802.428 1580.91 808.484C1582.24 811.58 1582.76 815.162 1577.58 820.335Z" fill="#006A6F"/>
<rect x="1278.95" y="901.668" width="531.107" height="129.664" rx="64.832" fill="#006A6F"/>
<path d="M1361.7 991.012C1355.3 991.012 1350.95 987.364 1350.95 981.668C1350.95 976.804 1354.72 973.284 1361.57 972.132L1372 970.404V968.74C1372 964.772 1369.06 962.34 1364.9 962.34C1361.38 962.34 1358.63 963.94 1356.77 966.564L1351.84 962.788C1354.72 958.948 1359.33 956.516 1365.09 956.516C1373.8 956.516 1378.6 961.636 1378.6 968.74V990.052H1372V986.404C1369.7 989.22 1365.67 991.012 1361.7 991.012ZM1357.6 981.412C1357.6 983.908 1359.59 985.636 1362.92 985.636C1366.95 985.636 1370.08 983.716 1372 980.644V975.076L1363.3 976.548C1359.27 977.252 1357.6 978.98 1357.6 981.412Z" fill="white"/>
<path d="M1388.93 990.052V942.052H1395.52V990.052H1388.93Z" fill="white"/>
<path d="M1409.63 950.628C1407.2 950.628 1405.15 948.58 1405.15 946.148C1405.15 943.716 1407.2 941.668 1409.63 941.668C1412.06 941.668 1414.11 943.716 1414.11 946.148C1414.11 948.58 1412.06 950.628 1409.63 950.628ZM1406.3 990.052V957.796H1412.9V990.052H1406.3Z" fill="white"/>
<path d="M1423.68 990.052V957.796H1430.27V960.804C1432.57 958.308 1435.58 956.516 1439.87 956.516C1444.29 956.516 1448 958.5 1450.05 962.34C1452.54 959.14 1455.74 956.516 1461.31 956.516C1468.03 956.516 1473.21 961.124 1473.21 970.02V990.052H1466.56V970.276C1466.56 965.54 1463.93 962.724 1459.77 962.724C1455.93 962.724 1453.44 965.156 1451.71 968.228C1451.77 968.804 1451.77 969.38 1451.77 970.02V990.052H1445.12V970.276C1445.12 965.54 1442.56 962.724 1438.33 962.724C1434.24 962.724 1431.81 965.54 1430.27 968.292V990.052H1423.68Z" fill="white"/>
<path d="M1512.55 984.804C1509.54 988.836 1504.61 991.332 1498.6 991.332C1487.46 991.332 1480.87 983.332 1480.87 973.924C1480.87 964.26 1487.01 956.516 1497.25 956.516C1506.15 956.516 1511.91 962.596 1511.91 970.788C1511.91 972.26 1511.72 973.732 1511.46 974.692H1487.65C1488.1 981.732 1492.39 985.38 1498.6 985.38C1502.5 985.38 1505.76 983.652 1507.75 980.964L1512.55 984.804ZM1497.12 962.02C1492.32 962.02 1489 964.772 1487.97 969.764H1505.32C1505.19 965.732 1502.31 962.02 1497.12 962.02Z" fill="white"/>
<path d="M1520.55 990.052V957.796H1527.15V960.932C1529.58 958.372 1532.78 956.516 1537.39 956.516C1544.49 956.516 1549.93 961.316 1549.93 970.66V990.052H1543.27V970.916C1543.27 965.796 1540.46 962.724 1535.85 962.724C1531.43 962.724 1528.81 965.476 1527.15 968.292V990.052H1520.55Z" fill="white"/>
<path d="M1562.1 978.852V963.748H1556.02V957.796H1562.1V949.732H1568.75V957.796H1579.44V963.748H1568.75V978.852C1568.75 983.204 1571.06 984.612 1574.64 984.612C1576.82 984.612 1578.29 984.356 1579.44 983.908V989.732C1577.91 990.372 1576.11 990.692 1573.62 990.692C1566.07 990.692 1562.1 986.724 1562.1 978.852Z" fill="white"/>
<path d="M1596.2 991.012C1589.8 991.012 1585.45 987.364 1585.45 981.668C1585.45 976.804 1589.22 973.284 1596.07 972.132L1606.5 970.404V968.74C1606.5 964.772 1603.56 962.34 1599.4 962.34C1595.88 962.34 1593.13 963.94 1591.27 966.564L1586.34 962.788C1589.22 958.948 1593.83 956.516 1599.59 956.516C1608.3 956.516 1613.1 961.636 1613.1 968.74V990.052H1606.5V986.404C1604.2 989.22 1600.17 991.012 1596.2 991.012ZM1592.1 981.412C1592.1 983.908 1594.09 985.636 1597.42 985.636C1601.45 985.636 1604.58 983.716 1606.5 980.644V975.076L1597.8 976.548C1593.77 977.252 1592.1 978.98 1592.1 981.412Z" fill="white"/>
<path d="M1625.35 978.852V963.748H1619.27V957.796H1625.35V949.732H1632V957.796H1642.69V963.748H1632V978.852C1632 983.204 1634.31 984.612 1637.89 984.612C1640.07 984.612 1641.54 984.356 1642.69 983.908V989.732C1641.16 990.372 1639.36 990.692 1636.87 990.692C1629.32 990.692 1625.35 986.724 1625.35 978.852Z" fill="white"/>
<path d="M1653.88 950.628C1651.45 950.628 1649.4 948.58 1649.4 946.148C1649.4 943.716 1651.45 941.668 1653.88 941.668C1656.31 941.668 1658.36 943.716 1658.36 946.148C1658.36 948.58 1656.31 950.628 1653.88 950.628ZM1650.55 990.052V957.796H1657.15V990.052H1650.55Z" fill="white"/>
<path d="M1682.9 956.516C1693.4 956.516 1700.44 964.388 1700.44 973.924C1700.44 983.46 1693.4 991.332 1682.9 991.332C1672.47 991.332 1665.37 983.46 1665.37 973.924C1665.37 964.388 1672.47 956.516 1682.9 956.516ZM1682.97 985.124C1689.05 985.124 1693.53 980.068 1693.53 973.924C1693.53 967.652 1689.05 962.724 1682.97 962.724C1676.76 962.724 1672.28 967.716 1672.28 973.924C1672.28 980.132 1676.76 985.124 1682.97 985.124Z" fill="white"/>
<path d="M1708.68 990.052V957.796H1715.27V960.932C1717.7 958.372 1720.9 956.516 1725.51 956.516C1732.61 956.516 1738.05 961.316 1738.05 970.66V990.052H1731.4V970.916C1731.4 965.796 1728.58 962.724 1723.97 962.724C1719.56 962.724 1716.93 965.476 1715.27 968.292V990.052H1708.68Z" fill="white"/>
<path d="M1480.22 114.92C1480.22 60.8403 1524.06 17 1578.14 17H1586.3C1640.38 17 1684.22 60.8403 1684.22 114.92V172.04C1684.22 199.08 1662.3 221 1635.26 221H1529.18C1502.14 221 1480.22 199.08 1480.22 172.04V114.92Z" fill="#A6F2FA"/>
<path d="M1609.22 97.4747V92.3333C1609.21 89.0359 1608.17 85.8233 1606.26 83.1349C1604.35 80.4466 1601.66 78.4138 1598.55 77.3147V65.6667H1619.89C1621.3 65.6667 1622.66 65.1048 1623.66 64.1046C1624.66 63.1044 1625.22 61.7478 1625.22 60.3333C1625.22 58.9188 1624.66 57.5623 1623.66 56.5621C1622.66 55.5619 1621.3 55 1619.89 55H1582.55C1578.31 55 1574.24 56.6857 1571.24 59.6863C1568.24 62.6869 1566.55 66.7565 1566.55 71V77.3147C1563.44 78.4138 1560.75 80.4466 1558.84 83.1349C1556.93 85.8233 1555.9 89.0359 1555.89 92.3333V97.4747C1547.88 101.409 1541.13 107.511 1536.42 115.087C1531.7 122.663 1529.21 131.41 1529.22 140.333V151C1529.23 159.484 1532.6 167.619 1538.6 173.618C1544.6 179.617 1552.73 182.992 1561.22 183H1603.89C1612.37 182.992 1620.5 179.617 1626.5 173.618C1632.5 167.619 1635.88 159.484 1635.89 151V140.333C1635.89 131.41 1633.4 122.663 1628.69 115.087C1623.97 107.511 1617.23 101.409 1609.22 97.4747Z" fill="#F5F5F5"/>
<path d="M1609.22 97.4747V92.3333C1609.21 89.0359 1608.17 85.8233 1606.26 83.1349C1604.35 80.4466 1601.66 78.4138 1598.55 77.3147V65.6667H1619.89C1621.3 65.6667 1622.66 65.1048 1623.66 64.1046C1624.66 63.1044 1625.22 61.7478 1625.22 60.3333C1625.22 58.9188 1624.66 57.5623 1623.66 56.5621C1622.66 55.5619 1621.3 55 1619.89 55H1582.55C1578.31 55 1574.24 56.6857 1571.24 59.6863C1568.24 62.6869 1566.55 66.7565 1566.55 71V77.3147C1563.44 78.4138 1560.75 80.4466 1558.84 83.1349C1556.93 85.8233 1555.9 89.0359 1555.89 92.3333V97.4747C1547.88 101.409 1541.13 107.511 1536.42 115.087C1531.7 122.663 1529.21 131.41 1529.22 140.333V151C1529.23 159.484 1532.6 167.619 1538.6 173.618C1544.6 179.617 1552.73 182.992 1561.22 183H1603.89C1612.37 182.992 1620.5 179.617 1626.5 173.618C1632.5 167.619 1635.88 159.484 1635.89 151V140.333C1635.89 131.41 1633.4 122.663 1628.69 115.087C1623.97 107.511 1617.23 101.409 1609.22 97.4747ZM1577.22 71C1577.22 69.5855 1577.78 68.229 1578.78 67.2288C1579.78 66.2286 1581.14 65.6667 1582.55 65.6667H1587.89V76.3333H1577.22V71ZM1566.55 92.3333C1566.55 90.9188 1567.11 89.5623 1568.11 88.5621C1569.11 87.5619 1570.47 87 1571.89 87H1593.22C1594.63 87 1595.99 87.5619 1596.99 88.5621C1597.99 89.5623 1598.55 90.9188 1598.55 92.3333V97.6667H1566.55V92.3333ZM1625.22 151C1625.22 156.658 1622.97 162.084 1618.97 166.085C1614.97 170.086 1609.54 172.333 1603.89 172.333H1561.22C1555.56 172.333 1550.13 170.086 1546.13 166.085C1542.13 162.084 1539.89 156.658 1539.89 151V140.333C1539.87 133.888 1541.53 127.548 1544.7 121.938C1547.88 116.328 1552.45 111.639 1557.99 108.333H1607.12C1612.65 111.639 1617.23 116.328 1620.4 121.938C1623.58 127.548 1625.24 133.888 1625.22 140.333V151ZM1598.55 129.667H1566.55C1562.31 129.667 1558.24 131.352 1555.24 134.353C1552.24 137.354 1550.55 141.423 1550.55 145.667C1550.55 149.91 1552.24 153.98 1555.24 156.98C1558.24 159.981 1562.31 161.667 1566.55 161.667H1598.55C1602.8 161.667 1606.87 159.981 1609.87 156.98C1612.87 153.98 1614.55 149.91 1614.55 145.667C1614.55 141.423 1612.87 137.354 1609.87 134.353C1606.87 131.352 1602.8 129.667 1598.55 129.667ZM1598.55 151H1566.55C1565.14 151 1563.78 150.438 1562.78 149.438C1561.78 148.438 1561.22 147.081 1561.22 145.667C1561.22 144.252 1561.78 142.896 1562.78 141.895C1563.78 140.895 1565.14 140.333 1566.55 140.333H1598.55C1599.97 140.333 1601.32 140.895 1602.32 141.895C1603.32 142.896 1603.89 144.252 1603.89 145.667C1603.89 147.081 1603.32 148.438 1602.32 149.438C1601.32 150.438 1599.97 151 1598.55 151Z" fill="#006A6F"/>
<rect x="1371" y="205" width="422.436" height="129.664" rx="64.832" fill="#006A6F"/>
<path d="M1474.68 288.136C1471.67 292.168 1466.74 294.664 1460.73 294.664C1449.59 294.664 1443 286.664 1443 277.256C1443 267.592 1449.14 259.848 1459.38 259.848C1468.28 259.848 1474.04 265.928 1474.04 274.12C1474.04 275.592 1473.85 277.064 1473.59 278.024H1449.78C1450.23 285.064 1454.52 288.712 1460.73 288.712C1464.63 288.712 1467.9 286.984 1469.88 284.296L1474.68 288.136ZM1459.26 265.352C1454.46 265.352 1451.13 268.104 1450.1 273.096H1467.45C1467.32 269.064 1464.44 265.352 1459.26 265.352Z" fill="white"/>
<path d="M1482.69 293.384V261.128H1489.28V264.264C1491.71 261.704 1494.91 259.848 1499.52 259.848C1506.62 259.848 1512.06 264.648 1512.06 273.992V293.384H1505.4V274.248C1505.4 269.128 1502.59 266.056 1497.98 266.056C1493.56 266.056 1490.94 268.808 1489.28 271.624V293.384H1482.69Z" fill="white"/>
<path d="M1524.23 282.184V267.08H1518.15V261.128H1524.23V253.064H1530.89V261.128H1541.57V267.08H1530.89V282.184C1530.89 286.536 1533.19 287.944 1536.77 287.944C1538.95 287.944 1540.42 287.688 1541.57 287.24V293.064C1540.04 293.704 1538.25 294.024 1535.75 294.024C1528.2 294.024 1524.23 290.056 1524.23 282.184Z" fill="white"/>
<path d="M1549.43 293.384V261.128H1556.03V264.776C1558.27 262.28 1561.08 260.488 1565.05 260.488C1566.08 260.488 1567.03 260.68 1567.87 260.936V267.4C1566.84 267.144 1565.82 266.952 1564.47 266.952C1560.38 266.952 1557.69 269.128 1556.03 271.88V293.384H1549.43Z" fill="white"/>
<path d="M1602.56 288.136C1599.55 292.168 1594.62 294.664 1588.6 294.664C1577.47 294.664 1570.88 286.664 1570.88 277.256C1570.88 267.592 1577.02 259.848 1587.26 259.848C1596.15 259.848 1601.92 265.928 1601.92 274.12C1601.92 275.592 1601.72 277.064 1601.47 278.024H1577.66C1578.11 285.064 1582.39 288.712 1588.6 288.712C1592.51 288.712 1595.77 286.984 1597.76 284.296L1602.56 288.136ZM1587.13 265.352C1582.33 265.352 1579 268.104 1577.98 273.096H1595.32C1595.19 269.064 1592.32 265.352 1587.13 265.352Z" fill="white"/>
<path d="M1612.35 282.184V267.08H1606.27V261.128H1612.35V253.064H1619.01V261.128H1629.7V267.08H1619.01V282.184C1619.01 286.536 1621.32 287.944 1624.9 287.944C1627.07 287.944 1628.55 287.688 1629.7 287.24V293.064C1628.16 293.704 1626.37 294.024 1623.88 294.024C1616.32 294.024 1612.35 290.056 1612.35 282.184Z" fill="white"/>
<path d="M1640.89 253.96C1638.46 253.96 1636.41 251.912 1636.41 249.48C1636.41 247.048 1638.46 245 1640.89 245C1643.32 245 1645.37 247.048 1645.37 249.48C1645.37 251.912 1643.32 253.96 1640.89 253.96ZM1637.56 293.384V261.128H1644.15V293.384H1637.56Z" fill="white"/>
<path d="M1684.06 288.136C1681.05 292.168 1676.12 294.664 1670.1 294.664C1658.97 294.664 1652.38 286.664 1652.38 277.256C1652.38 267.592 1658.52 259.848 1668.76 259.848C1677.65 259.848 1683.42 265.928 1683.42 274.12C1683.42 275.592 1683.22 277.064 1682.97 278.024H1659.16C1659.61 285.064 1663.89 288.712 1670.1 288.712C1674.01 288.712 1677.27 286.984 1679.26 284.296L1684.06 288.136ZM1668.63 265.352C1663.83 265.352 1660.5 268.104 1659.48 273.096H1676.82C1676.69 269.064 1673.82 265.352 1668.63 265.352Z" fill="white"/>
<path d="M1692.06 293.384V261.128H1698.65V264.264C1701.08 261.704 1704.28 259.848 1708.89 259.848C1716 259.848 1721.44 264.648 1721.44 273.992V293.384H1714.78V274.248C1714.78 269.128 1711.96 266.056 1707.36 266.056C1702.94 266.056 1700.32 268.808 1698.65 271.624V293.384H1692.06Z" fill="white"/>
<path d="M199.061 520.92C199.061 466.84 242.901 423 296.981 423H305.141C359.22 423 403.061 466.84 403.061 520.92V578.04C403.061 605.08 381.14 627 354.101 627H248.021C220.981 627 199.061 605.08 199.061 578.04V520.92Z" fill="#A6F2FA"/>
<g clip-path="url(#clip0_78_116)">
<path d="M327.729 531.315V514.334C327.729 512.919 327.167 511.563 326.166 510.562C325.166 509.562 323.81 509 322.395 509V473.875C322.395 471.681 321.835 469.524 320.767 467.608C319.698 465.692 318.158 464.082 316.292 462.929C314.425 461.776 312.295 461.12 310.104 461.022C307.913 460.924 305.733 461.389 303.771 462.371L289.787 469.358C286.759 470.864 284.212 473.186 282.435 476.064C280.657 478.941 279.72 482.258 279.729 485.64V509C278.314 509 276.957 509.562 275.957 510.562C274.957 511.563 274.395 512.919 274.395 514.334V531.315C271.286 532.414 268.593 534.447 266.684 537.135C264.774 539.824 263.742 543.036 263.729 546.334V562.334C263.737 569.403 266.549 576.181 271.548 581.18C276.547 586.18 283.325 588.992 290.395 589H311.729C318.798 588.992 325.576 586.18 330.575 581.18C335.574 576.181 338.387 569.403 338.395 562.334V546.334C338.382 543.036 337.349 539.824 335.44 537.135C333.531 534.447 330.837 532.414 327.729 531.315Z" fill="#F5F5F5"/>
<path d="M327.729 531.315V514.334C327.729 512.92 327.167 511.563 326.166 510.563C325.166 509.563 323.81 509.001 322.395 509.001V473.875C322.395 471.682 321.835 469.525 320.767 467.609C319.698 465.693 318.158 464.082 316.292 462.929C314.425 461.777 312.295 461.12 310.104 461.023C307.913 460.925 305.733 461.389 303.771 462.371L289.787 469.358C286.759 470.864 284.212 473.187 282.435 476.064C280.657 478.942 279.72 482.259 279.729 485.641V509.001C278.314 509.001 276.957 509.563 275.957 510.563C274.957 511.563 274.395 512.92 274.395 514.334V531.315C271.286 532.414 268.593 534.447 266.684 537.136C264.774 539.824 263.742 543.037 263.729 546.334V562.334C263.737 569.404 266.549 576.182 271.548 581.181C276.547 586.18 283.325 588.992 290.395 589.001H311.729C318.798 588.992 325.576 586.18 330.575 581.181C335.574 576.182 338.387 569.404 338.395 562.334V546.334C338.382 543.037 337.349 539.824 335.44 537.136C333.531 534.447 330.837 532.414 327.729 531.315ZM285.062 530.334V519.667H317.062V530.334H285.062ZM290.395 485.641C290.391 484.24 290.779 482.867 291.515 481.675C292.252 480.484 293.306 479.522 294.561 478.899L308.529 471.913C308.864 471.739 309.238 471.655 309.616 471.669C309.993 471.682 310.361 471.793 310.683 471.991C311.005 472.188 311.27 472.465 311.453 472.796C311.636 473.126 311.731 473.498 311.729 473.875V509.001H290.395V485.641ZM327.729 562.334C327.729 566.577 326.043 570.647 323.042 573.648C320.042 576.648 315.972 578.334 311.729 578.334H290.395C286.152 578.334 282.082 576.648 279.081 573.648C276.081 570.647 274.395 566.577 274.395 562.334V546.334C274.395 544.92 274.957 543.563 275.957 542.563C276.957 541.563 278.314 541.001 279.729 541.001H322.395C323.81 541.001 325.166 541.563 326.166 542.563C327.167 543.563 327.729 544.92 327.729 546.334V562.334Z" fill="#006A6F"/>
</g>
<rect x="97" y="611" width="408.12" height="234.664" rx="117.332" fill="#006A6F"/>
<path d="M185 707.384L185 659.384H191.592V678.264C194.024 675.704 197.224 673.848 201.832 673.848C209 673.848 214.376 678.648 214.376 687.992V707.384H207.72V688.248C207.72 683.128 204.904 680.056 200.296 680.056C195.88 680.056 193.32 682.808 191.592 685.624V707.384H185Z" fill="white"/>
<path d="M237.112 715C234.872 720.376 231.161 723.384 225.401 723.384C223.097 723.384 221.432 723 219.96 722.36V716.472C221.112 716.984 222.584 717.304 224.056 717.304C227.32 717.304 229.625 716.152 231.16 712.504L233.337 707.32L219.576 675.128H226.873L236.856 698.872L246.713 675.128H253.753L237.112 715Z" fill="white"/>
<path d="M255.044 713.144C255.044 709.88 256.644 707.32 259.652 705.08C258.244 703.864 257.54 702.136 257.54 700.472C257.54 697.912 258.756 695.864 261.252 694.136C258.436 692.024 256.836 688.76 256.836 685.176C256.836 678.968 261.636 673.848 269.508 673.848C271.94 673.848 274.052 674.296 275.844 675.128H287.748V680.76H281.412C281.988 682.104 282.308 683.64 282.308 685.176C282.308 691.448 277.508 696.632 269.508 696.632C268.1 696.632 266.82 696.44 265.604 696.184C264.58 697.016 264.004 697.976 264.004 698.936C264.004 700.28 264.708 701.048 266.436 701.048H275.204C283.524 701.048 287.684 705.336 287.684 711.16C287.684 718.136 280.9 723.384 271.108 723.384C261.188 723.384 255.044 719.736 255.044 713.144ZM269.572 691.576C273.732 691.576 276.164 688.824 276.164 685.176C276.164 681.592 273.732 678.904 269.572 678.904C265.412 678.904 262.98 681.592 262.98 685.176C262.98 688.824 265.412 691.576 269.572 691.576ZM261.316 712.248C261.316 715.832 264.9 718.008 270.98 718.008C277.38 718.008 281.092 715.512 281.092 711.736C281.092 708.984 279.492 706.808 274.564 706.808H264.324C262.532 708.216 261.316 709.944 261.316 712.248Z" fill="white"/>
<path d="M297.203 667.96C294.771 667.96 292.723 665.912 292.723 663.48C292.723 661.048 294.771 659 297.203 659C299.635 659 301.683 661.048 301.683 663.48C301.683 665.912 299.635 667.96 297.203 667.96ZM293.875 707.384V675.128H300.467V707.384H293.875Z" fill="white"/>
<path d="M321.81 670.008L314.258 659.384L321.554 659.384L328.21 670.008H321.81ZM340.37 702.136C337.362 706.168 332.434 708.664 326.418 708.664C315.282 708.664 308.69 700.664 308.69 691.256C308.69 681.592 314.834 673.848 325.074 673.848C333.97 673.848 339.73 679.928 339.73 688.12C339.73 689.592 339.538 691.064 339.282 692.024H315.474C315.922 699.064 320.21 702.712 326.418 702.712C330.322 702.712 333.586 700.984 335.57 698.296L340.37 702.136ZM324.946 679.352C320.146 679.352 316.818 682.104 315.794 687.096H333.138C333.01 683.064 330.13 679.352 324.946 679.352Z" fill="white"/>
<path d="M348.375 707.384V675.128H354.967V678.264C357.399 675.704 360.599 673.848 365.207 673.848C372.311 673.848 377.751 678.648 377.751 687.992V707.384H371.095V688.248C371.095 683.128 368.279 680.056 363.671 680.056C359.255 680.056 356.631 682.808 354.967 685.624V707.384H348.375Z" fill="white"/>
<path d="M417.12 702.136C414.112 706.168 409.184 708.664 403.168 708.664C392.032 708.664 385.44 700.664 385.44 691.256C385.44 681.592 391.584 673.848 401.824 673.848C410.72 673.848 416.48 679.928 416.48 688.12C416.48 689.592 416.288 691.064 416.032 692.024H392.224C392.672 699.064 396.96 702.712 403.168 702.712C407.072 702.712 410.336 700.984 412.32 698.296L417.12 702.136ZM401.696 679.352C396.896 679.352 393.568 682.104 392.544 687.096H409.888C409.76 683.064 406.88 679.352 401.696 679.352Z" fill="white"/>
<path d="M238.795 780.256C238.795 789.664 232.459 797.664 222.347 797.664C217.675 797.664 214.219 796 211.467 793.056V796.384H204.875V748.384H211.467V767.456C214.219 764.512 217.675 762.848 222.347 762.848C232.459 762.848 238.795 770.848 238.795 780.256ZM221.515 769.056C217.291 769.056 213.707 771.04 211.467 774.496V786.016C213.835 789.536 217.355 791.456 221.515 791.456C227.723 791.456 231.883 786.592 231.883 780.256C231.883 773.92 227.723 769.056 221.515 769.056Z" fill="white"/>
<path d="M276.183 791.136C273.174 795.168 268.246 797.664 262.23 797.664C251.094 797.664 244.502 789.664 244.502 780.256C244.502 770.592 250.646 762.848 260.886 762.848C269.783 762.848 275.543 768.928 275.543 777.12C275.543 778.592 275.35 780.064 275.094 781.024H251.286C251.734 788.064 256.022 791.712 262.23 791.712C266.134 791.712 269.398 789.984 271.382 787.296L276.183 791.136ZM260.758 768.352C255.958 768.352 252.631 771.104 251.606 776.096H268.951C268.823 772.064 265.942 768.352 260.758 768.352Z" fill="white"/>
<path d="M292.709 797.344C286.309 797.344 281.956 793.696 281.956 788C281.956 783.136 285.732 779.616 292.58 778.464L303.012 776.736V775.072C303.012 771.104 300.069 768.672 295.909 768.672C292.389 768.672 289.637 770.272 287.781 772.896L282.853 769.12C285.732 765.28 290.34 762.848 296.101 762.848C304.805 762.848 309.604 767.968 309.604 775.072V796.384H303.012V792.736C300.708 795.552 296.677 797.344 292.709 797.344ZM288.613 787.744C288.613 790.24 290.596 791.968 293.924 791.968C297.956 791.968 301.092 790.048 303.012 786.976V781.408L294.309 782.88C290.277 783.584 288.613 785.312 288.613 787.744Z" fill="white"/>
<path d="M341.826 782.56V764.128H348.482V782.24C348.482 791.904 342.913 797.664 333.889 797.664C324.801 797.664 319.234 791.904 319.234 782.24V764.128H325.889V782.56C325.889 788.128 328.833 791.456 333.889 791.456C338.817 791.456 341.826 788.128 341.826 782.56Z" fill="white"/>
<path d="M360.795 785.184V770.08H354.715V764.128H360.795V756.064H367.451V764.128H378.139V770.08H367.451V785.184C367.451 789.536 369.755 790.944 373.339 790.944C375.515 790.944 376.987 790.688 378.139 790.24V796.064C376.603 796.704 374.811 797.024 372.315 797.024C364.763 797.024 360.795 793.056 360.795 785.184Z" fill="white"/>
<path d="M402.783 759.008H396.383L403.039 748.384H410.335L402.783 759.008ZM414.495 791.136C411.487 795.168 406.559 797.664 400.543 797.664C389.407 797.664 382.815 789.664 382.815 780.256C382.815 770.592 388.959 762.848 399.199 762.848C408.095 762.848 413.855 768.928 413.855 777.12C413.855 778.592 413.663 780.064 413.407 781.024H389.599C390.047 788.064 394.335 791.712 400.543 791.712C404.447 791.712 407.711 789.984 409.695 787.296L414.495 791.136ZM399.071 768.352C394.271 768.352 390.943 771.104 389.919 776.096H407.263C407.135 772.064 404.255 768.352 399.071 768.352Z" fill="white"/>
<rect x="702.24" y="364.226" width="693.852" height="415.774" rx="64" fill="#A6F2FA"/>
<path d="M670 398C670 362.654 698.654 334 734 334H1299.85C1335.2 334 1363.85 362.654 1363.85 398V685.774C1363.85 721.12 1335.2 749.774 1299.85 749.774H734C698.654 749.774 670 721.12 670 685.774V398Z" fill="white"/>
<path fill-rule="evenodd" clip-rule="evenodd" d="M1299.85 342H734C703.072 342 678 367.072 678 398V685.774C678 716.702 703.072 741.774 734 741.774H1299.85C1330.78 741.774 1355.85 716.702 1355.85 685.774V398C1355.85 367.072 1330.78 342 1299.85 342ZM734 334C698.654 334 670 362.654 670 398V685.774C670 721.12 698.654 749.774 734 749.774H1299.85C1335.2 749.774 1363.85 721.12 1363.85 685.774V398C1363.85 362.654 1335.2 334 1299.85 334H734Z" fill="#006A6F"/>
<path fill-rule="evenodd" clip-rule="evenodd" d="M1294.25 380.441C1295.61 379.683 1297.34 380.167 1298.1 381.522C1302.69 389.662 1305.1 398.89 1305.1 408.279C1305.1 417.667 1302.69 426.895 1298.1 435.036C1297.34 436.391 1295.61 436.875 1294.25 436.116C1292.88 435.358 1292.39 433.645 1293.16 432.29C1297.27 424.995 1299.44 416.713 1299.44 408.279C1299.44 399.844 1297.27 391.563 1293.16 384.268C1292.39 382.913 1292.88 381.199 1294.25 380.441ZM1283.35 386.026C1284.71 385.267 1286.44 385.751 1287.2 387.106C1290.83 393.549 1292.74 400.851 1292.74 408.279C1292.74 415.707 1290.83 423.009 1287.2 429.451C1286.44 430.806 1284.71 431.29 1283.35 430.532C1281.98 429.774 1281.5 428.06 1282.26 426.705C1285.41 421.108 1287.08 414.753 1287.08 408.279C1287.08 401.805 1285.41 395.449 1282.26 389.852C1281.5 388.497 1281.98 386.784 1283.35 386.026ZM1272.95 391.147C1274.32 390.395 1276.04 390.886 1276.8 392.245C1279.49 397.065 1280.9 402.525 1280.9 408.076C1280.9 413.627 1279.49 419.086 1276.8 423.907C1276.04 425.265 1274.32 425.757 1272.95 425.004C1271.59 424.252 1271.09 422.541 1271.85 421.183C1274.07 417.205 1275.24 412.684 1275.24 408.076C1275.24 403.467 1274.07 398.947 1271.85 394.969C1271.09 393.61 1271.59 391.899 1272.95 391.147ZM1262.39 396.773C1263.71 395.935 1265.46 396.316 1266.31 397.624C1268.36 400.814 1269.46 404.506 1269.46 408.279C1269.46 412.051 1268.36 415.743 1266.31 418.933C1265.46 420.241 1263.71 420.622 1262.39 419.785C1261.08 418.947 1260.69 417.208 1261.54 415.901C1263.02 413.609 1263.79 410.968 1263.79 408.279C1263.79 405.589 1263.02 402.949 1261.54 400.657C1260.69 399.349 1261.08 397.61 1262.39 396.773Z" fill="#006A6F"/>
<path d="M716.24 469.401C716.24 464.569 720.184 460.653 725.048 460.653H799.913C804.777 460.653 808.72 464.569 808.72 469.401V517.798C808.72 522.629 804.777 526.546 799.913 526.546H725.048C720.184 526.546 716.24 522.629 716.24 517.798V469.401Z" fill="#C7F6FC"/>
<path d="M726.954 560.075L726.954 562.533L723.479 562.384L725.514 565.184L723.33 566.494L721.608 563.352L719.885 566.494L717.746 565.184L719.736 562.384L716.291 562.548L716.291 560.09L719.736 560.284L717.746 557.439L719.885 556.129L721.608 559.271L723.33 556.129L725.514 557.439L723.494 560.284L726.954 560.075Z" fill="#006A6F"/>
<path d="M744.894 560.06L744.894 562.518L741.419 562.369L743.454 565.169L741.271 566.479L739.548 563.337L737.825 566.479L735.687 565.169L737.677 562.369L734.231 562.533V560.075L737.677 560.269L735.687 557.425L737.825 556.114L739.548 559.256L741.271 556.114L743.454 557.425L741.434 560.269L744.894 560.06Z" fill="#006A6F"/>
<path d="M762.835 560.046L762.835 562.503L759.359 562.354L761.394 565.154L759.211 566.464L757.488 563.322L755.765 566.464L753.627 565.154L755.617 562.354L752.171 562.518L752.171 560.061L755.617 560.254L753.627 557.41L755.765 556.099L757.488 559.241L759.211 556.099L761.394 557.41L759.374 560.254L762.835 560.046Z" fill="#006A6F"/>
<path d="M780.775 560.031V562.488L777.3 562.339L779.334 565.139L777.151 566.449L775.428 563.307L773.706 566.449L771.567 565.139L773.557 562.339L770.112 562.503V560.046L773.557 560.239L771.567 557.395L773.706 556.084L775.428 559.227L777.151 556.084L779.334 557.395L777.315 560.239L780.775 560.031Z" fill="#006A6F"/>
<path d="M811.146 560.001L811.146 562.458L807.67 562.309L809.705 565.109L807.522 566.42L805.799 563.277L804.076 566.42L801.938 565.109L803.928 562.309L800.482 562.473V560.016L803.928 560.209L801.938 557.365L804.076 556.054L805.799 559.197L807.522 556.054L809.705 557.365L807.685 560.209L811.146 560.001Z" fill="#006A6F"/>
<path d="M829.086 560.001V562.458L825.611 562.309L827.645 565.109L825.462 566.42L823.739 563.277L822.017 566.42L819.878 565.109L821.868 562.309L818.423 562.473V560.016L821.868 560.209L819.878 557.365L822.017 556.054L823.739 559.197L825.462 556.054L827.645 557.365L825.625 560.209L829.086 560.001Z" fill="#006A6F"/>
<path d="M847.026 559.986L847.026 562.443L843.536 562.279L845.571 565.079L843.388 566.39L841.665 563.247L839.942 566.39L837.804 565.079L839.794 562.279L836.348 562.443L836.348 559.986L839.794 560.18L837.803 557.335L839.942 556.025L841.665 559.167L843.388 556.025L845.571 557.335L843.551 560.18L847.026 559.986Z" fill="#006A6F"/>
<path d="M864.966 559.971V562.428L861.476 562.279L863.511 565.079L861.328 566.39L859.605 563.247L857.882 566.39L855.744 565.079L857.734 562.279L854.288 562.443V559.986L857.734 560.18L855.744 557.335L857.882 556.025L859.605 559.167L861.328 556.025L863.511 557.32L861.491 560.165L864.966 559.971Z" fill="#006A6F"/>
<path d="M895.337 559.941V562.399L891.862 562.25L893.896 565.05L891.713 566.36L889.99 563.218L888.268 566.36L886.129 565.05L888.119 562.25L884.674 562.414V559.956L888.119 560.15L886.129 557.305L888.268 555.995L889.99 559.137L891.713 555.995L893.896 557.305L891.877 560.15L895.337 559.941Z" fill="#006A6F"/>
<path d="M913.262 559.941L913.262 562.399L909.787 562.25L911.822 565.05L909.639 566.36L907.916 563.218L906.193 566.36L904.055 565.05L906.045 562.25L902.599 562.414L902.599 559.956L906.045 560.15L904.055 557.305L906.193 555.995L907.916 559.137L909.639 555.995L911.822 557.291L909.802 560.135L913.262 559.941Z" fill="#006A6F"/>
<path d="M931.203 559.927L931.202 562.384L927.727 562.235L929.762 565.035L927.579 566.345L925.856 563.203L924.133 566.345L921.995 565.035L923.985 562.235L920.539 562.399L920.539 559.941L923.985 560.135L921.995 557.291L924.133 555.98L925.856 559.122L927.579 555.98L929.762 557.291L927.742 560.135L931.203 559.927Z" fill="#006A6F"/>
<path d="M949.143 559.912L949.143 562.369L945.668 562.22L947.702 565.02L945.519 566.33L943.796 563.188L942.074 566.33L939.935 565.02L941.925 562.22L938.48 562.384V559.926L941.925 560.12L939.935 557.276L942.074 555.965L943.796 559.107L945.519 555.965L947.702 557.276L945.682 560.12L949.143 559.912Z" fill="#006A6F"/>
<path d="M968.019 583.293V580.374L977.464 570.694C979.989 568.162 981.251 565.988 981.251 564.171C981.251 562.667 980.791 561.49 979.87 560.641C978.949 559.792 977.835 559.375 976.499 559.375C973.974 559.375 972.133 560.582 970.989 562.979L968.004 561.222C968.836 559.48 970.009 558.169 971.494 557.276C972.979 556.382 974.642 555.935 976.439 555.92C978.682 555.92 980.627 556.665 982.291 558.139C983.954 559.629 984.786 561.609 984.786 564.126C984.786 566.837 983.197 569.8 980.019 573.002L973.187 579.823L985.291 579.808L985.291 583.263L968.019 583.293Z" fill="#006A6F"/>
<path d="M1001.34 567.417C1003.39 567.805 1005.06 568.683 1006.36 570.068C1007.67 571.453 1008.32 573.196 1008.32 575.325C1008.32 577.932 1007.43 579.987 1005.65 581.506C1003.87 583.025 1001.7 583.769 999.147 583.769C997.112 583.769 995.3 583.308 993.711 582.369C992.137 581.431 991.008 580.091 990.34 578.319L993.325 576.547C994.112 579.034 996.058 580.27 999.147 580.27C1000.81 580.27 1002.16 579.838 1003.2 578.959C1004.24 578.095 1004.78 576.874 1004.76 575.31C1004.76 573.747 1004.24 572.526 1003.19 571.647C1002.15 570.768 1000.8 570.321 999.132 570.321H998.211L996.8 568.132L1002.99 559.733L991.097 559.748V556.412L1007.17 556.397L1007.15 559.524L1001.34 567.417Z" fill="#006A6F"/>
<path d="M1034.75 574.804V578.14L1031.49 578.14V583.248L1027.94 583.248V578.14L1014.3 578.155V574.819L1023.89 556.397L1027.72 556.397L1018.13 574.819H1027.96L1027.96 567.224H1031.51V574.819L1034.75 574.804Z" fill="#006A6F"/>
<path d="M1048.73 566.851C1051.26 566.851 1053.4 567.596 1055.15 569.085C1056.9 570.575 1057.78 572.645 1057.78 575.281C1057.78 577.887 1056.89 579.942 1055.11 581.461C1053.32 582.98 1051.16 583.725 1048.6 583.725C1046.57 583.725 1044.74 583.233 1043.14 582.25C1041.53 581.267 1040.4 579.838 1039.76 577.976L1042.78 576.249C1043.14 577.559 1043.83 578.542 1044.84 579.227C1045.87 579.912 1047.12 580.24 1048.59 580.24C1050.26 580.24 1051.63 579.808 1052.69 578.929C1053.72 578.065 1054.24 576.844 1054.24 575.281C1054.24 573.717 1053.72 572.496 1052.67 571.617C1051.62 570.738 1050.28 570.292 1048.65 570.292L1041.07 570.292L1042.02 556.367L1056.71 556.352V559.688L1045.27 559.703L1044.81 566.837L1048.73 566.851Z" fill="#006A6F"/>
<circle cx="1185.39" cy="651.032" r="47.7199" fill="#C7F6FC" stroke="white" stroke-width="8"/>
<circle cx="1253.23" cy="651.032" r="47.7199" fill="#C7F6FC" stroke="white" stroke-width="8"/>
<defs>
<clipPath id="clip0_78_116">
<rect width="128" height="128" fill="white" transform="translate(237.061 461)"/>
</clipPath>
</defs>
</svg>
