<svg width="1920" height="1080" viewBox="0 0 1920 1080" fill="none" xmlns="http://www.w3.org/2000/svg">
<path fill-rule="evenodd" clip-rule="evenodd" d="M1859.17 787.236C1854.02 787.236 1849.35 789.334 1845.97 792.72C1842.59 796.107 1840.5 800.783 1840.5 805.941C1840.5 811.098 1842.59 815.774 1845.97 819.162C1849.35 822.548 1854.02 824.646 1859.17 824.646C1864.31 824.646 1868.98 822.548 1872.36 819.162C1875.74 815.774 1877.83 811.098 1877.83 805.941C1877.83 800.783 1875.74 796.107 1872.36 792.72C1868.98 789.334 1864.31 787.236 1859.17 787.236ZM1859.17 788.798C1863.88 788.798 1868.16 790.72 1871.26 793.826C1874.36 796.93 1876.28 801.215 1876.28 805.941C1876.28 810.667 1874.36 814.952 1871.26 818.056C1868.16 821.162 1863.88 823.084 1859.17 823.084C1854.45 823.084 1850.17 821.162 1847.07 818.057C1843.97 814.953 1842.05 810.667 1842.05 805.941C1842.05 801.215 1843.97 796.929 1847.07 793.825C1850.17 790.72 1854.45 788.798 1859.17 788.798ZM384.061 917.129C383.694 917.129 383.328 917.27 383.044 917.555C382.762 917.837 382.621 918.207 382.621 918.576C382.621 918.948 382.763 919.319 383.046 919.603L399.251 935.833L383.046 952.068C382.763 952.351 382.621 952.722 382.621 953.092C382.621 953.463 382.763 953.834 383.046 954.117C383.326 954.398 383.694 954.54 384.062 954.54C384.43 954.54 384.798 954.398 385.078 954.117L401.289 937.875L417.497 954.117C417.777 954.398 418.145 954.54 418.514 954.54C418.882 954.54 419.25 954.398 419.53 954.117C419.813 953.834 419.955 953.463 419.955 953.092C419.955 952.722 419.813 952.351 419.53 952.068L403.327 935.833L419.53 919.603C419.813 919.319 419.954 918.948 419.954 918.576C419.954 918.207 419.814 917.837 419.527 917.551C419.248 917.27 418.881 917.129 418.515 917.129L401.289 933.786L385.079 917.553C384.797 917.271 384.429 917.129 384.061 917.129ZM1722.32 442.94C1721.95 442.94 1721.58 443.082 1721.3 443.363C1721.02 443.646 1720.88 444.016 1720.88 444.387C1720.88 444.759 1721.02 445.131 1721.3 445.413L1737.51 461.643L1721.3 477.878C1721.02 478.161 1720.88 478.532 1720.88 478.903C1720.88 479.274 1721.02 479.644 1721.3 479.928C1721.58 480.209 1721.95 480.351 1722.32 480.351C1722.69 480.351 1723.06 480.209 1723.34 479.928L1739.55 463.685L1755.75 479.928C1756.03 480.209 1756.4 480.351 1756.77 480.351C1757.14 480.351 1757.51 480.209 1757.79 479.928C1758.07 479.644 1758.21 479.274 1758.21 478.903C1758.21 478.532 1758.07 478.161 1757.79 477.878L1741.58 461.643L1757.79 445.415C1758.07 445.131 1758.21 444.759 1758.21 444.387C1758.21 444.016 1758.07 443.646 1757.79 443.363C1757.51 443.082 1757.14 442.94 1756.77 442.94L1739.55 459.602L1723.33 443.361C1723.05 443.081 1722.69 442.94 1722.32 442.94ZM297.289 308.328C292.142 308.328 287.477 310.426 284.097 313.811C280.716 317.198 278.621 321.875 278.621 327.031C278.621 332.19 280.715 336.867 284.097 340.254C287.477 343.64 292.142 345.738 297.289 345.738C302.435 345.738 307.1 343.64 310.479 340.254C313.86 336.866 315.955 332.189 315.955 327.031C315.955 321.875 313.86 317.199 310.479 313.811C307.1 310.426 302.435 308.328 297.289 308.328ZM297.289 309.89C302.008 309.89 306.288 311.811 309.388 314.917C312.485 318.02 314.403 322.306 314.403 327.031C314.403 331.757 312.485 336.043 309.387 339.148C306.288 342.254 302.008 344.176 297.289 344.176C292.571 344.176 288.29 342.254 285.19 339.148C282.091 336.043 280.172 331.757 280.172 327.031C280.172 322.306 282.091 318.021 285.189 314.917C288.29 311.811 292.57 309.89 297.289 309.89ZM799.217 17.6447C795.348 21.0503 793.225 25.7157 792.917 30.4971C792.609 35.2785 794.116 40.1776 797.516 44.0519C800.792 47.7875 805.319 50.0306 810.271 50.3669C816.04 50.3933 820.403 48.802 823.863 45.7517C827.61 42.4559 829.849 37.8944 830.172 32.9043C830.492 27.9183 828.856 23.1036 825.56 19.3483C822.163 15.4748 817.51 13.3476 812.74 13.0392C807.97 12.7308 803.083 14.2408 799.217 17.6447ZM811.53 14.5623C816.286 14.5623 821.02 16.5315 824.401 20.3825C827.418 23.8249 828.918 28.2349 828.62 32.8068C828.326 37.3737 826.273 41.5551 822.842 44.5762C819.403 47.6045 814.988 49.1201 810.431 48.8103C805.873 48.516 801.698 46.4562 798.681 43.0173C795.566 39.4681 794.182 34.9806 794.464 30.5992C794.745 26.2176 796.693 21.9437 800.236 18.8216C803.483 15.9668 807.516 14.5623 811.53 14.5623Z" fill="#B2D4D0"/>
<path fill-rule="evenodd" clip-rule="evenodd" d="M1410.28 91.1712C1545.17 147.961 1640.1 283.254 1663.08 424.393C1686.07 565.532 1636.1 712.517 1537.18 816.91C1438.25 921.302 1290.37 983.938 1138.48 1025.7C985.601 1068.29 828.721 1090 708.813 1045.74C588.905 1001.48 505.968 890.402 434.023 777.658C362.078 665.749 301.125 552.17 327.105 455.293C354.084 358.417 466.998 279.078 580.911 219.783C694.824 160.488 807.737 120.401 952.626 89.5009C1097.52 57.7655 1274.38 35.2167 1410.28 91.1712Z" fill="#B2D4D0"/>
<path d="M1443 798.92C1443 744.84 1486.84 701 1540.92 701H1549.08C1603.16 701 1647 744.84 1647 798.92V856.04C1647 883.08 1625.08 905 1598.04 905H1491.96C1464.92 905 1443 883.08 1443 856.04V798.92Z" fill="#EAF5F4"/>
<path d="M1603.66 765.692H1589.86L1602.1 753.451C1603.07 752.444 1603.61 751.096 1603.6 749.696C1603.58 748.296 1603.02 746.957 1602.03 745.967C1601.04 744.978 1599.7 744.416 1598.3 744.404C1596.9 744.392 1595.56 744.93 1594.55 745.902L1582.31 758.143V744.338C1582.31 742.923 1581.75 741.565 1580.74 740.564C1579.74 739.562 1578.39 739 1576.97 739C1575.55 739 1574.2 739.562 1573.2 740.564C1572.19 741.565 1571.63 742.923 1571.63 744.338V768.126C1567.26 763.474 1562.1 759.632 1556.4 756.777C1552.39 755.009 1547.91 754.599 1543.65 755.609C1539.39 756.619 1535.57 758.993 1532.78 762.371C1523.4 771.756 1497.24 819.721 1482.48 847.469C1481.18 849.994 1480.72 852.866 1481.16 855.67C1481.6 858.474 1482.92 861.067 1484.93 863.074C1486.93 865.081 1489.53 866.399 1492.33 866.839C1495.13 867.278 1498.01 866.815 1500.53 865.518C1528.29 850.763 1576.24 824.6 1585.63 815.215C1589.01 812.427 1591.38 808.613 1592.39 804.352C1593.4 800.091 1592.99 795.617 1591.23 791.609C1588.37 785.901 1584.53 780.741 1579.87 776.368H1603.66C1605.08 776.368 1606.44 775.806 1607.44 774.805C1608.44 773.804 1609 772.446 1609 771.03C1609 769.614 1608.44 768.256 1607.44 767.255C1606.44 766.254 1605.08 765.692 1603.66 765.692Z" fill="#B2D4D0"/>
<path d="M1603.66 765.692H1589.86L1602.1 753.451C1603.07 752.444 1603.61 751.096 1603.6 749.696C1603.58 748.296 1603.02 746.957 1602.03 745.967C1601.04 744.978 1599.7 744.416 1598.3 744.404C1596.9 744.392 1595.56 744.93 1594.55 745.902L1582.31 758.143V744.338C1582.31 742.923 1581.75 741.565 1580.74 740.564C1579.74 739.562 1578.39 739 1576.97 739C1575.55 739 1574.2 739.562 1573.2 740.564C1572.19 741.565 1571.63 742.923 1571.63 744.338V768.126C1567.26 763.474 1562.1 759.632 1556.4 756.777C1552.39 755.009 1547.91 754.599 1543.65 755.609C1539.39 756.619 1535.57 758.993 1532.78 762.371C1523.4 771.756 1497.24 819.721 1482.48 847.469C1481.18 849.994 1480.72 852.866 1481.16 855.67C1481.6 858.474 1482.92 861.067 1484.93 863.074C1486.93 865.081 1489.53 866.399 1492.33 866.838C1495.13 867.278 1498.01 866.815 1500.53 865.518C1528.29 850.763 1576.24 824.6 1585.63 815.215C1589.01 812.427 1591.38 808.613 1592.39 804.352C1593.4 800.091 1592.99 795.617 1591.23 791.609C1588.37 785.901 1584.53 780.741 1579.87 776.368H1603.66C1605.08 776.368 1606.44 775.806 1607.44 774.805C1608.44 773.804 1609 772.446 1609 771.03C1609 769.614 1608.44 768.256 1607.44 767.255C1606.44 766.254 1605.08 765.692 1603.66 765.692ZM1578.08 807.667C1574.26 810.932 1570.17 813.857 1565.84 816.406L1554.05 804.624C1553.05 803.652 1551.7 803.113 1550.3 803.126C1548.9 803.138 1547.56 803.699 1546.57 804.689C1545.58 805.679 1545.02 807.018 1545.01 808.417C1544.99 809.817 1545.53 811.166 1546.5 812.172L1556.49 822.15C1541.83 830.921 1520.78 842.66 1495.52 856.091C1495.01 856.358 1494.44 856.457 1493.87 856.372C1493.31 856.288 1492.78 856.024 1492.38 855.62C1491.98 855.216 1491.71 854.693 1491.63 854.129C1491.54 853.564 1491.64 852.987 1491.91 852.482C1500.03 837.209 1507.51 823.527 1514.12 811.815L1525.15 822.849C1526.16 823.821 1527.51 824.359 1528.91 824.347C1530.31 824.335 1531.64 823.774 1532.63 822.784C1533.62 821.794 1534.19 820.455 1534.2 819.056C1534.21 817.656 1533.67 816.307 1532.7 815.301L1519.59 802.19C1525.41 792.106 1530.3 784.039 1534.05 778.365L1546.5 790.819C1547.51 791.791 1548.86 792.33 1550.26 792.317C1551.66 792.305 1553 791.744 1553.99 790.754C1554.98 789.764 1555.54 788.425 1555.55 787.026C1555.56 785.626 1555.03 784.278 1554.05 783.271L1540.53 769.749C1545.05 765.537 1547.82 764.827 1552.18 766.588C1558.24 770.043 1563.67 774.494 1568.24 779.753C1573.5 784.329 1577.96 789.76 1581.41 795.816C1582.74 798.912 1583.26 802.494 1578.08 807.667Z" fill="#158A7B"/>
<rect x="1275" y="889" width="540" height="121" rx="60.5" fill="#158A7B"/>
<path d="M1361.27 970.96C1354.87 970.96 1350.52 967.312 1350.52 961.616C1350.52 956.752 1354.3 953.232 1361.14 952.08L1371.58 950.352L1371.58 948.688C1371.58 944.72 1368.63 942.288 1364.47 942.288C1360.95 942.288 1358.2 943.888 1356.34 946.512L1351.42 942.736C1354.3 938.896 1358.9 936.464 1364.66 936.464C1373.37 936.464 1378.17 941.584 1378.17 948.688L1378.17 970L1371.58 970L1371.58 966.352C1369.27 969.168 1365.24 970.96 1361.27 970.96ZM1357.18 961.36C1357.18 963.856 1359.16 965.584 1362.49 965.584C1366.52 965.584 1369.66 963.664 1371.58 960.592L1371.58 955.024L1362.87 956.496C1358.84 957.2 1357.18 958.928 1357.18 961.36ZM1388.5 970L1388.5 922L1395.09 922L1395.09 970L1388.5 970ZM1409.2 930.576C1406.77 930.576 1404.72 928.528 1404.72 926.096C1404.72 923.664 1406.77 921.616 1409.2 921.616C1411.64 921.616 1413.68 923.664 1413.68 926.096C1413.68 928.528 1411.64 930.576 1409.2 930.576ZM1405.88 970L1405.88 937.744L1412.47 937.744L1412.47 970L1405.88 970ZM1423.25 970L1423.25 937.744L1429.84 937.744L1429.84 940.752C1432.15 938.256 1435.16 936.464 1439.44 936.464C1443.86 936.464 1447.57 938.448 1449.62 942.288C1452.12 939.088 1455.32 936.464 1460.88 936.464C1467.6 936.464 1472.79 941.072 1472.79 949.968L1472.79 970L1466.13 970L1466.13 950.224C1466.13 945.488 1463.51 942.672 1459.35 942.672C1455.51 942.672 1453.01 945.104 1451.28 948.176C1451.35 948.752 1451.35 949.328 1451.35 949.968L1451.35 970L1444.69 970L1444.69 950.224C1444.69 945.488 1442.13 942.672 1437.91 942.672C1433.81 942.672 1431.38 945.488 1429.84 948.24L1429.84 970L1423.25 970ZM1512.12 964.752C1509.11 968.784 1504.19 971.28 1498.17 971.28C1487.03 971.28 1480.44 963.28 1480.44 953.872C1480.44 944.208 1486.59 936.464 1496.83 936.464C1505.72 936.464 1511.48 942.544 1511.48 950.736C1511.48 952.208 1511.29 953.68 1511.03 954.64L1487.23 954.64C1487.67 961.68 1491.96 965.328 1498.17 965.328C1502.07 965.328 1505.34 963.6 1507.32 960.912L1512.12 964.752ZM1496.7 941.968C1491.9 941.968 1488.57 944.72 1487.55 949.712L1504.89 949.712C1504.76 945.68 1501.88 941.968 1496.7 941.968ZM1520.13 970L1520.13 937.744L1526.72 937.744L1526.72 940.88C1529.15 938.32 1532.35 936.464 1536.96 936.464C1544.06 936.464 1549.5 941.264 1549.5 950.608L1549.5 970L1542.85 970L1542.85 950.864C1542.85 945.744 1540.03 942.672 1535.42 942.672C1531.01 942.672 1528.38 945.424 1526.72 948.24L1526.72 970L1520.13 970ZM1561.67 958.8L1561.67 943.696L1555.59 943.696L1555.59 937.744L1561.67 937.744L1561.67 929.68L1568.33 929.68L1568.33 937.744L1579.02 937.744L1579.02 943.696L1568.33 943.696L1568.33 958.8C1568.33 963.152 1570.63 964.56 1574.22 964.56C1576.39 964.56 1577.86 964.304 1579.02 963.856L1579.02 969.68C1577.48 970.32 1575.69 970.64 1573.19 970.64C1565.64 970.64 1561.67 966.672 1561.67 958.8ZM1595.77 970.96C1589.37 970.96 1585.02 967.312 1585.02 961.616C1585.02 956.752 1588.8 953.232 1595.64 952.08L1606.08 950.352L1606.08 948.688C1606.08 944.72 1603.13 942.288 1598.97 942.288C1595.45 942.288 1592.7 943.888 1590.84 946.512L1585.92 942.736C1588.8 938.896 1593.4 936.464 1599.16 936.464C1607.87 936.464 1612.67 941.584 1612.67 948.688L1612.67 970L1606.08 970L1606.08 966.352C1603.77 969.168 1599.74 970.96 1595.77 970.96ZM1591.68 961.36C1591.68 963.856 1593.66 965.584 1596.99 965.584C1601.02 965.584 1604.16 963.664 1606.08 960.592L1606.08 955.024L1597.37 956.496C1593.34 957.2 1591.68 958.928 1591.68 961.36ZM1624.92 958.8L1624.92 943.696L1618.84 943.696L1618.84 937.744L1624.92 937.744L1624.92 929.68L1631.58 929.68L1631.58 937.744L1642.27 937.744L1642.27 943.696L1631.58 943.696L1631.58 958.8C1631.58 963.152 1633.88 964.56 1637.47 964.56C1639.64 964.56 1641.11 964.304 1642.27 963.856L1642.27 969.68C1640.73 970.32 1638.94 970.64 1636.44 970.64C1628.89 970.64 1624.92 966.672 1624.92 958.8ZM1653.45 930.576C1651.02 930.576 1648.97 928.528 1648.97 926.096C1648.97 923.664 1651.02 921.616 1653.45 921.616C1655.89 921.616 1657.93 923.664 1657.93 926.096C1657.93 928.528 1655.89 930.576 1653.45 930.576ZM1650.13 970L1650.13 937.744L1656.72 937.744L1656.72 970L1650.13 970ZM1682.48 936.464C1692.97 936.464 1700.01 944.336 1700.01 953.872C1700.01 963.408 1692.97 971.28 1682.48 971.28C1672.05 971.28 1664.94 963.408 1664.94 953.872C1664.94 944.336 1672.05 936.464 1682.48 936.464ZM1682.54 965.072C1688.62 965.072 1693.1 960.016 1693.1 953.872C1693.1 947.6 1688.62 942.672 1682.54 942.672C1676.33 942.672 1671.85 947.664 1671.85 953.872C1671.85 960.08 1676.33 965.072 1682.54 965.072ZM1708.25 970L1708.25 937.744L1714.84 937.744L1714.84 940.88C1717.28 938.32 1720.48 936.464 1725.08 936.464C1732.19 936.464 1737.63 941.264 1737.63 950.608L1737.63 970L1730.97 970L1730.97 950.864C1730.97 945.744 1728.16 942.672 1723.55 942.672C1719.13 942.672 1716.51 945.424 1714.84 948.24L1714.84 970L1708.25 970Z" fill="white"/>
<path d="M1443.5 97.92C1443.5 43.8403 1487.34 0 1541.42 0H1549.58C1603.66 0 1647.5 43.8403 1647.5 97.92V155.04C1647.5 182.08 1625.58 204 1598.54 204H1492.46C1465.42 204 1443.5 182.08 1443.5 155.04V97.92Z" fill="#EAF5F4"/>
<path d="M1572.5 80.4747V75.3333C1572.49 72.0359 1571.45 68.8233 1569.54 66.1349C1567.64 63.4466 1564.94 61.4138 1561.83 60.3147V48.6667H1583.17C1584.58 48.6667 1585.94 48.1048 1586.94 47.1046C1587.94 46.1044 1588.5 44.7478 1588.5 43.3333C1588.5 41.9188 1587.94 40.5623 1586.94 39.5621C1585.94 38.5619 1584.58 38 1583.17 38H1545.83C1541.59 38 1537.52 39.6857 1534.52 42.6863C1531.52 45.6869 1529.83 49.7565 1529.83 54V60.3147C1526.72 61.4138 1524.03 63.4466 1522.12 66.1349C1520.21 68.8233 1519.18 72.0359 1519.17 75.3333V80.4747C1511.16 84.4089 1504.41 90.5109 1499.7 98.0872C1494.99 105.663 1492.49 114.41 1492.5 123.333V134C1492.51 142.484 1495.88 150.619 1501.88 156.618C1507.88 162.617 1516.02 165.992 1524.5 166H1567.17C1575.65 165.992 1583.79 162.617 1589.78 156.618C1595.78 150.619 1599.16 142.484 1599.17 134V123.333C1599.18 114.41 1596.68 105.663 1591.97 98.0872C1587.25 90.5109 1580.51 84.4089 1572.5 80.4747Z" fill="#B2D4D0"/>
<path d="M1572.5 80.4747V75.3333C1572.49 72.0359 1571.45 68.8233 1569.54 66.1349C1567.64 63.4466 1564.94 61.4138 1561.83 60.3147V48.6667H1583.17C1584.58 48.6667 1585.94 48.1048 1586.94 47.1046C1587.94 46.1044 1588.5 44.7478 1588.5 43.3333C1588.5 41.9188 1587.94 40.5623 1586.94 39.5621C1585.94 38.5619 1584.58 38 1583.17 38H1545.83C1541.59 38 1537.52 39.6857 1534.52 42.6863C1531.52 45.6869 1529.83 49.7565 1529.83 54V60.3147C1526.72 61.4138 1524.03 63.4466 1522.12 66.1349C1520.21 68.8233 1519.18 72.0359 1519.17 75.3333V80.4747C1511.16 84.4089 1504.41 90.5109 1499.7 98.0872C1494.99 105.663 1492.49 114.41 1492.5 123.333V134C1492.51 142.484 1495.88 150.619 1501.88 156.618C1507.88 162.617 1516.02 165.992 1524.5 166H1567.17C1575.65 165.992 1583.79 162.617 1589.78 156.618C1595.78 150.619 1599.16 142.484 1599.17 134V123.333C1599.18 114.41 1596.68 105.663 1591.97 98.0872C1587.25 90.5109 1580.51 84.4089 1572.5 80.4747ZM1540.5 54C1540.5 52.5855 1541.06 51.229 1542.06 50.2288C1543.06 49.2286 1544.42 48.6667 1545.83 48.6667H1551.17V59.3333H1540.5V54ZM1529.83 75.3333C1529.83 73.9188 1530.4 72.5623 1531.4 71.5621C1532.4 70.5619 1533.75 70 1535.17 70H1556.5C1557.91 70 1559.27 70.5619 1560.27 71.5621C1561.27 72.5623 1561.83 73.9188 1561.83 75.3333V80.6667H1529.83V75.3333ZM1588.5 134C1588.5 139.658 1586.25 145.084 1582.25 149.085C1578.25 153.086 1572.82 155.333 1567.17 155.333H1524.5C1518.84 155.333 1513.42 153.086 1509.42 149.085C1505.41 145.084 1503.17 139.658 1503.17 134V123.333C1503.15 116.888 1504.81 110.548 1507.98 104.938C1511.16 99.3278 1515.73 94.6394 1521.27 91.3333H1570.4C1575.93 94.6394 1580.51 99.3278 1583.68 104.938C1586.86 110.548 1588.52 116.888 1588.5 123.333V134ZM1561.83 112.667H1529.83C1525.59 112.667 1521.52 114.352 1518.52 117.353C1515.52 120.354 1513.83 124.423 1513.83 128.667C1513.83 132.91 1515.52 136.98 1518.52 139.98C1521.52 142.981 1525.59 144.667 1529.83 144.667H1561.83C1566.08 144.667 1570.15 142.981 1573.15 139.98C1576.15 136.98 1577.83 132.91 1577.83 128.667C1577.83 124.423 1576.15 120.354 1573.15 117.353C1570.15 114.352 1566.08 112.667 1561.83 112.667ZM1561.83 134H1529.83C1528.42 134 1527.06 133.438 1526.06 132.438C1525.06 131.438 1524.5 130.081 1524.5 128.667C1524.5 127.252 1525.06 125.896 1526.06 124.895C1527.06 123.895 1528.42 123.333 1529.83 123.333H1561.83C1563.25 123.333 1564.6 123.895 1565.6 124.895C1566.6 125.896 1567.17 127.252 1567.17 128.667C1567.17 130.081 1566.6 131.438 1565.6 132.438C1564.6 133.438 1563.25 134 1561.83 134Z" fill="#158A7B"/>
<rect x="1330" y="188" width="431" height="121" rx="60.5" fill="#158A7B"/>
<path d="M1436.5 263.752C1433.49 267.784 1428.56 270.28 1422.54 270.28C1411.41 270.28 1404.82 262.28 1404.82 252.872C1404.82 243.208 1410.96 235.464 1421.2 235.464C1430.1 235.464 1435.86 241.544 1435.86 249.736C1435.86 251.208 1435.66 252.68 1435.41 253.64L1411.6 253.64C1412.05 260.68 1416.34 264.328 1422.54 264.328C1426.45 264.328 1429.71 262.6 1431.7 259.912L1436.5 263.752ZM1421.07 240.968C1416.27 240.968 1412.94 243.72 1411.92 248.712L1429.26 248.712C1429.14 244.68 1426.26 240.968 1421.07 240.968ZM1444.5 269L1444.5 236.744L1451.09 236.744L1451.09 239.88C1453.53 237.32 1456.73 235.464 1461.33 235.464C1468.44 235.464 1473.88 240.264 1473.88 249.608L1473.88 269L1467.22 269L1467.22 249.864C1467.22 244.744 1464.41 241.672 1459.8 241.672C1455.38 241.672 1452.76 244.424 1451.09 247.24L1451.09 269L1444.5 269ZM1486.05 257.8L1486.05 242.696L1479.97 242.696L1479.97 236.744L1486.05 236.744L1486.05 228.68L1492.7 228.68L1492.7 236.744L1503.39 236.744L1503.39 242.696L1492.7 242.696L1492.7 257.8C1492.7 262.152 1495.01 263.56 1498.59 263.56C1500.77 263.56 1502.24 263.304 1503.39 262.856L1503.39 268.68C1501.85 269.32 1500.06 269.64 1497.57 269.64C1490.01 269.64 1486.05 265.672 1486.05 257.8ZM1511.25 269L1511.25 236.744L1517.84 236.744L1517.84 240.392C1520.08 237.896 1522.9 236.104 1526.87 236.104C1527.89 236.104 1528.85 236.296 1529.68 236.552L1529.68 243.016C1528.66 242.76 1527.64 242.568 1526.29 242.568C1522.2 242.568 1519.51 244.744 1517.84 247.496L1517.84 269L1511.25 269ZM1564.37 263.752C1561.36 267.784 1556.44 270.28 1550.42 270.28C1539.28 270.28 1532.69 262.28 1532.69 252.872C1532.69 243.208 1538.84 235.464 1549.08 235.464C1557.97 235.464 1563.73 241.544 1563.73 249.736C1563.73 251.208 1563.54 252.68 1563.28 253.64L1539.48 253.64C1539.92 260.68 1544.21 264.328 1550.42 264.328C1554.32 264.328 1557.59 262.6 1559.57 259.912L1564.37 263.752ZM1548.95 240.968C1544.15 240.968 1540.82 243.72 1539.8 248.712L1557.14 248.712C1557.01 244.68 1554.13 240.968 1548.95 240.968ZM1574.17 257.8L1574.17 242.696L1568.09 242.696L1568.09 236.744L1574.17 236.744L1574.17 228.68L1580.83 228.68L1580.83 236.744L1591.52 236.744L1591.52 242.696L1580.83 242.696L1580.83 257.8C1580.83 262.152 1583.13 263.56 1586.72 263.56C1588.89 263.56 1590.36 263.304 1591.52 262.856L1591.52 268.68C1589.98 269.32 1588.19 269.64 1585.69 269.64C1578.14 269.64 1574.17 265.672 1574.17 257.8ZM1602.7 229.576C1600.27 229.576 1598.22 227.528 1598.22 225.096C1598.22 222.664 1600.27 220.616 1602.7 220.616C1605.14 220.616 1607.18 222.664 1607.18 225.096C1607.18 227.528 1605.14 229.576 1602.7 229.576ZM1599.38 269L1599.38 236.744L1605.97 236.744L1605.97 269L1599.38 269ZM1645.87 263.752C1642.86 267.784 1637.94 270.28 1631.92 270.28C1620.78 270.28 1614.19 262.28 1614.19 252.872C1614.19 243.208 1620.34 235.464 1630.58 235.464C1639.47 235.464 1645.23 241.544 1645.23 249.736C1645.23 251.208 1645.04 252.68 1644.78 253.64L1620.98 253.64C1621.42 260.68 1625.71 264.328 1631.92 264.328C1635.82 264.328 1639.09 262.6 1641.07 259.912L1645.87 263.752ZM1630.45 240.968C1625.65 240.968 1622.32 243.72 1621.3 248.712L1638.64 248.712C1638.51 244.68 1635.63 240.968 1630.45 240.968ZM1653.88 269L1653.88 236.744L1660.47 236.744L1660.47 239.88C1662.9 237.32 1666.1 235.464 1670.71 235.464C1677.81 235.464 1683.25 240.264 1683.25 249.608L1683.25 269L1676.6 269L1676.6 249.864C1676.6 244.744 1673.78 241.672 1669.17 241.672C1664.76 241.672 1662.13 244.424 1660.47 247.24L1660.47 269L1653.88 269Z" fill="white"/>
<path d="M177.5 531.92C177.5 477.84 221.34 434 275.42 434H283.58C337.66 434 381.5 477.84 381.5 531.92V589.04C381.5 616.08 359.58 638 332.54 638H226.46C199.42 638 177.5 616.08 177.5 589.04V531.92Z" fill="#EAF5F4"/>
<g clip-path="url(#clip0_78_116)">
<path d="M306.167 542.315V525.334C306.167 523.92 305.606 522.563 304.605 521.563C303.605 520.563 302.249 520.001 300.834 520.001V484.875C300.834 482.682 300.274 480.525 299.205 478.609C298.137 476.693 296.597 475.082 294.73 473.929C292.864 472.777 290.734 472.12 288.543 472.023C286.351 471.925 284.172 472.389 282.21 473.371L268.226 480.358C265.198 481.864 262.651 484.187 260.874 487.064C259.096 489.942 258.159 493.259 258.167 496.641V520.001C256.753 520.001 255.396 520.563 254.396 521.563C253.396 522.563 252.834 523.92 252.834 525.334V542.315C249.725 543.414 247.032 545.447 245.123 548.136C243.213 550.824 242.181 554.037 242.167 557.334V573.334C242.176 580.404 244.988 587.182 249.987 592.181C254.986 597.18 261.764 599.992 268.834 600.001H290.167C297.237 599.992 304.015 597.18 309.014 592.181C314.013 587.182 316.826 580.404 316.834 573.334V557.334C316.82 554.037 315.788 550.824 313.879 548.136C311.97 545.447 309.276 543.414 306.167 542.315Z" fill="#B2D4D0"/>
<path d="M306.167 542.315V525.334C306.167 523.92 305.606 522.563 304.605 521.563C303.605 520.563 302.249 520.001 300.834 520.001V484.875C300.834 482.682 300.274 480.525 299.205 478.609C298.137 476.693 296.597 475.082 294.73 473.929C292.864 472.777 290.734 472.12 288.543 472.023C286.351 471.925 284.172 472.389 282.21 473.371L268.226 480.358C265.198 481.864 262.651 484.187 260.874 487.064C259.096 489.942 258.159 493.259 258.167 496.641V520.001C256.753 520.001 255.396 520.563 254.396 521.563C253.396 522.563 252.834 523.92 252.834 525.334V542.315C249.725 543.414 247.032 545.447 245.123 548.136C243.213 550.824 242.181 554.037 242.167 557.334V573.334C242.176 580.404 244.988 587.182 249.987 592.181C254.986 597.18 261.764 599.992 268.834 600.001H290.167C297.237 599.992 304.015 597.18 309.014 592.181C314.013 587.182 316.826 580.404 316.834 573.334V557.334C316.82 554.037 315.788 550.824 313.879 548.136C311.97 545.447 309.276 543.414 306.167 542.315ZM263.501 541.334V530.667H295.501V541.334H263.501ZM268.834 496.641C268.83 495.24 269.218 493.867 269.954 492.675C270.691 491.484 271.745 490.522 272.999 489.899L286.967 482.913C287.303 482.739 287.677 482.655 288.055 482.669C288.432 482.682 288.8 482.793 289.122 482.991C289.444 483.188 289.709 483.465 289.892 483.796C290.075 484.126 290.17 484.498 290.167 484.875V520.001H268.834V496.641ZM306.167 573.334C306.167 577.577 304.482 581.647 301.481 584.648C298.481 587.648 294.411 589.334 290.167 589.334H268.834C264.591 589.334 260.521 587.648 257.52 584.648C254.52 581.647 252.834 577.577 252.834 573.334V557.334C252.834 555.92 253.396 554.563 254.396 553.563C255.396 552.563 256.753 552.001 258.167 552.001H300.834C302.249 552.001 303.605 552.563 304.605 553.563C305.606 554.563 306.167 555.92 306.167 557.334V573.334Z" fill="#158A7B"/>
</g>
<rect x="66" y="622" width="427" height="210" rx="80" fill="#158A7B"/>
<path d="M143.376 703L143.376 655L149.968 655L149.968 673.88C152.4 671.32 155.6 669.464 160.208 669.464C167.376 669.464 172.752 674.264 172.752 683.608L172.752 703L166.096 703L166.096 683.864C166.096 678.744 163.28 675.672 158.672 675.672C154.256 675.672 151.696 678.424 149.968 681.24L149.968 703L143.376 703ZM195.489 710.616C193.249 715.992 189.537 719 183.777 719C181.473 719 179.809 718.616 178.337 717.976L178.337 712.088C179.489 712.6 180.961 712.92 182.433 712.92C185.697 712.92 188.001 711.768 189.537 708.12L191.713 702.936L177.953 670.744L185.249 670.744L195.233 694.488L205.089 670.744L212.129 670.744L195.489 710.616ZM213.42 708.76C213.42 705.496 215.02 702.936 218.028 700.696C216.62 699.48 215.916 697.752 215.916 696.088C215.916 693.528 217.132 691.48 219.628 689.752C216.812 687.64 215.212 684.376 215.212 680.792C215.212 674.584 220.012 669.464 227.884 669.464C230.316 669.464 232.428 669.912 234.22 670.744L246.124 670.744L246.124 676.376L239.788 676.376C240.364 677.72 240.684 679.256 240.684 680.792C240.684 687.064 235.884 692.248 227.884 692.248C226.476 692.248 225.196 692.056 223.98 691.8C222.956 692.632 222.38 693.592 222.38 694.552C222.38 695.896 223.084 696.664 224.812 696.664L233.58 696.664C241.9 696.664 246.06 700.952 246.06 706.776C246.06 713.752 239.276 719 229.484 719C219.564 719 213.42 715.352 213.42 708.76ZM227.948 687.192C232.108 687.192 234.54 684.44 234.54 680.792C234.54 677.208 232.108 674.52 227.948 674.52C223.788 674.52 221.356 677.208 221.356 680.792C221.356 684.44 223.788 687.192 227.948 687.192ZM219.692 707.864C219.692 711.448 223.276 713.624 229.356 713.624C235.756 713.624 239.468 711.128 239.468 707.352C239.468 704.6 237.868 702.424 232.94 702.424L222.7 702.424C220.908 703.832 219.692 705.56 219.692 707.864ZM255.579 663.576C253.147 663.576 251.099 661.528 251.099 659.096C251.099 656.664 253.147 654.616 255.579 654.616C258.011 654.616 260.059 656.664 260.059 659.096C260.059 661.528 258.011 663.576 255.579 663.576ZM252.251 703L252.251 670.744L258.843 670.744L258.843 703L252.251 703ZM280.186 665.624L272.634 655L279.93 655L286.586 665.624L280.186 665.624ZM298.746 697.752C295.738 701.784 290.81 704.28 284.794 704.28C273.658 704.28 267.066 696.28 267.066 686.872C267.066 677.208 273.21 669.464 283.45 669.464C292.346 669.464 298.106 675.544 298.106 683.736C298.106 685.208 297.914 686.68 297.658 687.64L273.85 687.64C274.298 694.68 278.586 698.328 284.794 698.328C288.698 698.328 291.962 696.6 293.946 693.912L298.746 697.752ZM283.322 674.968C278.522 674.968 275.194 677.72 274.17 682.712L291.514 682.712C291.386 678.68 288.506 674.968 283.322 674.968ZM306.751 703L306.751 670.744L313.343 670.744L313.343 673.88C315.775 671.32 318.975 669.464 323.583 669.464C330.687 669.464 336.127 674.264 336.127 683.608L336.127 703L329.471 703L329.471 683.864C329.471 678.744 326.655 675.672 322.047 675.672C317.631 675.672 315.007 678.424 313.343 681.24L313.343 703L306.751 703ZM375.496 697.752C372.488 701.784 367.56 704.28 361.544 704.28C350.408 704.28 343.816 696.28 343.816 686.872C343.816 677.208 349.96 669.464 360.2 669.464C369.096 669.464 374.856 675.544 374.856 683.736C374.856 685.208 374.664 686.68 374.408 687.64L350.6 687.64C351.048 694.68 355.336 698.328 361.544 698.328C365.448 698.328 368.712 696.6 370.696 693.912L375.496 697.752ZM360.072 674.968C355.272 674.968 351.944 677.72 350.92 682.712L368.264 682.712C368.136 678.68 365.256 674.968 360.072 674.968ZM184.144 792L175.568 792L171.472 788.096C167.888 791.36 163.344 793.28 157.584 793.28C148.304 793.28 141.648 787.904 141.648 779.072C141.648 773.12 145.36 768.96 150.032 766.912C147.472 763.776 146.128 760.896 146.128 757.184C146.128 750.72 151.056 745.92 158.544 745.92C165.456 745.92 170.576 750.272 170.576 756.992C170.576 763.072 166.416 766.784 160.912 768.704L170.832 778.624C172.56 775.68 173.904 772.096 174.864 768L181.648 768C180.176 773.888 178.192 779.136 175.504 783.296L184.144 792ZM152.912 757.568C152.912 760.96 154.768 762.688 157.008 764.8C162.128 763.328 164.304 760.96 164.304 757.248C164.304 754.368 162.192 751.872 158.736 751.872C155.024 751.872 152.912 754.304 152.912 757.568ZM148.56 779.072C148.56 784.256 152.72 787.264 157.968 787.264C161.296 787.264 164.304 785.984 166.864 783.616L154.448 771.584C154.32 771.456 154.128 771.264 154 771.136C150.672 772.608 148.56 775.36 148.56 779.072ZM242.109 775.872C242.109 785.28 235.773 793.28 225.661 793.28C220.989 793.28 217.533 791.616 214.781 788.672L214.781 792L208.189 792L208.189 744L214.781 744L214.781 763.072C217.533 760.128 220.989 758.464 225.661 758.464C235.773 758.464 242.109 766.464 242.109 775.872ZM224.829 764.672C220.605 764.672 217.021 766.656 214.781 770.112L214.781 781.632C217.149 785.152 220.669 787.072 224.829 787.072C231.037 787.072 235.197 782.208 235.197 775.872C235.197 769.536 231.037 764.672 224.829 764.672ZM279.496 786.752C276.488 790.784 271.56 793.28 265.544 793.28C254.408 793.28 247.816 785.28 247.816 775.872C247.816 766.208 253.96 758.464 264.2 758.464C273.096 758.464 278.856 764.544 278.856 772.736C278.856 774.208 278.664 775.68 278.408 776.64L254.6 776.64C255.048 783.68 259.336 787.328 265.544 787.328C269.448 787.328 272.712 785.6 274.696 782.912L279.496 786.752ZM264.072 763.968C259.272 763.968 255.944 766.72 254.92 771.712L272.264 771.712C272.136 767.68 269.256 763.968 264.072 763.968ZM296.022 792.96C289.622 792.96 285.27 789.312 285.27 783.616C285.27 778.752 289.046 775.232 295.894 774.08L306.326 772.352L306.326 770.688C306.326 766.72 303.382 764.288 299.222 764.288C295.702 764.288 292.95 765.888 291.094 768.512L286.166 764.736C289.046 760.896 293.654 758.464 299.414 758.464C308.118 758.464 312.918 763.584 312.918 770.688L312.918 792L306.326 792L306.326 788.352C304.022 791.168 299.99 792.96 296.022 792.96ZM291.926 783.36C291.926 785.856 293.91 787.584 297.238 787.584C301.27 787.584 304.406 785.664 306.326 782.592L306.326 777.024L297.622 778.496C293.59 779.2 291.926 780.928 291.926 783.36ZM345.139 778.176L345.139 759.744L351.795 759.744L351.795 777.856C351.795 787.52 346.227 793.28 337.203 793.28C328.115 793.28 322.547 787.52 322.547 777.856L322.547 759.744L329.203 759.744L329.203 778.176C329.203 783.744 332.147 787.072 337.203 787.072C342.131 787.072 345.139 783.744 345.139 778.176ZM364.109 780.8L364.109 765.696L358.029 765.696L358.029 759.744L364.109 759.744L364.109 751.68L370.765 751.68L370.765 759.744L381.453 759.744L381.453 765.696L370.765 765.696L370.765 780.8C370.765 785.152 373.069 786.56 376.653 786.56C378.829 786.56 380.301 786.304 381.453 785.856L381.453 791.68C379.917 792.32 378.125 792.64 375.629 792.64C368.077 792.64 364.109 788.672 364.109 780.8ZM406.097 754.624L399.697 754.624L406.353 744L413.649 744L406.097 754.624ZM417.809 786.752C414.801 790.784 409.873 793.28 403.857 793.28C392.721 793.28 386.129 785.28 386.129 775.872C386.129 766.208 392.273 758.464 402.513 758.464C411.409 758.464 417.169 764.544 417.169 772.736C417.169 774.208 416.977 775.68 416.721 776.64L392.913 776.64C393.361 783.68 397.649 787.328 403.857 787.328C407.761 787.328 411.025 785.6 413.009 782.912L417.809 786.752ZM402.385 763.968C397.585 763.968 394.257 766.72 393.233 771.712L410.577 771.712C410.449 767.68 407.569 763.968 402.385 763.968Z" fill="white"/>
<rect x="678.241" y="362.227" width="693.852" height="415.774" rx="64" fill="#71C6BB"/>
<rect x="650" y="336" width="685.852" height="407.774" rx="60" fill="white" stroke="#158A7B" stroke-width="8"/>
<path fill-rule="evenodd" clip-rule="evenodd" d="M1270.25 378.441C1271.61 377.682 1273.34 378.166 1274.1 379.521C1278.69 387.662 1281.1 396.89 1281.1 406.278C1281.1 415.667 1278.69 424.895 1274.1 433.035C1273.34 434.39 1271.61 434.874 1270.25 434.116C1268.88 433.358 1268.4 431.644 1269.16 430.289C1273.27 422.994 1275.44 414.713 1275.44 406.278C1275.44 397.844 1273.27 389.562 1269.16 382.267C1268.4 380.912 1268.88 379.199 1270.25 378.441ZM1259.35 384.025C1260.71 383.267 1262.44 383.751 1263.2 385.106C1266.83 391.548 1268.74 398.85 1268.74 406.278C1268.74 413.706 1266.83 421.008 1263.2 427.451C1262.44 428.806 1260.71 429.29 1259.35 428.531C1257.98 427.773 1257.5 426.06 1258.26 424.705C1261.41 419.108 1263.08 412.752 1263.08 406.278C1263.08 399.804 1261.41 393.449 1258.26 387.852C1257.5 386.497 1257.98 384.783 1259.35 384.025ZM1248.95 389.146C1250.32 388.394 1252.05 388.886 1252.8 390.244C1255.49 395.065 1256.9 400.524 1256.9 406.075C1256.9 411.626 1255.49 417.086 1252.8 421.906C1252.05 423.265 1250.32 423.756 1248.95 423.004C1247.59 422.252 1247.09 420.541 1247.85 419.182C1250.07 415.204 1251.24 410.683 1251.24 406.075C1251.24 401.467 1250.07 396.946 1247.85 392.968C1247.09 391.61 1247.59 389.899 1248.95 389.146ZM1238.39 394.772C1239.71 393.935 1241.46 394.316 1242.31 395.624C1244.36 398.814 1245.46 402.506 1245.46 406.278C1245.46 410.051 1244.36 413.743 1242.31 416.933C1241.46 418.241 1239.71 418.622 1238.39 417.784C1237.08 416.947 1236.69 415.208 1237.54 413.9C1239.02 411.608 1239.8 408.968 1239.8 406.278C1239.8 403.589 1239.02 400.948 1237.54 398.656C1236.69 397.349 1237.08 395.61 1238.39 394.772Z" fill="#158A7B"/>
<path d="M692.24 467.4C692.24 462.569 696.183 458.652 701.048 458.652H775.912C780.777 458.652 784.72 462.569 784.72 467.4V515.798C784.72 520.629 780.777 524.545 775.912 524.545H701.048C696.183 524.545 692.24 520.629 692.24 515.798V467.4Z" fill="#B2D4D0"/>
<path d="M702.954 558.075L702.954 560.532L699.479 560.384L701.513 563.183L699.33 564.494L697.607 561.352L695.885 564.494L693.746 563.183L695.736 560.384L692.291 560.547L692.291 558.09L695.736 558.284L693.746 555.439L695.885 554.129L697.607 557.271L699.33 554.129L701.513 555.439L699.493 558.284L702.954 558.075Z" fill="#158A7B"/>
<path d="M720.894 558.06L720.894 560.518L717.419 560.369L719.453 563.168L717.27 564.479L715.548 561.337L713.825 564.479L711.686 563.168L713.676 560.369L710.231 560.532L710.231 558.075L713.676 558.269L711.686 555.424L713.825 554.114L715.548 557.256L717.27 554.114L719.453 555.424L717.434 558.269L720.894 558.06Z" fill="#158A7B"/>
<path d="M738.834 558.045L738.834 560.503L735.359 560.354L737.394 563.154L735.211 564.464L733.488 561.322L731.765 564.464L729.626 563.154L731.617 560.354L728.171 560.518L728.171 558.06L731.617 558.254L729.626 555.409L731.765 554.099L733.488 557.241L735.211 554.099L737.394 555.409L735.374 558.254L738.834 558.045Z" fill="#158A7B"/>
<path d="M756.775 558.031L756.775 560.488L753.299 560.339L755.334 563.139L753.151 564.449L751.428 561.307L749.705 564.449L747.567 563.139L749.557 560.339L746.111 560.503L746.111 558.045L749.557 558.239L747.567 555.395L749.705 554.084L751.428 557.226L753.151 554.084L755.334 555.395L753.314 558.239L756.775 558.031Z" fill="#158A7B"/>
<path d="M787.145 558.001L787.145 560.458L783.67 560.309L785.705 563.109L783.521 564.419L781.799 561.277L780.076 564.419L777.937 563.109L779.927 560.309L776.482 560.473L776.482 558.016L779.927 558.209L777.937 555.365L780.076 554.054L781.799 557.197L783.521 554.054L785.705 555.365L783.685 558.209L787.145 558.001Z" fill="#158A7B"/>
<path d="M805.085 558.001L805.085 560.458L801.61 560.309L803.645 563.109L801.462 564.419L799.739 561.277L798.016 564.419L795.878 563.109L797.868 560.309L794.422 560.473L794.422 558.016L797.868 558.209L795.878 555.365L798.016 554.054L799.739 557.197L801.462 554.054L803.645 555.365L801.625 558.209L805.085 558.001Z" fill="#158A7B"/>
<path d="M823.026 557.986L823.026 560.443L819.536 560.279L821.57 563.079L819.387 564.39L817.664 561.247L815.942 564.39L813.803 563.079L815.793 560.279L812.348 560.443L812.348 557.986L815.793 558.179L813.803 555.335L815.942 554.024L817.664 557.167L819.387 554.024L821.57 555.335L819.551 558.179L823.026 557.986Z" fill="#158A7B"/>
<path d="M840.966 557.971L840.966 560.428L837.476 560.279L839.51 563.079L837.327 564.39L835.605 561.247L833.882 564.39L831.743 563.079L833.733 560.279L830.288 560.443L830.288 557.986L833.733 558.179L831.743 555.335L833.882 554.024L835.605 557.167L837.327 554.024L839.51 555.32L837.491 558.165L840.966 557.971Z" fill="#158A7B"/>
<path d="M871.336 557.941L871.336 560.398L867.861 560.249L869.896 563.049L867.713 564.36L865.99 561.218L864.267 564.36L862.129 563.049L864.119 560.249L860.673 560.413L860.673 557.956L864.119 558.15L862.129 555.305L864.267 553.995L865.99 557.137L867.713 553.995L869.896 555.305L867.876 558.15L871.336 557.941Z" fill="#158A7B"/>
<path d="M889.262 557.941L889.262 560.398L885.787 560.249L887.821 563.049L885.638 564.36L883.916 561.218L882.193 564.36L880.054 563.049L882.044 560.249L878.599 560.413L878.599 557.956L882.044 558.15L880.054 555.305L882.193 553.995L883.916 557.137L885.638 553.995L887.821 555.29L885.802 558.135L889.262 557.941Z" fill="#158A7B"/>
<path d="M907.202 557.926L907.202 560.384L903.727 560.235L905.762 563.034L903.578 564.345L901.856 561.203L900.133 564.345L897.994 563.034L899.984 560.235L896.539 560.398L896.539 557.941L899.984 558.135L897.994 555.29L900.133 553.98L901.856 557.122L903.578 553.98L905.762 555.29L903.742 558.135L907.202 557.926Z" fill="#158A7B"/>
<path d="M925.142 557.911L925.142 560.369L921.667 560.22L923.702 563.019L921.519 564.33L919.796 561.188L918.073 564.33L915.935 563.019L917.925 560.22L914.479 560.383L914.479 557.926L917.925 558.12L915.935 555.275L918.073 553.965L919.796 557.107L921.519 553.965L923.702 555.275L921.682 558.12L925.142 557.911Z" fill="#158A7B"/>
<path d="M944.018 581.293L944.018 578.374L953.464 568.694C955.988 566.162 957.251 563.987 957.251 562.171C957.251 560.666 956.79 559.49 955.87 558.641C954.949 557.792 953.835 557.375 952.498 557.375C949.974 557.375 948.132 558.582 946.989 560.979L944.004 559.222C944.835 557.479 946.009 556.169 947.494 555.275C948.979 554.382 950.642 553.935 952.439 553.92C954.682 553.92 956.627 554.665 958.29 556.139C959.954 557.628 960.785 559.609 960.785 562.126C960.785 564.836 959.196 567.8 956.018 571.002L949.187 577.823L961.29 577.808L961.29 581.263L944.018 581.293Z" fill="#158A7B"/>
<path d="M977.344 565.417C979.394 565.804 981.057 566.683 982.364 568.068C983.671 569.453 984.325 571.195 984.325 573.325C984.324 575.931 983.433 577.986 981.651 579.505C979.869 581.025 977.701 581.769 975.146 581.769C973.112 581.769 971.3 581.307 969.711 580.369C968.137 579.431 967.008 578.091 966.34 576.318L969.325 574.546C970.112 577.033 972.057 578.269 975.146 578.269C976.81 578.269 978.161 577.838 979.201 576.959C980.24 576.095 980.775 574.874 980.76 573.31C980.76 571.746 980.24 570.525 979.186 569.647C978.146 568.768 976.795 568.321 975.132 568.321L974.211 568.321L972.8 566.132L978.993 557.733L967.097 557.748L967.097 554.412L983.166 554.397L983.151 557.524L977.344 565.417Z" fill="#158A7B"/>
<path d="M1010.74 572.804L1010.74 576.14L1007.49 576.14L1007.49 581.248L1003.94 581.248L1003.94 576.14L990.295 576.155L990.295 572.819L999.889 554.397L1003.72 554.397L994.126 572.819L1003.96 572.819L1003.96 565.224L1007.51 565.224L1007.51 572.819L1010.74 572.804Z" fill="#158A7B"/>
<path d="M1024.73 564.851C1027.26 564.851 1029.4 565.596 1031.15 567.085C1032.9 568.574 1033.78 570.644 1033.78 573.28C1033.78 575.887 1032.89 577.942 1031.11 579.461C1029.32 580.98 1027.16 581.724 1024.6 581.724C1022.57 581.724 1020.74 581.233 1019.14 580.25C1017.53 579.267 1016.4 577.837 1015.76 575.976L1018.78 574.248C1019.14 575.559 1019.83 576.542 1020.84 577.227C1021.87 577.912 1023.12 578.24 1024.59 578.24C1026.26 578.24 1027.63 577.808 1028.68 576.929C1029.72 576.065 1030.24 574.844 1030.24 573.28C1030.24 571.717 1029.72 570.495 1028.67 569.617C1027.62 568.738 1026.28 568.291 1024.65 568.291L1017.07 568.291L1018.02 554.367L1032.71 554.352L1032.71 557.688L1021.27 557.703L1020.81 564.836L1024.73 564.851Z" fill="#158A7B"/>
<circle cx="1161.39" cy="649.032" r="47.7199" fill="#B2D4D0" stroke="white" stroke-width="8"/>
<circle cx="1229.23" cy="649.032" r="47.7199" fill="#B2D4D0" stroke="white" stroke-width="8"/>
<defs>
<clipPath id="clip0_78_116">
<rect width="128" height="128" fill="white" transform="translate(215.5 472)"/>
</clipPath>
</defs>
</svg>
